solid bracketSGTwide
facet normal 0.0 0.0 -1.0
  outer loop
    vertex 29.999999999999996 7.199999999999999 0.0
    vertex 0.0 6.1000000000000005 0.0
    vertex 0.0 7.199999999999999 0.0
  endloop
endfacet
facet normal 0.0 0.0 -1.0
  outer loop
    vertex 0.0 6.1000000000000005 0.0
    vertex 29.999999999999996 7.199999999999999 0.0
    vertex 29.999999999999996 6.1000000000000005 0.0
  endloop
endfacet
facet normal 0.0 0.0 1.0
  outer loop
    vertex 29.999999999999996 5.325 2.9999999999999996
    vertex 0.0 7.199999999999999 2.9999999999999996
    vertex 0.0 5.325 2.9999999999999996
  endloop
endfacet
facet normal 0.0 0.0 1.0
  outer loop
    vertex 0.0 7.199999999999999 2.9999999999999996
    vertex 29.999999999999996 5.325 2.9999999999999996
    vertex 29.999999999999996 7.199999999999999 2.9999999999999996
  endloop
endfacet
facet normal 0.0 1.0 0.0
  outer loop
    vertex 0.0 7.199999999999999 2.9999999999999996
    vertex 29.999999999999996 7.199999999999999 0.0
    vertex 0.0 7.199999999999999 0.0
  endloop
endfacet
facet normal 0.0 1.0 0.0
  outer loop
    vertex 29.999999999999996 7.199999999999999 0.0
    vertex 0.0 7.199999999999999 2.9999999999999996
    vertex 29.999999999999996 7.199999999999999 2.9999999999999996
  endloop
endfacet
facet normal 1.0 -0.0 -0.0
  outer loop
    vertex 29.999999999999996 3.700000000000001 0.0
    vertex 29.999999999999996 2.3000000000000016 1.4999999999999998
    vertex 29.999999999999996 2.3000000000000016 0.0
  endloop
endfacet
facet normal 1.0 -0.0 -0.0
  outer loop
    vertex 29.999999999999996 7.199999999999999 0.0
    vertex 29.999999999999996 6.1000000000000005 1.4999999999999998
    vertex 29.999999999999996 6.1000000000000005 0.0
  endloop
endfacet
facet normal 1.0 -0.0 -0.0
  outer loop
    vertex 29.999999999999996 -0.09999999999999913 0.0
    vertex 29.999999999999996 -1.2 2.9999999999999996
    vertex 29.999999999999996 -1.2 0.0
  endloop
endfacet
facet normal 1.0 -0.0 -0.0
  outer loop
    vertex 29.999999999999996 -1.2 2.9999999999999996
    vertex 29.999999999999996 -0.09999999999999913 0.0
    vertex 29.999999999999996 -0.09999999999999913 1.4999999999999998
  endloop
endfacet
facet normal 1.0 -0.0 -0.0
  outer loop
    vertex 29.999999999999996 -1.2 2.9999999999999996
    vertex 29.999999999999996 -0.09999999999999913 1.4999999999999998
    vertex 29.999999999999996 0.6749999999999998 2.9999999999999996
  endloop
endfacet
facet normal 1.0 -0.0 -0.0
  outer loop
    vertex 29.999999999999996 0.6749999999999998 2.9999999999999996
    vertex 29.999999999999996 -0.09999999999999913 1.4999999999999998
    vertex 29.999999999999996 2.3000000000000016 1.4999999999999998
  endloop
endfacet
facet normal 1.0 -0.0 -0.0
  outer loop
    vertex 29.999999999999996 0.6749999999999998 2.9999999999999996
    vertex 29.999999999999996 2.3000000000000016 1.4999999999999998
    vertex 29.999999999999996 0.6749999999999998 7.999999999999998
  endloop
endfacet
facet normal 1.0 -0.0 -0.0
  outer loop
    vertex 29.999999999999996 0.6749999999999998 7.999999999999998
    vertex 29.999999999999996 2.3000000000000016 1.4999999999999998
    vertex 29.999999999999996 2.0499999999999994 3.9999999999999996
  endloop
endfacet
facet normal 1.0 -0.0 -0.0
  outer loop
    vertex 29.999999999999996 2.0499999999999994 3.9999999999999996
    vertex 29.999999999999996 2.3000000000000016 1.4999999999999998
    vertex 29.999999999999996 3.9499999999999993 3.9999999999999996
  endloop
endfacet
facet normal 1.0 -0.0 -0.0
  outer loop
    vertex 29.999999999999996 3.9499999999999993 3.9999999999999996
    vertex 29.999999999999996 2.3000000000000016 1.4999999999999998
    vertex 29.999999999999996 3.700000000000001 1.4999999999999998
  endloop
endfacet
facet normal 1.0 -0.0 -0.0
  outer loop
    vertex 29.999999999999996 3.700000000000001 1.4999999999999998
    vertex 29.999999999999996 2.3000000000000016 1.4999999999999998
    vertex 29.999999999999996 3.700000000000001 0.0
  endloop
endfacet
facet normal 1.0 -0.0 -0.0
  outer loop
    vertex 29.999999999999996 3.9499999999999993 3.9999999999999996
    vertex 29.999999999999996 3.700000000000001 1.4999999999999998
    vertex 29.999999999999996 6.1000000000000005 1.4999999999999998
  endloop
endfacet
facet normal 1.0 -0.0 -0.0
  outer loop
    vertex 29.999999999999996 3.9499999999999993 3.9999999999999996
    vertex 29.999999999999996 6.1000000000000005 1.4999999999999998
    vertex 29.999999999999996 5.325 2.9999999999999996
  endloop
endfacet
facet normal 1.0 -0.0 -0.0
  outer loop
    vertex 29.999999999999996 3.9499999999999993 3.9999999999999996
    vertex 29.999999999999996 5.325 2.9999999999999996
    vertex 29.999999999999996 3.9499999999999993 7.999999999999998
  endloop
endfacet
facet normal 1.0 -0.0 -0.0
  outer loop
    vertex 29.999999999999996 5.325 2.9999999999999996
    vertex 29.999999999999996 6.1000000000000005 1.4999999999999998
    vertex 29.999999999999996 7.199999999999999 2.9999999999999996
  endloop
endfacet
facet normal 1.0 -0.0 -0.0
  outer loop
    vertex 29.999999999999996 7.199999999999999 2.9999999999999996
    vertex 29.999999999999996 6.1000000000000005 1.4999999999999998
    vertex 29.999999999999996 7.199999999999999 0.0
  endloop
endfacet
facet normal 1.0 -0.0 -0.0
  outer loop
    vertex 29.999999999999996 5.325 7.999999999999998
    vertex 29.999999999999996 3.9499999999999993 7.999999999999998
    vertex 29.999999999999996 5.325 2.9999999999999996
  endloop
endfacet
facet normal 1.0 -0.0 -0.0
  outer loop
    vertex 29.999999999999996 2.0499999999999994 7.999999999999998
    vertex 29.999999999999996 0.6749999999999998 7.999999999999998
    vertex 29.999999999999996 2.0499999999999994 3.9999999999999996
  endloop
endfacet
facet normal 0.0 -1.0 0.0
  outer loop
    vertex 29.999999999999996 -1.2 2.9999999999999996
    vertex 0.0 -1.2 0.0
    vertex 29.999999999999996 -1.2 0.0
  endloop
endfacet
facet normal 0.0 -1.0 0.0
  outer loop
    vertex 0.0 -1.2 0.0
    vertex 29.999999999999996 -1.2 2.9999999999999996
    vertex 0.0 -1.2 2.9999999999999996
  endloop
endfacet
facet normal -1.0 0.0 0.0
  outer loop
    vertex 0.0 2.0499999999999994 7.999999999999998
    vertex 0.0 0.6749999999999998 2.9999999999999996
    vertex 0.0 0.6749999999999998 7.999999999999998
  endloop
endfacet
facet normal -1.0 0.0 0.0
  outer loop
    vertex 0.0 5.325 7.999999999999998
    vertex 0.0 3.9499999999999993 3.9999999999999996
    vertex 0.0 3.9499999999999993 7.999999999999998
  endloop
endfacet
facet normal -1.0 0.0 0.0
  outer loop
    vertex 0.0 0.6749999999999998 2.9999999999999996
    vertex 0.0 -1.2 0.0
    vertex 0.0 -1.2 2.9999999999999996
  endloop
endfacet
facet normal -1.0 0.0 0.0
  outer loop
    vertex 0.0 -1.2 0.0
    vertex 0.0 0.6749999999999998 2.9999999999999996
    vertex 0.0 -0.09999999999999913 1.4999999999999998
  endloop
endfacet
facet normal -1.0 0.0 0.0
  outer loop
    vertex 0.0 -0.09999999999999913 1.4999999999999998
    vertex 0.0 0.6749999999999998 2.9999999999999996
    vertex 0.0 2.3000000000000016 1.4999999999999998
  endloop
endfacet
facet normal -1.0 0.0 0.0
  outer loop
    vertex 0.0 2.3000000000000016 1.4999999999999998
    vertex 0.0 0.6749999999999998 2.9999999999999996
    vertex 0.0 2.0499999999999994 3.9999999999999996
  endloop
endfacet
facet normal -1.0 0.0 0.0
  outer loop
    vertex 0.0 2.0499999999999994 3.9999999999999996
    vertex 0.0 0.6749999999999998 2.9999999999999996
    vertex 0.0 2.0499999999999994 7.999999999999998
  endloop
endfacet
facet normal -1.0 0.0 0.0
  outer loop
    vertex 0.0 2.3000000000000016 1.4999999999999998
    vertex 0.0 2.0499999999999994 3.9999999999999996
    vertex 0.0 3.9499999999999993 3.9999999999999996
  endloop
endfacet
facet normal -1.0 0.0 0.0
  outer loop
    vertex 0.0 2.3000000000000016 1.4999999999999998
    vertex 0.0 3.9499999999999993 3.9999999999999996
    vertex 0.0 2.3000000000000016 0.0
  endloop
endfacet
facet normal -1.0 0.0 0.0
  outer loop
    vertex 0.0 2.3000000000000016 0.0
    vertex 0.0 3.9499999999999993 3.9999999999999996
    vertex 0.0 3.700000000000001 1.4999999999999998
  endloop
endfacet
facet normal -1.0 0.0 0.0
  outer loop
    vertex 0.0 3.700000000000001 1.4999999999999998
    vertex 0.0 3.9499999999999993 3.9999999999999996
    vertex 0.0 6.1000000000000005 1.4999999999999998
  endloop
endfacet
facet normal -1.0 0.0 0.0
  outer loop
    vertex 0.0 6.1000000000000005 1.4999999999999998
    vertex 0.0 3.9499999999999993 3.9999999999999996
    vertex 0.0 5.325 2.9999999999999996
  endloop
endfacet
facet normal -1.0 0.0 0.0
  outer loop
    vertex 0.0 5.325 2.9999999999999996
    vertex 0.0 3.9499999999999993 3.9999999999999996
    vertex 0.0 5.325 7.999999999999998
  endloop
endfacet
facet normal -1.0 0.0 0.0
  outer loop
    vertex 0.0 6.1000000000000005 1.4999999999999998
    vertex 0.0 5.325 2.9999999999999996
    vertex 0.0 7.199999999999999 2.9999999999999996
  endloop
endfacet
facet normal -1.0 0.0 0.0
  outer loop
    vertex 0.0 6.1000000000000005 1.4999999999999998
    vertex 0.0 7.199999999999999 2.9999999999999996
    vertex 0.0 6.1000000000000005 0.0
  endloop
endfacet
facet normal -1.0 0.0 0.0
  outer loop
    vertex 0.0 6.1000000000000005 0.0
    vertex 0.0 7.199999999999999 2.9999999999999996
    vertex 0.0 7.199999999999999 0.0
  endloop
endfacet
facet normal -1.0 0.0 0.0
  outer loop
    vertex 0.0 3.700000000000001 0.0
    vertex 0.0 2.3000000000000016 0.0
    vertex 0.0 3.700000000000001 1.4999999999999998
  endloop
endfacet
facet normal -1.0 0.0 0.0
  outer loop
    vertex 0.0 -0.09999999999999913 0.0
    vertex 0.0 -1.2 0.0
    vertex 0.0 -0.09999999999999913 1.4999999999999998
  endloop
endfacet
facet normal 0.0 0.0 -1.0
  outer loop
    vertex 29.999999999999996 -0.09999999999999913 0.0
    vertex 0.0 -1.2 0.0
    vertex 0.0 -0.09999999999999913 0.0
  endloop
endfacet
facet normal 0.0 0.0 -1.0
  outer loop
    vertex 0.0 -1.2 0.0
    vertex 29.999999999999996 -0.09999999999999913 0.0
    vertex 29.999999999999996 -1.2 0.0
  endloop
endfacet
facet normal 0.0 0.0 -1.0
  outer loop
    vertex 29.999999999999996 2.3000000000000016 1.4999999999999998
    vertex 0.0 -0.09999999999999913 1.4999999999999998
    vertex 0.0 2.3000000000000016 1.4999999999999998
  endloop
endfacet
facet normal 0.0 0.0 -1.0
  outer loop
    vertex 0.0 -0.09999999999999913 1.4999999999999998
    vertex 29.999999999999996 2.3000000000000016 1.4999999999999998
    vertex 29.999999999999996 -0.09999999999999913 1.4999999999999998
  endloop
endfacet
facet normal 0.0 1.0 0.0
  outer loop
    vertex 0.0 -0.09999999999999913 1.4999999999999998
    vertex 29.999999999999996 -0.09999999999999913 0.0
    vertex 0.0 -0.09999999999999913 0.0
  endloop
endfacet
facet normal 0.0 1.0 0.0
  outer loop
    vertex 29.999999999999996 -0.09999999999999913 0.0
    vertex 0.0 -0.09999999999999913 1.4999999999999998
    vertex 29.999999999999996 -0.09999999999999913 1.4999999999999998
  endloop
endfacet
facet normal 0.0 -1.0 0.0
  outer loop
    vertex 29.999999999999996 6.1000000000000005 1.4999999999999998
    vertex 0.0 6.1000000000000005 0.0
    vertex 29.999999999999996 6.1000000000000005 0.0
  endloop
endfacet
facet normal 0.0 -1.0 0.0
  outer loop
    vertex 0.0 6.1000000000000005 0.0
    vertex 29.999999999999996 6.1000000000000005 1.4999999999999998
    vertex 0.0 6.1000000000000005 1.4999999999999998
  endloop
endfacet
facet normal 0.0 0.0 -1.0
  outer loop
    vertex 29.999999999999996 6.1000000000000005 1.4999999999999998
    vertex 0.0 3.700000000000001 1.4999999999999998
    vertex 0.0 6.1000000000000005 1.4999999999999998
  endloop
endfacet
facet normal 0.0 0.0 -1.0
  outer loop
    vertex 0.0 3.700000000000001 1.4999999999999998
    vertex 29.999999999999996 6.1000000000000005 1.4999999999999998
    vertex 29.999999999999996 3.700000000000001 1.4999999999999998
  endloop
endfacet
facet normal 0.0 0.0 -1.0
  outer loop
    vertex 29.999999999999996 3.700000000000001 0.0
    vertex 0.0 2.3000000000000016 0.0
    vertex 0.0 3.700000000000001 0.0
  endloop
endfacet
facet normal 0.0 0.0 -1.0
  outer loop
    vertex 0.0 2.3000000000000016 0.0
    vertex 29.999999999999996 3.700000000000001 0.0
    vertex 29.999999999999996 2.3000000000000016 0.0
  endloop
endfacet
facet normal 0.0 1.0 0.0
  outer loop
    vertex 0.0 3.700000000000001 1.4999999999999998
    vertex 29.999999999999996 3.700000000000001 0.0
    vertex 0.0 3.700000000000001 0.0
  endloop
endfacet
facet normal 0.0 1.0 0.0
  outer loop
    vertex 29.999999999999996 3.700000000000001 0.0
    vertex 0.0 3.700000000000001 1.4999999999999998
    vertex 29.999999999999996 3.700000000000001 1.4999999999999998
  endloop
endfacet
facet normal 0.0 -1.0 0.0
  outer loop
    vertex 29.999999999999996 2.3000000000000016 1.4999999999999998
    vertex 0.0 2.3000000000000016 0.0
    vertex 29.999999999999996 2.3000000000000016 0.0
  endloop
endfacet
facet normal 0.0 -1.0 0.0
  outer loop
    vertex 0.0 2.3000000000000016 0.0
    vertex 29.999999999999996 2.3000000000000016 1.4999999999999998
    vertex 0.0 2.3000000000000016 1.4999999999999998
  endloop
endfacet
facet normal 0.0 0.0 1.0
  outer loop
    vertex 29.999999999999996 2.0499999999999994 3.9999999999999996
    vertex 0.0 3.9499999999999993 3.9999999999999996
    vertex 0.0 2.0499999999999994 3.9999999999999996
  endloop
endfacet
facet normal 0.0 0.0 1.0
  outer loop
    vertex 0.0 3.9499999999999993 3.9999999999999996
    vertex 29.999999999999996 2.0499999999999994 3.9999999999999996
    vertex 29.999999999999996 3.9499999999999993 3.9999999999999996
  endloop
endfacet
facet normal 0.0 0.0 1.0
  outer loop
    vertex 29.999999999999996 -1.2 2.9999999999999996
    vertex 0.0 0.6749999999999998 2.9999999999999996
    vertex 0.0 -1.2 2.9999999999999996
  endloop
endfacet
facet normal 0.0 0.0 1.0
  outer loop
    vertex 0.0 0.6749999999999998 2.9999999999999996
    vertex 29.999999999999996 -1.2 2.9999999999999996
    vertex 29.999999999999996 0.6749999999999998 2.9999999999999996
  endloop
endfacet
facet normal 0.0 0.0 1.0
  outer loop
    vertex 29.999999999999996 3.9499999999999993 7.999999999999998
    vertex 0.0 5.325 7.999999999999998
    vertex 0.0 3.9499999999999993 7.999999999999998
  endloop
endfacet
facet normal 0.0 0.0 1.0
  outer loop
    vertex 0.0 5.325 7.999999999999998
    vertex 29.999999999999996 3.9499999999999993 7.999999999999998
    vertex 29.999999999999996 5.325 7.999999999999998
  endloop
endfacet
facet normal 0.0 1.0 0.0
  outer loop
    vertex 0.0 5.325 7.999999999999998
    vertex 29.999999999999996 5.325 2.9999999999999996
    vertex 0.0 5.325 2.9999999999999996
  endloop
endfacet
facet normal 0.0 1.0 0.0
  outer loop
    vertex 29.999999999999996 5.325 2.9999999999999996
    vertex 0.0 5.325 7.999999999999998
    vertex 29.999999999999996 5.325 7.999999999999998
  endloop
endfacet
facet normal 0.0 -1.0 0.0
  outer loop
    vertex 29.999999999999996 3.9499999999999993 7.999999999999998
    vertex 0.0 3.9499999999999993 3.9999999999999996
    vertex 29.999999999999996 3.9499999999999993 3.9999999999999996
  endloop
endfacet
facet normal 0.0 -1.0 0.0
  outer loop
    vertex 0.0 3.9499999999999993 3.9999999999999996
    vertex 29.999999999999996 3.9499999999999993 7.999999999999998
    vertex 0.0 3.9499999999999993 7.999999999999998
  endloop
endfacet
facet normal 0.0 0.0 1.0
  outer loop
    vertex 29.999999999999996 0.6749999999999998 7.999999999999998
    vertex 0.0 2.0499999999999994 7.999999999999998
    vertex 0.0 0.6749999999999998 7.999999999999998
  endloop
endfacet
facet normal 0.0 0.0 1.0
  outer loop
    vertex 0.0 2.0499999999999994 7.999999999999998
    vertex 29.999999999999996 0.6749999999999998 7.999999999999998
    vertex 29.999999999999996 2.0499999999999994 7.999999999999998
  endloop
endfacet
facet normal 0.0 -1.0 0.0
  outer loop
    vertex 29.999999999999996 0.6749999999999998 7.999999999999998
    vertex 0.0 0.6749999999999998 2.9999999999999996
    vertex 29.999999999999996 0.6749999999999998 2.9999999999999996
  endloop
endfacet
facet normal 0.0 -1.0 0.0
  outer loop
    vertex 0.0 0.6749999999999998 2.9999999999999996
    vertex 29.999999999999996 0.6749999999999998 7.999999999999998
    vertex 0.0 0.6749999999999998 7.999999999999998
  endloop
endfacet
facet normal 0.0 1.0 0.0
  outer loop
    vertex 0.0 2.0499999999999994 7.999999999999998
    vertex 29.999999999999996 2.0499999999999994 3.9999999999999996
    vertex 0.0 2.0499999999999994 3.9999999999999996
  endloop
endfacet
facet normal 0.0 1.0 0.0
  outer loop
    vertex 29.999999999999996 2.0499999999999994 3.9999999999999996
    vertex 0.0 2.0499999999999994 7.999999999999998
    vertex 29.999999999999996 2.0499999999999994 7.999999999999998
  endloop
endfacet
endsolid bracketSGTwide
