solid RFIDtagholderWindTurbine
facet normal 0.0 0.0 -1.0
  outer loop
    vertex 4.773846228004001 95.88500989711147 0.0
    vertex 4.698463103929553 95.60367624803237 0.0
    vertex 4.330127018922195 94.81377696466072 0.0
  endloop
endfacet
facet normal 0.0 0.0 -1.0
  outer loop
    vertex 2.500000000000001 92.98364994573853 0.0
    vertex 0.0 57.313776964660725 0.0
    vertex 1.762479051592436e-16 92.98364994573853 0.0
  endloop
endfacet
facet normal 0.0 0.0 -1.0
  outer loop
    vertex 1.1495745374137083 102.16243260564734 0.0
    vertex 6.123233995736768e-16 102.31377696466073 0.0
    vertex 0.8682408883346552 102.23781572972177 0.0
  endloop
endfacet
facet normal 0.0 0.0 -1.0
  outer loop
    vertex 5.000000000000002 97.31377696466072 0.0
    vertex 4.924038765061053 96.44553607632606 0.0
    vertex 4.848655640986605 96.16420242724696 0.0
  endloop
endfacet
facet normal 0.0 0.0 -1.0
  outer loop
    vertex 2.5000000000000027 101.64390398358292 0.0
    vertex 1.4287670675492936 102.08762319266471 0.0
    vertex 1.7101007166283497 102.01224006859027 0.0
  endloop
endfacet
facet normal 0.0 0.0 -1.0
  outer loop
    vertex -3.6242716905902777 93.89388839122341 0.0
    vertex -4.095760221444962 94.4458947829055 0.0
    vertex -4.330127018922197 94.81377696466072 0.0
  endloop
endfacet
facet normal 0.0 0.0 -1.0
  outer loop
    vertex -4.095760221444962 94.4458947829055 0.0
    vertex -3.6242716905902777 93.89388839122341 0.0
    vertex -3.8302222155948935 94.09983891622802 0.0
  endloop
endfacet
facet normal 0.0 0.0 -1.0
  outer loop
    vertex -3.7499999999999982 99.47884047412181 0.0
    vertex -5.000000000000002 97.31377696466072 0.0
    vertex -34.641016151377535 117.31377696466075 0.0
  endloop
endfacet
facet normal 0.0 0.0 -1.0
  outer loop
    vertex -2.500000000000003 92.98364994573853 0.0
    vertex -3.2139380484326994 93.48355474906583 0.0
    vertex -3.419888573437327 93.68950527407046 0.0
  endloop
endfacet
facet normal 0.0 0.0 -1.0
  outer loop
    vertex -3.2139380484326994 93.48355474906583 0.0
    vertex -2.500000000000003 92.98364994573853 0.0
    vertex -2.8678821817552356 93.21801674321577 0.0
  endloop
endfacet
facet normal 0.0 0.0 -1.0
  outer loop
    vertex -1.4287670675492896 102.08762319266471 0.0
    vertex -2.4999999999999996 101.64390398358292 0.0
    vertex -1.7101007166283466 102.01224006859027 0.0
  endloop
endfacet
facet normal 0.0 0.0 -1.0
  outer loop
    vertex -2.4999999999999996 101.64390398358292 0.0
    vertex -3.7499999999999982 99.47884047412181 0.0
    vertex -34.641016151377535 117.31377696466075 0.0
  endloop
endfacet
facet normal 0.0 0.0 -1.0
  outer loop
    vertex -4.848655640986616 96.16420242724703 0.0
    vertex -4.98097349045873 96.87799825092242 0.0
    vertex -5.000000000000002 97.31377696466072 0.0
  endloop
endfacet
facet normal 0.0 0.0 -1.0
  outer loop
    vertex -4.98097349045873 96.87799825092242 0.0
    vertex -4.848655640986616 96.16420242724703 0.0
    vertex -4.924038765061043 96.44553607632606 0.0
  endloop
endfacet
facet normal 0.0 0.0 -1.0
  outer loop
    vertex -4.330127018922197 94.81377696466072 0.0
    vertex -4.698463103929544 95.60367624803237 0.0
    vertex -4.773846228003974 95.8850098971114 0.0
  endloop
endfacet
facet normal 0.0 0.0 -1.0
  outer loop
    vertex -4.698463103929544 95.60367624803237 0.0
    vertex -4.330127018922197 94.81377696466072 0.0
    vertex -4.531538935183252 95.20068565595723 0.0
  endloop
endfacet
facet normal 0.0 0.0 -1.0
  outer loop
    vertex 6.123233995736768e-16 102.31377696466073 0.0
    vertex -1.149574537413706 102.16243260564734 0.0
    vertex -0.8682408883346531 102.23781572972177 0.0
  endloop
endfacet
facet normal 0.8660254037844385 0.5000000000000003 -0.0
  outer loop
    vertex 2.5000000000000027 101.64390398358292 0.0
    vertex 3.750000000000003 99.47884047412181 0.0
    vertex 3.750000000000003 99.47884047412181 -5.0
  endloop
endfacet
facet normal 0.6087614290087265 -0.7933533402912306 0.0
  outer loop
    vertex -1.2499999999999971 99.47884047412181 0.0
    vertex -1.7677669529663647 99.08154391762709 -5.0
    vertex -1.2499999999999971 99.47884047412181 -5.0
  endloop
endfacet
facet normal 0.6087614290087265 -0.7933533402912306 0.0
  outer loop
    vertex -1.7677669529663647 99.08154391762709 -5.0
    vertex -1.2499999999999971 99.47884047412181 0.0
    vertex -1.7677669529663647 99.08154391762709 0.0
  endloop
endfacet
facet normal 0.38268343236508306 0.9238795325112895 0.0
  outer loop
    vertex -1.2499999999999987 95.14871345519963 0.0
    vertex -0.6470476127563027 94.89896239893805 -5.0
    vertex -1.2499999999999987 95.14871345519963 -5.0
  endloop
endfacet
facet normal 0.38268343236508306 0.9238795325112895 0.0
  outer loop
    vertex -0.6470476127563027 94.89896239893805 -5.0
    vertex -1.2499999999999987 95.14871345519963 0.0
    vertex -0.6470476127563027 94.89896239893805 0.0
  endloop
endfacet
facet normal 0.7933533402912323 -0.6087614290087244 0.0
  outer loop
    vertex 4.330127018922195 94.81377696466072 -5.0
    vertex 3.5355339059327386 93.77824305872798 0.0
    vertex 3.5355339059327386 93.77824305872798 -5.0
  endloop
endfacet
facet normal 0.7933533402912323 -0.6087614290087244 0.0
  outer loop
    vertex 3.5355339059327386 93.77824305872798 0.0
    vertex 4.330127018922195 94.81377696466072 -5.0
    vertex 4.330127018922195 94.81377696466072 0.0
  endloop
endfacet
facet normal -0.6087614290087419 -0.7933533402912188 -0.0
  outer loop
    vertex -3.419888573437327 93.68950527407046 0.0
    vertex -3.53553390593274 93.77824305872798 -5.0
    vertex -3.419888573437327 93.68950527407046 -5.0
  endloop
endfacet
facet normal -0.6087614290087419 -0.7933533402912188 -0.0
  outer loop
    vertex -3.53553390593274 93.77824305872798 -5.0
    vertex -3.419888573437327 93.68950527407046 0.0
    vertex -3.53553390593274 93.77824305872798 0.0
  endloop
endfacet
facet normal -0.9238795325112863 -0.38268343236509095 -0.0
  outer loop
    vertex -4.773846228003974 95.8850098971114 0.0
    vertex -4.330127018922197 94.81377696466072 -5.0
    vertex -4.330127018922197 94.81377696466072 0.0
  endloop
endfacet
facet normal -0.9238795325112863 -0.38268343236509095 -0.0
  outer loop
    vertex -4.330127018922197 94.81377696466072 -5.0
    vertex -4.773846228003974 95.8850098971114 0.0
    vertex -4.773846228003974 95.8850098971114 -5.0
  endloop
endfacet
facet normal -0.13052619222005615 -0.9914448613738098 -0.0
  outer loop
    vertex 0.6470476127563014 99.72859153038338 0.0
    vertex 3.0616169978683777e-16 99.81377696466072 -5.0
    vertex 0.6470476127563014 99.72859153038338 -5.0
  endloop
endfacet
facet normal -0.13052619222005615 -0.9914448613738098 -0.0
  outer loop
    vertex 3.0616169978683777e-16 99.81377696466072 -5.0
    vertex 0.6470476127563014 99.72859153038338 0.0
    vertex 3.0616169978683777e-16 99.81377696466072 0.0
  endloop
endfacet
facet normal 0.9914448613738105 -0.1305261922200522 0.0
  outer loop
    vertex 5.000000000000002 97.31377696466072 -5.0
    vertex 4.848655640986605 96.16420242724696 0.0
    vertex 4.848655640986605 96.16420242724696 -5.0
  endloop
endfacet
facet normal 0.9914448613738105 -0.1305261922200522 0.0
  outer loop
    vertex 4.848655640986605 96.16420242724696 0.0
    vertex 5.000000000000002 97.31377696466072 -5.0
    vertex 5.000000000000002 97.31377696466072 0.0
  endloop
endfacet
facet normal 0.9914448613738106 0.13052619222005082 0.0
  outer loop
    vertex -2.4999999999999956 97.31377696466072 -5.0
    vertex -2.4148145657226667 96.66672935190442 0.0
    vertex -2.4148145657226667 96.66672935190442 -5.0
  endloop
endfacet
facet normal 0.9914448613738106 0.13052619222005082 0.0
  outer loop
    vertex -2.4148145657226667 96.66672935190442 0.0
    vertex -2.4999999999999956 97.31377696466072 -5.0
    vertex -2.4999999999999956 97.31377696466072 0.0
  endloop
endfacet
facet normal -0.8660254037844387 0.49999999999999983 0.0
  outer loop
    vertex -2.4999999999999996 101.64390398358292 -5.0
    vertex -3.7499999999999982 99.47884047412181 -5.0
    vertex -2.4999999999999996 101.64390398358292 0.0
  endloop
endfacet
facet normal -0.608761429008727 -0.7933533402912304 -0.0
  outer loop
    vertex 1.7677669529663658 99.08154391762709 0.0
    vertex 1.2499999999999987 99.47884047412181 -5.0
    vertex 1.7677669529663658 99.08154391762709 -5.0
  endloop
endfacet
facet normal -0.608761429008727 -0.7933533402912304 -0.0
  outer loop
    vertex 1.2499999999999987 99.47884047412181 -5.0
    vertex 1.7677669529663658 99.08154391762709 0.0
    vertex 1.2499999999999987 99.47884047412181 0.0
  endloop
endfacet
facet normal 0.9914448613738105 -0.1305261922200524 0.0
  outer loop
    vertex -2.414814565722666 97.96082457741701 -5.0
    vertex -2.4999999999999956 97.31377696466072 0.0
    vertex -2.4999999999999956 97.31377696466072 -5.0
  endloop
endfacet
facet normal 0.9914448613738105 -0.1305261922200524 0.0
  outer loop
    vertex -2.4999999999999956 97.31377696466072 0.0
    vertex -2.414814565722666 97.96082457741701 -5.0
    vertex -2.414814565722666 97.96082457741701 0.0
  endloop
endfacet
facet normal -0.13052619222005624 0.9914448613738098 0.0
  outer loop
    vertex 0.0 94.81377696466072 0.0
    vertex 0.6470476127563006 94.89896239893805 -5.0
    vertex 0.0 94.81377696466072 -5.0
  endloop
endfacet
facet normal -0.13052619222005624 0.9914448613738098 0.0
  outer loop
    vertex 0.6470476127563006 94.89896239893805 -5.0
    vertex 0.0 94.81377696466072 0.0
    vertex 0.6470476127563006 94.89896239893805 0.0
  endloop
endfacet
facet normal -0.1305261922200662 0.9914448613738086 0.0
  outer loop
    vertex -1.2940952255126024 102.14340609610606 0.0
    vertex -1.149574537413706 102.16243260564734 -5.0
    vertex -1.2940952255126024 102.14340609610606 -5.0
  endloop
endfacet
facet normal -0.1305261922200662 0.9914448613738086 0.0
  outer loop
    vertex -1.149574537413706 102.16243260564734 -5.0
    vertex -1.2940952255126024 102.14340609610606 0.0
    vertex -1.149574537413706 102.16243260564734 0.0
  endloop
endfacet
facet normal -0.7933533402912338 -0.6087614290087223 -0.0
  outer loop
    vertex -4.330127018922197 94.81377696466072 0.0
    vertex -3.6242716905902777 93.89388839122341 -5.0
    vertex -3.6242716905902777 93.89388839122341 0.0
  endloop
endfacet
facet normal -0.7933533402912338 -0.6087614290087223 -0.0
  outer loop
    vertex -3.6242716905902777 93.89388839122341 -5.0
    vertex -4.330127018922197 94.81377696466072 0.0
    vertex -4.330127018922197 94.81377696466072 -5.0
  endloop
endfacet
facet normal 0.0 -1.0 0.0
  outer loop
    vertex -2.500000000000003 92.98364994573853 0.0
    vertex -2.500000000000003 92.98364994573853 -5.0
    vertex 1.762479051592436e-16 92.98364994573853 -5.0
  endloop
endfacet
facet normal -0.3826834323650946 0.923879532511285 0.0
  outer loop
    vertex -2.4999999999999996 101.64390398358292 0.0
    vertex -1.4287670675492896 102.08762319266471 -5.0
    vertex -2.4999999999999996 101.64390398358292 -5.0
  endloop
endfacet
facet normal -0.3826834323650946 0.923879532511285 0.0
  outer loop
    vertex -1.4287670675492896 102.08762319266471 -5.0
    vertex -2.4999999999999996 101.64390398358292 0.0
    vertex -1.4287670675492896 102.08762319266471 0.0
  endloop
endfacet
facet normal 0.9914448613738107 -0.1305261922200493 0.0
  outer loop
    vertex 4.848655640986605 96.16420242724696 -5.0
    vertex 4.829629131445343 96.01968173914811 0.0
    vertex 4.829629131445343 96.01968173914811 -5.0
  endloop
endfacet
facet normal 0.9914448613738107 -0.1305261922200493 0.0
  outer loop
    vertex 4.829629131445343 96.01968173914811 0.0
    vertex 4.848655640986605 96.16420242724696 -5.0
    vertex 4.848655640986605 96.16420242724696 0.0
  endloop
endfacet
facet normal 0.7933533402912332 -0.6087614290087235 0.0
  outer loop
    vertex -1.7677669529663647 99.08154391762709 -5.0
    vertex -2.165063509461092 98.56377696466072 0.0
    vertex -2.165063509461092 98.56377696466072 -5.0
  endloop
endfacet
facet normal 0.7933533402912332 -0.6087614290087235 0.0
  outer loop
    vertex -2.165063509461092 98.56377696466072 0.0
    vertex -1.7677669529663647 99.08154391762709 -5.0
    vertex -1.7677669529663647 99.08154391762709 0.0
  endloop
endfacet
facet normal 0.9238795325112911 -0.3826834323650798 0.0
  outer loop
    vertex 4.829629131445343 96.01968173914811 -5.0
    vertex 4.773846228004001 95.88500989711147 0.0
    vertex 4.773846228004001 95.88500989711147 -5.0
  endloop
endfacet
facet normal 0.9238795325112911 -0.3826834323650798 0.0
  outer loop
    vertex 4.773846228004001 95.88500989711147 0.0
    vertex 4.829629131445343 96.01968173914811 -5.0
    vertex 4.829629131445343 96.01968173914811 0.0
  endloop
endfacet
facet normal -0.3826834323650827 0.9238795325112898 0.0
  outer loop
    vertex 0.6470476127563006 94.89896239893805 0.0
    vertex 1.2499999999999976 95.14871345519963 -5.0
    vertex 0.6470476127563006 94.89896239893805 -5.0
  endloop
endfacet
facet normal -0.3826834323650827 0.9238795325112898 0.0
  outer loop
    vertex 1.2499999999999976 95.14871345519963 -5.0
    vertex 0.6470476127563006 94.89896239893805 0.0
    vertex 1.2499999999999976 95.14871345519963 0.0
  endloop
endfacet
facet normal 0.9238795325112866 -0.3826834323650902 0.0
  outer loop
    vertex -2.165063509461092 98.56377696466072 -5.0
    vertex -2.414814565722666 97.96082457741701 0.0
    vertex -2.414814565722666 97.96082457741701 -5.0
  endloop
endfacet
facet normal 0.9238795325112866 -0.3826834323650902 0.0
  outer loop
    vertex -2.414814565722666 97.96082457741701 0.0
    vertex -2.165063509461092 98.56377696466072 -5.0
    vertex -2.165063509461092 98.56377696466072 0.0
  endloop
endfacet
facet normal 0.13052619222005468 0.99144486137381 0.0
  outer loop
    vertex 6.123233995736768e-16 102.31377696466073 0.0
    vertex 1.1495745374137083 102.16243260564734 -5.0
    vertex 6.123233995736768e-16 102.31377696466073 -5.0
  endloop
endfacet
facet normal 0.13052619222005468 0.99144486137381 0.0
  outer loop
    vertex 1.1495745374137083 102.16243260564734 -5.0
    vertex 6.123233995736768e-16 102.31377696466073 0.0
    vertex 1.1495745374137083 102.16243260564734 0.0
  endloop
endfacet
facet normal 0.923879532511287 0.3826834323650893 0.0
  outer loop
    vertex -2.4148145657226667 96.66672935190442 -5.0
    vertex -2.1650635094610937 96.06377696466072 0.0
    vertex -2.1650635094610937 96.06377696466072 -5.0
  endloop
endfacet
facet normal 0.923879532511287 0.3826834323650893 0.0
  outer loop
    vertex -2.1650635094610937 96.06377696466072 0.0
    vertex -2.4148145657226667 96.66672935190442 -5.0
    vertex -2.4148145657226667 96.66672935190442 0.0
  endloop
endfacet
facet normal 0.7933533402912325 0.6087614290087241 0.0
  outer loop
    vertex -2.1650635094610937 96.06377696466072 -5.0
    vertex -1.7677669529663658 95.54601001169436 0.0
    vertex -1.7677669529663658 95.54601001169436 -5.0
  endloop
endfacet
facet normal 0.7933533402912325 0.6087614290087241 0.0
  outer loop
    vertex -1.7677669529663658 95.54601001169436 0.0
    vertex -2.1650635094610937 96.06377696466072 -5.0
    vertex -2.1650635094610937 96.06377696466072 0.0
  endloop
endfacet
facet normal 0.13052619222006526 0.9914448613738087 0.0
  outer loop
    vertex 1.1495745374137083 102.16243260564734 0.0
    vertex 1.2940952255126055 102.14340609610606 -5.0
    vertex 1.1495745374137083 102.16243260564734 -5.0
  endloop
endfacet
facet normal 0.13052619222006526 0.9914448613738087 0.0
  outer loop
    vertex 1.2940952255126055 102.14340609610606 -5.0
    vertex 1.1495745374137083 102.16243260564734 0.0
    vertex 1.2940952255126055 102.14340609610606 0.0
  endloop
endfacet
facet normal 0.3826834323650948 0.9238795325112847 0.0
  outer loop
    vertex 1.4287670675492936 102.08762319266471 0.0
    vertex 2.5000000000000027 101.64390398358292 -5.0
    vertex 1.4287670675492936 102.08762319266471 -5.0
  endloop
endfacet
facet normal 0.3826834323650948 0.9238795325112847 0.0
  outer loop
    vertex 2.5000000000000027 101.64390398358292 -5.0
    vertex 1.4287670675492936 102.08762319266471 0.0
    vertex 2.5000000000000027 101.64390398358292 0.0
  endloop
endfacet
facet normal -0.9238795325112906 -0.38268343236508073 -0.0
  outer loop
    vertex -4.829629131445344 96.01968173914811 0.0
    vertex -4.773846228003974 95.8850098971114 -5.0
    vertex -4.773846228003974 95.8850098971114 0.0
  endloop
endfacet
facet normal -0.9238795325112906 -0.38268343236508073 -0.0
  outer loop
    vertex -4.773846228003974 95.8850098971114 -5.0
    vertex -4.829629131445344 96.01968173914811 0.0
    vertex -4.829629131445344 96.01968173914811 -5.0
  endloop
endfacet
facet normal -0.9238795325112866 -0.3826834323650902 -0.0
  outer loop
    vertex 2.165063509461093 98.56377696466072 0.0
    vertex 2.4148145657226663 97.96082457741701 -5.0
    vertex 2.4148145657226663 97.96082457741701 0.0
  endloop
endfacet
facet normal -0.9238795325112866 -0.3826834323650902 -0.0
  outer loop
    vertex 2.4148145657226663 97.96082457741701 -5.0
    vertex 2.165063509461093 98.56377696466072 0.0
    vertex 2.165063509461093 98.56377696466072 -5.0
  endloop
endfacet
facet normal -0.6087614290087264 0.7933533402912307 0.0
  outer loop
    vertex 1.2499999999999976 95.14871345519963 0.0
    vertex 1.7677669529663655 95.54601001169436 -5.0
    vertex 1.2499999999999976 95.14871345519963 -5.0
  endloop
endfacet
facet normal -0.6087614290087264 0.7933533402912307 0.0
  outer loop
    vertex 1.7677669529663655 95.54601001169436 -5.0
    vertex 1.2499999999999976 95.14871345519963 0.0
    vertex 1.7677669529663655 95.54601001169436 0.0
  endloop
endfacet
facet normal -0.7933533402912459 -0.6087614290087067 -0.0
  outer loop
    vertex -3.6242716905902777 93.89388839122341 0.0
    vertex -3.53553390593274 93.77824305872798 -5.0
    vertex -3.53553390593274 93.77824305872798 0.0
  endloop
endfacet
facet normal -0.7933533402912459 -0.6087614290087067 -0.0
  outer loop
    vertex -3.53553390593274 93.77824305872798 -5.0
    vertex -3.6242716905902777 93.89388839122341 0.0
    vertex -3.6242716905902777 93.89388839122341 -5.0
  endloop
endfacet
facet normal -0.9914448613738105 -0.13052619222005077 -0.0
  outer loop
    vertex -5.000000000000002 97.31377696466072 0.0
    vertex -4.848655640986616 96.16420242724703 -5.0
    vertex -4.848655640986616 96.16420242724703 0.0
  endloop
endfacet
facet normal -0.9914448613738105 -0.13052619222005077 -0.0
  outer loop
    vertex -4.848655640986616 96.16420242724703 -5.0
    vertex -5.000000000000002 97.31377696466072 0.0
    vertex -5.000000000000002 97.31377696466072 -5.0
  endloop
endfacet
facet normal -0.13052619222005482 0.9914448613738102 0.0
  outer loop
    vertex -1.149574537413706 102.16243260564734 0.0
    vertex 6.123233995736768e-16 102.31377696466073 -5.0
    vertex -1.149574537413706 102.16243260564734 -5.0
  endloop
endfacet
facet normal -0.13052619222005482 0.9914448613738102 0.0
  outer loop
    vertex 6.123233995736768e-16 102.31377696466073 -5.0
    vertex -1.149574537413706 102.16243260564734 0.0
    vertex 6.123233995736768e-16 102.31377696466073 0.0
  endloop
endfacet
facet normal -0.608761429008718 -0.7933533402912374 -0.0
  outer loop
    vertex -2.500000000000003 92.98364994573853 0.0
    vertex -3.419888573437327 93.68950527407046 -5.0
    vertex -2.500000000000003 92.98364994573853 -5.0
  endloop
endfacet
facet normal -0.608761429008718 -0.7933533402912374 -0.0
  outer loop
    vertex -3.419888573437327 93.68950527407046 -5.0
    vertex -2.500000000000003 92.98364994573853 0.0
    vertex -3.419888573437327 93.68950527407046 0.0
  endloop
endfacet
facet normal 0.3826834323650824 -0.9238795325112898 0.0
  outer loop
    vertex -0.6470476127562997 99.72859153038338 0.0
    vertex -1.2499999999999971 99.47884047412181 -5.0
    vertex -0.6470476127562997 99.72859153038338 -5.0
  endloop
endfacet
facet normal 0.3826834323650824 -0.9238795325112898 0.0
  outer loop
    vertex -1.2499999999999971 99.47884047412181 -5.0
    vertex -0.6470476127562997 99.72859153038338 0.0
    vertex -1.2499999999999971 99.47884047412181 0.0
  endloop
endfacet
facet normal -0.8660254037844379 0.5000000000000017 3.1265527356603e-17
  outer loop
    vertex -3.7499999999999982 99.47884047412181 -5.0
    vertex -5.000000000000002 97.31377696466072 -5.0
    vertex -5.000000000000002 97.31377696466072 0.0
  endloop
endfacet
facet normal -0.9238795325112868 0.3826834323650898 0.0
  outer loop
    vertex 2.414814565722666 96.66672935190442 0.0
    vertex 2.165063509461093 96.06377696466072 -5.0
    vertex 2.165063509461093 96.06377696466072 0.0
  endloop
endfacet
facet normal -0.9238795325112868 0.3826834323650898 0.0
  outer loop
    vertex 2.165063509461093 96.06377696466072 -5.0
    vertex 2.414814565722666 96.66672935190442 0.0
    vertex 2.414814565722666 96.66672935190442 -5.0
  endloop
endfacet
facet normal 0.13052619222005582 0.9914448613738098 0.0
  outer loop
    vertex -0.6470476127563027 94.89896239893805 0.0
    vertex 0.0 94.81377696466072 -5.0
    vertex -0.6470476127563027 94.89896239893805 -5.0
  endloop
endfacet
facet normal 0.13052619222005582 0.9914448613738098 0.0
  outer loop
    vertex 0.0 94.81377696466072 -5.0
    vertex -0.6470476127563027 94.89896239893805 0.0
    vertex 0.0 94.81377696466072 0.0
  endloop
endfacet
facet normal -0.9914448613738106 -0.13052619222005135 -0.0
  outer loop
    vertex 2.4148145657226663 97.96082457741701 0.0
    vertex 2.4999999999999956 97.31377696466072 -5.0
    vertex 2.4999999999999956 97.31377696466072 0.0
  endloop
endfacet
facet normal -0.9914448613738106 -0.13052619222005135 -0.0
  outer loop
    vertex 2.4999999999999956 97.31377696466072 -5.0
    vertex 2.4148145657226663 97.96082457741701 0.0
    vertex 2.4148145657226663 97.96082457741701 -5.0
  endloop
endfacet
facet normal 0.8660254037844387 0.4999999999999999 -0.0
  outer loop
    vertex 3.750000000000003 99.47884047412181 -5.0
    vertex 5.000000000000002 97.31377696466072 0.0
    vertex 5.000000000000002 97.31377696466072 -5.0
  endloop
endfacet
facet normal 0.6087614290087271 0.7933533402912302 0.0
  outer loop
    vertex -1.7677669529663658 95.54601001169436 0.0
    vertex -1.2499999999999987 95.14871345519963 -5.0
    vertex -1.7677669529663658 95.54601001169436 -5.0
  endloop
endfacet
facet normal 0.6087614290087271 0.7933533402912302 0.0
  outer loop
    vertex -1.2499999999999987 95.14871345519963 -5.0
    vertex -1.7677669529663658 95.54601001169436 0.0
    vertex -1.2499999999999987 95.14871345519963 0.0
  endloop
endfacet
facet normal 0.6087614290087202 -0.7933533402912356 0.0
  outer loop
    vertex 3.5355339059327386 93.77824305872798 0.0
    vertex 2.500000000000001 92.98364994573853 -5.0
    vertex 3.5355339059327386 93.77824305872798 -5.0
  endloop
endfacet
facet normal 0.6087614290087202 -0.7933533402912356 0.0
  outer loop
    vertex 2.500000000000001 92.98364994573853 -5.0
    vertex 3.5355339059327386 93.77824305872798 0.0
    vertex 2.500000000000001 92.98364994573853 0.0
  endloop
endfacet
facet normal -0.7933533402912332 0.6087614290087235 0.0
  outer loop
    vertex 2.165063509461093 96.06377696466072 0.0
    vertex 1.7677669529663655 95.54601001169436 -5.0
    vertex 1.7677669529663655 95.54601001169436 0.0
  endloop
endfacet
facet normal -0.7933533402912332 0.6087614290087235 0.0
  outer loop
    vertex 1.7677669529663655 95.54601001169436 -5.0
    vertex 2.165063509461093 96.06377696466072 0.0
    vertex 2.165063509461093 96.06377696466072 -5.0
  endloop
endfacet
facet normal -0.9914448613738099 -0.13052619222005576 -0.0
  outer loop
    vertex -4.848655640986616 96.16420242724703 0.0
    vertex -4.829629131445344 96.01968173914811 -5.0
    vertex -4.829629131445344 96.01968173914811 0.0
  endloop
endfacet
facet normal -0.9914448613738099 -0.13052619222005576 -0.0
  outer loop
    vertex -4.829629131445344 96.01968173914811 -5.0
    vertex -4.848655640986616 96.16420242724703 0.0
    vertex -4.848655640986616 96.16420242724703 -5.0
  endloop
endfacet
facet normal -0.3826834323651113 0.9238795325112779 0.0
  outer loop
    vertex -1.4287670675492896 102.08762319266471 0.0
    vertex -1.2940952255126024 102.14340609610606 -5.0
    vertex -1.4287670675492896 102.08762319266471 -5.0
  endloop
endfacet
facet normal -0.3826834323651113 0.9238795325112779 0.0
  outer loop
    vertex -1.2940952255126024 102.14340609610606 -5.0
    vertex -1.4287670675492896 102.08762319266471 0.0
    vertex -1.2940952255126024 102.14340609610606 0.0
  endloop
endfacet
facet normal -0.7933533402912333 -0.6087614290087231 -0.0
  outer loop
    vertex 1.7677669529663658 99.08154391762709 0.0
    vertex 2.165063509461093 98.56377696466072 -5.0
    vertex 2.165063509461093 98.56377696466072 0.0
  endloop
endfacet
facet normal -0.7933533402912333 -0.6087614290087231 -0.0
  outer loop
    vertex 2.165063509461093 98.56377696466072 -5.0
    vertex 1.7677669529663658 99.08154391762709 0.0
    vertex 1.7677669529663658 99.08154391762709 -5.0
  endloop
endfacet
facet normal 0.9238795325112873 -0.38268343236508867 0.0
  outer loop
    vertex 4.773846228004001 95.88500989711147 -5.0
    vertex 4.330127018922195 94.81377696466072 0.0
    vertex 4.330127018922195 94.81377696466072 -5.0
  endloop
endfacet
facet normal 0.9238795325112873 -0.38268343236508867 0.0
  outer loop
    vertex 4.330127018922195 94.81377696466072 0.0
    vertex 4.773846228004001 95.88500989711147 -5.0
    vertex 4.773846228004001 95.88500989711147 0.0
  endloop
endfacet
facet normal 0.13052619222005638 -0.9914448613738098 0.0
  outer loop
    vertex 3.0616169978683777e-16 99.81377696466072 0.0
    vertex -0.6470476127562997 99.72859153038338 -5.0
    vertex 3.0616169978683777e-16 99.81377696466072 -5.0
  endloop
endfacet
facet normal 0.13052619222005638 -0.9914448613738098 0.0
  outer loop
    vertex -0.6470476127562997 99.72859153038338 -5.0
    vertex 3.0616169978683777e-16 99.81377696466072 0.0
    vertex -0.6470476127562997 99.72859153038338 0.0
  endloop
endfacet
facet normal 0.0 -1.0 0.0
  outer loop
    vertex 1.762479051592436e-16 92.98364994573853 0.0
    vertex 1.762479051592436e-16 92.98364994573853 -5.0
    vertex 2.500000000000001 92.98364994573853 0.0
  endloop
endfacet
facet normal 0.3826834323651092 0.9238795325112789 0.0
  outer loop
    vertex 1.2940952255126055 102.14340609610606 0.0
    vertex 1.4287670675492936 102.08762319266471 -5.0
    vertex 1.2940952255126055 102.14340609610606 -5.0
  endloop
endfacet
facet normal 0.3826834323651092 0.9238795325112789 0.0
  outer loop
    vertex 1.4287670675492936 102.08762319266471 -5.0
    vertex 1.2940952255126055 102.14340609610606 0.0
    vertex 1.4287670675492936 102.08762319266471 0.0
  endloop
endfacet
facet normal -0.3826834323650825 -0.92387953251129 -0.0
  outer loop
    vertex 1.2499999999999987 99.47884047412181 0.0
    vertex 0.6470476127563014 99.72859153038338 -5.0
    vertex 1.2499999999999987 99.47884047412181 -5.0
  endloop
endfacet
facet normal -0.3826834323650825 -0.92387953251129 -0.0
  outer loop
    vertex 0.6470476127563014 99.72859153038338 -5.0
    vertex 1.2499999999999987 99.47884047412181 0.0
    vertex 0.6470476127563014 99.72859153038338 0.0
  endloop
endfacet
facet normal -0.9914448613738104 0.13052619222005188 0.0
  outer loop
    vertex 2.4999999999999956 97.31377696466072 0.0
    vertex 2.414814565722666 96.66672935190442 -5.0
    vertex 2.414814565722666 96.66672935190442 0.0
  endloop
endfacet
facet normal -0.9914448613738104 0.13052619222005188 0.0
  outer loop
    vertex 2.414814565722666 96.66672935190442 -5.0
    vertex 2.4999999999999956 97.31377696466072 0.0
    vertex 2.4999999999999956 97.31377696466072 -5.0
  endloop
endfacet
facet normal 0.8660254037844387 0.5000000000000003 -0.0
  outer loop
    vertex 2.5000000000000027 101.64390398358292 0.0
    vertex 3.750000000000003 99.47884047412181 -5.0
    vertex 2.5000000000000027 101.64390398358292 -5.0
  endloop
endfacet
facet normal -0.4999999999999999 0.8660254037844387 -3.1453762435094064e-16
  outer loop
    vertex 34.64101615137761 117.31377696466075 0.0
    vertex 3.750000000000003 99.47884047412181 -5.0
    vertex 3.750000000000003 99.47884047412181 0.0
  endloop
endfacet
facet normal 0.0 -1.0 0.0
  outer loop
    vertex 2.500000000000001 92.98364994573853 0.0
    vertex 1.762479051592436e-16 92.98364994573853 -5.0
    vertex 2.500000000000001 92.98364994573853 -5.0
  endloop
endfacet
facet normal 1.0 -4.9410858640494686e-18 -0.0
  outer loop
    vertex 1.762479051592436e-16 92.98364994573853 0.0
    vertex 0.0 57.313776964660725 0.0
    vertex 1.762479051592436e-16 92.98364994573853 -5.0
  endloop
endfacet
facet normal 0.8926749083175071 0.06256504675465595 0.4463374541587544
  outer loop
    vertex -2.500000000000003 92.98364994573853 0.0
    vertex 0.0 57.313776964660725 0.0
    vertex 1.762479051592436e-16 92.98364994573853 -5.0
  endloop
endfacet
facet normal 0.3921545342802607 -0.804361671301234 0.4463374541587536
  outer loop
    vertex 2.5000000000000027 101.64390398358292 0.0
    vertex 3.750000000000003 99.47884047412181 -5.0
    vertex 34.64101615137761 117.31377696466075 0.0
  endloop
endfacet
facet normal -0.8660254037844379 0.5000000000000017 0.0
  outer loop
    vertex -3.7499999999999982 99.47884047412181 -5.0
    vertex -5.000000000000002 97.31377696466072 0.0
    vertex -3.7499999999999982 99.47884047412181 0.0
  endloop
endfacet
facet normal 0.0 0.0 -1.0
  outer loop
    vertex 3.750000000000003 99.47884047412181 0.0
    vertex 2.4148145657226663 97.96082457741701 0.0
    vertex 2.165063509461093 98.56377696466072 0.0
  endloop
endfacet
facet normal 0.0 0.0 -1.0
  outer loop
    vertex 2.4148145657226663 97.96082457741701 0.0
    vertex 3.750000000000003 99.47884047412181 0.0
    vertex 2.4999999999999956 97.31377696466072 0.0
  endloop
endfacet
facet normal 0.0 0.0 -1.0
  outer loop
    vertex 2.4999999999999956 97.31377696466072 0.0
    vertex 3.750000000000003 99.47884047412181 0.0
    vertex 2.500000000000001 92.98364994573853 0.0
  endloop
endfacet
facet normal 0.0 0.0 -1.0
  outer loop
    vertex 2.500000000000001 92.98364994573853 0.0
    vertex 3.750000000000003 99.47884047412181 0.0
    vertex 3.5355339059327386 93.77824305872798 0.0
  endloop
endfacet
facet normal 0.0 0.0 -1.0
  outer loop
    vertex 3.5355339059327386 93.77824305872798 0.0
    vertex 3.750000000000003 99.47884047412181 0.0
    vertex 4.330127018922195 94.81377696466072 0.0
  endloop
endfacet
facet normal 0.0 0.0 -1.0
  outer loop
    vertex 4.330127018922195 94.81377696466072 0.0
    vertex 3.750000000000003 99.47884047412181 0.0
    vertex 5.000000000000002 97.31377696466072 0.0
  endloop
endfacet
facet normal 0.0 0.0 -1.0
  outer loop
    vertex 4.330127018922195 94.81377696466072 0.0
    vertex 5.000000000000002 97.31377696466072 0.0
    vertex 4.773846228004001 95.88500989711147 0.0
  endloop
endfacet
facet normal 0.0 0.0 -1.0
  outer loop
    vertex 4.773846228004001 95.88500989711147 0.0
    vertex 5.000000000000002 97.31377696466072 0.0
    vertex 4.848655640986605 96.16420242724696 0.0
  endloop
endfacet
facet normal 0.0 0.0 -1.0
  outer loop
    vertex 4.773846228004001 95.88500989711147 0.0
    vertex 4.848655640986605 96.16420242724696 0.0
    vertex 4.829629131445343 96.01968173914811 0.0
  endloop
endfacet
facet normal 0.0 0.0 -1.0
  outer loop
    vertex 0.6470476127563006 94.89896239893805 0.0
    vertex 1.762479051592436e-16 92.98364994573853 0.0
    vertex 0.0 94.81377696466072 0.0
  endloop
endfacet
facet normal 0.0 0.0 -1.0
  outer loop
    vertex 1.762479051592436e-16 92.98364994573853 0.0
    vertex 0.6470476127563006 94.89896239893805 0.0
    vertex 2.500000000000001 92.98364994573853 0.0
  endloop
endfacet
facet normal 0.0 0.0 -1.0
  outer loop
    vertex 2.500000000000001 92.98364994573853 0.0
    vertex 0.6470476127563006 94.89896239893805 0.0
    vertex 1.2499999999999976 95.14871345519963 0.0
  endloop
endfacet
facet normal 0.0 0.0 -1.0
  outer loop
    vertex 2.500000000000001 92.98364994573853 0.0
    vertex 1.2499999999999976 95.14871345519963 0.0
    vertex 1.7677669529663655 95.54601001169436 0.0
  endloop
endfacet
facet normal 0.0 0.0 -1.0
  outer loop
    vertex 2.500000000000001 92.98364994573853 0.0
    vertex 1.7677669529663655 95.54601001169436 0.0
    vertex 2.165063509461093 96.06377696466072 0.0
  endloop
endfacet
facet normal 0.0 0.0 -1.0
  outer loop
    vertex 2.500000000000001 92.98364994573853 0.0
    vertex 2.165063509461093 96.06377696466072 0.0
    vertex 2.414814565722666 96.66672935190442 0.0
  endloop
endfacet
facet normal 0.0 0.0 -1.0
  outer loop
    vertex 2.500000000000001 92.98364994573853 0.0
    vertex 2.414814565722666 96.66672935190442 0.0
    vertex 2.4999999999999956 97.31377696466072 0.0
  endloop
endfacet
facet normal -0.5005203740372467 0.7417966245465787 0.44633745415875314
  outer loop
    vertex 34.64101615137761 117.31377696466075 0.0
    vertex 3.750000000000003 99.47884047412181 -5.0
    vertex 5.000000000000002 97.31377696466072 0.0
  endloop
endfacet
facet normal 0.0 0.0 -1.0
  outer loop
    vertex -2.4999999999999996 101.64390398358292 0.0
    vertex -2.414814565722666 97.96082457741701 0.0
    vertex -2.4999999999999956 97.31377696466072 0.0
  endloop
endfacet
facet normal 0.0 0.0 -1.0
  outer loop
    vertex -2.414814565722666 97.96082457741701 0.0
    vertex -2.4999999999999996 101.64390398358292 0.0
    vertex -1.4287670675492896 102.08762319266471 0.0
  endloop
endfacet
facet normal 0.0 0.0 -1.0
  outer loop
    vertex -2.414814565722666 97.96082457741701 0.0
    vertex -1.4287670675492896 102.08762319266471 0.0
    vertex -2.165063509461092 98.56377696466072 0.0
  endloop
endfacet
facet normal 0.0 0.0 -1.0
  outer loop
    vertex -2.165063509461092 98.56377696466072 0.0
    vertex -1.4287670675492896 102.08762319266471 0.0
    vertex -1.7677669529663647 99.08154391762709 0.0
  endloop
endfacet
facet normal 0.0 0.0 -1.0
  outer loop
    vertex -1.7677669529663647 99.08154391762709 0.0
    vertex -1.4287670675492896 102.08762319266471 0.0
    vertex -1.2499999999999971 99.47884047412181 0.0
  endloop
endfacet
facet normal 0.0 0.0 -1.0
  outer loop
    vertex -1.2499999999999971 99.47884047412181 0.0
    vertex -1.4287670675492896 102.08762319266471 0.0
    vertex -1.2940952255126024 102.14340609610606 0.0
  endloop
endfacet
facet normal 0.0 0.0 -1.0
  outer loop
    vertex -1.2499999999999971 99.47884047412181 0.0
    vertex -1.2940952255126024 102.14340609610606 0.0
    vertex -1.149574537413706 102.16243260564734 0.0
  endloop
endfacet
facet normal 0.0 0.0 -1.0
  outer loop
    vertex -1.2499999999999971 99.47884047412181 0.0
    vertex -1.149574537413706 102.16243260564734 0.0
    vertex -0.6470476127562997 99.72859153038338 0.0
  endloop
endfacet
facet normal 0.0 0.0 -1.0
  outer loop
    vertex -0.6470476127562997 99.72859153038338 0.0
    vertex -1.149574537413706 102.16243260564734 0.0
    vertex 6.123233995736768e-16 102.31377696466073 0.0
  endloop
endfacet
facet normal 0.0 0.0 -1.0
  outer loop
    vertex -0.6470476127562997 99.72859153038338 0.0
    vertex 6.123233995736768e-16 102.31377696466073 0.0
    vertex 3.0616169978683777e-16 99.81377696466072 0.0
  endloop
endfacet
facet normal 0.0 0.0 -1.0
  outer loop
    vertex 3.0616169978683777e-16 99.81377696466072 0.0
    vertex 6.123233995736768e-16 102.31377696466073 0.0
    vertex 0.6470476127563014 99.72859153038338 0.0
  endloop
endfacet
facet normal 0.0 0.0 -1.0
  outer loop
    vertex 0.6470476127563014 99.72859153038338 0.0
    vertex 6.123233995736768e-16 102.31377696466073 0.0
    vertex 1.1495745374137083 102.16243260564734 0.0
  endloop
endfacet
facet normal 0.0 0.0 -1.0
  outer loop
    vertex 0.6470476127563014 99.72859153038338 0.0
    vertex 1.1495745374137083 102.16243260564734 0.0
    vertex 1.2499999999999987 99.47884047412181 0.0
  endloop
endfacet
facet normal 0.0 0.0 -1.0
  outer loop
    vertex 1.2499999999999987 99.47884047412181 0.0
    vertex 1.1495745374137083 102.16243260564734 0.0
    vertex 1.2940952255126055 102.14340609610606 0.0
  endloop
endfacet
facet normal 0.0 0.0 -1.0
  outer loop
    vertex 1.2499999999999987 99.47884047412181 0.0
    vertex 1.2940952255126055 102.14340609610606 0.0
    vertex 1.7677669529663658 99.08154391762709 0.0
  endloop
endfacet
facet normal 0.0 0.0 -1.0
  outer loop
    vertex 1.7677669529663658 99.08154391762709 0.0
    vertex 1.2940952255126055 102.14340609610606 0.0
    vertex 1.4287670675492936 102.08762319266471 0.0
  endloop
endfacet
facet normal 0.0 0.0 -1.0
  outer loop
    vertex 1.7677669529663658 99.08154391762709 0.0
    vertex 1.4287670675492936 102.08762319266471 0.0
    vertex 2.5000000000000027 101.64390398358292 0.0
  endloop
endfacet
facet normal 0.0 0.0 -1.0
  outer loop
    vertex 1.7677669529663658 99.08154391762709 0.0
    vertex 2.5000000000000027 101.64390398358292 0.0
    vertex 2.165063509461093 98.56377696466072 0.0
  endloop
endfacet
facet normal 0.0 0.0 -1.0
  outer loop
    vertex 2.165063509461093 98.56377696466072 0.0
    vertex 2.5000000000000027 101.64390398358292 0.0
    vertex 3.750000000000003 99.47884047412181 0.0
  endloop
endfacet
facet normal 0.0 0.0 -1.0
  outer loop
    vertex -3.7499999999999982 99.47884047412181 0.0
    vertex -4.848655640986616 96.16420242724703 0.0
    vertex -5.000000000000002 97.31377696466072 0.0
  endloop
endfacet
facet normal 0.0 0.0 -1.0
  outer loop
    vertex -4.848655640986616 96.16420242724703 0.0
    vertex -3.7499999999999982 99.47884047412181 0.0
    vertex -4.829629131445344 96.01968173914811 0.0
  endloop
endfacet
facet normal 0.0 0.0 -1.0
  outer loop
    vertex -4.829629131445344 96.01968173914811 0.0
    vertex -3.7499999999999982 99.47884047412181 0.0
    vertex -4.773846228003974 95.8850098971114 0.0
  endloop
endfacet
facet normal 0.0 0.0 -1.0
  outer loop
    vertex -4.773846228003974 95.8850098971114 0.0
    vertex -3.7499999999999982 99.47884047412181 0.0
    vertex -4.330127018922197 94.81377696466072 0.0
  endloop
endfacet
facet normal 0.0 0.0 -1.0
  outer loop
    vertex -4.330127018922197 94.81377696466072 0.0
    vertex -3.7499999999999982 99.47884047412181 0.0
    vertex -3.6242716905902777 93.89388839122341 0.0
  endloop
endfacet
facet normal 0.0 0.0 -1.0
  outer loop
    vertex -3.6242716905902777 93.89388839122341 0.0
    vertex -3.7499999999999982 99.47884047412181 0.0
    vertex -2.4999999999999996 101.64390398358292 0.0
  endloop
endfacet
facet normal 0.0 0.0 -1.0
  outer loop
    vertex -3.6242716905902777 93.89388839122341 0.0
    vertex -2.4999999999999996 101.64390398358292 0.0
    vertex -3.53553390593274 93.77824305872798 0.0
  endloop
endfacet
facet normal 0.0 0.0 -1.0
  outer loop
    vertex -3.53553390593274 93.77824305872798 0.0
    vertex -2.4999999999999996 101.64390398358292 0.0
    vertex -3.419888573437327 93.68950527407046 0.0
  endloop
endfacet
facet normal 0.0 0.0 -1.0
  outer loop
    vertex -3.419888573437327 93.68950527407046 0.0
    vertex -2.4999999999999996 101.64390398358292 0.0
    vertex -2.500000000000003 92.98364994573853 0.0
  endloop
endfacet
facet normal 0.0 0.0 -1.0
  outer loop
    vertex -2.500000000000003 92.98364994573853 0.0
    vertex -2.4999999999999996 101.64390398358292 0.0
    vertex -2.4999999999999956 97.31377696466072 0.0
  endloop
endfacet
facet normal 0.0 0.0 -1.0
  outer loop
    vertex -2.500000000000003 92.98364994573853 0.0
    vertex -2.4999999999999956 97.31377696466072 0.0
    vertex -2.4148145657226667 96.66672935190442 0.0
  endloop
endfacet
facet normal 0.0 0.0 -1.0
  outer loop
    vertex -2.500000000000003 92.98364994573853 0.0
    vertex -2.4148145657226667 96.66672935190442 0.0
    vertex -2.1650635094610937 96.06377696466072 0.0
  endloop
endfacet
facet normal 0.0 0.0 -1.0
  outer loop
    vertex -2.500000000000003 92.98364994573853 0.0
    vertex -2.1650635094610937 96.06377696466072 0.0
    vertex 1.762479051592436e-16 92.98364994573853 0.0
  endloop
endfacet
facet normal 0.0 0.0 -1.0
  outer loop
    vertex 1.762479051592436e-16 92.98364994573853 0.0
    vertex -2.1650635094610937 96.06377696466072 0.0
    vertex -1.7677669529663658 95.54601001169436 0.0
  endloop
endfacet
facet normal 0.0 0.0 -1.0
  outer loop
    vertex 1.762479051592436e-16 92.98364994573853 0.0
    vertex -1.7677669529663658 95.54601001169436 0.0
    vertex -1.2499999999999987 95.14871345519963 0.0
  endloop
endfacet
facet normal 0.0 0.0 -1.0
  outer loop
    vertex 1.762479051592436e-16 92.98364994573853 0.0
    vertex -1.2499999999999987 95.14871345519963 0.0
    vertex -0.6470476127563027 94.89896239893805 0.0
  endloop
endfacet
facet normal 0.0 0.0 -1.0
  outer loop
    vertex 1.762479051592436e-16 92.98364994573853 0.0
    vertex -0.6470476127563027 94.89896239893805 0.0
    vertex 0.0 94.81377696466072 0.0
  endloop
endfacet
facet normal 0.0 -1.0 0.0
  outer loop
    vertex -2.500000000000003 92.98364994573853 0.0
    vertex 1.762479051592436e-16 92.98364994573853 -5.0
    vertex 1.762479051592436e-16 92.98364994573853 0.0
  endloop
endfacet
facet normal 0.5005203740372475 0.7417966245465777 0.4463374541587538
  outer loop
    vertex -5.000000000000002 97.31377696466072 0.0
    vertex -3.7499999999999982 99.47884047412181 -5.0
    vertex -34.641016151377535 117.31377696466075 0.0
  endloop
endfacet
facet normal 0.8660254037844387 0.4999999999999999 -3.126552735660303e-17
  outer loop
    vertex 3.750000000000003 99.47884047412181 0.0
    vertex 5.000000000000002 97.31377696466072 0.0
    vertex 3.750000000000003 99.47884047412181 -5.0
  endloop
endfacet
facet normal 0.5000000000000009 0.8660254037844384 -3.14537624350942e-16
  outer loop
    vertex -3.7499999999999982 99.47884047412181 0.0
    vertex -3.7499999999999982 99.47884047412181 -5.0
    vertex -34.641016151377535 117.31377696466075 0.0
  endloop
endfacet
facet normal -0.39215453428026137 -0.8043616713012336 0.4463374541587538
  outer loop
    vertex -34.641016151377535 117.31377696466075 0.0
    vertex -3.7499999999999982 99.47884047412181 -5.0
    vertex -2.4999999999999996 101.64390398358292 0.0
  endloop
endfacet
facet normal -0.8660254037844389 0.49999999999999983 0.0
  outer loop
    vertex -2.4999999999999996 101.64390398358292 0.0
    vertex -3.7499999999999982 99.47884047412181 -5.0
    vertex -3.7499999999999982 99.47884047412181 0.0
  endloop
endfacet
facet normal -0.8926749083175074 0.06256504675465589 0.44633745415875403
  outer loop
    vertex 1.762479051592436e-16 92.98364994573853 -5.0
    vertex 0.0 57.313776964660725 0.0
    vertex 2.500000000000001 92.98364994573853 0.0
  endloop
endfacet
facet normal 0.0 0.0 -1.0
  outer loop
    vertex -2.4999999999999996 101.64390398358292 -5.0
    vertex -2.414814565722666 97.96082457741701 -5.0
    vertex -2.4999999999999956 97.31377696466072 -5.0
  endloop
endfacet
facet normal 0.0 0.0 -1.0
  outer loop
    vertex -2.414814565722666 97.96082457741701 -5.0
    vertex -2.4999999999999996 101.64390398358292 -5.0
    vertex -1.4287670675492896 102.08762319266471 -5.0
  endloop
endfacet
facet normal 0.0 0.0 -1.0
  outer loop
    vertex -2.414814565722666 97.96082457741701 -5.0
    vertex -1.4287670675492896 102.08762319266471 -5.0
    vertex -2.165063509461092 98.56377696466072 -5.0
  endloop
endfacet
facet normal 0.0 0.0 -1.0
  outer loop
    vertex -2.165063509461092 98.56377696466072 -5.0
    vertex -1.4287670675492896 102.08762319266471 -5.0
    vertex -1.7677669529663647 99.08154391762709 -5.0
  endloop
endfacet
facet normal 0.0 0.0 -1.0
  outer loop
    vertex -1.7677669529663647 99.08154391762709 -5.0
    vertex -1.4287670675492896 102.08762319266471 -5.0
    vertex -1.2499999999999971 99.47884047412181 -5.0
  endloop
endfacet
facet normal 0.0 0.0 -1.0
  outer loop
    vertex -1.2499999999999971 99.47884047412181 -5.0
    vertex -1.4287670675492896 102.08762319266471 -5.0
    vertex -1.2940952255126024 102.14340609610606 -5.0
  endloop
endfacet
facet normal 0.0 0.0 -1.0
  outer loop
    vertex -1.2499999999999971 99.47884047412181 -5.0
    vertex -1.2940952255126024 102.14340609610606 -5.0
    vertex -1.149574537413706 102.16243260564734 -5.0
  endloop
endfacet
facet normal 0.0 0.0 -1.0
  outer loop
    vertex -1.2499999999999971 99.47884047412181 -5.0
    vertex -1.149574537413706 102.16243260564734 -5.0
    vertex -0.6470476127562997 99.72859153038338 -5.0
  endloop
endfacet
facet normal 0.0 0.0 -1.0
  outer loop
    vertex -0.6470476127562997 99.72859153038338 -5.0
    vertex -1.149574537413706 102.16243260564734 -5.0
    vertex 6.123233995736768e-16 102.31377696466073 -5.0
  endloop
endfacet
facet normal 0.0 0.0 -1.0
  outer loop
    vertex -0.6470476127562997 99.72859153038338 -5.0
    vertex 6.123233995736768e-16 102.31377696466073 -5.0
    vertex 3.0616169978683777e-16 99.81377696466072 -5.0
  endloop
endfacet
facet normal 0.0 0.0 -1.0
  outer loop
    vertex 3.0616169978683777e-16 99.81377696466072 -5.0
    vertex 6.123233995736768e-16 102.31377696466073 -5.0
    vertex 0.6470476127563014 99.72859153038338 -5.0
  endloop
endfacet
facet normal 0.0 0.0 -1.0
  outer loop
    vertex 0.6470476127563014 99.72859153038338 -5.0
    vertex 6.123233995736768e-16 102.31377696466073 -5.0
    vertex 1.1495745374137083 102.16243260564734 -5.0
  endloop
endfacet
facet normal 0.0 0.0 -1.0
  outer loop
    vertex 0.6470476127563014 99.72859153038338 -5.0
    vertex 1.1495745374137083 102.16243260564734 -5.0
    vertex 1.2499999999999987 99.47884047412181 -5.0
  endloop
endfacet
facet normal 0.0 0.0 -1.0
  outer loop
    vertex 1.2499999999999987 99.47884047412181 -5.0
    vertex 1.1495745374137083 102.16243260564734 -5.0
    vertex 1.2940952255126055 102.14340609610606 -5.0
  endloop
endfacet
facet normal 0.0 0.0 -1.0
  outer loop
    vertex 1.2499999999999987 99.47884047412181 -5.0
    vertex 1.2940952255126055 102.14340609610606 -5.0
    vertex 1.7677669529663658 99.08154391762709 -5.0
  endloop
endfacet
facet normal 0.0 0.0 -1.0
  outer loop
    vertex 1.7677669529663658 99.08154391762709 -5.0
    vertex 1.2940952255126055 102.14340609610606 -5.0
    vertex 1.4287670675492936 102.08762319266471 -5.0
  endloop
endfacet
facet normal 0.0 0.0 -1.0
  outer loop
    vertex 1.7677669529663658 99.08154391762709 -5.0
    vertex 1.4287670675492936 102.08762319266471 -5.0
    vertex 2.5000000000000027 101.64390398358292 -5.0
  endloop
endfacet
facet normal 0.0 0.0 -1.0
  outer loop
    vertex 1.7677669529663658 99.08154391762709 -5.0
    vertex 2.5000000000000027 101.64390398358292 -5.0
    vertex 2.165063509461093 98.56377696466072 -5.0
  endloop
endfacet
facet normal 0.0 0.0 -1.0
  outer loop
    vertex 2.165063509461093 98.56377696466072 -5.0
    vertex 2.5000000000000027 101.64390398358292 -5.0
    vertex 2.4148145657226663 97.96082457741701 -5.0
  endloop
endfacet
facet normal 0.0 0.0 -1.0
  outer loop
    vertex 2.4148145657226663 97.96082457741701 -5.0
    vertex 2.5000000000000027 101.64390398358292 -5.0
    vertex 2.4999999999999956 97.31377696466072 -5.0
  endloop
endfacet
facet normal 0.0 0.0 -1.0
  outer loop
    vertex 2.4999999999999956 97.31377696466072 -5.0
    vertex 2.5000000000000027 101.64390398358292 -5.0
    vertex 2.500000000000001 92.98364994573853 -5.0
  endloop
endfacet
facet normal 0.0 0.0 -1.0
  outer loop
    vertex 2.500000000000001 92.98364994573853 -5.0
    vertex 2.5000000000000027 101.64390398358292 -5.0
    vertex 3.5355339059327386 93.77824305872798 -5.0
  endloop
endfacet
facet normal 0.0 0.0 -1.0
  outer loop
    vertex 3.5355339059327386 93.77824305872798 -5.0
    vertex 2.5000000000000027 101.64390398358292 -5.0
    vertex 3.750000000000003 99.47884047412181 -5.0
  endloop
endfacet
facet normal 0.0 0.0 -1.0
  outer loop
    vertex 3.5355339059327386 93.77824305872798 -5.0
    vertex 3.750000000000003 99.47884047412181 -5.0
    vertex 4.330127018922195 94.81377696466072 -5.0
  endloop
endfacet
facet normal 0.0 0.0 -1.0
  outer loop
    vertex 4.330127018922195 94.81377696466072 -5.0
    vertex 3.750000000000003 99.47884047412181 -5.0
    vertex 5.000000000000002 97.31377696466072 -5.0
  endloop
endfacet
facet normal 0.0 0.0 -1.0
  outer loop
    vertex 4.330127018922195 94.81377696466072 -5.0
    vertex 5.000000000000002 97.31377696466072 -5.0
    vertex 4.773846228004001 95.88500989711147 -5.0
  endloop
endfacet
facet normal 0.0 0.0 -1.0
  outer loop
    vertex 4.773846228004001 95.88500989711147 -5.0
    vertex 5.000000000000002 97.31377696466072 -5.0
    vertex 4.848655640986605 96.16420242724696 -5.0
  endloop
endfacet
facet normal 0.0 0.0 -1.0
  outer loop
    vertex 4.773846228004001 95.88500989711147 -5.0
    vertex 4.848655640986605 96.16420242724696 -5.0
    vertex 4.829629131445343 96.01968173914811 -5.0
  endloop
endfacet
facet normal 0.0 0.0 -1.0
  outer loop
    vertex -3.7499999999999982 99.47884047412181 -5.0
    vertex -4.848655640986616 96.16420242724703 -5.0
    vertex -5.000000000000002 97.31377696466072 -5.0
  endloop
endfacet
facet normal 0.0 0.0 -1.0
  outer loop
    vertex -4.848655640986616 96.16420242724703 -5.0
    vertex -3.7499999999999982 99.47884047412181 -5.0
    vertex -4.829629131445344 96.01968173914811 -5.0
  endloop
endfacet
facet normal 0.0 0.0 -1.0
  outer loop
    vertex -4.829629131445344 96.01968173914811 -5.0
    vertex -3.7499999999999982 99.47884047412181 -5.0
    vertex -4.773846228003974 95.8850098971114 -5.0
  endloop
endfacet
facet normal 0.0 0.0 -1.0
  outer loop
    vertex -4.773846228003974 95.8850098971114 -5.0
    vertex -3.7499999999999982 99.47884047412181 -5.0
    vertex -4.330127018922197 94.81377696466072 -5.0
  endloop
endfacet
facet normal 0.0 0.0 -1.0
  outer loop
    vertex -4.330127018922197 94.81377696466072 -5.0
    vertex -3.7499999999999982 99.47884047412181 -5.0
    vertex -3.6242716905902777 93.89388839122341 -5.0
  endloop
endfacet
facet normal 0.0 0.0 -1.0
  outer loop
    vertex -3.6242716905902777 93.89388839122341 -5.0
    vertex -3.7499999999999982 99.47884047412181 -5.0
    vertex -2.4999999999999996 101.64390398358292 -5.0
  endloop
endfacet
facet normal 0.0 0.0 -1.0
  outer loop
    vertex -3.6242716905902777 93.89388839122341 -5.0
    vertex -2.4999999999999996 101.64390398358292 -5.0
    vertex -3.53553390593274 93.77824305872798 -5.0
  endloop
endfacet
facet normal 0.0 0.0 -1.0
  outer loop
    vertex -3.53553390593274 93.77824305872798 -5.0
    vertex -2.4999999999999996 101.64390398358292 -5.0
    vertex -3.419888573437327 93.68950527407046 -5.0
  endloop
endfacet
facet normal 0.0 0.0 -1.0
  outer loop
    vertex -3.419888573437327 93.68950527407046 -5.0
    vertex -2.4999999999999996 101.64390398358292 -5.0
    vertex -2.500000000000003 92.98364994573853 -5.0
  endloop
endfacet
facet normal 0.0 0.0 -1.0
  outer loop
    vertex -2.500000000000003 92.98364994573853 -5.0
    vertex -2.4999999999999996 101.64390398358292 -5.0
    vertex -2.4999999999999956 97.31377696466072 -5.0
  endloop
endfacet
facet normal 0.0 0.0 -1.0
  outer loop
    vertex -2.500000000000003 92.98364994573853 -5.0
    vertex -2.4999999999999956 97.31377696466072 -5.0
    vertex -2.4148145657226667 96.66672935190442 -5.0
  endloop
endfacet
facet normal 0.0 0.0 -1.0
  outer loop
    vertex -2.500000000000003 92.98364994573853 -5.0
    vertex -2.4148145657226667 96.66672935190442 -5.0
    vertex -2.1650635094610937 96.06377696466072 -5.0
  endloop
endfacet
facet normal 0.0 0.0 -1.0
  outer loop
    vertex -2.500000000000003 92.98364994573853 -5.0
    vertex -2.1650635094610937 96.06377696466072 -5.0
    vertex 1.762479051592436e-16 92.98364994573853 -5.0
  endloop
endfacet
facet normal 0.0 0.0 -1.0
  outer loop
    vertex 1.762479051592436e-16 92.98364994573853 -5.0
    vertex -2.1650635094610937 96.06377696466072 -5.0
    vertex -1.7677669529663658 95.54601001169436 -5.0
  endloop
endfacet
facet normal 0.0 0.0 -1.0
  outer loop
    vertex 1.762479051592436e-16 92.98364994573853 -5.0
    vertex -1.7677669529663658 95.54601001169436 -5.0
    vertex -1.2499999999999987 95.14871345519963 -5.0
  endloop
endfacet
facet normal 0.0 0.0 -1.0
  outer loop
    vertex 1.762479051592436e-16 92.98364994573853 -5.0
    vertex -1.2499999999999987 95.14871345519963 -5.0
    vertex -0.6470476127563027 94.89896239893805 -5.0
  endloop
endfacet
facet normal 0.0 0.0 -1.0
  outer loop
    vertex 1.762479051592436e-16 92.98364994573853 -5.0
    vertex -0.6470476127563027 94.89896239893805 -5.0
    vertex 0.0 94.81377696466072 -5.0
  endloop
endfacet
facet normal 0.0 0.0 -1.0
  outer loop
    vertex 1.762479051592436e-16 92.98364994573853 -5.0
    vertex 0.0 94.81377696466072 -5.0
    vertex 0.6470476127563006 94.89896239893805 -5.0
  endloop
endfacet
facet normal 0.0 0.0 -1.0
  outer loop
    vertex 1.762479051592436e-16 92.98364994573853 -5.0
    vertex 0.6470476127563006 94.89896239893805 -5.0
    vertex 2.500000000000001 92.98364994573853 -5.0
  endloop
endfacet
facet normal 0.0 0.0 -1.0
  outer loop
    vertex 2.500000000000001 92.98364994573853 -5.0
    vertex 0.6470476127563006 94.89896239893805 -5.0
    vertex 1.2499999999999976 95.14871345519963 -5.0
  endloop
endfacet
facet normal 0.0 0.0 -1.0
  outer loop
    vertex 2.500000000000001 92.98364994573853 -5.0
    vertex 1.2499999999999976 95.14871345519963 -5.0
    vertex 1.7677669529663655 95.54601001169436 -5.0
  endloop
endfacet
facet normal 0.0 0.0 -1.0
  outer loop
    vertex 2.500000000000001 92.98364994573853 -5.0
    vertex 1.7677669529663655 95.54601001169436 -5.0
    vertex 2.165063509461093 96.06377696466072 -5.0
  endloop
endfacet
facet normal 0.0 0.0 -1.0
  outer loop
    vertex 2.500000000000001 92.98364994573853 -5.0
    vertex 2.165063509461093 96.06377696466072 -5.0
    vertex 2.414814565722666 96.66672935190442 -5.0
  endloop
endfacet
facet normal 0.0 0.0 -1.0
  outer loop
    vertex 2.500000000000001 92.98364994573853 -5.0
    vertex 2.414814565722666 96.66672935190442 -5.0
    vertex 2.4999999999999956 97.31377696466072 -5.0
  endloop
endfacet
facet normal 0.0 0.0 -1.0
  outer loop
    vertex 1.762479051592436e-16 92.98364994573853 0.0
    vertex 0.0 57.313776964660725 0.0
    vertex -2.500000000000003 92.98364994573853 0.0
  endloop
endfacet
facet normal 0.0 0.0 -1.0
  outer loop
    vertex 34.64101615137761 117.31377696466075 0.0
    vertex 5.000000000000002 97.31377696466072 0.0
    vertex 3.750000000000003 99.47884047412181 0.0
  endloop
endfacet
facet normal 0.0 0.0 -1.0
  outer loop
    vertex 34.64101615137761 117.31377696466075 0.0
    vertex 3.750000000000003 99.47884047412181 0.0
    vertex 2.5000000000000027 101.64390398358292 0.0
  endloop
endfacet
endsolid RFIDtagholderWindTurbine
