solid Untitled-594b1829
facet normal 0.0 0.0 1.0
  outer loop
    vertex 37.14101776182651 24.330122232437155 0.0
    vertex 6.250000047683716 6.495194625854515 0.0
    vertex 7.499999830126762 4.330125713348411 0.0
  endloop
endfacet
facet normal 0.0 0.0 1.0
  outer loop
    vertex 37.14101776182651 24.330122232437155 0.0
    vertex 4.999999886751175 8.660257482528708 0.0
    vertex 6.250000047683716 6.495194625854515 0.0
  endloop
endfacet
facet normal -0.39215436650548335 0.8043617928301026 -0.4463373825547514
  outer loop
    vertex 37.14101776182651 24.330122232437155 0.0
    vertex 6.250000047683716 6.495194625854515 -4.999999886751175
    vertex 4.999999886751175 8.660257482528708 0.0
  endloop
endfacet
facet normal 0.5005201162908781 -0.741796416214093 -0.44633808943456066
  outer loop
    vertex 7.499999830126762 4.330125713348411 0.0
    vertex 6.250000047683716 6.495194625854515 -4.999999886751175
    vertex 37.14101776182651 24.330122232437155 0.0
  endloop
endfacet
facet normal 0.8660259817692737 0.49999899889956345 0.0
  outer loop
    vertex 6.250000047683716 6.495194625854515 -4.999999886751175
    vertex 7.499999830126762 4.330125713348411 0.0
    vertex 7.499999830126762 4.330125713348411 -4.999999886751175
  endloop
endfacet
facet normal 0.9914448356662137 -0.13052638748848797 3.9675486409156965e-18
  outer loop
    vertex 7.499999830126762 4.330125713348411 0.0
    vertex 7.348655506968498 3.18055319786074 0.0
    vertex 7.499999830126762 4.330125713348411 -4.999999886751175
  endloop
endfacet
facet normal 0.9914448356662137 -0.13052638748848797 0.0
  outer loop
    vertex 7.499999830126762 4.330125713348411 -4.999999886751175
    vertex 7.348655506968498 3.18055319786074 0.0
    vertex 7.348655506968498 3.18055319786074 -4.999999886751175
  endloop
endfacet
facet normal 0.9914442172824969 -0.13053108448602266 0.0
  outer loop
    vertex 7.348655506968498 3.18055319786074 0.0
    vertex 7.329628840088844 3.036036825180076 0.0
    vertex 7.348655506968498 3.18055319786074 -4.999999886751175
  endloop
endfacet
facet normal 0.9914442172824969 -0.13053108448602266 -4.903324854901264e-19
  outer loop
    vertex 7.348655506968498 3.18055319786074 -4.999999886751175
    vertex 7.329628840088844 3.036036825180076 0.0
    vertex 7.329628840088844 3.036036825180076 -4.999999886751175
  endloop
endfacet
facet normal 0.9238833206507366 -0.3826742868594234 0.0
  outer loop
    vertex 7.329628840088844 3.036036825180076 0.0
    vertex 7.273845922946929 2.901361179351829 0.0
    vertex 7.329628840088844 3.036036825180076 -4.999999886751175
  endloop
endfacet
facet normal 0.9238833206507366 -0.3826742868594234 0.0
  outer loop
    vertex 7.329628840088844 3.036036825180076 -4.999999886751175
    vertex 7.273845922946929 2.901361179351829 0.0
    vertex 7.273845922946929 2.901361179351829 -4.999999886751175
  endloop
endfacet
facet normal 0.9238798412327145 -0.3826826870447819 0.0
  outer loop
    vertex 7.273845922946929 2.901361179351829 0.0
    vertex 6.830127170681953 1.8301269054413067 0.0
    vertex 7.273845922946929 2.901361179351829 -4.999999886751175
  endloop
endfacet
facet normal 0.9238798412327145 -0.3826826870447819 -8.515360068842321e-18
  outer loop
    vertex 7.273845922946929 2.901361179351829 -4.999999886751175
    vertex 6.830127170681953 1.8301269054413067 0.0
    vertex 6.830127170681953 1.8301269054413067 -4.999999886751175
  endloop
endfacet
facet normal 0.7933519128567429 -0.6087632892730532 1.565048162524361e-17
  outer loop
    vertex 6.830127170681953 1.8301269054413067 0.0
    vertex 6.0355338960886 0.7945978164673076 0.0
    vertex 6.830127170681953 1.8301269054413067 -4.999999886751175
  endloop
endfacet
facet normal 0.7933519128567429 -0.6087632892730532 0.0
  outer loop
    vertex 6.830127170681953 1.8301269054413067 -4.999999886751175
    vertex 6.0355338960886 0.7945978164673076 0.0
    vertex 6.0355338960886 0.7945978164673076 -4.999999886751175
  endloop
endfacet
facet normal 0.6087636588013395 -0.7933516293062026 3.130065460959755e-17
  outer loop
    vertex 6.0355338960886 0.7945978164673076 0.0
    vertex 4.999999886751175 2.255973186038318e-14 -4.999999886751175
    vertex 6.0355338960886 0.7945978164673076 -4.999999886751175
  endloop
endfacet
facet normal 0.6087636588013395 -0.7933516293062025 0.0
  outer loop
    vertex 4.999999886751175 2.255973186038318e-14 0.0
    vertex 4.999999886751175 2.255973186038318e-14 -4.999999886751175
    vertex 6.0355338960886 0.7945978164673076 0.0
  endloop
endfacet
facet normal 0.0 0.0 1.0
  outer loop
    vertex 6.250000047683716 6.495194625854515 0.0
    vertex 4.999999886751175 2.255973186038318e-14 0.0
    vertex 6.0355338960886 0.7945978164673076 0.0
  endloop
endfacet
facet normal 0.0 0.0 1.0
  outer loop
    vertex 6.250000047683716 6.495194625854515 0.0
    vertex 4.999999886751175 4.330125713348411 0.0
    vertex 4.999999886751175 2.255973186038318e-14 0.0
  endloop
endfacet
facet normal 0.0 0.0 1.0
  outer loop
    vertex 6.250000047683716 6.495194625854515 0.0
    vertex 4.914814391732215 4.977173185348533 0.0
    vertex 4.999999886751175 4.330125713348411 0.0
  endloop
endfacet
facet normal 0.0 0.0 1.0
  outer loop
    vertex 6.250000047683716 6.495194625854515 0.0
    vertex 4.665063557028771 5.580128145217918 0.0
    vertex 4.914814391732215 4.977173185348533 0.0
  endloop
endfacet
facet normal 0.0 0.0 1.0
  outer loop
    vertex 6.250000047683716 6.495194625854515 0.0
    vertex 4.999999886751175 8.660257482528708 0.0
    vertex 4.665063557028771 5.580128145217918 0.0
  endloop
endfacet
facet normal 0.0 0.0 1.0
  outer loop
    vertex 4.999999886751175 8.660257482528708 0.0
    vertex 4.267766919732094 6.0978957176208715 0.0
    vertex 4.665063557028771 5.580128145217918 0.0
  endloop
endfacet
facet normal 0.0 0.0 1.0
  outer loop
    vertex 4.999999886751175 8.660257482528708 0.0
    vertex 3.928767032176256 9.103980398178123 0.0
    vertex 4.267766919732094 6.0978957176208715 0.0
  endloop
endfacet
facet normal 0.0 0.0 1.0
  outer loop
    vertex 4.267766919732094 6.0978957176208715 0.0
    vertex 3.928767032176256 9.103980398178123 0.0
    vertex 3.7940951712429523 9.159766721725486 0.0
  endloop
endfacet
facet normal 0.0 0.0 1.0
  outer loop
    vertex 4.267766919732094 6.0978957176208715 0.0
    vertex 3.7940951712429523 9.159766721725486 0.0
    vertex 3.749999915063381 6.495194625854515 0.0
  endloop
endfacet
facet normal 0.0 0.0 1.0
  outer loop
    vertex 3.7940951712429523 9.159766721725486 0.0
    vertex 3.649574445933103 9.17878203392031 0.0
    vertex 3.749999915063381 6.495194625854515 0.0
  endloop
endfacet
facet normal 0.0 0.0 1.0
  outer loop
    vertex 3.749999915063381 6.495194625854515 0.0
    vertex 3.649574445933103 9.17878203392031 0.0
    vertex 3.1470475573092695 6.744943189620994 0.0
  endloop
endfacet
facet normal 0.0 0.0 1.0
  outer loop
    vertex 3.649574445933103 9.17878203392031 0.0
    vertex 2.499999943375588 9.330129384994528 0.0
    vertex 3.1470475573092695 6.744943189620994 0.0
  endloop
endfacet
facet normal 0.0 0.0 1.0
  outer loop
    vertex 3.1470475573092695 6.744943189620994 0.0
    vertex 2.499999943375588 9.330129384994528 0.0
    vertex 2.4999999433755877 6.830124521255516 0.0
  endloop
endfacet
facet normal 0.0 0.0 1.0
  outer loop
    vertex 2.499999943375588 9.330129384994528 0.0
    vertex 1.852952329441905 6.744943189620994 0.0
    vertex 2.4999999433755877 6.830124521255516 0.0
  endloop
endfacet
facet normal 0.0 0.0 1.0
  outer loop
    vertex 2.499999943375588 9.330129384994528 0.0
    vertex 1.3504254408180714 9.17878203392031 0.0
    vertex 1.852952329441905 6.744943189620994 0.0
  endloop
endfacet
facet normal 0.0 0.0 1.0
  outer loop
    vertex 1.852952329441905 6.744943189620994 0.0
    vertex 1.3504254408180714 9.17878203392031 0.0
    vertex 1.2499999716877936 6.495194625854515 0.0
  endloop
endfacet
facet normal 0.0 0.0 1.0
  outer loop
    vertex 1.3504254408180714 9.17878203392031 0.0
    vertex 1.2059047155082225 9.159766721725486 0.0
    vertex 1.2499999716877936 6.495194625854515 0.0
  endloop
endfacet
facet normal 0.0 0.0 1.0
  outer loop
    vertex 1.2499999716877936 6.495194625854515 0.0
    vertex 1.2059047155082225 9.159766721725486 0.0
    vertex 1.0712328545749188 9.103980398178123 0.0
  endloop
endfacet
facet normal 0.0 0.0 1.0
  outer loop
    vertex 1.2499999716877936 6.495194625854515 0.0
    vertex 1.0712328545749188 9.103980398178123 0.0
    vertex 0.732232967019081 6.0978957176208715 0.0
  endloop
endfacet
facet normal 0.0 0.0 1.0
  outer loop
    vertex 1.0712328545749188 9.103980398178123 0.0
    vertex 0.33493632972240445 5.580128145217918 0.0
    vertex 0.732232967019081 6.0978957176208715 0.0
  endloop
endfacet
facet normal 0.0 0.0 1.0
  outer loop
    vertex 1.0712328545749188 9.103980398178123 0.0
    vertex 0.08518549501895904 4.977173185348533 0.0
    vertex 0.33493632972240445 5.580128145217918 0.0
  endloop
endfacet
facet normal 0.0 0.0 1.0
  outer loop
    vertex 1.0712328545749188 9.103980398178123 0.0
    vertex 0.0 8.660257482528708 0.0
    vertex 0.08518549501895904 4.977173185348533 0.0
  endloop
endfacet
facet normal 0.0 0.0 1.0
  outer loop
    vertex 0.08518549501895904 4.977173185348533 0.0
    vertex 0.0 8.660257482528708 0.0
    vertex 0.0 4.330125713348411 0.0
  endloop
endfacet
facet normal 0.0 0.0 1.0
  outer loop
    vertex 0.0 8.660257482528708 0.0
    vertex -0.919888436794281 0.7058617115020978 0.0
    vertex 0.0 2.255973186038318e-14 0.0
  endloop
endfacet
facet normal 0.0 0.0 1.0
  outer loop
    vertex 0.0 8.660257482528708 0.0
    vertex -1.0355340093374252 0.7945978164673076 0.0
    vertex -0.919888436794281 0.7058617115020978 0.0
  endloop
endfacet
facet normal 0.0 0.0 1.0
  outer loop
    vertex 0.0 8.660257482528708 0.0
    vertex -1.1242716282606124 0.9102399826050029 0.0
    vertex -1.0355340093374252 0.7945978164673076 0.0
  endloop
endfacet
facet normal 0.0 0.0 1.0
  outer loop
    vertex 0.0 8.660257482528708 0.0
    vertex -1.2500001609325408 6.495194625854515 0.0
    vertex -1.1242716282606124 0.9102399826050029 0.0
  endloop
endfacet
facet normal 0.0 0.0 1.0
  outer loop
    vertex -1.1242716282606124 0.9102399826050029 0.0
    vertex -1.2500001609325408 6.495194625854515 0.0
    vertex -1.8301272839307785 1.8301269054413067 0.0
  endloop
endfacet
facet normal 0.0 0.0 1.0
  outer loop
    vertex -1.2500001609325408 6.495194625854515 0.0
    vertex -2.273846036195755 2.901361179351829 0.0
    vertex -1.8301272839307785 1.8301269054413067 0.0
  endloop
endfacet
facet normal 0.0 0.0 1.0
  outer loop
    vertex -1.2500001609325408 6.495194625854515 0.0
    vertex -2.3296289533376693 3.036036825180076 0.0
    vertex -2.273846036195755 2.901361179351829 0.0
  endloop
endfacet
facet normal 0.0 0.0 1.0
  outer loop
    vertex -1.2500001609325408 6.495194625854515 0.0
    vertex -2.348655620217323 3.18055319786074 0.0
    vertex -2.3296289533376693 3.036036825180076 0.0
  endloop
endfacet
facet normal 0.0 0.0 1.0
  outer loop
    vertex -1.2500001609325408 6.495194625854515 0.0
    vertex -2.4999999433755873 4.330125713348411 0.0
    vertex -2.348655620217323 3.18055319786074 0.0
  endloop
endfacet
facet normal 0.0 0.0 1.0
  outer loop
    vertex -1.2500001609325408 6.495194625854515 0.0
    vertex -32.14101787507534 24.330122232437155 0.0
    vertex -2.4999999433755873 4.330125713348411 0.0
  endloop
endfacet
facet normal 0.0 0.0 1.0
  outer loop
    vertex 0.0 8.660257482528708 0.0
    vertex -32.14101787507534 24.330122232437155 0.0
    vertex -1.2500001609325408 6.495194625854515 0.0
  endloop
endfacet
facet normal 0.39215436650548335 0.8043617928301027 -0.4463373825547509
  outer loop
    vertex 0.0 8.660257482528708 0.0
    vertex -1.2500001609325408 6.495194625854515 -4.999999886751175
    vertex -32.14101787507534 24.330122232437155 0.0
  endloop
endfacet
facet normal -0.8660253106313817 0.5000001613457932 -3.1265544263580326e-17
  outer loop
    vertex 0.0 8.660257482528708 -4.999999886751175
    vertex -1.2500001609325408 6.495194625854515 -4.999999886751175
    vertex 0.0 8.660257482528708 0.0
  endloop
endfacet
facet normal 0.0 0.0 -1.0
  outer loop
    vertex 0.0 8.660257482528708 -4.999999886751175
    vertex -1.1242716282606124 0.9102399826050029 -4.999999886751175
    vertex -1.2500001609325408 6.495194625854515 -4.999999886751175
  endloop
endfacet
facet normal 0.0 0.0 -1.0
  outer loop
    vertex -1.1242716282606124 0.9102399826050029 -4.999999886751175
    vertex -1.8301272839307785 1.8301269054413067 -4.999999886751175
    vertex -1.2500001609325408 6.495194625854515 -4.999999886751175
  endloop
endfacet
facet normal 0.0 0.0 -1.0
  outer loop
    vertex -1.2500001609325408 6.495194625854515 -4.999999886751175
    vertex -1.8301272839307785 1.8301269054413067 -4.999999886751175
    vertex -2.273846036195755 2.901361179351829 -4.999999886751175
  endloop
endfacet
facet normal 0.0 0.0 -1.0
  outer loop
    vertex -1.2500001609325408 6.495194625854515 -4.999999886751175
    vertex -2.273846036195755 2.901361179351829 -4.999999886751175
    vertex -2.3296289533376693 3.036036825180076 -4.999999886751175
  endloop
endfacet
facet normal 0.0 0.0 -1.0
  outer loop
    vertex -1.2500001609325408 6.495194625854515 -4.999999886751175
    vertex -2.3296289533376693 3.036036825180076 -4.999999886751175
    vertex -2.348655620217323 3.18055319786074 -4.999999886751175
  endloop
endfacet
facet normal 0.0 0.0 -1.0
  outer loop
    vertex -1.2500001609325408 6.495194625854515 -4.999999886751175
    vertex -2.348655620217323 3.18055319786074 -4.999999886751175
    vertex -2.4999999433755873 4.330125713348411 -4.999999886751175
  endloop
endfacet
facet normal -0.9914448356662137 -0.13052638748848794 -3.9675486409156965e-18
  outer loop
    vertex -2.4999999433755873 4.330125713348411 -4.999999886751175
    vertex -2.348655620217323 3.18055319786074 -4.999999886751175
    vertex -2.4999999433755873 4.330125713348411 0.0
  endloop
endfacet
facet normal -0.9914448356662137 -0.13052638748848797 -3.9675486409156965e-18
  outer loop
    vertex -2.4999999433755873 4.330125713348411 0.0
    vertex -2.348655620217323 3.18055319786074 -4.999999886751175
    vertex -2.348655620217323 3.18055319786074 0.0
  endloop
endfacet
facet normal -0.9914442172824969 -0.13053108448602266 4.903324854901264e-19
  outer loop
    vertex -2.348655620217323 3.18055319786074 -4.999999886751175
    vertex -2.3296289533376693 3.036036825180076 -4.999999886751175
    vertex -2.348655620217323 3.18055319786074 0.0
  endloop
endfacet
facet normal -0.9914442172824969 -0.13053108448602263 -4.9033248549012635e-19
  outer loop
    vertex -2.348655620217323 3.18055319786074 0.0
    vertex -2.3296289533376693 3.036036825180076 -4.999999886751175
    vertex -2.3296289533376693 3.036036825180076 0.0
  endloop
endfacet
facet normal -0.9238833206507366 -0.38267428685942356 1.0522658505179124e-18
  outer loop
    vertex -2.3296289533376693 3.036036825180076 -4.999999886751175
    vertex -2.273846036195755 2.901361179351829 -4.999999886751175
    vertex -2.3296289533376693 3.036036825180076 0.0
  endloop
endfacet
facet normal -0.9238833206507366 -0.38267428685942356 1.0522658505179124e-18
  outer loop
    vertex -2.3296289533376693 3.036036825180076 0.0
    vertex -2.273846036195755 2.901361179351829 -4.999999886751175
    vertex -2.273846036195755 2.901361179351829 0.0
  endloop
endfacet
facet normal -0.9238798412327145 -0.38268268704478187 -8.51536006884232e-18
  outer loop
    vertex -2.273846036195755 2.901361179351829 -4.999999886751175
    vertex -1.8301272839307785 1.8301269054413067 -4.999999886751175
    vertex -2.273846036195755 2.901361179351829 0.0
  endloop
endfacet
facet normal -0.9238798412327145 -0.38268268704478187 0.0
  outer loop
    vertex -2.273846036195755 2.901361179351829 0.0
    vertex -1.8301272839307785 1.8301269054413067 -4.999999886751175
    vertex -1.8301272839307785 1.8301269054413067 0.0
  endloop
endfacet
facet normal -0.793352676389204 -0.6087622942217157 9.916395638738612e-18
  outer loop
    vertex -1.8301272839307785 1.8301269054413067 -4.999999886751175
    vertex -1.1242716282606124 0.9102399826050029 -4.999999886751175
    vertex -1.8301272839307785 1.8301269054413067 0.0
  endloop
endfacet
facet normal -0.7933526763892041 -0.6087622942217157 -3.9665582554954454e-17
  outer loop
    vertex -1.8301272839307785 1.8301269054413067 0.0
    vertex -1.1242716282606124 0.9102399826050029 -4.999999886751175
    vertex -1.1242716282606124 0.9102399826050029 0.0
  endloop
endfacet
facet normal -0.793345839270984 -0.6087712044039354 1.2255092562093552e-18
  outer loop
    vertex -1.1242716282606124 0.9102399826050029 -4.999999886751175
    vertex -1.0355340093374252 0.7945978164673076 -4.999999886751175
    vertex -1.1242716282606124 0.9102399826050029 0.0
  endloop
endfacet
facet normal -0.793345839270984 -0.6087712044039354 2.451018512418711e-18
  outer loop
    vertex -1.1242716282606124 0.9102399826050029 0.0
    vertex -1.0355340093374252 0.7945978164673076 -4.999999886751175
    vertex -1.0355340093374252 0.7945978164673076 0.0
  endloop
endfacet
facet normal -0.6087533808653941 -0.7933595157839556 2.4509163729781107e-18
  outer loop
    vertex -1.0355340093374252 0.7945978164673076 0.0
    vertex -1.0355340093374252 0.7945978164673076 -4.999999886751175
    vertex -0.919888436794281 0.7058617115020978 0.0
  endloop
endfacet
facet normal -0.6087533808653941 -0.7933595157839556 -1.225458186489055e-18
  outer loop
    vertex -0.919888436794281 0.7058617115020978 0.0
    vertex -1.0355340093374252 0.7945978164673076 -4.999999886751175
    vertex -0.919888436794281 0.7058617115020978 -4.999999886751175
  endloop
endfacet
facet normal 0.0 0.0 -1.0
  outer loop
    vertex 0.0 8.660257482528708 -4.999999886751175
    vertex -0.919888436794281 0.7058617115020978 -4.999999886751175
    vertex -1.0355340093374252 0.7945978164673076 -4.999999886751175
  endloop
endfacet
facet normal 0.0 0.0 -1.0
  outer loop
    vertex 0.0 8.660257482528708 -4.999999886751175
    vertex -1.0355340093374252 0.7945978164673076 -4.999999886751175
    vertex -1.1242716282606124 0.9102399826050029 -4.999999886751175
  endloop
endfacet
facet normal 0.0 0.0 -1.0
  outer loop
    vertex 0.0 2.255973186038318e-14 -4.999999886751175
    vertex -0.919888436794281 0.7058617115020978 -4.999999886751175
    vertex 0.0 8.660257482528708 -4.999999886751175
  endloop
endfacet
facet normal 0.0 0.0 -1.0
  outer loop
    vertex 0.08518549501895904 4.977173185348533 -4.999999886751175
    vertex 0.0 4.330125713348411 -4.999999886751175
    vertex 0.0 8.660257482528708 -4.999999886751175
  endloop
endfacet
facet normal 0.0 0.0 -1.0
  outer loop
    vertex 1.0712328545749188 9.103980398178123 -4.999999886751175
    vertex 0.08518549501895904 4.977173185348533 -4.999999886751175
    vertex 0.0 8.660257482528708 -4.999999886751175
  endloop
endfacet
facet normal -0.38268618466951887 0.9238783924646614 -8.515369280532338e-18
  outer loop
    vertex 0.0 8.660257482528708 0.0
    vertex 1.0712328545749188 9.103980398178123 -4.999999886751175
    vertex 0.0 8.660257482528708 -4.999999886751175
  endloop
endfacet
facet normal -0.382686184669519 0.9238783924646614 -8.515369280532338e-18
  outer loop
    vertex 1.0712328545749188 9.103980398178123 0.0
    vertex 1.0712328545749188 9.103980398178123 -4.999999886751175
    vertex 0.0 8.660257482528708 0.0
  endloop
endfacet
facet normal -0.38270341293373755 0.923871256035639 0.0
  outer loop
    vertex 1.0712328545749188 9.103980398178123 0.0
    vertex 1.2059047155082225 9.159766721725486 -4.999999886751175
    vertex 1.0712328545749188 9.103980398178123 -4.999999886751175
  endloop
endfacet
facet normal -0.3827034129337376 0.9238712560356389 -2.1046225128563567e-18
  outer loop
    vertex 1.2059047155082225 9.159766721725486 0.0
    vertex 1.2059047155082225 9.159766721725486 -4.999999886751175
    vertex 1.0712328545749188 9.103980398178123 0.0
  endloop
endfacet
facet normal -0.1304506504459506 0.991454803709291 0.0
  outer loop
    vertex 1.2059047155082225 9.159766721725486 0.0
    vertex 1.3504254408180714 9.17878203392031 -4.999999886751175
    vertex 1.2059047155082225 9.159766721725486 -4.999999886751175
  endloop
endfacet
facet normal -0.13045065044595058 0.991454803709291 4.903081859283746e-19
  outer loop
    vertex 1.3504254408180714 9.17878203392031 0.0
    vertex 1.3504254408180714 9.17878203392031 -4.999999886751175
    vertex 1.2059047155082225 9.159766721725486 0.0
  endloop
endfacet
facet normal -0.13052873263312542 0.9914445269187733 7.935067378732306e-18
  outer loop
    vertex 1.3504254408180714 9.17878203392031 0.0
    vertex 2.499999943375588 9.330129384994528 -4.999999886751175
    vertex 1.3504254408180714 9.17878203392031 -4.999999886751175
  endloop
endfacet
facet normal -0.13052873263312542 0.9914445269187733 7.935067378732306e-18
  outer loop
    vertex 2.499999943375588 9.330129384994528 0.0
    vertex 2.499999943375588 9.330129384994528 -4.999999886751175
    vertex 1.3504254408180714 9.17878203392031 0.0
  endloop
endfacet
facet normal 0.13052873263312562 0.9914445269187733 -3.9675336893661625e-18
  outer loop
    vertex 2.499999943375588 9.330129384994528 0.0
    vertex 3.649574445933103 9.17878203392031 -4.999999886751175
    vertex 2.499999943375588 9.330129384994528 -4.999999886751175
  endloop
endfacet
facet normal 0.13052873263312562 0.9914445269187733 0.0
  outer loop
    vertex 3.649574445933103 9.17878203392031 0.0
    vertex 3.649574445933103 9.17878203392031 -4.999999886751175
    vertex 2.499999943375588 9.330129384994528 0.0
  endloop
endfacet
facet normal 0.13045065044595064 0.991454803709291 4.903081859283747e-19
  outer loop
    vertex 3.649574445933103 9.17878203392031 0.0
    vertex 3.7940951712429523 9.159766721725486 -4.999999886751175
    vertex 3.649574445933103 9.17878203392031 -4.999999886751175
  endloop
endfacet
facet normal 0.1304506504459506 0.991454803709291 0.0
  outer loop
    vertex 3.7940951712429523 9.159766721725486 0.0
    vertex 3.7940951712429523 9.159766721725486 -4.999999886751175
    vertex 3.649574445933103 9.17878203392031 0.0
  endloop
endfacet
facet normal 0.3827034129337376 0.9238712560356389 1.0523112564281784e-18
  outer loop
    vertex 3.7940951712429523 9.159766721725486 0.0
    vertex 3.928767032176256 9.103980398178123 -4.999999886751175
    vertex 3.7940951712429523 9.159766721725486 -4.999999886751175
  endloop
endfacet
facet normal 0.38270341293373755 0.923871256035639 -1.0523112564281784e-18
  outer loop
    vertex 3.928767032176256 9.103980398178123 0.0
    vertex 3.928767032176256 9.103980398178123 -4.999999886751175
    vertex 3.7940951712429523 9.159766721725486 0.0
  endloop
endfacet
facet normal 0.38268618466951887 0.9238783924646614 0.0
  outer loop
    vertex 3.928767032176256 9.103980398178123 0.0
    vertex 4.999999886751175 8.660257482528708 -4.999999886751175
    vertex 3.928767032176256 9.103980398178123 -4.999999886751175
  endloop
endfacet
facet normal 0.382686184669519 0.9238783924646614 8.515369280532338e-18
  outer loop
    vertex 4.999999886751175 8.660257482528708 0.0
    vertex 4.999999886751175 8.660257482528708 -4.999999886751175
    vertex 3.928767032176256 9.103980398178123 0.0
  endloop
endfacet
facet normal 0.8660253106313817 0.5000001613457932 0.0
  outer loop
    vertex 4.999999886751175 8.660257482528708 0.0
    vertex 6.250000047683716 6.495194625854515 -4.999999886751175
    vertex 4.999999886751175 8.660257482528708 -4.999999886751175
  endloop
endfacet
facet normal 0.0 0.0 -1.0
  outer loop
    vertex 6.250000047683716 6.495194625854515 -4.999999886751175
    vertex 6.0355338960886 0.7945978164673076 -4.999999886751175
    vertex 4.999999886751175 8.660257482528708 -4.999999886751175
  endloop
endfacet
facet normal 0.0 0.0 -1.0
  outer loop
    vertex 6.0355338960886 0.7945978164673076 -4.999999886751175
    vertex 4.999999886751175 2.255973186038318e-14 -4.999999886751175
    vertex 4.999999886751175 8.660257482528708 -4.999999886751175
  endloop
endfacet
facet normal 0.0 0.0 -1.0
  outer loop
    vertex 4.999999886751175 4.330125713348411 -4.999999886751175
    vertex 4.914814391732215 4.977173185348533 -4.999999886751175
    vertex 4.999999886751175 8.660257482528708 -4.999999886751175
  endloop
endfacet
facet normal 0.0 0.0 -1.0
  outer loop
    vertex 4.999999886751175 8.660257482528708 -4.999999886751175
    vertex 4.914814391732215 4.977173185348533 -4.999999886751175
    vertex 4.665063557028771 5.580128145217918 -4.999999886751175
  endloop
endfacet
facet normal 0.0 0.0 -1.0
  outer loop
    vertex 4.999999886751175 8.660257482528708 -4.999999886751175
    vertex 4.665063557028771 5.580128145217918 -4.999999886751175
    vertex 4.267766919732094 6.0978957176208715 -4.999999886751175
  endloop
endfacet
facet normal 0.0 0.0 -1.0
  outer loop
    vertex 4.999999886751175 8.660257482528708 -4.999999886751175
    vertex 4.267766919732094 6.0978957176208715 -4.999999886751175
    vertex 3.928767032176256 9.103980398178123 -4.999999886751175
  endloop
endfacet
facet normal 0.0 0.0 -1.0
  outer loop
    vertex 4.267766919732094 6.0978957176208715 -4.999999886751175
    vertex 3.7940951712429523 9.159766721725486 -4.999999886751175
    vertex 3.928767032176256 9.103980398178123 -4.999999886751175
  endloop
endfacet
facet normal 0.0 0.0 -1.0
  outer loop
    vertex 4.267766919732094 6.0978957176208715 -4.999999886751175
    vertex 3.749999915063381 6.495194625854515 -4.999999886751175
    vertex 3.7940951712429523 9.159766721725486 -4.999999886751175
  endloop
endfacet
facet normal 0.0 0.0 -1.0
  outer loop
    vertex 3.7940951712429523 9.159766721725486 -4.999999886751175
    vertex 3.749999915063381 6.495194625854515 -4.999999886751175
    vertex 3.649574445933103 9.17878203392031 -4.999999886751175
  endloop
endfacet
facet normal 0.0 0.0 -1.0
  outer loop
    vertex 3.749999915063381 6.495194625854515 -4.999999886751175
    vertex 3.1470475573092695 6.744943189620994 -4.999999886751175
    vertex 3.649574445933103 9.17878203392031 -4.999999886751175
  endloop
endfacet
facet normal 0.0 0.0 -1.0
  outer loop
    vertex 3.649574445933103 9.17878203392031 -4.999999886751175
    vertex 3.1470475573092695 6.744943189620994 -4.999999886751175
    vertex 2.499999943375588 9.330129384994528 -4.999999886751175
  endloop
endfacet
facet normal 0.0 0.0 -1.0
  outer loop
    vertex 3.1470475573092695 6.744943189620994 -4.999999886751175
    vertex 2.4999999433755877 6.830124521255516 -4.999999886751175
    vertex 2.499999943375588 9.330129384994528 -4.999999886751175
  endloop
endfacet
facet normal 0.0 0.0 -1.0
  outer loop
    vertex 2.499999943375588 9.330129384994528 -4.999999886751175
    vertex 2.4999999433755877 6.830124521255516 -4.999999886751175
    vertex 1.852952329441905 6.744943189620994 -4.999999886751175
  endloop
endfacet
facet normal 0.0 0.0 -1.0
  outer loop
    vertex 2.499999943375588 9.330129384994528 -4.999999886751175
    vertex 1.852952329441905 6.744943189620994 -4.999999886751175
    vertex 1.3504254408180714 9.17878203392031 -4.999999886751175
  endloop
endfacet
facet normal 0.0 0.0 -1.0
  outer loop
    vertex 1.852952329441905 6.744943189620994 -4.999999886751175
    vertex 1.2499999716877936 6.495194625854515 -4.999999886751175
    vertex 1.3504254408180714 9.17878203392031 -4.999999886751175
  endloop
endfacet
facet normal 0.0 0.0 -1.0
  outer loop
    vertex 1.3504254408180714 9.17878203392031 -4.999999886751175
    vertex 1.2499999716877936 6.495194625854515 -4.999999886751175
    vertex 1.2059047155082225 9.159766721725486 -4.999999886751175
  endloop
endfacet
facet normal 0.0 0.0 -1.0
  outer loop
    vertex 1.2499999716877936 6.495194625854515 -4.999999886751175
    vertex 1.0712328545749188 9.103980398178123 -4.999999886751175
    vertex 1.2059047155082225 9.159766721725486 -4.999999886751175
  endloop
endfacet
facet normal 0.0 0.0 -1.0
  outer loop
    vertex 1.2499999716877936 6.495194625854515 -4.999999886751175
    vertex 0.732232967019081 6.0978957176208715 -4.999999886751175
    vertex 1.0712328545749188 9.103980398178123 -4.999999886751175
  endloop
endfacet
facet normal 0.0 0.0 -1.0
  outer loop
    vertex 1.0712328545749188 9.103980398178123 -4.999999886751175
    vertex 0.732232967019081 6.0978957176208715 -4.999999886751175
    vertex 0.33493632972240445 5.580128145217918 -4.999999886751175
  endloop
endfacet
facet normal 0.0 0.0 -1.0
  outer loop
    vertex 1.0712328545749188 9.103980398178123 -4.999999886751175
    vertex 0.33493632972240445 5.580128145217918 -4.999999886751175
    vertex 0.08518549501895904 4.977173185348533 -4.999999886751175
  endloop
endfacet
facet normal 0.9238802298155284 -0.38268174891939416 -6.719583929896801e-18
  outer loop
    vertex 0.33493632972240445 5.580128145217918 -4.999999886751175
    vertex 0.08518549501895904 4.977173185348533 0.0
    vertex 0.08518549501895904 4.977173185348533 -4.999999886751175
  endloop
endfacet
facet normal 0.9238802298155286 -0.38268174891939416 0.0
  outer loop
    vertex 0.33493632972240445 5.580128145217918 0.0
    vertex 0.08518549501895904 4.977173185348533 0.0
    vertex 0.33493632972240445 5.580128145217918 -4.999999886751175
  endloop
endfacet
facet normal 0.7933536322368357 -0.6087610485376175 0.0
  outer loop
    vertex 0.732232967019081 6.0978957176208715 -4.999999886751175
    vertex 0.33493632972240445 5.580128145217918 0.0
    vertex 0.33493632972240445 5.580128145217918 -4.999999886751175
  endloop
endfacet
facet normal 0.7933536322368357 -0.6087610485376175 -1.565033249494523e-17
  outer loop
    vertex 0.732232967019081 6.0978957176208715 0.0
    vertex 0.33493632972240445 5.580128145217918 0.0
    vertex 0.732232967019081 6.0978957176208715 -4.999999886751175
  endloop
endfacet
facet normal 0.6087636588013398 -0.7933516293062025 -7.825163652399386e-18
  outer loop
    vertex 0.732232967019081 6.0978957176208715 0.0
    vertex 0.732232967019081 6.0978957176208715 -4.999999886751175
    vertex 1.2499999716877936 6.495194625854515 0.0
  endloop
endfacet
facet normal 0.6087636588013398 -0.7933516293062025 7.825163652399386e-18
  outer loop
    vertex 1.2499999716877936 6.495194625854515 0.0
    vertex 0.732232967019081 6.0978957176208715 -4.999999886751175
    vertex 1.2499999716877936 6.495194625854515 -4.999999886751175
  endloop
endfacet
facet normal 0.38268018848555635 -0.9238808761635123 -6.719646629480052e-18
  outer loop
    vertex 1.2499999716877936 6.495194625854515 0.0
    vertex 1.2499999716877936 6.495194625854515 -4.999999886751175
    vertex 1.852952329441905 6.744943189620994 0.0
  endloop
endfacet
facet normal 0.38268018848555635 -0.9238808761635123 0.0
  outer loop
    vertex 1.852952329441905 6.744943189620994 0.0
    vertex 1.2499999716877936 6.495194625854515 -4.999999886751175
    vertex 1.852952329441905 6.744943189620994 -4.999999886751175
  endloop
endfacet
facet normal 0.1305200127659849 -0.9914456748947807 -4.696281909262735e-18
  outer loop
    vertex 1.852952329441905 6.744943189620994 0.0
    vertex 1.852952329441905 6.744943189620994 -4.999999886751175
    vertex 2.4999999433755877 6.830124521255516 0.0
  endloop
endfacet
facet normal 0.13052001276598485 -0.9914456748947807 -3.130854606175155e-18
  outer loop
    vertex 2.4999999433755877 6.830124521255516 0.0
    vertex 1.852952329441905 6.744943189620994 -4.999999886751175
    vertex 2.4999999433755877 6.830124521255516 -4.999999886751175
  endloop
endfacet
facet normal -0.1305200127659849 -0.9914456748947807 -4.69628190926274e-18
  outer loop
    vertex 2.4999999433755877 6.830124521255516 0.0
    vertex 2.4999999433755877 6.830124521255516 -4.999999886751175
    vertex 3.1470475573092695 6.744943189620994 0.0
  endloop
endfacet
facet normal -0.1305200127659849 -0.9914456748947807 -1.5654273030875802e-18
  outer loop
    vertex 3.1470475573092695 6.744943189620994 0.0
    vertex 2.4999999433755877 6.830124521255516 -4.999999886751175
    vertex 3.1470475573092695 6.744943189620994 -4.999999886751175
  endloop
endfacet
facet normal -0.38268018848555635 -0.9238808761635123 6.719646629480052e-18
  outer loop
    vertex 3.1470475573092695 6.744943189620994 0.0
    vertex 3.1470475573092695 6.744943189620994 -4.999999886751175
    vertex 3.749999915063381 6.495194625854515 0.0
  endloop
endfacet
facet normal -0.38268018848555635 -0.9238808761635123 0.0
  outer loop
    vertex 3.749999915063381 6.495194625854515 0.0
    vertex 3.1470475573092695 6.744943189620994 -4.999999886751175
    vertex 3.749999915063381 6.495194625854515 -4.999999886751175
  endloop
endfacet
facet normal -0.6087636588013398 -0.7933516293062025 7.825163652399386e-18
  outer loop
    vertex 3.749999915063381 6.495194625854515 0.0
    vertex 3.749999915063381 6.495194625854515 -4.999999886751175
    vertex 4.267766919732094 6.0978957176208715 0.0
  endloop
endfacet
facet normal -0.6087636588013398 -0.7933516293062025 7.825163652399386e-18
  outer loop
    vertex 4.267766919732094 6.0978957176208715 0.0
    vertex 3.749999915063381 6.495194625854515 -4.999999886751175
    vertex 4.267766919732094 6.0978957176208715 -4.999999886751175
  endloop
endfacet
facet normal -0.7933536322368357 -0.6087610485376175 0.0
  outer loop
    vertex 4.267766919732094 6.0978957176208715 -4.999999886751175
    vertex 4.665063557028771 5.580128145217918 -4.999999886751175
    vertex 4.267766919732094 6.0978957176208715 0.0
  endloop
endfacet
facet normal -0.7933536322368357 -0.6087610485376175 -7.825166247472615e-18
  outer loop
    vertex 4.267766919732094 6.0978957176208715 0.0
    vertex 4.665063557028771 5.580128145217918 -4.999999886751175
    vertex 4.665063557028771 5.580128145217918 0.0
  endloop
endfacet
facet normal -0.9238802298155286 -0.38268174891939416 0.0
  outer loop
    vertex 4.665063557028771 5.580128145217918 -4.999999886751175
    vertex 4.914814391732215 4.977173185348533 -4.999999886751175
    vertex 4.665063557028771 5.580128145217918 0.0
  endloop
endfacet
facet normal -0.9238802298155286 -0.38268174891939416 0.0
  outer loop
    vertex 4.665063557028771 5.580128145217918 0.0
    vertex 4.914814391732215 4.977173185348533 -4.999999886751175
    vertex 4.914814391732215 4.977173185348533 0.0
  endloop
endfacet
facet normal -0.9914448456549312 -0.13052631161673842 -1.565426680542921e-18
  outer loop
    vertex 4.914814391732215 4.977173185348533 -4.999999886751175
    vertex 4.999999886751175 4.330125713348411 -4.999999886751175
    vertex 4.914814391732215 4.977173185348533 0.0
  endloop
endfacet
facet normal -0.9914448456549312 -0.13052631161673836 -3.1308533610858405e-18
  outer loop
    vertex 4.914814391732215 4.977173185348533 0.0
    vertex 4.999999886751175 4.330125713348411 -4.999999886751175
    vertex 4.999999886751175 4.330125713348411 0.0
  endloop
endfacet
facet normal -0.9914446875634924 0.13052751243369698 1.5654557335447695e-18
  outer loop
    vertex 4.999999886751175 4.330125713348411 -4.999999886751175
    vertex 4.914814391732215 3.6830842971801983 -4.999999886751175
    vertex 4.999999886751175 4.330125713348411 0.0
  endloop
endfacet
facet normal -0.9914446875634924 0.13052751243369698 -3.1309114670895383e-18
  outer loop
    vertex 4.999999886751175 4.330125713348411 0.0
    vertex 4.914814391732215 3.6830842971801983 -4.999999886751175
    vertex 4.914814391732215 3.6830842971801983 0.0
  endloop
endfacet
facet normal -0.9238802298155286 0.38268174891939416 0.0
  outer loop
    vertex 4.914814391732215 3.6830842971801983 -4.999999886751175
    vertex 4.665063557028771 3.0801293373108134 -4.999999886751175
    vertex 4.914814391732215 3.6830842971801983 0.0
  endloop
endfacet
facet normal -0.9238802298155286 0.38268174891939416 0.0
  outer loop
    vertex 4.914814391732215 3.6830842971801983 0.0
    vertex 4.665063557028771 3.0801293373108134 -4.999999886751175
    vertex 4.665063557028771 3.0801293373108134 0.0
  endloop
endfacet
facet normal -0.7933501934576634 0.6087655300201285 0.0
  outer loop
    vertex 4.665063557028771 3.0801293373108134 -4.999999886751175
    vertex 4.267766919732094 2.5623678207397687 -4.999999886751175
    vertex 4.665063557028771 3.0801293373108134 0.0
  endloop
endfacet
facet normal -0.7933501934576637 0.6087655300201283 -1.5650630757585476e-17
  outer loop
    vertex 4.665063557028771 3.0801293373108134 0.0
    vertex 4.267766919732094 2.5623678207397687 -4.999999886751175
    vertex 4.267766919732094 2.5623678207397687 0.0
  endloop
endfacet
facet normal -0.6087694990712019 0.7933471478492866 -7.825119449888832e-18
  outer loop
    vertex 4.267766919732094 2.5623678207397687 0.0
    vertex 4.267766919732094 2.5623678207397687 -4.999999886751175
    vertex 3.749999915063381 2.1650628566742167 0.0
  endloop
endfacet
facet normal -0.6087694990712019 0.7933471478492866 0.0
  outer loop
    vertex 3.749999915063381 2.1650628566742167 0.0
    vertex 4.267766919732094 2.5623678207397687 -4.999999886751175
    vertex 3.749999915063381 2.1650628566742167 -4.999999886751175
  endloop
endfacet
facet normal 0.0 0.0 -1.0
  outer loop
    vertex 4.999999886751175 2.255973186038318e-14 -4.999999886751175
    vertex 3.749999915063381 2.1650628566742167 -4.999999886751175
    vertex 4.267766919732094 2.5623678207397687 -4.999999886751175
  endloop
endfacet
facet normal 0.0 0.0 -1.0
  outer loop
    vertex 4.999999886751175 2.255973186038318e-14 -4.999999886751175
    vertex 3.1470475573092695 1.9153142929077374 -4.999999886751175
    vertex 3.749999915063381 2.1650628566742167 -4.999999886751175
  endloop
endfacet
facet normal 0.0 0.0 -1.0
  outer loop
    vertex 4.999999886751175 2.255973186038318e-14 -4.999999886751175
    vertex 2.4999999433755873 2.255973186038318e-14 -4.999999886751175
    vertex 3.1470475573092695 1.9153142929077374 -4.999999886751175
  endloop
endfacet
facet normal 0.0 0.0 -1.0
  outer loop
    vertex 3.1470475573092695 1.9153142929077374 -4.999999886751175
    vertex 2.4999999433755873 2.255973186038318e-14 -4.999999886751175
    vertex 2.4999999433755873 1.8301269054413067 -4.999999886751175
  endloop
endfacet
facet normal 0.0 0.0 -1.0
  outer loop
    vertex 2.4999999433755873 2.255973186038318e-14 -4.999999886751175
    vertex 1.852952329441905 1.9153142929077374 -4.999999886751175
    vertex 2.4999999433755873 1.8301269054413067 -4.999999886751175
  endloop
endfacet
facet normal 0.0 0.0 -1.0
  outer loop
    vertex 2.4999999433755873 2.255973186038318e-14 -4.999999886751175
    vertex 1.2499999716877936 2.1650628566742167 -4.999999886751175
    vertex 1.852952329441905 1.9153142929077374 -4.999999886751175
  endloop
endfacet
facet normal 0.0 0.0 -1.0
  outer loop
    vertex 2.4999999433755873 2.255973186038318e-14 -4.999999886751175
    vertex 0.732232967019081 2.5623678207397687 -4.999999886751175
    vertex 1.2499999716877936 2.1650628566742167 -4.999999886751175
  endloop
endfacet
facet normal 0.0 0.0 -1.0
  outer loop
    vertex 2.4999999433755873 2.255973186038318e-14 -4.999999886751175
    vertex 0.33493632972240445 3.0801293373108134 -4.999999886751175
    vertex 0.732232967019081 2.5623678207397687 -4.999999886751175
  endloop
endfacet
facet normal 0.0 0.0 -1.0
  outer loop
    vertex 2.4999999433755873 2.255973186038318e-14 -4.999999886751175
    vertex 0.0 2.255973186038318e-14 -4.999999886751175
    vertex 0.33493632972240445 3.0801293373108134 -4.999999886751175
  endloop
endfacet
facet normal 0.0 0.0 -1.0
  outer loop
    vertex 0.33493632972240445 3.0801293373108134 -4.999999886751175
    vertex 0.0 2.255973186038318e-14 -4.999999886751175
    vertex 0.08518549501895904 3.6830842971801983 -4.999999886751175
  endloop
endfacet
facet normal 0.0 0.0 -1.0
  outer loop
    vertex 0.08518549501895904 3.6830842971801983 -4.999999886751175
    vertex 0.0 2.255973186038318e-14 -4.999999886751175
    vertex 0.0 4.330125713348411 -4.999999886751175
  endloop
endfacet
facet normal 0.9914446875634924 0.13052751243369698 1.5654557335447695e-18
  outer loop
    vertex 0.0 4.330125713348411 -4.999999886751175
    vertex 0.08518549501895904 3.6830842971801983 0.0
    vertex 0.08518549501895904 3.6830842971801983 -4.999999886751175
  endloop
endfacet
facet normal 0.9914446875634924 0.13052751243369698 0.0
  outer loop
    vertex 0.0 4.330125713348411 0.0
    vertex 0.08518549501895904 3.6830842971801983 0.0
    vertex 0.0 4.330125713348411 -4.999999886751175
  endloop
endfacet
facet normal 0.9914448456549312 -0.1305263116167384 1.5654266805429206e-18
  outer loop
    vertex 0.08518549501895904 4.977173185348533 -4.999999886751175
    vertex 0.0 4.330125713348411 0.0
    vertex 0.0 4.330125713348411 -4.999999886751175
  endloop
endfacet
facet normal 0.9914448456549312 -0.13052631161673842 -3.130853361085842e-18
  outer loop
    vertex 0.08518549501895904 4.977173185348533 0.0
    vertex 0.0 4.330125713348411 0.0
    vertex 0.08518549501895904 4.977173185348533 -4.999999886751175
  endloop
endfacet
facet normal 0.0 0.0 1.0
  outer loop
    vertex 0.08518549501895904 3.6830842971801983 0.0
    vertex 0.0 4.330125713348411 0.0
    vertex 0.0 2.255973186038318e-14 0.0
  endloop
endfacet
facet normal 0.0 0.0 1.0
  outer loop
    vertex 0.33493632972240445 3.0801293373108134 0.0
    vertex 0.08518549501895904 3.6830842971801983 0.0
    vertex 0.0 2.255973186038318e-14 0.0
  endloop
endfacet
facet normal 0.0 0.0 1.0
  outer loop
    vertex 2.4999999433755873 2.255973186038318e-14 0.0
    vertex 0.33493632972240445 3.0801293373108134 0.0
    vertex 0.0 2.255973186038318e-14 0.0
  endloop
endfacet
facet normal 0.0 0.0 1.0
  outer loop
    vertex 2.4999999433755873 2.255973186038318e-14 0.0
    vertex 0.0 2.255973186038318e-14 0.0
    vertex 2.4999999433755873 -35.66986732482908 0.0
  endloop
endfacet
facet normal -0.8926749078425572 -0.0625650552253601 -0.4463374539212786
  outer loop
    vertex 2.4999999433755873 2.255973186038318e-14 -4.999999886751175
    vertex 2.4999999433755873 -35.66986732482908 0.0
    vertex 0.0 2.255973186038318e-14 0.0
  endloop
endfacet
facet normal 0.8926749078425572 -0.06256505522536011 -0.4463374539212787
  outer loop
    vertex 4.999999886751175 2.255973186038318e-14 0.0
    vertex 2.4999999433755873 -35.66986732482908 0.0
    vertex 2.4999999433755873 2.255973186038318e-14 -4.999999886751175
  endloop
endfacet
facet normal 0.0 0.0 1.0
  outer loop
    vertex 4.999999886751175 2.255973186038318e-14 0.0
    vertex 2.4999999433755873 2.255973186038318e-14 0.0
    vertex 2.4999999433755873 -35.66986732482908 0.0
  endloop
endfacet
facet normal 0.0 0.0 1.0
  outer loop
    vertex 4.999999886751175 2.255973186038318e-14 0.0
    vertex 3.1470475573092695 1.9153142929077374 0.0
    vertex 2.4999999433755873 2.255973186038318e-14 0.0
  endloop
endfacet
facet normal 0.0 0.0 1.0
  outer loop
    vertex 3.1470475573092695 1.9153142929077374 0.0
    vertex 2.4999999433755873 1.8301269054413067 0.0
    vertex 2.4999999433755873 2.255973186038318e-14 0.0
  endloop
endfacet
facet normal -0.13052913378897935 0.991444474104475 1.5654254071189162e-18
  outer loop
    vertex 3.1470475573092695 1.9153142929077374 0.0
    vertex 3.1470475573092695 1.9153142929077374 -4.999999886751175
    vertex 2.4999999433755873 1.8301269054413067 0.0
  endloop
endfacet
facet normal -0.13052913378897935 0.991444474104475 -1.5654254071189162e-18
  outer loop
    vertex 2.4999999433755873 1.8301269054413067 0.0
    vertex 3.1470475573092695 1.9153142929077374 -4.999999886751175
    vertex 2.4999999433755873 1.8301269054413067 -4.999999886751175
  endloop
endfacet
facet normal 0.13052913378897935 0.991444474104475 1.5654254071189166e-18
  outer loop
    vertex 2.4999999433755873 1.8301269054413067 0.0
    vertex 2.4999999433755873 1.8301269054413067 -4.999999886751175
    vertex 1.852952329441905 1.9153142929077374 0.0
  endloop
endfacet
facet normal 0.13052913378897935 0.991444474104475 -1.5654254071189162e-18
  outer loop
    vertex 1.852952329441905 1.9153142929077374 0.0
    vertex 2.4999999433755873 1.8301269054413067 -4.999999886751175
    vertex 1.852952329441905 1.9153142929077374 -4.999999886751175
  endloop
endfacet
facet normal 0.38268018848555635 0.9238808761635123 6.719646629480052e-18
  outer loop
    vertex 1.852952329441905 1.9153142929077374 0.0
    vertex 1.852952329441905 1.9153142929077374 -4.999999886751175
    vertex 1.2499999716877936 2.1650628566742167 0.0
  endloop
endfacet
facet normal 0.38268018848555635 0.9238808761635123 0.0
  outer loop
    vertex 1.2499999716877936 2.1650628566742167 0.0
    vertex 1.852952329441905 1.9153142929077374 -4.999999886751175
    vertex 1.2499999716877936 2.1650628566742167 -4.999999886751175
  endloop
endfacet
facet normal 0.6087694990712019 0.7933471478492866 7.825119449888832e-18
  outer loop
    vertex 1.2499999716877936 2.1650628566742167 0.0
    vertex 1.2499999716877936 2.1650628566742167 -4.999999886751175
    vertex 0.732232967019081 2.5623678207397687 0.0
  endloop
endfacet
facet normal 0.6087694990712019 0.7933471478492866 0.0
  outer loop
    vertex 0.732232967019081 2.5623678207397687 0.0
    vertex 1.2499999716877936 2.1650628566742167 -4.999999886751175
    vertex 0.732232967019081 2.5623678207397687 -4.999999886751175
  endloop
endfacet
facet normal 0.7933501934576637 0.6087655300201283 -7.825315378792738e-18
  outer loop
    vertex 0.33493632972240445 3.0801293373108134 -4.999999886751175
    vertex 0.732232967019081 2.5623678207397687 0.0
    vertex 0.732232967019081 2.5623678207397687 -4.999999886751175
  endloop
endfacet
facet normal 0.7933501934576637 0.6087655300201283 0.0
  outer loop
    vertex 0.33493632972240445 3.0801293373108134 0.0
    vertex 0.732232967019081 2.5623678207397687 0.0
    vertex 0.33493632972240445 3.0801293373108134 -4.999999886751175
  endloop
endfacet
facet normal 0.9238802298155284 0.38268174891939416 6.719583929896801e-18
  outer loop
    vertex 0.08518549501895904 3.6830842971801983 -4.999999886751175
    vertex 0.33493632972240445 3.0801293373108134 0.0
    vertex 0.33493632972240445 3.0801293373108134 -4.999999886751175
  endloop
endfacet
facet normal 0.9238802298155286 0.38268174891939416 0.0
  outer loop
    vertex 0.08518549501895904 3.6830842971801983 0.0
    vertex 0.33493632972240445 3.0801293373108134 0.0
    vertex 0.08518549501895904 3.6830842971801983 -4.999999886751175
  endloop
endfacet
facet normal 0.0 0.0 1.0
  outer loop
    vertex 2.4999999433755873 2.255973186038318e-14 0.0
    vertex 0.732232967019081 2.5623678207397687 0.0
    vertex 0.33493632972240445 3.0801293373108134 0.0
  endloop
endfacet
facet normal 0.0 0.0 1.0
  outer loop
    vertex 2.4999999433755873 2.255973186038318e-14 0.0
    vertex 1.2499999716877936 2.1650628566742167 0.0
    vertex 0.732232967019081 2.5623678207397687 0.0
  endloop
endfacet
facet normal 0.0 0.0 1.0
  outer loop
    vertex 2.4999999433755873 2.255973186038318e-14 0.0
    vertex 1.852952329441905 1.9153142929077374 0.0
    vertex 1.2499999716877936 2.1650628566742167 0.0
  endloop
endfacet
facet normal 0.0 0.0 1.0
  outer loop
    vertex 2.4999999433755873 2.255973186038318e-14 0.0
    vertex 2.4999999433755873 1.8301269054413067 0.0
    vertex 1.852952329441905 1.9153142929077374 0.0
  endloop
endfacet
facet normal -0.38268018848555635 0.9238808761635123 0.0
  outer loop
    vertex 3.1470475573092695 1.9153142929077374 0.0
    vertex 3.749999915063381 2.1650628566742167 -4.999999886751175
    vertex 3.1470475573092695 1.9153142929077374 -4.999999886751175
  endloop
endfacet
facet normal -0.38268018848555635 0.9238808761635123 -6.719646629480052e-18
  outer loop
    vertex 3.749999915063381 2.1650628566742167 0.0
    vertex 3.749999915063381 2.1650628566742167 -4.999999886751175
    vertex 3.1470475573092695 1.9153142929077374 0.0
  endloop
endfacet
facet normal 0.0 0.0 1.0
  outer loop
    vertex 4.999999886751175 2.255973186038318e-14 0.0
    vertex 3.749999915063381 2.1650628566742167 0.0
    vertex 3.1470475573092695 1.9153142929077374 0.0
  endloop
endfacet
facet normal 0.0 0.0 1.0
  outer loop
    vertex 4.999999886751175 2.255973186038318e-14 0.0
    vertex 4.267766919732094 2.5623678207397687 0.0
    vertex 3.749999915063381 2.1650628566742167 0.0
  endloop
endfacet
facet normal 0.0 0.0 1.0
  outer loop
    vertex 4.999999886751175 2.255973186038318e-14 0.0
    vertex 4.665063557028771 3.0801293373108134 0.0
    vertex 4.267766919732094 2.5623678207397687 0.0
  endloop
endfacet
facet normal 0.0 0.0 1.0
  outer loop
    vertex 4.999999886751175 2.255973186038318e-14 0.0
    vertex 4.914814391732215 3.6830842971801983 0.0
    vertex 4.665063557028771 3.0801293373108134 0.0
  endloop
endfacet
facet normal 0.0 0.0 1.0
  outer loop
    vertex 4.999999886751175 4.330125713348411 0.0
    vertex 4.914814391732215 3.6830842971801983 0.0
    vertex 4.999999886751175 2.255973186038318e-14 0.0
  endloop
endfacet
facet normal 0.0 -1.0 0.0
  outer loop
    vertex 4.999999886751175 2.255973186038318e-14 0.0
    vertex 2.4999999433755873 2.255973186038318e-14 -4.999999886751175
    vertex 4.999999886751175 2.255973186038318e-14 -4.999999886751175
  endloop
endfacet
facet normal 0.0 -1.0 0.0
  outer loop
    vertex 0.0 2.255973186038318e-14 0.0
    vertex 0.0 2.255973186038318e-14 -4.999999886751175
    vertex 2.4999999433755873 2.255973186038318e-14 -4.999999886751175
  endloop
endfacet
facet normal -0.6087649508904542 -0.7933506378439125 1.9832675034845076e-17
  outer loop
    vertex 0.0 2.255973186038318e-14 0.0
    vertex -0.919888436794281 0.7058617115020978 -4.999999886751175
    vertex 0.0 2.255973186038318e-14 -4.999999886751175
  endloop
endfacet
facet normal -0.6087649508904542 -0.7933506378439125 0.0
  outer loop
    vertex -0.919888436794281 0.7058617115020978 0.0
    vertex -0.919888436794281 0.7058617115020978 -4.999999886751175
    vertex 0.0 2.255973186038318e-14 0.0
  endloop
endfacet
facet normal 0.0 0.0 -1.0
  outer loop
    vertex 4.999999886751175 2.255973186038318e-14 -4.999999886751175
    vertex 4.267766919732094 2.5623678207397687 -4.999999886751175
    vertex 4.665063557028771 3.0801293373108134 -4.999999886751175
  endloop
endfacet
facet normal 0.0 0.0 -1.0
  outer loop
    vertex 4.999999886751175 2.255973186038318e-14 -4.999999886751175
    vertex 4.665063557028771 3.0801293373108134 -4.999999886751175
    vertex 4.914814391732215 3.6830842971801983 -4.999999886751175
  endloop
endfacet
facet normal 0.0 0.0 -1.0
  outer loop
    vertex 4.999999886751175 2.255973186038318e-14 -4.999999886751175
    vertex 4.914814391732215 3.6830842971801983 -4.999999886751175
    vertex 4.999999886751175 4.330125713348411 -4.999999886751175
  endloop
endfacet
facet normal 0.0 0.0 -1.0
  outer loop
    vertex 6.830127170681953 1.8301269054413067 -4.999999886751175
    vertex 6.0355338960886 0.7945978164673076 -4.999999886751175
    vertex 6.250000047683716 6.495194625854515 -4.999999886751175
  endloop
endfacet
facet normal 0.0 0.0 -1.0
  outer loop
    vertex 7.499999830126762 4.330125713348411 -4.999999886751175
    vertex 6.830127170681953 1.8301269054413067 -4.999999886751175
    vertex 6.250000047683716 6.495194625854515 -4.999999886751175
  endloop
endfacet
facet normal 0.0 0.0 -1.0
  outer loop
    vertex 7.499999830126762 4.330125713348411 -4.999999886751175
    vertex 7.273845922946929 2.901361179351829 -4.999999886751175
    vertex 6.830127170681953 1.8301269054413067 -4.999999886751175
  endloop
endfacet
facet normal 0.0 0.0 -1.0
  outer loop
    vertex 7.499999830126762 4.330125713348411 -4.999999886751175
    vertex 7.348655506968498 3.18055319786074 -4.999999886751175
    vertex 7.273845922946929 2.901361179351829 -4.999999886751175
  endloop
endfacet
facet normal -0.8660259817692737 0.49999899889956345 0.0
  outer loop
    vertex -1.2500001609325408 6.495194625854515 -4.999999886751175
    vertex -2.4999999433755873 4.330125713348411 -4.999999886751175
    vertex -2.4999999433755873 4.330125713348411 0.0
  endloop
endfacet
facet normal -0.5005201162908782 -0.741796416214093 -0.44633808943456066
  outer loop
    vertex -32.14101787507534 24.330122232437155 0.0
    vertex -1.2500001609325408 6.495194625854515 -4.999999886751175
    vertex -2.4999999433755873 4.330125713348411 0.0
  endloop
endfacet
facet normal 0.0 0.0 1.0
  outer loop
    vertex 6.830127170681953 1.8301269054413067 0.0
    vertex 6.250000047683716 6.495194625854515 0.0
    vertex 6.0355338960886 0.7945978164673076 0.0
  endloop
endfacet
facet normal 0.0 0.0 1.0
  outer loop
    vertex 7.499999830126762 4.330125713348411 0.0
    vertex 6.250000047683716 6.495194625854515 0.0
    vertex 6.830127170681953 1.8301269054413067 0.0
  endloop
endfacet
facet normal 0.0 0.0 1.0
  outer loop
    vertex 7.499999830126762 4.330125713348411 0.0
    vertex 6.830127170681953 1.8301269054413067 0.0
    vertex 7.273845922946929 2.901361179351829 0.0
  endloop
endfacet
facet normal 0.0 0.0 1.0
  outer loop
    vertex 7.499999830126762 4.330125713348411 0.0
    vertex 7.273845922946929 2.901361179351829 0.0
    vertex 7.348655506968498 3.18055319786074 0.0
  endloop
endfacet
facet normal 0.0 0.0 1.0
  outer loop
    vertex 7.348655506968498 3.18055319786074 0.0
    vertex 7.273845922946929 2.901361179351829 0.0
    vertex 7.329628840088844 3.036036825180076 0.0
  endloop
endfacet
endsolid Untitled-594b1829
