solid RFIDtagholder2
facet normal 0.0 0.0 -1.0
  outer loop
    vertex 28.0 44.0 0.0
    vertex -28.0 -44.0 0.0
    vertex -28.0 44.0 0.0
  endloop
endfacet
facet normal 0.0 0.0 -1.0
  outer loop
    vertex -28.0 -44.0 0.0
    vertex 28.0 44.0 0.0
    vertex 28.0 -44.0 0.0
  endloop
endfacet
facet normal 0.0 0.0 -1.0
  outer loop
    vertex -30.0 46.0 -1.9999999999999998
    vertex -28.0 44.0 -1.9999999999999998
    vertex -30.0 -46.0 -1.9999999999999998
  endloop
endfacet
facet normal 0.0 0.0 -1.0
  outer loop
    vertex -28.0 44.0 -1.9999999999999998
    vertex -30.0 46.0 -1.9999999999999998
    vertex 30.0 46.0 -1.9999999999999998
  endloop
endfacet
facet normal 0.0 0.0 -1.0
  outer loop
    vertex -28.0 44.0 -1.9999999999999998
    vertex 30.0 46.0 -1.9999999999999998
    vertex 28.0 44.0 -1.9999999999999998
  endloop
endfacet
facet normal 0.0 0.0 -1.0
  outer loop
    vertex 28.0 44.0 -1.9999999999999998
    vertex 30.0 46.0 -1.9999999999999998
    vertex 28.0 -44.0 -1.9999999999999998
  endloop
endfacet
facet normal 0.0 0.0 -1.0
  outer loop
    vertex -30.0 -46.0 -1.9999999999999998
    vertex -28.0 -44.0 -1.9999999999999998
    vertex 30.0 -46.0 -1.9999999999999998
  endloop
endfacet
facet normal 0.0 0.0 -1.0
  outer loop
    vertex -28.0 -44.0 -1.9999999999999998
    vertex -30.0 -46.0 -1.9999999999999998
    vertex -28.0 44.0 -1.9999999999999998
  endloop
endfacet
facet normal 0.0 0.0 -1.0
  outer loop
    vertex 30.0 -46.0 -1.9999999999999998
    vertex -28.0 -44.0 -1.9999999999999998
    vertex 28.0 -44.0 -1.9999999999999998
  endloop
endfacet
facet normal 0.0 0.0 -1.0
  outer loop
    vertex 30.0 -46.0 -1.9999999999999998
    vertex 28.0 -44.0 -1.9999999999999998
    vertex 30.0 46.0 -1.9999999999999998
  endloop
endfacet
facet normal -0.0 1.0 0.0
  outer loop
    vertex -30.0 46.0 1.9999999999999998
    vertex 30.0 46.0 -1.9999999999999998
    vertex -30.0 46.0 -1.9999999999999998
  endloop
endfacet
facet normal -0.0 1.0 0.0
  outer loop
    vertex 30.0 46.0 -1.9999999999999998
    vertex -30.0 46.0 1.9999999999999998
    vertex 30.0 46.0 1.9999999999999998
  endloop
endfacet
facet normal 1.0 0.0 0.0
  outer loop
    vertex 30.0 46.0 -1.9999999999999998
    vertex 30.0 -46.0 1.9999999999999998
    vertex 30.0 -46.0 -1.9999999999999998
  endloop
endfacet
facet normal 1.0 0.0 0.0
  outer loop
    vertex 30.0 -46.0 1.9999999999999998
    vertex 30.0 46.0 -1.9999999999999998
    vertex 30.0 46.0 1.9999999999999998
  endloop
endfacet
facet normal -0.0 -1.0 -0.0
  outer loop
    vertex 30.0 -46.0 1.9999999999999998
    vertex -30.0 -46.0 -1.9999999999999998
    vertex 30.0 -46.0 -1.9999999999999998
  endloop
endfacet
facet normal -0.0 -1.0 -0.0
  outer loop
    vertex -30.0 -46.0 -1.9999999999999998
    vertex 30.0 -46.0 1.9999999999999998
    vertex -30.0 -46.0 1.9999999999999998
  endloop
endfacet
facet normal -1.0 0.0 0.0
  outer loop
    vertex -30.0 46.0 1.9999999999999998
    vertex -30.0 -46.0 -1.9999999999999998
    vertex -30.0 -46.0 1.9999999999999998
  endloop
endfacet
facet normal -1.0 0.0 0.0
  outer loop
    vertex -30.0 -46.0 -1.9999999999999998
    vertex -30.0 46.0 1.9999999999999998
    vertex -30.0 46.0 -1.9999999999999998
  endloop
endfacet
facet normal -0.0 1.0 0.0
  outer loop
    vertex -28.0 -44.0 0.0
    vertex 28.0 -44.0 -1.9999999999999998
    vertex -28.0 -44.0 -1.9999999999999998
  endloop
endfacet
facet normal -0.0 1.0 0.0
  outer loop
    vertex 28.0 -44.0 -1.9999999999999998
    vertex -28.0 -44.0 0.0
    vertex 28.0 -44.0 0.0
  endloop
endfacet
facet normal -1.0 0.0 0.0
  outer loop
    vertex 28.0 44.0 0.0
    vertex 28.0 -44.0 -1.9999999999999998
    vertex 28.0 -44.0 0.0
  endloop
endfacet
facet normal -1.0 0.0 0.0
  outer loop
    vertex 28.0 -44.0 -1.9999999999999998
    vertex 28.0 44.0 0.0
    vertex 28.0 44.0 -1.9999999999999998
  endloop
endfacet
facet normal -0.0 -1.0 -0.0
  outer loop
    vertex 28.0 44.0 0.0
    vertex -28.0 44.0 -1.9999999999999998
    vertex 28.0 44.0 -1.9999999999999998
  endloop
endfacet
facet normal -0.0 -1.0 -0.0
  outer loop
    vertex -28.0 44.0 -1.9999999999999998
    vertex 28.0 44.0 0.0
    vertex -28.0 44.0 0.0
  endloop
endfacet
facet normal 1.0 0.0 0.0
  outer loop
    vertex -28.0 44.0 -1.9999999999999998
    vertex -28.0 -44.0 0.0
    vertex -28.0 -44.0 -1.9999999999999998
  endloop
endfacet
facet normal 1.0 0.0 0.0
  outer loop
    vertex -28.0 -44.0 0.0
    vertex -28.0 44.0 -1.9999999999999998
    vertex -28.0 44.0 0.0
  endloop
endfacet
facet normal 0.0 0.0 1.0
  outer loop
    vertex 30.0 -46.0 1.9999999999999998
    vertex -30.0 46.0 1.9999999999999998
    vertex -30.0 -46.0 1.9999999999999998
  endloop
endfacet
facet normal 0.0 0.0 1.0
  outer loop
    vertex -30.0 46.0 1.9999999999999998
    vertex 30.0 -46.0 1.9999999999999998
    vertex 30.0 46.0 1.9999999999999998
  endloop
endfacet
facet normal 0.0 -0.9999999999999999 0.0
  outer loop
    vertex -19.574990601022645 -23.376338422637676 21.854733404689732
    vertex -24.25187082715791 -23.376338422637676 1.5684929999525135
    vertex -19.574990601022645 -23.376338422637676 1.5684929999525135
  endloop
endfacet
facet normal 0.0 -0.9999999999999999 0.0
  outer loop
    vertex -24.25187082715791 -23.376338422637676 48.37161214309313
    vertex -24.25187082715791 -23.376338422637676 1.5684929999525135
    vertex -19.574990601022645 -23.376338422637676 21.854733404689732
  endloop
endfacet
facet normal 0.0 -0.9999999999999999 0.0
  outer loop
    vertex -24.25187082715791 -23.376338422637676 48.37161214309313
    vertex -19.574990601022645 -23.376338422637676 21.854733404689732
    vertex -7.08563019631885 -23.376338422637676 21.854733404689732
  endloop
endfacet
facet normal 0.0 -0.9999999999999999 0.0
  outer loop
    vertex -24.25187082715791 -23.376338422637676 48.37161214309313
    vertex -7.08563019631885 -23.376338422637676 21.854733404689732
    vertex 3.825010142843375 -23.376338422637676 26.52537259536357
  endloop
endfacet
facet normal 0.0 -0.9999999999999999 0.0
  outer loop
    vertex -24.25187082715791 -23.376338422637676 48.37161214309313
    vertex 3.825010142843375 -23.376338422637676 26.52537259536357
    vertex 3.825010142843375 -23.376338422637676 37.45473340468978
  endloop
endfacet
facet normal 0.0 -0.9999999999999999 0.0
  outer loop
    vertex 22.55124894670695 -23.376338422637676 48.37161214309313
    vertex 3.825010142843375 -23.376338422637676 37.45473340468978
    vertex 14.754370208303607 -23.376338422637676 37.45473340468978
  endloop
endfacet
facet normal 0.0 -0.9999999999999999 0.0
  outer loop
    vertex -24.25187082715791 -23.376338422637676 48.37161214309313
    vertex 3.825010142843375 -23.376338422637676 37.45473340468978
    vertex 22.55124894670695 -23.376338422637676 48.37161214309313
  endloop
endfacet
facet normal 0.0 -0.9999999999999999 0.0
  outer loop
    vertex 22.55124894670695 -23.376338422637676 48.37161214309313
    vertex 14.754370208303607 -23.376338422637676 26.52537259536357
    vertex 22.55124894670695 -23.376338422637676 1.5684929999525135
  endloop
endfacet
facet normal 0.0 -0.9999999999999999 0.0
  outer loop
    vertex 22.55124894670695 -23.376338422637676 48.37161214309313
    vertex 14.754370208303607 -23.376338422637676 37.45473340468978
    vertex 14.754370208303607 -23.376338422637676 26.52537259536357
  endloop
endfacet
facet normal 0.0 -0.9999999999999999 0.0
  outer loop
    vertex 3.825010142843375 -23.376338422637676 26.52537259536357
    vertex -7.08563019631885 -23.376338422637676 21.854733404689732
    vertex 22.55124894670695 -23.376338422637676 1.5684929999525135
  endloop
endfacet
facet normal 0.0 -0.9999999999999999 0.0
  outer loop
    vertex 3.825010142843375 -23.376338422637676 26.52537259536357
    vertex 22.55124894670695 -23.376338422637676 1.5684929999525135
    vertex 14.754370208303607 -23.376338422637676 26.52537259536357
  endloop
endfacet
facet normal 0.0 -0.9999999999999999 0.0
  outer loop
    vertex -7.08563019631885 -23.376338422637676 21.854733404689732
    vertex -7.08563019631885 -23.376338422637676 1.5684929999525135
    vertex 22.55124894670695 -23.376338422637676 1.5684929999525135
  endloop
endfacet
facet normal 4.244651460290664e-18 0.8582734245759395 0.513192681813263
  outer loop
    vertex -24.24844458051484 23.42335510458411 48.37161214309313
    vertex -14.402825297819312 21.160063447638514 52.15678513963185
    vertex 22.547812285940342 23.42335510458411 48.37161214309313
  endloop
endfacet
facet normal 4.244651460290664e-18 0.8582734245759395 0.513192681813263
  outer loop
    vertex -14.402825297819312 21.160063447638514 52.15678513963185
    vertex -24.24844458051484 23.42335510458411 48.37161214309313
    vertex -14.402825297819312 14.930577686666036 62.575098313011004
  endloop
endfacet
facet normal 4.244651460290664e-18 0.8582734245759395 0.513192681813263
  outer loop
    vertex -14.402825297819312 14.930577686666036 62.575098313011004
    vertex -24.24844458051484 23.42335510458411 48.37161214309313
    vertex -0.9298703808382756 0.10477867330965179 87.37005300002683
  endloop
endfacet
facet normal 4.244651460290664e-18 0.8582734245759395 0.513192681813263
  outer loop
    vertex -14.402825297819312 14.930577686666036 62.575098313011004
    vertex -0.9298703808382756 0.10477867330965179 87.37005300002683
    vertex 12.637174702180749 14.930577686666036 62.575098313011004
  endloop
endfacet
facet normal 4.244651460290664e-18 0.8582734245759395 0.513192681813263
  outer loop
    vertex 22.547812285940342 23.42335510458411 48.37161214309313
    vertex 12.637174702180749 14.930577686666036 62.575098313011004
    vertex -0.9298703808382756 0.10477867330965179 87.37005300002683
  endloop
endfacet
facet normal 4.244651460290664e-18 0.8582734245759395 0.513192681813263
  outer loop
    vertex 12.637174702180749 14.930577686666036 62.575098313011004
    vertex 22.547812285940342 23.42335510458411 48.37161214309313
    vertex 12.637174702180749 21.160063447638514 52.15678513963185
  endloop
endfacet
facet normal 4.244651460290664e-18 0.8582734245759395 0.513192681813263
  outer loop
    vertex 12.637174702180749 21.160063447638514 52.15678513963185
    vertex 22.547812285940342 23.42335510458411 48.37161214309313
    vertex -14.402825297819312 21.160063447638514 52.15678513963185
  endloop
endfacet
facet normal 1.0446552187681617e-20 0.9999999992055532 3.9860929728529625e-05
  outer loop
    vertex 22.547812285940342 23.42335510458411 48.37161214309313
    vertex -24.25187082715791 23.42522072042885 1.5684929999525135
    vertex -24.24844458051484 23.42335510458411 48.37161214309313
  endloop
endfacet
facet normal -5.22174439115927e-21 0.9999999992055532 3.986092972852963e-05
  outer loop
    vertex 22.547812285940342 23.42335510458411 48.37161214309313
    vertex 22.55124894670695 23.42522072042885 1.5684929999525135
    vertex -24.25187082715791 23.42522072042885 1.5684929999525135
  endloop
endfacet
facet normal 0.0 0.0 -0.9999999999999999
  outer loop
    vertex -21.134990601022647 -20.259456708770486 1.5684929999525135
    vertex -24.25187082715791 -23.376338422637676 1.5684929999525135
    vertex -24.25187082715791 23.42522072042885 1.5684929999525135
  endloop
endfacet
facet normal 0.0 0.0 -0.9999999999999999
  outer loop
    vertex -19.574990601022645 -23.376338422637676 1.5684929999525135
    vertex -21.134990601022647 -20.259456708770486 1.5684929999525135
    vertex -19.574990601022645 -20.259456708770486 1.5684929999525135
  endloop
endfacet
facet normal 0.0 0.0 -0.9999999999999999
  outer loop
    vertex -19.574990601022645 -23.376338422637676 1.5684929999525135
    vertex -24.25187082715791 -23.376338422637676 1.5684929999525135
    vertex -21.134990601022647 -20.259456708770486 1.5684929999525135
  endloop
endfacet
facet normal 0.8567134017683457 6.291138069879056e-05 0.5157927328614348
  outer loop
    vertex 22.547812285940342 23.42335510458411 48.37161214309313
    vertex 16.35850383040744 -3.678048918620479 58.65513913048109
    vertex 22.55124894670695 -23.376338422637676 48.37161214309313
  endloop
endfacet
facet normal 0.8567134017683457 6.291138069879056e-05 0.5157927328614348
  outer loop
    vertex 16.35850383040744 -3.678048918620479 58.65513913048109
    vertex 22.547812285940342 23.42335510458411 48.37161214309313
    vertex 16.357955577678226 3.787936654361761 58.65513913048109
  endloop
endfacet
facet normal 0.8567134017683457 6.291138069879056e-05 0.5157927328614348
  outer loop
    vertex 16.35850383040744 -3.678048918620479 58.65513913048109
    vertex -0.9298703808382756 0.10477867330965179 87.37005300002683
    vertex 22.55124894670695 -23.376338422637676 48.37161214309313
  endloop
endfacet
facet normal 0.8567134017683457 6.291138069879056e-05 0.5157927328614348
  outer loop
    vertex -0.9298703808382756 0.10477867330965179 87.37005300002683
    vertex 16.35850383040744 -3.678048918620479 58.65513913048109
    vertex 12.612545578886946 0.06790897689176152 64.87658578669283
  endloop
endfacet
facet normal 0.8567134017683457 6.291138069879056e-05 0.5157927328614348
  outer loop
    vertex -0.9298703808382756 0.10477867330965179 87.37005300002683
    vertex 12.612545578886946 0.06790897689176152 64.87658578669283
    vertex 16.357955577678226 3.787936654361761 58.65513913048109
  endloop
endfacet
facet normal 0.8567134017683457 6.291138069879056e-05 0.5157927328614348
  outer loop
    vertex -0.9298703808382756 0.10477867330965179 87.37005300002683
    vertex 16.357955577678226 3.787936654361761 58.65513913048109
    vertex 22.547812285940342 23.42335510458411 48.37161214309313
  endloop
endfacet
facet normal 0.0 0.0 -0.9999999999999999
  outer loop
    vertex 19.434370208303616 -20.259456708770486 1.5684929999525135
    vertex -7.08563019631885 -23.376338422637676 1.5684929999525135
    vertex -7.08563019631885 -20.259456708770486 1.5684929999525135
  endloop
endfacet
facet normal 0.0 0.0 -0.9999999999999999
  outer loop
    vertex 22.55124894670695 -23.376338422637676 1.5684929999525135
    vertex -7.08563019631885 -23.376338422637676 1.5684929999525135
    vertex 19.434370208303616 -20.259456708770486 1.5684929999525135
  endloop
endfacet
facet normal -0.8582568957516614 6.283374070066318e-05 0.5132203200835317
  outer loop
    vertex -0.9298703808382756 0.10477867330965179 87.37005300002683
    vertex -21.020537272071827 -13.037856086214893 53.77409640201085
    vertex -24.25187082715791 -23.376338422637676 48.37161214309313
  endloop
endfacet
facet normal -0.8582568957516614 6.283374070066318e-05 0.5132203200835317
  outer loop
    vertex -21.020537272071827 -13.037856086214893 53.77409640201085
    vertex -0.9298703808382756 0.10477867330965179 87.37005300002683
    vertex -7.986159018724522 0.08545049909202226 75.56984375181779
  endloop
endfacet
facet normal -0.8582568957516614 6.283374070066318e-05 0.5132203200835317
  outer loop
    vertex -7.986159018724522 0.08545049909202226 75.56984375181779
    vertex -0.9298703808382756 0.10477867330965179 87.37005300002683
    vertex -21.018622385103278 13.117915112683312 53.77409640201086
  endloop
endfacet
facet normal -0.8582568957516614 6.283374070066318e-05 0.5132203200835317
  outer loop
    vertex -21.018622385103278 13.117915112683312 53.77409640201086
    vertex -0.9298703808382756 0.10477867330965179 87.37005300002683
    vertex -24.24844458051484 23.42335510458411 48.37161214309313
  endloop
endfacet
facet normal -0.8582568957516614 6.283374070066318e-05 0.5132203200835317
  outer loop
    vertex -21.020537272071827 -13.037856086214893 53.77409640201085
    vertex -24.24844458051484 23.42335510458411 48.37161214309313
    vertex -24.25187082715791 -23.376338422637676 48.37161214309313
  endloop
endfacet
facet normal -0.8582568957516614 6.283374070066318e-05 0.5132203200835317
  outer loop
    vertex -24.24844458051484 23.42335510458411 48.37161214309313
    vertex -21.020537272071827 -13.037856086214893 53.77409640201085
    vertex -21.019957129983823 -5.113595299042982 53.77409640201086
  endloop
endfacet
facet normal -0.8582568957516614 6.283374070066318e-05 0.5132203200835317
  outer loop
    vertex -24.24844458051484 23.42335510458411 48.37161214309313
    vertex -21.019957129983823 -5.113595299042982 53.77409640201086
    vertex -21.019576433420372 0.08640468702146764 53.77409640201086
  endloop
endfacet
facet normal -0.8582568957516614 6.283374070066318e-05 0.5132203200835317
  outer loop
    vertex -24.24844458051484 23.42335510458411 48.37161214309313
    vertex -21.019576433420372 0.08640468702146764 53.77409640201086
    vertex -21.019576433421395 5.286404673085905 53.77409640201086
  endloop
endfacet
facet normal -0.8582568957516614 6.283374070066318e-05 0.5132203200835317
  outer loop
    vertex -24.24844458051484 23.42335510458411 48.37161214309313
    vertex -21.019576433421395 5.286404673085905 53.77409640201086
    vertex -21.018622385103278 13.117915112683312 53.77409640201086
  endloop
endfacet
facet normal 0.0 0.0 -0.9999999999999999
  outer loop
    vertex 22.55124894670695 23.42522072042885 1.5684929999525135
    vertex 19.434370208303616 -20.259456708770486 1.5684929999525135
    vertex 19.434370208303616 20.30990112509192 1.5684929999525135
  endloop
endfacet
facet normal 0.0 0.0 -0.9999999999999999
  outer loop
    vertex 22.55124894670695 -23.376338422637676 1.5684929999525135
    vertex 19.434370208303616 -20.259456708770486 1.5684929999525135
    vertex 22.55124894670695 23.42522072042885 1.5684929999525135
  endloop
endfacet
facet normal 0.0 0.0 -0.9999999999999999
  outer loop
    vertex 22.55124894670695 23.42522072042885 1.5684929999525135
    vertex 19.434370208303616 20.30990112509192 1.5684929999525135
    vertex -21.134990601022647 20.30990112509192 1.5684929999525135
  endloop
endfacet
facet normal 0.0 0.0 -0.9999999999999999
  outer loop
    vertex -21.134990601022647 -20.259456708770486 1.5684929999525135
    vertex -24.25187082715791 23.42522072042885 1.5684929999525135
    vertex -21.134990601022647 20.30990112509192 1.5684929999525135
  endloop
endfacet
facet normal 0.0 0.0 -0.9999999999999999
  outer loop
    vertex 22.55124894670695 23.42522072042885 1.5684929999525135
    vertex -21.134990601022647 20.30990112509192 1.5684929999525135
    vertex -24.25187082715791 23.42522072042885 1.5684929999525135
  endloop
endfacet
facet normal 0.9999999999999999 0.0 0.0
  outer loop
    vertex 22.55124894670695 23.42522072042885 1.5684929999525135
    vertex 22.55124894670695 -23.376338422637676 48.37161214309313
    vertex 22.55124894670695 -23.376338422637676 1.5684929999525135
  endloop
endfacet
facet normal 0.9999999946077149 7.343340285059959e-05 7.343095523351797e-05
  outer loop
    vertex 22.55124894670695 23.42522072042885 1.5684929999525135
    vertex 22.547812285940342 23.42335510458411 48.37161214309313
    vertex 22.55124894670695 -23.376338422637676 48.37161214309313
  endloop
endfacet
facet normal -1.257701605226898e-17 -0.8566966866965848 0.5158204988201746
  outer loop
    vertex -0.9298703808382756 0.10477867330965179 87.37005300002683
    vertex -24.25187082715791 -23.376338422637676 48.37161214309313
    vertex 22.55124894670695 -23.376338422637676 48.37161214309313
  endloop
endfacet
facet normal -0.999999997320476 0.0 7.320551913233358e-05
  outer loop
    vertex -24.25187082715791 23.42522072042885 1.5684929999525135
    vertex -24.25187082715791 -23.376338422637676 1.5684929999525135
    vertex -24.24844458051484 23.42335510458411 48.37161214309313
  endloop
endfacet
facet normal -0.9999999973200835 7.321087758602078e-05 -1.0445017972561846e-20
  outer loop
    vertex -24.24844458051484 23.42335510458411 48.37161214309313
    vertex -24.25187082715791 -23.376338422637676 1.5684929999525135
    vertex -24.25187082715791 -23.376338422637676 48.37161214309313
  endloop
endfacet
facet normal 0.9999999999999999 0.0 0.0
  outer loop
    vertex -19.574990601022645 -20.259456708770486 21.854733404689732
    vertex -19.574990601022645 -23.376338422637676 21.854733404689732
    vertex -19.574990601022645 -20.259456708770486 1.5684929999525135
  endloop
endfacet
facet normal 0.9999999999999999 0.0 0.0
  outer loop
    vertex -19.574990601022645 -20.259456708770486 1.5684929999525135
    vertex -19.574990601022645 -23.376338422637676 21.854733404689732
    vertex -19.574990601022645 -23.376338422637676 1.5684929999525135
  endloop
endfacet
facet normal 0.0 0.9999999999999999 0.0
  outer loop
    vertex -19.574990601022645 -20.259456708770486 21.854733404689732
    vertex -19.574990601022645 -20.259456708770486 1.5684929999525135
    vertex -21.134990601022647 -20.259456708770486 1.5684929999525135
  endloop
endfacet
facet normal -3.790991575828883e-18 -0.8712982227682442 -0.4907539169491152
  outer loop
    vertex -0.9205103153780706 0.09385872091706719 84.254730429226
    vertex -21.133233589609073 20.306583482880004 48.36849385696031
    vertex 19.43259980730264 20.306583482880004 48.36849385696031
  endloop
endfacet
facet normal 0.8712982382134676 -8.241920327328815e-19 -0.49075388952723265
  outer loop
    vertex -21.133233589609073 20.306583482880004 48.36849385696031
    vertex -0.9205103153780706 0.09385872091706719 84.254730429226
    vertex -21.133233589609073 -20.257689283233372 48.36849385696031
  endloop
endfacet
facet normal 0.9999999992952624 3.475336204662984e-21 -3.754297820858804e-05
  outer loop
    vertex -21.134990601022647 20.30990112509192 1.5684929999525135
    vertex -21.133233589609073 20.306583482880004 48.36849385696031
    vertex -21.134990601022647 -20.259456708770486 1.5684929999525135
  endloop
endfacet
facet normal 0.9999999992952624 -3.476207583663865e-21 -3.754297820858803e-05
  outer loop
    vertex -21.133233589609073 20.306583482880004 48.36849385696031
    vertex -21.133233589609073 -20.257689283233372 48.36849385696031
    vertex -21.134990601022647 -20.259456708770486 1.5684929999525135
  endloop
endfacet
facet normal 0.0 -0.9999999974873187 -7.088978937646192e-05
  outer loop
    vertex -21.133233589609073 20.306583482880004 48.36849385696031
    vertex -21.134990601022647 20.30990112509192 1.5684929999525135
    vertex 19.43259980730264 20.306583482880004 48.36849385696031
  endloop
endfacet
facet normal 1.390134275439662e-20 -0.9999999974873187 -7.088978937646193e-05
  outer loop
    vertex 19.43259980730264 20.306583482880004 48.36849385696031
    vertex -21.134990601022647 20.30990112509192 1.5684929999525135
    vertex 19.434370208303616 20.30990112509192 1.5684929999525135
  endloop
endfacet
facet normal 0.0004913424190170757 0.9999998785774931 -3.778394411059272e-05
  outer loop
    vertex -21.133233589609073 -20.257689283233372 48.36849385696031
    vertex -19.574990601022645 -20.259456708770486 21.854733404689732
    vertex -21.134990601022647 -20.259456708770486 1.5684929999525135
  endloop
endfacet
facet normal -0.9999999999999999 0.0 0.0
  outer loop
    vertex -7.08563019631885 -20.259456708770486 1.5684929999525135
    vertex -7.08563019631885 -23.376338422637676 21.854733404689732
    vertex -7.08563019631885 -20.259456708770486 21.854733404689732
  endloop
endfacet
facet normal -0.9999999999999999 0.0 0.0
  outer loop
    vertex -7.08563019631885 -20.259456708770486 1.5684929999525135
    vertex -7.08563019631885 -23.376338422637676 1.5684929999525135
    vertex -7.08563019631885 -23.376338422637676 21.854733404689732
  endloop
endfacet
facet normal 0.9999999999999999 0.0 0.0
  outer loop
    vertex 3.825010142843375 -20.259456708770486 37.45473340468978
    vertex 3.825010142843375 -23.376338422637676 37.45473340468978
    vertex 3.825010142843375 -20.259456708770486 26.52537259536357
  endloop
endfacet
facet normal 0.9999999999999999 0.0 0.0
  outer loop
    vertex 3.825010142843375 -20.259456708770486 26.52537259536357
    vertex 3.825010142843375 -23.376338422637676 37.45473340468978
    vertex 3.825010142843375 -23.376338422637676 26.52537259536357
  endloop
endfacet
facet normal -2.856286510075025e-20 0.9999999977781763 -6.66606887536265e-05
  outer loop
    vertex -21.133233589609073 -20.257689283233372 48.36849385696031
    vertex -7.08563019631885 -20.259456708770486 21.854733404689732
    vertex -19.574990601022645 -20.259456708770486 21.854733404689732
  endloop
endfacet
facet normal 0.0 0.9999999999999999 0.0
  outer loop
    vertex 3.825010142843375 -20.259456708770486 37.45473340468978
    vertex 3.825010142843375 -20.259456708770486 26.52537259536357
    vertex -7.08563019631885 -20.259456708770486 21.854733404689732
  endloop
endfacet
facet normal 0.0 0.0 -0.9999999999999999
  outer loop
    vertex 14.754370208303607 -20.259456708770486 37.45473340468978
    vertex 3.825010142843375 -23.376338422637676 37.45473340468978
    vertex 3.825010142843375 -20.259456708770486 37.45473340468978
  endloop
endfacet
facet normal 0.0 0.0 -0.9999999999999999
  outer loop
    vertex 14.754370208303607 -23.376338422637676 37.45473340468978
    vertex 3.825010142843375 -23.376338422637676 37.45473340468978
    vertex 14.754370208303607 -20.259456708770486 37.45473340468978
  endloop
endfacet
facet normal 4.356741257925108e-05 0.9999999971095407 -6.231210892378627e-05
  outer loop
    vertex 19.434370208303616 -20.259456708770486 48.36849385696031
    vertex 3.825010142843375 -20.259456708770486 37.45473340468978
    vertex -21.133233589609073 -20.257689283233372 48.36849385696031
  endloop
endfacet
facet normal 5.422993293259577e-05 0.9999999978102749 -3.792841627207952e-05
  outer loop
    vertex -21.133233589609073 -20.257689283233372 48.36849385696031
    vertex 3.825010142843375 -20.259456708770486 37.45473340468978
    vertex -7.08563019631885 -20.259456708770486 21.854733404689732
  endloop
endfacet
facet normal -0.9999999999999999 0.0 0.0
  outer loop
    vertex 14.754370208303607 -20.259456708770486 26.52537259536357
    vertex 14.754370208303607 -23.376338422637676 37.45473340468978
    vertex 14.754370208303607 -20.259456708770486 37.45473340468978
  endloop
endfacet
facet normal -0.9999999999999999 0.0 0.0
  outer loop
    vertex 14.754370208303607 -20.259456708770486 26.52537259536357
    vertex 14.754370208303607 -23.376338422637676 26.52537259536357
    vertex 14.754370208303607 -23.376338422637676 37.45473340468978
  endloop
endfacet
facet normal 0.0 0.0 -0.9999999999999999
  outer loop
    vertex -7.08563019631885 -20.259456708770486 21.854733404689732
    vertex -19.574990601022645 -23.376338422637676 21.854733404689732
    vertex -19.574990601022645 -20.259456708770486 21.854733404689732
  endloop
endfacet
facet normal 0.0 0.0 -0.9999999999999999
  outer loop
    vertex -7.08563019631885 -23.376338422637676 21.854733404689732
    vertex -19.574990601022645 -23.376338422637676 21.854733404689732
    vertex -7.08563019631885 -20.259456708770486 21.854733404689732
  endloop
endfacet
facet normal 3.789696055260025e-05 0.8698464792718622 -0.49332251221910184
  outer loop
    vertex -0.9205103153780706 0.09385872091706719 84.254730429226
    vertex 19.434370208303616 -20.259456708770486 48.36849385696031
    vertex -21.133233589609073 -20.257689283233372 48.36849385696031
  endloop
endfacet
facet normal -0.9999999990476686 -4.36424405962605e-05 0.0
  outer loop
    vertex 19.43259980730264 20.306583482880004 48.36849385696031
    vertex 19.434370208303616 -20.259456708770486 1.5684929999525135
    vertex 19.434370208303616 -20.259456708770486 48.36849385696031
  endloop
endfacet
facet normal 0.0 0.9999999999999999 0.0
  outer loop
    vertex 19.434370208303616 -20.259456708770486 48.36849385696031
    vertex 19.434370208303616 -20.259456708770486 1.5684929999525135
    vertex 14.754370208303607 -20.259456708770486 26.52537259536357
  endloop
endfacet
facet normal 0.0 0.9999999999999999 0.0
  outer loop
    vertex 19.434370208303616 -20.259456708770486 48.36849385696031
    vertex 14.754370208303607 -20.259456708770486 26.52537259536357
    vertex 14.754370208303607 -20.259456708770486 37.45473340468978
  endloop
endfacet
facet normal 0.0 0.9999999999999999 0.0
  outer loop
    vertex 19.434370208303616 -20.259456708770486 48.36849385696031
    vertex 14.754370208303607 -20.259456708770486 37.45473340468978
    vertex 3.825010142843375 -20.259456708770486 37.45473340468978
  endloop
endfacet
facet normal 0.0 0.0 0.9999999999999999
  outer loop
    vertex 14.754370208303607 -20.259456708770486 26.52537259536357
    vertex 3.825010142843375 -20.259456708770486 26.52537259536357
    vertex 14.754370208303607 -23.376338422637676 26.52537259536357
  endloop
endfacet
facet normal 0.0 0.0 0.9999999999999999
  outer loop
    vertex 14.754370208303607 -23.376338422637676 26.52537259536357
    vertex 3.825010142843375 -20.259456708770486 26.52537259536357
    vertex 3.825010142843375 -23.376338422637676 26.52537259536357
  endloop
endfacet
facet normal -0.9999999992844804 3.475336204625512e-21 -3.782908049762943e-05
  outer loop
    vertex 19.434370208303616 20.30990112509192 1.5684929999525135
    vertex 19.434370208303616 -20.259456708770486 1.5684929999525135
    vertex 19.43259980730264 20.306583482880004 48.36849385696031
  endloop
endfacet
facet normal 0.0 0.9999999999999999 0.0
  outer loop
    vertex -7.08563019631885 -20.259456708770486 21.854733404689732
    vertex 19.434370208303616 -20.259456708770486 1.5684929999525135
    vertex -7.08563019631885 -20.259456708770486 1.5684929999525135
  endloop
endfacet
facet normal 0.0 0.9999999999999999 0.0
  outer loop
    vertex 3.825010142843375 -20.259456708770486 26.52537259536357
    vertex 19.434370208303616 -20.259456708770486 1.5684929999525135
    vertex -7.08563019631885 -20.259456708770486 21.854733404689732
  endloop
endfacet
facet normal 0.0 0.9999999999999999 0.0
  outer loop
    vertex 14.754370208303607 -20.259456708770486 26.52537259536357
    vertex 19.434370208303616 -20.259456708770486 1.5684929999525135
    vertex 3.825010142843375 -20.259456708770486 26.52537259536357
  endloop
endfacet
facet normal -0.8698302152401312 -3.796151353361327e-05 -0.4933511885201358
  outer loop
    vertex 19.43259980730264 20.306583482880004 48.36849385696031
    vertex 19.434370208303616 -20.259456708770486 48.36849385696031
    vertex -0.9205103153780706 0.09385872091706719 84.254730429226
  endloop
endfacet
facet normal 0.0 0.8582734245759389 0.5131926818132638
  outer loop
    vertex -14.402825297819312 22.052667809197498 52.69050552871765
    vertex -13.882825297819311 21.785807614654598 53.13680770949714
    vertex -7.642825297819294 22.052667809197498 52.69050552871765
  endloop
endfacet
facet normal 0.0 0.8582734245759389 0.5131926818132638
  outer loop
    vertex -13.882825297819311 21.785807614654598 53.13680770949714
    vertex -14.402825297819312 22.052667809197498 52.69050552871765
    vertex -14.402825297819312 15.823182048225016 63.10881870209676
  endloop
endfacet
facet normal 0.0 0.8582734245759389 0.5131926818132638
  outer loop
    vertex -13.882825297819311 21.785807614654598 53.13680770949714
    vertex -14.402825297819312 15.823182048225016 63.10881870209676
    vertex -13.882825297819311 16.09004224276792 62.66251652131728
  endloop
endfacet
facet normal 0.0 0.8582734245759389 0.5131926818132638
  outer loop
    vertex -13.882825297819311 16.09004224276792 62.66251652131728
    vertex -14.402825297819312 15.823182048225016 63.10881870209676
    vertex -8.162825297819294 16.09004224276792 62.66251652131728
  endloop
endfacet
facet normal 0.0 0.8582734245759389 0.5131926818132638
  outer loop
    vertex -7.642825297819294 22.052667809197498 52.69050552871765
    vertex -8.162825297819294 21.785807614654598 53.13680770949714
    vertex -7.642825297819294 15.823182048225016 63.10881870209676
  endloop
endfacet
facet normal 0.0 0.8582734245759389 0.5131926818132638
  outer loop
    vertex -8.162825297819294 21.785807614654598 53.13680770949714
    vertex -7.642825297819294 22.052667809197498 52.69050552871765
    vertex -13.882825297819311 21.785807614654598 53.13680770949714
  endloop
endfacet
facet normal 0.0 0.8582734245759389 0.5131926818132638
  outer loop
    vertex -7.642825297819294 15.823182048225016 63.10881870209676
    vertex -8.162825297819294 21.785807614654598 53.13680770949714
    vertex -8.162825297819294 16.09004224276792 62.66251652131728
  endloop
endfacet
facet normal 0.0 0.8582734245759389 0.5131926818132638
  outer loop
    vertex -7.642825297819294 15.823182048225016 63.10881870209676
    vertex -8.162825297819294 16.09004224276792 62.66251652131728
    vertex -14.402825297819312 15.823182048225016 63.10881870209676
  endloop
endfacet
facet normal 0.0 -0.5131926818132628 0.8582734245759395
  outer loop
    vertex 12.637174702180749 14.930577686666036 62.575098313011004
    vertex -14.402825297819312 15.823182048225016 63.10881870209676
    vertex -14.402825297819312 14.930577686666036 62.575098313011004
  endloop
endfacet
facet normal 0.0 -0.5131926818132628 0.8582734245759395
  outer loop
    vertex -14.402825297819312 15.823182048225016 63.10881870209676
    vertex 12.637174702180749 14.930577686666036 62.575098313011004
    vertex -7.642825297819294 15.823182048225016 63.10881870209676
  endloop
endfacet
facet normal 0.0 -0.5131926818132628 0.8582734245759395
  outer loop
    vertex -7.642825297819294 15.823182048225016 63.10881870209676
    vertex 12.637174702180749 14.930577686666036 62.575098313011004
    vertex -0.8828252978192805 15.823182048225016 63.10881870209676
  endloop
endfacet
facet normal 0.0 -0.5131926818132628 0.8582734245759395
  outer loop
    vertex -0.8828252978192805 15.823182048225016 63.10881870209676
    vertex 12.637174702180749 14.930577686666036 62.575098313011004
    vertex 5.8771747021807315 15.823182048225016 63.10881870209676
  endloop
endfacet
facet normal 0.0 -0.5131926818132628 0.8582734245759395
  outer loop
    vertex 5.8771747021807315 15.823182048225016 63.10881870209676
    vertex 12.637174702180749 14.930577686666036 62.575098313011004
    vertex 12.637174702180749 15.823182048225016 63.10881870209676
  endloop
endfacet
facet normal 0.9999999999999999 -1.9208656156572945e-18 -1.1485549342147103e-18
  outer loop
    vertex 12.637174702180749 21.160063447638514 52.15678513963185
    vertex 12.637174702180749 15.823182048225016 63.10881870209676
    vertex 12.637174702180749 14.930577686666036 62.575098313011004
  endloop
endfacet
facet normal 0.9999999999999999 -1.9208656156572945e-18 -1.1485549342147103e-18
  outer loop
    vertex 12.637174702180749 15.823182048225016 63.10881870209676
    vertex 12.637174702180749 21.160063447638514 52.15678513963185
    vertex 12.637174702180749 22.052667809197498 52.69050552871765
  endloop
endfacet
facet normal -5.960503314341499e-17 0.5131926818132622 -0.85827342457594
  outer loop
    vertex -7.642825297819294 22.052667809197498 52.69050552871765
    vertex -14.402825297819312 21.160063447638514 52.15678513963185
    vertex -14.402825297819312 22.052667809197498 52.69050552871765
  endloop
endfacet
facet normal -5.960503314341499e-17 0.5131926818132622 -0.85827342457594
  outer loop
    vertex -14.402825297819312 21.160063447638514 52.15678513963185
    vertex -7.642825297819294 22.052667809197498 52.69050552871765
    vertex 12.637174702180749 21.160063447638514 52.15678513963185
  endloop
endfacet
facet normal -5.960503314341499e-17 0.5131926818132622 -0.85827342457594
  outer loop
    vertex 12.637174702180749 21.160063447638514 52.15678513963185
    vertex -7.642825297819294 22.052667809197498 52.69050552871765
    vertex -0.8828252978192805 22.052667809197498 52.69050552871765
  endloop
endfacet
facet normal -5.960503314341499e-17 0.5131926818132622 -0.85827342457594
  outer loop
    vertex 12.637174702180749 21.160063447638514 52.15678513963185
    vertex -0.8828252978192805 22.052667809197498 52.69050552871765
    vertex 5.8771747021807315 22.052667809197498 52.69050552871765
  endloop
endfacet
facet normal -5.960503314341499e-17 0.5131926818132622 -0.85827342457594
  outer loop
    vertex 12.637174702180749 21.160063447638514 52.15678513963185
    vertex 5.8771747021807315 22.052667809197498 52.69050552871765
    vertex 12.637174702180749 22.052667809197498 52.69050552871765
  endloop
endfacet
facet normal -0.9999999999999999 1.920865615657295e-18 1.1485549342147097e-18
  outer loop
    vertex -14.402825297819312 15.823182048225016 63.10881870209676
    vertex -14.402825297819312 21.160063447638514 52.15678513963185
    vertex -14.402825297819312 14.930577686666036 62.575098313011004
  endloop
endfacet
facet normal -0.9999999999999999 1.920865615657295e-18 1.1485549342147097e-18
  outer loop
    vertex -14.402825297819312 21.160063447638514 52.15678513963185
    vertex -14.402825297819312 15.823182048225016 63.10881870209676
    vertex -14.402825297819312 22.052667809197498 52.69050552871765
  endloop
endfacet
facet normal -1.9318421161133958e-31 0.8582734245759389 0.5131926818132638
  outer loop
    vertex -0.8828252978192805 22.052667809197498 52.69050552871765
    vertex -0.3628252978192795 21.785807614654598 53.13680770949714
    vertex 5.8771747021807315 22.052667809197498 52.69050552871765
  endloop
endfacet
facet normal -1.9318421161133958e-31 0.8582734245759389 0.5131926818132638
  outer loop
    vertex -0.3628252978192795 21.785807614654598 53.13680770949714
    vertex -0.8828252978192805 22.052667809197498 52.69050552871765
    vertex -0.8828252978192805 15.823182048225016 63.10881870209676
  endloop
endfacet
facet normal -1.9318421161133958e-31 0.8582734245759389 0.5131926818132638
  outer loop
    vertex -0.3628252978192795 21.785807614654598 53.13680770949714
    vertex -0.8828252978192805 15.823182048225016 63.10881870209676
    vertex -0.3628252978192795 16.09004224276792 62.66251652131728
  endloop
endfacet
facet normal -1.9318421161133958e-31 0.8582734245759389 0.5131926818132638
  outer loop
    vertex -0.3628252978192795 16.09004224276792 62.66251652131728
    vertex -0.8828252978192805 15.823182048225016 63.10881870209676
    vertex 5.357174702180733 16.09004224276792 62.66251652131728
  endloop
endfacet
facet normal -1.9318421161133958e-31 0.8582734245759389 0.5131926818132638
  outer loop
    vertex 5.8771747021807315 22.052667809197498 52.69050552871765
    vertex 5.357174702180733 21.785807614654598 53.13680770949714
    vertex 5.8771747021807315 15.823182048225016 63.10881870209676
  endloop
endfacet
facet normal -1.9318421161133958e-31 0.8582734245759389 0.5131926818132638
  outer loop
    vertex 5.357174702180733 21.785807614654598 53.13680770949714
    vertex 5.8771747021807315 22.052667809197498 52.69050552871765
    vertex -0.3628252978192795 21.785807614654598 53.13680770949714
  endloop
endfacet
facet normal -1.9318421161133958e-31 0.8582734245759389 0.5131926818132638
  outer loop
    vertex 5.8771747021807315 15.823182048225016 63.10881870209676
    vertex 5.357174702180733 21.785807614654598 53.13680770949714
    vertex 5.357174702180733 16.09004224276792 62.66251652131728
  endloop
endfacet
facet normal -1.9318421161133958e-31 0.8582734245759389 0.5131926818132638
  outer loop
    vertex 5.8771747021807315 15.823182048225016 63.10881870209676
    vertex 5.357174702180733 16.09004224276792 62.66251652131728
    vertex -0.8828252978192805 15.823182048225016 63.10881870209676
  endloop
endfacet
facet normal -1.9318421161133958e-31 0.8582734245759389 0.5131926818132638
  outer loop
    vertex -7.642825297819294 22.052667809197498 52.69050552871765
    vertex -7.1228252978192925 21.785807614654598 53.13680770949714
    vertex -0.8828252978192805 22.052667809197498 52.69050552871765
  endloop
endfacet
facet normal -1.9318421161133958e-31 0.8582734245759389 0.5131926818132638
  outer loop
    vertex -7.1228252978192925 21.785807614654598 53.13680770949714
    vertex -7.642825297819294 22.052667809197498 52.69050552871765
    vertex -7.642825297819294 15.823182048225016 63.10881870209676
  endloop
endfacet
facet normal -1.9318421161133958e-31 0.8582734245759389 0.5131926818132638
  outer loop
    vertex -7.1228252978192925 21.785807614654598 53.13680770949714
    vertex -7.642825297819294 15.823182048225016 63.10881870209676
    vertex -7.1228252978192925 16.09004224276792 62.66251652131728
  endloop
endfacet
facet normal -1.9318421161133958e-31 0.8582734245759389 0.5131926818132638
  outer loop
    vertex -7.1228252978192925 16.09004224276792 62.66251652131728
    vertex -7.642825297819294 15.823182048225016 63.10881870209676
    vertex -1.4028252978192817 16.09004224276792 62.66251652131728
  endloop
endfacet
facet normal -1.9318421161133958e-31 0.8582734245759389 0.5131926818132638
  outer loop
    vertex -0.8828252978192805 22.052667809197498 52.69050552871765
    vertex -1.4028252978192817 21.785807614654598 53.13680770949714
    vertex -0.8828252978192805 15.823182048225016 63.10881870209676
  endloop
endfacet
facet normal -1.9318421161133958e-31 0.8582734245759389 0.5131926818132638
  outer loop
    vertex -1.4028252978192817 21.785807614654598 53.13680770949714
    vertex -0.8828252978192805 22.052667809197498 52.69050552871765
    vertex -7.1228252978192925 21.785807614654598 53.13680770949714
  endloop
endfacet
facet normal -1.9318421161133958e-31 0.8582734245759389 0.5131926818132638
  outer loop
    vertex -0.8828252978192805 15.823182048225016 63.10881870209676
    vertex -1.4028252978192817 21.785807614654598 53.13680770949714
    vertex -1.4028252978192817 16.09004224276792 62.66251652131728
  endloop
endfacet
facet normal -1.9318421161133958e-31 0.8582734245759389 0.5131926818132638
  outer loop
    vertex -0.8828252978192805 15.823182048225016 63.10881870209676
    vertex -1.4028252978192817 16.09004224276792 62.66251652131728
    vertex -7.642825297819294 15.823182048225016 63.10881870209676
  endloop
endfacet
facet normal 0.0 0.8582734245759389 0.5131926818132638
  outer loop
    vertex 5.8771747021807315 22.052667809197498 52.69050552871765
    vertex 6.397174702180734 21.785807614654598 53.13680770949714
    vertex 12.637174702180749 22.052667809197498 52.69050552871765
  endloop
endfacet
facet normal 0.0 0.8582734245759389 0.5131926818132638
  outer loop
    vertex 6.397174702180734 21.785807614654598 53.13680770949714
    vertex 5.8771747021807315 22.052667809197498 52.69050552871765
    vertex 5.8771747021807315 15.823182048225016 63.10881870209676
  endloop
endfacet
facet normal 0.0 0.8582734245759389 0.5131926818132638
  outer loop
    vertex 6.397174702180734 21.785807614654598 53.13680770949714
    vertex 5.8771747021807315 15.823182048225016 63.10881870209676
    vertex 6.397174702180734 16.09004224276792 62.66251652131728
  endloop
endfacet
facet normal 0.0 0.8582734245759389 0.5131926818132638
  outer loop
    vertex 6.397174702180734 16.09004224276792 62.66251652131728
    vertex 5.8771747021807315 15.823182048225016 63.10881870209676
    vertex 12.117174702180746 16.09004224276792 62.66251652131728
  endloop
endfacet
facet normal 0.0 0.8582734245759389 0.5131926818132638
  outer loop
    vertex 12.637174702180749 22.052667809197498 52.69050552871765
    vertex 12.117174702180746 21.785807614654598 53.13680770949714
    vertex 12.637174702180749 15.823182048225016 63.10881870209676
  endloop
endfacet
facet normal 0.0 0.8582734245759389 0.5131926818132638
  outer loop
    vertex 12.117174702180746 21.785807614654598 53.13680770949714
    vertex 12.637174702180749 22.052667809197498 52.69050552871765
    vertex 6.397174702180734 21.785807614654598 53.13680770949714
  endloop
endfacet
facet normal 0.0 0.8582734245759389 0.5131926818132638
  outer loop
    vertex 12.637174702180749 15.823182048225016 63.10881870209676
    vertex 12.117174702180746 21.785807614654598 53.13680770949714
    vertex 12.117174702180746 16.09004224276792 62.66251652131728
  endloop
endfacet
facet normal 0.0 0.8582734245759389 0.5131926818132638
  outer loop
    vertex 12.637174702180749 15.823182048225016 63.10881870209676
    vertex 12.117174702180746 16.09004224276792 62.66251652131728
    vertex 5.8771747021807315 15.823182048225016 63.10881870209676
  endloop
endfacet
facet normal 0.0 0.8582734245759389 0.5131926818132638
  outer loop
    vertex 6.397174702180734 16.511924553423867 62.914775193455576
    vertex 12.117174702180746 22.207689925310568 53.38906638163542
    vertex 6.397174702180734 22.207689925310568 53.38906638163542
  endloop
endfacet
facet normal 0.0 0.8582734245759389 0.5131926818132638
  outer loop
    vertex 12.117174702180746 22.207689925310568 53.38906638163542
    vertex 6.397174702180734 16.511924553423867 62.914775193455576
    vertex 12.117174702180746 16.511924553423867 62.914775193455576
  endloop
endfacet
facet normal 0.0 0.5131926818132638 -0.8582734245759389
  outer loop
    vertex 12.117174702180746 22.207689925310568 53.38906638163542
    vertex 6.397174702180734 21.785807614654598 53.13680770949714
    vertex 6.397174702180734 22.207689925310568 53.38906638163542
  endloop
endfacet
facet normal 0.0 0.5131926818132638 -0.8582734245759389
  outer loop
    vertex 6.397174702180734 21.785807614654598 53.13680770949714
    vertex 12.117174702180746 22.207689925310568 53.38906638163542
    vertex 12.117174702180746 21.785807614654598 53.13680770949714
  endloop
endfacet
facet normal -0.9999999999999999 0.0 0.0
  outer loop
    vertex 6.397174702180734 16.511924553423867 62.914775193455576
    vertex 6.397174702180734 21.785807614654598 53.13680770949714
    vertex 6.397174702180734 16.09004224276792 62.66251652131728
  endloop
endfacet
facet normal -0.9999999999999999 0.0 0.0
  outer loop
    vertex 6.397174702180734 21.785807614654598 53.13680770949714
    vertex 6.397174702180734 16.511924553423867 62.914775193455576
    vertex 6.397174702180734 22.207689925310568 53.38906638163542
  endloop
endfacet
facet normal 0.0 -0.5131926818132638 0.8582734245759389
  outer loop
    vertex 12.117174702180746 16.09004224276792 62.66251652131728
    vertex 6.397174702180734 16.511924553423867 62.914775193455576
    vertex 6.397174702180734 16.09004224276792 62.66251652131728
  endloop
endfacet
facet normal 0.0 -0.5131926818132638 0.8582734245759389
  outer loop
    vertex 6.397174702180734 16.511924553423867 62.914775193455576
    vertex 12.117174702180746 16.09004224276792 62.66251652131728
    vertex 12.117174702180746 16.511924553423867 62.914775193455576
  endloop
endfacet
facet normal 0.9999999999999999 0.0 0.0
  outer loop
    vertex 12.117174702180746 21.785807614654598 53.13680770949714
    vertex 12.117174702180746 16.511924553423867 62.914775193455576
    vertex 12.117174702180746 16.09004224276792 62.66251652131728
  endloop
endfacet
facet normal 0.9999999999999999 0.0 0.0
  outer loop
    vertex 12.117174702180746 16.511924553423867 62.914775193455576
    vertex 12.117174702180746 21.785807614654598 53.13680770949714
    vertex 12.117174702180746 22.207689925310568 53.38906638163542
  endloop
endfacet
facet normal 0.0 0.8582734245759389 0.5131926818132638
  outer loop
    vertex -0.3628252978192795 16.53634442354741 62.92937671586018
    vertex 5.357174702180733 22.23210979543409 53.40366790404004
    vertex -0.3628252978192795 22.23210979543409 53.40366790404004
  endloop
endfacet
facet normal 0.0 0.8582734245759389 0.5131926818132638
  outer loop
    vertex 5.357174702180733 22.23210979543409 53.40366790404004
    vertex -0.3628252978192795 16.53634442354741 62.92937671586018
    vertex 5.357174702180733 16.53634442354741 62.92937671586018
  endloop
endfacet
facet normal -0.9999999999999999 0.0 0.0
  outer loop
    vertex -0.3628252978192795 16.53634442354741 62.92937671586018
    vertex -0.3628252978192795 21.785807614654598 53.13680770949714
    vertex -0.3628252978192795 16.09004224276792 62.66251652131728
  endloop
endfacet
facet normal -0.9999999999999999 0.0 0.0
  outer loop
    vertex -0.3628252978192795 21.785807614654598 53.13680770949714
    vertex -0.3628252978192795 16.53634442354741 62.92937671586018
    vertex -0.3628252978192795 22.23210979543409 53.40366790404004
  endloop
endfacet
facet normal 0.0 -0.5131926818132638 0.8582734245759389
  outer loop
    vertex 5.357174702180733 16.09004224276792 62.66251652131728
    vertex -0.3628252978192795 16.53634442354741 62.92937671586018
    vertex -0.3628252978192795 16.09004224276792 62.66251652131728
  endloop
endfacet
facet normal 0.0 -0.5131926818132638 0.8582734245759389
  outer loop
    vertex -0.3628252978192795 16.53634442354741 62.92937671586018
    vertex 5.357174702180733 16.09004224276792 62.66251652131728
    vertex 5.357174702180733 16.53634442354741 62.92937671586018
  endloop
endfacet
facet normal 0.9999999999999999 0.0 0.0
  outer loop
    vertex 5.357174702180733 21.785807614654598 53.13680770949714
    vertex 5.357174702180733 16.53634442354741 62.92937671586018
    vertex 5.357174702180733 16.09004224276792 62.66251652131728
  endloop
endfacet
facet normal 0.9999999999999999 0.0 0.0
  outer loop
    vertex 5.357174702180733 16.53634442354741 62.92937671586018
    vertex 5.357174702180733 21.785807614654598 53.13680770949714
    vertex 5.357174702180733 22.23210979543409 53.40366790404004
  endloop
endfacet
facet normal 0.0 0.5131926818132638 -0.8582734245759389
  outer loop
    vertex 5.357174702180733 22.23210979543409 53.40366790404004
    vertex -0.3628252978192795 21.785807614654598 53.13680770949714
    vertex -0.3628252978192795 22.23210979543409 53.40366790404004
  endloop
endfacet
facet normal 0.0 0.5131926818132638 -0.8582734245759389
  outer loop
    vertex -0.3628252978192795 21.785807614654598 53.13680770949714
    vertex 5.357174702180733 22.23210979543409 53.40366790404004
    vertex 5.357174702180733 21.785807614654598 53.13680770949714
  endloop
endfacet
facet normal 0.0 0.8582734245759389 0.5131926818132638
  outer loop
    vertex -7.1228252978192925 16.53634442354741 62.92937671586018
    vertex -1.4028252978192817 22.23210979543409 53.40366790404004
    vertex -7.1228252978192925 22.23210979543409 53.40366790404004
  endloop
endfacet
facet normal 0.0 0.8582734245759389 0.5131926818132638
  outer loop
    vertex -1.4028252978192817 22.23210979543409 53.40366790404004
    vertex -7.1228252978192925 16.53634442354741 62.92937671586018
    vertex -1.4028252978192817 16.53634442354741 62.92937671586018
  endloop
endfacet
facet normal 0.0 0.5131926818132638 -0.8582734245759389
  outer loop
    vertex -1.4028252978192817 22.23210979543409 53.40366790404004
    vertex -7.1228252978192925 21.785807614654598 53.13680770949714
    vertex -7.1228252978192925 22.23210979543409 53.40366790404004
  endloop
endfacet
facet normal 0.0 0.5131926818132638 -0.8582734245759389
  outer loop
    vertex -7.1228252978192925 21.785807614654598 53.13680770949714
    vertex -1.4028252978192817 22.23210979543409 53.40366790404004
    vertex -1.4028252978192817 21.785807614654598 53.13680770949714
  endloop
endfacet
facet normal -0.9999999999999999 0.0 0.0
  outer loop
    vertex -7.1228252978192925 16.53634442354741 62.92937671586018
    vertex -7.1228252978192925 21.785807614654598 53.13680770949714
    vertex -7.1228252978192925 16.09004224276792 62.66251652131728
  endloop
endfacet
facet normal -0.9999999999999999 0.0 0.0
  outer loop
    vertex -7.1228252978192925 21.785807614654598 53.13680770949714
    vertex -7.1228252978192925 16.53634442354741 62.92937671586018
    vertex -7.1228252978192925 22.23210979543409 53.40366790404004
  endloop
endfacet
facet normal 0.0 -0.5131926818132638 0.8582734245759389
  outer loop
    vertex -1.4028252978192817 16.09004224276792 62.66251652131728
    vertex -7.1228252978192925 16.53634442354741 62.92937671586018
    vertex -7.1228252978192925 16.09004224276792 62.66251652131728
  endloop
endfacet
facet normal 0.0 -0.5131926818132638 0.8582734245759389
  outer loop
    vertex -7.1228252978192925 16.53634442354741 62.92937671586018
    vertex -1.4028252978192817 16.09004224276792 62.66251652131728
    vertex -1.4028252978192817 16.53634442354741 62.92937671586018
  endloop
endfacet
facet normal 0.9999999999999999 0.0 0.0
  outer loop
    vertex -1.4028252978192817 21.785807614654598 53.13680770949714
    vertex -1.4028252978192817 16.53634442354741 62.92937671586018
    vertex -1.4028252978192817 16.09004224276792 62.66251652131728
  endloop
endfacet
facet normal 0.9999999999999999 0.0 0.0
  outer loop
    vertex -1.4028252978192817 16.53634442354741 62.92937671586018
    vertex -1.4028252978192817 21.785807614654598 53.13680770949714
    vertex -1.4028252978192817 22.23210979543409 53.40366790404004
  endloop
endfacet
facet normal 0.0 0.8582734245759389 0.5131926818132638
  outer loop
    vertex -13.882825297819311 16.53634442354741 62.92937671586018
    vertex -8.162825297819294 22.23210979543409 53.40366790404004
    vertex -13.882825297819311 22.23210979543409 53.40366790404004
  endloop
endfacet
facet normal 0.0 0.8582734245759389 0.5131926818132638
  outer loop
    vertex -8.162825297819294 22.23210979543409 53.40366790404004
    vertex -13.882825297819311 16.53634442354741 62.92937671586018
    vertex -8.162825297819294 16.53634442354741 62.92937671586018
  endloop
endfacet
facet normal 0.0 -0.5131926818132638 0.8582734245759389
  outer loop
    vertex -8.162825297819294 16.09004224276792 62.66251652131728
    vertex -13.882825297819311 16.53634442354741 62.92937671586018
    vertex -13.882825297819311 16.09004224276792 62.66251652131728
  endloop
endfacet
facet normal 0.0 -0.5131926818132638 0.8582734245759389
  outer loop
    vertex -13.882825297819311 16.53634442354741 62.92937671586018
    vertex -8.162825297819294 16.09004224276792 62.66251652131728
    vertex -8.162825297819294 16.53634442354741 62.92937671586018
  endloop
endfacet
facet normal 0.9999999999999999 0.0 0.0
  outer loop
    vertex -8.162825297819294 21.785807614654598 53.13680770949714
    vertex -8.162825297819294 16.53634442354741 62.92937671586018
    vertex -8.162825297819294 16.09004224276792 62.66251652131728
  endloop
endfacet
facet normal 0.9999999999999999 0.0 0.0
  outer loop
    vertex -8.162825297819294 16.53634442354741 62.92937671586018
    vertex -8.162825297819294 21.785807614654598 53.13680770949714
    vertex -8.162825297819294 22.23210979543409 53.40366790404004
  endloop
endfacet
facet normal 0.0 0.5131926818132638 -0.8582734245759389
  outer loop
    vertex -8.162825297819294 22.23210979543409 53.40366790404004
    vertex -13.882825297819311 21.785807614654598 53.13680770949714
    vertex -13.882825297819311 22.23210979543409 53.40366790404004
  endloop
endfacet
facet normal 0.0 0.5131926818132638 -0.8582734245759389
  outer loop
    vertex -13.882825297819311 21.785807614654598 53.13680770949714
    vertex -8.162825297819294 22.23210979543409 53.40366790404004
    vertex -8.162825297819294 21.785807614654598 53.13680770949714
  endloop
endfacet
facet normal -0.9999999999999999 0.0 0.0
  outer loop
    vertex -13.882825297819311 16.53634442354741 62.92937671586018
    vertex -13.882825297819311 21.785807614654598 53.13680770949714
    vertex -13.882825297819311 16.09004224276792 62.66251652131728
  endloop
endfacet
facet normal -0.9999999999999999 0.0 0.0
  outer loop
    vertex -13.882825297819311 21.785807614654598 53.13680770949714
    vertex -13.882825297819311 16.53634442354741 62.92937671586018
    vertex -13.882825297819311 22.23210979543409 53.40366790404004
  endloop
endfacet
facet normal -0.858253906634214 5.809704961799589e-05 0.5132253193012233
  outer loop
    vertex -7.986159018724522 0.08545049909202226 75.56984375181779
    vertex -14.800205414389522 -5.113595299042982 64.17409640201089
    vertex -21.020537272071827 -13.037856086214893 53.77409640201085
  endloop
endfacet
facet normal -0.858253906634214 5.809704961799589e-05 0.5132253193012233
  outer loop
    vertex -14.800205414389522 -5.113595299042982 64.17409640201089
    vertex -7.986159018724522 0.08545049909202226 75.56984375181779
    vertex -14.800345638144611 0.08594938194171524 64.17418025298889
  endloop
endfacet
facet normal -0.858253906634214 5.809704961799589e-05 0.5132253193012233
  outer loop
    vertex -21.019957129983823 -5.113595299042982 53.77409640201086
    vertex -21.020537272071827 -13.037856086214893 53.77409640201085
    vertex -14.800205414389522 -5.113595299042982 64.17409640201089
  endloop
endfacet
facet normal -0.8582465187405175 1.5709810548321036e-05 0.5132376767375759
  outer loop
    vertex -14.800205414389522 5.2864047009570445 64.17409640201089
    vertex -21.019576433420372 0.08640468702146764 53.77409640201086
    vertex -14.800345638144611 0.08594938194171524 64.17418025298889
  endloop
endfacet
facet normal -0.8582465187405175 1.5709810548321036e-05 0.5132376767375759
  outer loop
    vertex -21.019576433420372 0.08640468702146764 53.77409640201086
    vertex -14.800205414389522 5.2864047009570445 64.17409640201089
    vertex -21.019576433421395 5.286404673085905 53.77409640201086
  endloop
endfacet
facet normal -4.4936658310044445e-06 2.3532740701538655e-10 0.9999999999899035
  outer loop
    vertex -14.800205414389522 -5.113595299042982 64.17409640201089
    vertex -21.019957129983823 5.2864047009570445 64.17409640201089
    vertex -21.019957129983823 -5.113595299042982 64.17409640201089
  endloop
endfacet
facet normal -4.4936658310044445e-06 2.3532740701538655e-10 0.9999999999899035
  outer loop
    vertex -21.019957129983823 5.2864047009570445 64.17409640201089
    vertex -14.800205414389522 -5.113595299042982 64.17409640201089
    vertex -14.800345638144611 0.08594938194171524 64.17418025298889
  endloop
endfacet
facet normal -4.4936658310044445e-06 2.3532740701538655e-10 0.9999999999899035
  outer loop
    vertex -14.800205414389522 5.2864047009570445 64.17409640201089
    vertex -21.019957129983823 5.2864047009570445 64.17409640201089
    vertex -14.800345638144611 0.08594938194171524 64.17418025298889
  endloop
endfacet
facet normal -0.8582395995363791 1.570917746113025e-05 0.5132492469949247
  outer loop
    vertex -14.800345638144611 0.08594938194171524 64.17418025298889
    vertex -21.019957129983823 -5.113595299042982 53.77409640201086
    vertex -14.800205414389522 -5.113595299042982 64.17409640201089
  endloop
endfacet
facet normal -0.8582395995363791 1.570917746113025e-05 0.5132492469949247
  outer loop
    vertex -21.019957129983823 -5.113595299042982 53.77409640201086
    vertex -14.800345638144611 0.08594938194171524 64.17418025298889
    vertex -21.019576433420372 0.08640468702146764 53.77409640201086
  endloop
endfacet
facet normal 0.0 -0.9999999999999999 0.0
  outer loop
    vertex -21.019957129983823 -5.113595299042982 64.17409640201089
    vertex -21.019957129983823 -5.113595299042982 53.77409640201086
    vertex -14.800205414389522 -5.113595299042982 64.17409640201089
  endloop
endfacet
facet normal -0.8582510362723875 7.161814016646805e-05 0.513230117596595
  outer loop
    vertex -7.986159018724522 0.08545049909202226 75.56984375181779
    vertex -14.800205414389522 5.2864047009570445 64.17409640201089
    vertex -14.800345638144611 0.08594938194171524 64.17418025298889
  endloop
endfacet
facet normal -0.8582510362723875 7.161814016646805e-05 0.513230117596595
  outer loop
    vertex -14.800205414389522 5.2864047009570445 64.17409640201089
    vertex -7.986159018724522 0.08545049909202226 75.56984375181779
    vertex -21.018622385103278 13.117915112683312 53.77409640201086
  endloop
endfacet
facet normal -0.8582510362723875 7.161814016646805e-05 0.513230117596595
  outer loop
    vertex -21.018622385103278 13.117915112683312 53.77409640201086
    vertex -21.019576433421395 5.286404673085905 53.77409640201086
    vertex -14.800205414389522 5.2864047009570445 64.17409640201089
  endloop
endfacet
facet normal 0.0 0.9999999999999999 -2.679916301651097e-09
  outer loop
    vertex -14.800205414389522 5.2864047009570445 64.17409640201089
    vertex -21.019576433421395 5.286404673085905 53.77409640201086
    vertex -21.019957129983823 5.2864047009570445 64.17409640201089
  endloop
endfacet
facet normal -0.9999999995347366 1.8302719338911644e-05 -2.4403625842452003e-05
  outer loop
    vertex -21.019957129983823 -5.113595299042982 64.17409640201089
    vertex -21.01993175021294 -4.073595299217183 63.13409640232055
    vertex -21.019957129983823 -5.113595299042982 53.77409640201086
  endloop
endfacet
facet normal -0.9999999995347366 1.8302719338911644e-05 -2.4403625842452003e-05
  outer loop
    vertex -21.01993175021294 -4.073595299217183 63.13409640232055
    vertex -21.019957129983823 -5.113595299042982 64.17409640201089
    vertex -21.019957129983823 5.2864047009570445 64.17409640201089
  endloop
endfacet
facet normal -0.9999999995347366 1.8302719338911644e-05 -2.4403625842452003e-05
  outer loop
    vertex -21.01993175021294 -4.073595299217183 63.13409640232055
    vertex -21.019957129983823 5.2864047009570445 64.17409640201089
    vertex -21.019938095155673 4.246404698344115 63.134096402088296
  endloop
endfacet
facet normal -0.9999999995347366 1.8302719338911644e-05 -2.4403625842452003e-05
  outer loop
    vertex -21.019938095155673 4.246404698344115 63.134096402088296
    vertex -21.019957129983823 5.2864047009570445 64.17409640201089
    vertex -21.019576433421395 5.286404673085905 53.77409640201086
  endloop
endfacet
facet normal -0.9999999995347366 1.8302719338911644e-05 -2.4403625842452003e-05
  outer loop
    vertex -21.019957129983823 -5.113595299042982 53.77409640201086
    vertex -21.019938095155705 -4.073595299217183 54.81409640170118
    vertex -21.019576433420372 0.08640468702146764 53.77409640201086
  endloop
endfacet
facet normal -0.9999999995347366 1.8302719338911644e-05 -2.4403625842452003e-05
  outer loop
    vertex -21.019938095155705 -4.073595299217183 54.81409640170118
    vertex -21.019957129983823 -5.113595299042982 53.77409640201086
    vertex -21.01993175021294 -4.073595299217183 63.13409640232055
  endloop
endfacet
facet normal -0.9999999995347366 1.8302719338911644e-05 -2.4403625842452003e-05
  outer loop
    vertex -21.019576433420372 0.08640468702146764 53.77409640201086
    vertex -21.019938095155705 -4.073595299217183 54.81409640170118
    vertex -21.01960181319122 0.08640468887954356 54.81409640170118
  endloop
endfacet
facet normal -0.9999999995347366 1.8302719338911644e-05 -2.4403625842452003e-05
  outer loop
    vertex -21.019576433420372 0.08640468702146764 53.77409640201086
    vertex -21.01960181319122 0.08640468887954356 54.81409640170118
    vertex -21.019576433421395 5.286404673085905 53.77409640201086
  endloop
endfacet
facet normal -0.9999999995347366 1.8302719338911644e-05 -2.4403625842452003e-05
  outer loop
    vertex -21.019576433421395 5.286404673085905 53.77409640201086
    vertex -21.01960181319122 0.08640468887954356 54.81409640170118
    vertex -21.019601813192068 4.246404676047216 54.81409640170118
  endloop
endfacet
facet normal -0.9999999995347366 1.8302719338911644e-05 -2.4403625842452003e-05
  outer loop
    vertex -21.019576433421395 5.286404673085905 53.77409640201086
    vertex -21.019601813192068 4.246404676047216 54.81409640170118
    vertex -21.019938095155673 4.246404698344115 63.134096402088296
  endloop
endfacet
facet normal -0.9999999994505936 1.9827945961957073e-05 -2.656436354862556e-05
  outer loop
    vertex -20.49993809544136 4.246394387812223 63.13411021555734
    vertex -20.499938095441394 -4.073605609749075 54.814110215170224
    vertex -20.49993175049863 -4.073605609749075 63.134110215789605
  endloop
endfacet
facet normal -0.9999999994505936 1.9827945961957073e-05 -2.656436354862556e-05
  outer loop
    vertex -20.499938095441394 -4.073605609749075 54.814110215170224
    vertex -20.49993809544136 4.246394387812223 63.13411021555734
    vertex -20.49960181347691 0.08639437834764001 54.814110215170224
  endloop
endfacet
facet normal -0.9999999994505936 1.9827945961957073e-05 -2.656436354862556e-05
  outer loop
    vertex -20.49960181347691 0.08639437834764001 54.814110215170224
    vertex -20.49993809544136 4.246394387812223 63.13411021555734
    vertex -20.499601813477756 4.246394365515312 54.814110215170224
  endloop
endfacet
facet normal -1.9827946018854187e-05 -0.9999999998034264 1.8785003433306294e-09
  outer loop
    vertex -20.499601813477756 4.246394365515312 54.814110215170224
    vertex -21.019938095155673 4.246404698344115 63.134096402088296
    vertex -21.019601813192068 4.246404676047216 54.81409640170118
  endloop
endfacet
facet normal -1.9827946018854187e-05 -0.9999999998034264 1.8785003433306294e-09
  outer loop
    vertex -21.019938095155673 4.246404698344115 63.134096402088296
    vertex -20.499601813477756 4.246394365515312 54.814110215170224
    vertex -20.49993809544136 4.246394387812223 63.13411021555734
  endloop
endfacet
facet normal -2.6564363553847412e-05 -5.412291939757093e-18 0.9999999996471672
  outer loop
    vertex -21.01960181319122 0.08640468887954356 54.81409640170118
    vertex -20.499601813477756 4.246394365515312 54.814110215170224
    vertex -21.019601813192068 4.246404676047216 54.81409640170118
  endloop
endfacet
facet normal -2.6564363553847412e-05 -5.412291939757093e-18 0.9999999996471672
  outer loop
    vertex -20.499601813477756 4.246394365515312 54.814110215170224
    vertex -21.01960181319122 0.08640468887954356 54.81409640170118
    vertex -20.49960181347691 0.08639437834764001 54.814110215170224
  endloop
endfacet
facet normal -2.6564363511269197e-05 2.147383743352562e-09 0.9999999996471672
  outer loop
    vertex -20.499938095441394 -4.073605609749075 54.814110215170224
    vertex -21.01960181319122 0.08640468887954356 54.81409640170118
    vertex -21.019938095155705 -4.073595299217183 54.81409640170118
  endloop
endfacet
facet normal -2.6564363511269197e-05 2.147383743352562e-09 0.9999999996471672
  outer loop
    vertex -21.01960181319122 0.08640468887954356 54.81409640170118
    vertex -20.499938095441394 -4.073605609749075 54.814110215170224
    vertex -20.49960181347691 0.08639437834764001 54.814110215170224
  endloop
endfacet
facet normal 1.98279459693547e-05 0.9999999998034264 -1.512105555858514e-11
  outer loop
    vertex -21.01993175021294 -4.073595299217183 63.13409640232055
    vertex -20.499938095441394 -4.073605609749075 54.814110215170224
    vertex -21.019938095155705 -4.073595299217183 54.81409640170118
  endloop
endfacet
facet normal 1.98279459693547e-05 0.9999999998034264 -1.512105555858514e-11
  outer loop
    vertex -20.499938095441394 -4.073605609749075 54.814110215170224
    vertex -21.01993175021294 -4.073595299217183 63.13409640232055
    vertex -20.49993175049863 -4.073605609749075 63.134110215789605
  endloop
endfacet
facet normal 2.6564363553695573e-05 -7.657920990585786e-12 -0.9999999996471672
  outer loop
    vertex -20.49993809544136 4.246394387812223 63.13411021555734
    vertex -21.01993175021294 -4.073595299217183 63.13409640232055
    vertex -21.019938095155673 4.246404698344115 63.134096402088296
  endloop
endfacet
facet normal 2.6564363553695573e-05 -7.657920990585786e-12 -0.9999999996471672
  outer loop
    vertex -21.01993175021294 -4.073595299217183 63.13409640232055
    vertex -20.49993809544136 4.246394387812223 63.13411021555734
    vertex -20.49993175049863 -4.073605609749075 63.134110215789605
  endloop
endfacet
facet normal 0.8567134017683462 6.291138069905378e-05 0.5157927328614339
  outer loop
    vertex 16.357955577678226 3.787936654361761 58.65513913048109
    vertex 12.612545578886946 0.06790897689176152 64.87658578669283
    vertex 16.35850383040744 -3.678048918620479 58.65513913048109
  endloop
endfacet
facet normal 0.9999999973037675 7.343340304885898e-05 -2.850468939141045e-21
  outer loop
    vertex 16.357955577678226 3.787936654361761 74.25513913048113
    vertex 16.35850383040744 -3.678048918620479 58.65513913048109
    vertex 16.357955577678226 3.787936654361761 58.65513913048109
  endloop
endfacet
facet normal 0.9999999973037675 7.3433403048859e-05 -2.850468939141045e-21
  outer loop
    vertex 16.357955577678226 3.787936654361761 74.25513913048113
    vertex 16.35850383040744 -3.678048918620479 74.25513913048113
    vertex 16.35850383040744 -3.678048918620479 58.65513913048109
  endloop
endfacet
facet normal 0.0 -0.9999999999999999 0.0
  outer loop
    vertex 16.35850383040744 -3.678048918620479 74.25513913048113
    vertex 12.198503830407432 -3.678048918620479 65.56475131440024
    vertex 16.35850383040744 -3.678048918620479 58.65513913048109
  endloop
endfacet
facet normal 0.0 -0.9999999999999999 0.0
  outer loop
    vertex 12.198503830407432 -3.678048918620479 65.56475131440024
    vertex 16.35850383040744 -3.678048918620479 74.25513913048113
    vertex 12.198503830407432 -3.678048918620479 74.25513913048113
  endloop
endfacet
facet normal 0.0 0.0 0.9999999999999999
  outer loop
    vertex 16.35850383040744 -3.678048918620479 74.25513913048113
    vertex 12.198503830407432 3.787936654361761 74.25513913048113
    vertex 12.198503830407432 -3.678048918620479 74.25513913048113
  endloop
endfacet
facet normal 0.0 0.0 0.9999999999999999
  outer loop
    vertex 12.198503830407432 3.787936654361761 74.25513913048113
    vertex 16.35850383040744 -3.678048918620479 74.25513913048113
    vertex 16.357955577678226 3.787936654361761 74.25513913048113
  endloop
endfacet
facet normal -0.9999999999999999 0.0 0.0
  outer loop
    vertex 12.198503830407432 3.787936654361761 74.25513913048113
    vertex 12.198503830407432 -3.678048918620479 65.56475131440024
    vertex 12.198503830407432 -3.678048918620479 74.25513913048113
  endloop
endfacet
facet normal -0.9999999999999999 0.0 0.0
  outer loop
    vertex 12.198503830407432 -3.678048918620479 65.56475131440024
    vertex 12.198503830407432 3.787936654361761 74.25513913048113
    vertex 12.198503830407432 3.787936654361761 65.56384068609795
  endloop
endfacet
facet normal 0.0 0.9999999999999999 0.0
  outer loop
    vertex 12.198503830407432 3.787936654361761 65.56384068609795
    vertex 16.357955577678226 3.787936654361761 74.25513913048113
    vertex 16.357955577678226 3.787936654361761 58.65513913048109
  endloop
endfacet
facet normal 0.0 0.9999999999999999 0.0
  outer loop
    vertex 16.357955577678226 3.787936654361761 74.25513913048113
    vertex 12.198503830407432 3.787936654361761 65.56384068609795
    vertex 12.198503830407432 3.787936654361761 74.25513913048113
  endloop
endfacet
endsolid RFIDtagholder2
