solid RFIDtagholderStorage
facet normal 0.0 0.0 -1.0
  outer loop
    vertex 28.0 44.0 0.0
    vertex -28.0 -44.0 0.0
    vertex -28.0 44.0 0.0
  endloop
endfacet
facet normal 0.0 0.0 -1.0
  outer loop
    vertex -28.0 -44.0 0.0
    vertex 28.0 44.0 0.0
    vertex 28.0 -44.0 0.0
  endloop
endfacet
facet normal 0.0 0.0 -1.0
  outer loop
    vertex -30.0 46.0 -1.9999999999999998
    vertex -28.0 44.0 -1.9999999999999998
    vertex -30.0 -46.0 -1.9999999999999998
  endloop
endfacet
facet normal 0.0 0.0 -1.0
  outer loop
    vertex -28.0 44.0 -1.9999999999999998
    vertex -30.0 46.0 -1.9999999999999998
    vertex 30.0 46.0 -1.9999999999999998
  endloop
endfacet
facet normal 0.0 0.0 -1.0
  outer loop
    vertex -28.0 44.0 -1.9999999999999998
    vertex 30.0 46.0 -1.9999999999999998
    vertex 28.0 44.0 -1.9999999999999998
  endloop
endfacet
facet normal 0.0 0.0 -1.0
  outer loop
    vertex 28.0 44.0 -1.9999999999999998
    vertex 30.0 46.0 -1.9999999999999998
    vertex 28.0 -44.0 -1.9999999999999998
  endloop
endfacet
facet normal 0.0 0.0 -1.0
  outer loop
    vertex -30.0 -46.0 -1.9999999999999998
    vertex -28.0 -44.0 -1.9999999999999998
    vertex 30.0 -46.0 -1.9999999999999998
  endloop
endfacet
facet normal 0.0 0.0 -1.0
  outer loop
    vertex -28.0 -44.0 -1.9999999999999998
    vertex -30.0 -46.0 -1.9999999999999998
    vertex -28.0 44.0 -1.9999999999999998
  endloop
endfacet
facet normal 0.0 0.0 -1.0
  outer loop
    vertex 30.0 -46.0 -1.9999999999999998
    vertex -28.0 -44.0 -1.9999999999999998
    vertex 28.0 -44.0 -1.9999999999999998
  endloop
endfacet
facet normal 0.0 0.0 -1.0
  outer loop
    vertex 30.0 -46.0 -1.9999999999999998
    vertex 28.0 -44.0 -1.9999999999999998
    vertex 30.0 46.0 -1.9999999999999998
  endloop
endfacet
facet normal -0.0 1.0 0.0
  outer loop
    vertex -30.0 46.0 1.9999999999999998
    vertex 30.0 46.0 -1.9999999999999998
    vertex -30.0 46.0 -1.9999999999999998
  endloop
endfacet
facet normal -0.0 1.0 0.0
  outer loop
    vertex 30.0 46.0 -1.9999999999999998
    vertex -30.0 46.0 1.9999999999999998
    vertex 30.0 46.0 1.9999999999999998
  endloop
endfacet
facet normal 1.0 0.0 0.0
  outer loop
    vertex 30.0 46.0 -1.9999999999999998
    vertex 30.0 -46.0 1.9999999999999998
    vertex 30.0 -46.0 -1.9999999999999998
  endloop
endfacet
facet normal 1.0 0.0 0.0
  outer loop
    vertex 30.0 -46.0 1.9999999999999998
    vertex 30.0 46.0 -1.9999999999999998
    vertex 30.0 46.0 1.9999999999999998
  endloop
endfacet
facet normal -0.0 -1.0 -0.0
  outer loop
    vertex 30.0 -46.0 1.9999999999999998
    vertex -30.0 -46.0 -1.9999999999999998
    vertex 30.0 -46.0 -1.9999999999999998
  endloop
endfacet
facet normal -0.0 -1.0 -0.0
  outer loop
    vertex -30.0 -46.0 -1.9999999999999998
    vertex 30.0 -46.0 1.9999999999999998
    vertex -30.0 -46.0 1.9999999999999998
  endloop
endfacet
facet normal -1.0 0.0 0.0
  outer loop
    vertex -30.0 46.0 1.9999999999999998
    vertex -30.0 -46.0 -1.9999999999999998
    vertex -30.0 -46.0 1.9999999999999998
  endloop
endfacet
facet normal -1.0 0.0 0.0
  outer loop
    vertex -30.0 -46.0 -1.9999999999999998
    vertex -30.0 46.0 1.9999999999999998
    vertex -30.0 46.0 -1.9999999999999998
  endloop
endfacet
facet normal -0.0 1.0 0.0
  outer loop
    vertex -28.0 -44.0 0.0
    vertex 28.0 -44.0 -1.9999999999999998
    vertex -28.0 -44.0 -1.9999999999999998
  endloop
endfacet
facet normal -0.0 1.0 0.0
  outer loop
    vertex 28.0 -44.0 -1.9999999999999998
    vertex -28.0 -44.0 0.0
    vertex 28.0 -44.0 0.0
  endloop
endfacet
facet normal -1.0 0.0 0.0
  outer loop
    vertex 28.0 44.0 0.0
    vertex 28.0 -44.0 -1.9999999999999998
    vertex 28.0 -44.0 0.0
  endloop
endfacet
facet normal -1.0 0.0 0.0
  outer loop
    vertex 28.0 -44.0 -1.9999999999999998
    vertex 28.0 44.0 0.0
    vertex 28.0 44.0 -1.9999999999999998
  endloop
endfacet
facet normal -0.0 -1.0 -0.0
  outer loop
    vertex 28.0 44.0 0.0
    vertex -28.0 44.0 -1.9999999999999998
    vertex 28.0 44.0 -1.9999999999999998
  endloop
endfacet
facet normal -0.0 -1.0 -0.0
  outer loop
    vertex -28.0 44.0 -1.9999999999999998
    vertex 28.0 44.0 0.0
    vertex -28.0 44.0 0.0
  endloop
endfacet
facet normal 1.0 0.0 0.0
  outer loop
    vertex -28.0 44.0 -1.9999999999999998
    vertex -28.0 -44.0 0.0
    vertex -28.0 -44.0 -1.9999999999999998
  endloop
endfacet
facet normal 1.0 0.0 0.0
  outer loop
    vertex -28.0 -44.0 0.0
    vertex -28.0 44.0 -1.9999999999999998
    vertex -28.0 44.0 0.0
  endloop
endfacet
facet normal -0.0 -0.0 1.0
  outer loop
    vertex -30.0 -46.0 1.9999999999999998
    vertex -15.0 -23.0 1.9999999999999998
    vertex -30.0 46.0 1.9999999999999998
  endloop
endfacet
facet normal -0.0 -0.0 1.0
  outer loop
    vertex -15.0 -23.0 1.9999999999999998
    vertex -30.0 -46.0 1.9999999999999998
    vertex 30.0 -46.0 1.9999999999999998
  endloop
endfacet
facet normal -0.0 -0.0 1.0
  outer loop
    vertex -15.0 -23.0 1.9999999999999998
    vertex 30.0 -46.0 1.9999999999999998
    vertex 15.0 -23.0 1.9999999999999998
  endloop
endfacet
facet normal -0.0 -0.0 1.0
  outer loop
    vertex 15.0 -23.0 1.9999999999999998
    vertex 30.0 -46.0 1.9999999999999998
    vertex 15.0 23.0 1.9999999999999998
  endloop
endfacet
facet normal -0.0 -0.0 1.0
  outer loop
    vertex -30.0 46.0 1.9999999999999998
    vertex -15.0 23.0 1.9999999999999998
    vertex 30.0 46.0 1.9999999999999998
  endloop
endfacet
facet normal -0.0 -0.0 1.0
  outer loop
    vertex -15.0 23.0 1.9999999999999998
    vertex -30.0 46.0 1.9999999999999998
    vertex -15.0 -23.0 1.9999999999999998
  endloop
endfacet
facet normal -0.0 -0.0 1.0
  outer loop
    vertex 30.0 46.0 1.9999999999999998
    vertex -15.0 23.0 1.9999999999999998
    vertex 15.0 23.0 1.9999999999999998
  endloop
endfacet
facet normal -0.0 -0.0 1.0
  outer loop
    vertex 30.0 46.0 1.9999999999999998
    vertex 15.0 23.0 1.9999999999999998
    vertex 30.0 -46.0 1.9999999999999998
  endloop
endfacet
facet normal 0.0 0.0 1.0
  outer loop
    vertex -15.0 -23.0 3.9999999999999996
    vertex -13.000000000000002 -21.0 3.9999999999999996
    vertex -15.0 23.0 3.9999999999999996
  endloop
endfacet
facet normal 0.0 0.0 1.0
  outer loop
    vertex -13.000000000000002 -21.0 3.9999999999999996
    vertex -15.0 -23.0 3.9999999999999996
    vertex 15.0 -23.0 3.9999999999999996
  endloop
endfacet
facet normal 0.0 0.0 1.0
  outer loop
    vertex -13.000000000000002 -21.0 3.9999999999999996
    vertex 15.0 -23.0 3.9999999999999996
    vertex 13.000000000000002 -21.0 3.9999999999999996
  endloop
endfacet
facet normal 0.0 0.0 1.0
  outer loop
    vertex 13.000000000000002 -21.0 3.9999999999999996
    vertex 15.0 -23.0 3.9999999999999996
    vertex 13.000000000000002 21.0 3.9999999999999996
  endloop
endfacet
facet normal 0.0 0.0 1.0
  outer loop
    vertex -15.0 23.0 3.9999999999999996
    vertex -13.000000000000002 21.0 3.9999999999999996
    vertex 15.0 23.0 3.9999999999999996
  endloop
endfacet
facet normal 0.0 0.0 1.0
  outer loop
    vertex -13.000000000000002 21.0 3.9999999999999996
    vertex -15.0 23.0 3.9999999999999996
    vertex -13.000000000000002 -21.0 3.9999999999999996
  endloop
endfacet
facet normal 0.0 0.0 1.0
  outer loop
    vertex 15.0 23.0 3.9999999999999996
    vertex -13.000000000000002 21.0 3.9999999999999996
    vertex 13.000000000000002 21.0 3.9999999999999996
  endloop
endfacet
facet normal 0.0 0.0 1.0
  outer loop
    vertex 15.0 23.0 3.9999999999999996
    vertex 13.000000000000002 21.0 3.9999999999999996
    vertex 15.0 -23.0 3.9999999999999996
  endloop
endfacet
facet normal -1.0 0.0 0.0
  outer loop
    vertex -15.0 23.0 3.9999999999999996
    vertex -15.0 -23.0 1.9999999999999998
    vertex -15.0 -23.0 3.9999999999999996
  endloop
endfacet
facet normal -1.0 0.0 0.0
  outer loop
    vertex -15.0 -23.0 1.9999999999999998
    vertex -15.0 23.0 3.9999999999999996
    vertex -15.0 23.0 1.9999999999999998
  endloop
endfacet
facet normal 0.0 -1.0 0.0
  outer loop
    vertex 15.0 -23.0 3.9999999999999996
    vertex -15.0 -23.0 1.9999999999999998
    vertex 15.0 -23.0 1.9999999999999998
  endloop
endfacet
facet normal 0.0 -1.0 0.0
  outer loop
    vertex -15.0 -23.0 1.9999999999999998
    vertex 15.0 -23.0 3.9999999999999996
    vertex -15.0 -23.0 3.9999999999999996
  endloop
endfacet
facet normal 1.0 -0.0 0.0
  outer loop
    vertex 15.0 23.0 1.9999999999999998
    vertex 15.0 -23.0 3.9999999999999996
    vertex 15.0 -23.0 1.9999999999999998
  endloop
endfacet
facet normal 1.0 -0.0 0.0
  outer loop
    vertex 15.0 -23.0 3.9999999999999996
    vertex 15.0 23.0 1.9999999999999998
    vertex 15.0 23.0 3.9999999999999996
  endloop
endfacet
facet normal -0.0 1.0 -0.0
  outer loop
    vertex -15.0 23.0 3.9999999999999996
    vertex 15.0 23.0 1.9999999999999998
    vertex -15.0 23.0 1.9999999999999998
  endloop
endfacet
facet normal -0.0 1.0 -0.0
  outer loop
    vertex 15.0 23.0 1.9999999999999998
    vertex -15.0 23.0 3.9999999999999996
    vertex 15.0 23.0 3.9999999999999996
  endloop
endfacet
facet normal 0.0 -1.0 0.0
  outer loop
    vertex 13.000000000000002 -21.0 34.0
    vertex -13.000000000000002 -21.0 5.999999999999999
    vertex 13.000000000000002 -21.0 5.999999999999999
  endloop
endfacet
facet normal 0.0 -1.0 0.0
  outer loop
    vertex -13.000000000000002 -21.0 5.999999999999999
    vertex 13.000000000000002 -21.0 34.0
    vertex -13.000000000000002 -21.0 34.0
  endloop
endfacet
facet normal 1.0 -0.0 -0.0
  outer loop
    vertex 13.000000000000002 21.0 5.999999999999999
    vertex 13.000000000000002 -21.0 34.0
    vertex 13.000000000000002 -21.0 5.999999999999999
  endloop
endfacet
facet normal 1.0 -0.0 -0.0
  outer loop
    vertex 13.000000000000002 -21.0 34.0
    vertex 13.000000000000002 21.0 5.999999999999999
    vertex 13.000000000000002 21.0 34.0
  endloop
endfacet
facet normal -0.0 1.0 -0.0
  outer loop
    vertex -13.000000000000002 21.0 34.0
    vertex 13.000000000000002 21.0 5.999999999999999
    vertex -13.000000000000002 21.0 5.999999999999999
  endloop
endfacet
facet normal -0.0 1.0 -0.0
  outer loop
    vertex 13.000000000000002 21.0 5.999999999999999
    vertex -13.000000000000002 21.0 34.0
    vertex 13.000000000000002 21.0 34.0
  endloop
endfacet
facet normal -1.0 0.0 0.0
  outer loop
    vertex -13.000000000000002 21.0 34.0
    vertex -13.000000000000002 -21.0 5.999999999999999
    vertex -13.000000000000002 -21.0 34.0
  endloop
endfacet
facet normal -1.0 0.0 0.0
  outer loop
    vertex -13.000000000000002 -21.0 5.999999999999999
    vertex -13.000000000000002 21.0 34.0
    vertex -13.000000000000002 21.0 5.999999999999999
  endloop
endfacet
facet normal 0.0 0.0 1.0
  outer loop
    vertex -10.414814565722674 -16.647047612756307 38.99999999999999
    vertex -10.414814565722674 -15.3529523872437 38.99999999999999
    vertex -10.500000000000004 -16.0 38.99999999999999
  endloop
endfacet
facet normal 0.0 0.0 1.0
  outer loop
    vertex -10.414814565722674 -15.3529523872437 38.99999999999999
    vertex -10.414814565722674 -16.647047612756307 38.99999999999999
    vertex -10.165063509461099 -17.250000000000004 38.99999999999999
  endloop
endfacet
facet normal 0.0 0.0 1.0
  outer loop
    vertex -10.414814565722674 -15.3529523872437 38.99999999999999
    vertex -10.165063509461099 -17.250000000000004 38.99999999999999
    vertex -10.1650635094611 -14.750000000000004 38.99999999999999
  endloop
endfacet
facet normal 0.0 0.0 1.0
  outer loop
    vertex -10.1650635094611 -14.750000000000004 38.99999999999999
    vertex -10.165063509461099 -17.250000000000004 38.99999999999999
    vertex -9.767766952966372 -14.232233047033631 38.99999999999999
  endloop
endfacet
facet normal 0.0 0.0 1.0
  outer loop
    vertex -9.767766952966372 -14.232233047033631 38.99999999999999
    vertex -10.165063509461099 -17.250000000000004 38.99999999999999
    vertex -9.76776695296637 -17.767766952966372 38.99999999999999
  endloop
endfacet
facet normal 0.0 0.0 1.0
  outer loop
    vertex -9.767766952966372 -14.232233047033631 38.99999999999999
    vertex -9.76776695296637 -17.767766952966372 38.99999999999999
    vertex -9.250000000000004 -13.834936490538905 38.99999999999999
  endloop
endfacet
facet normal 0.0 0.0 1.0
  outer loop
    vertex -9.250000000000004 -13.834936490538905 38.99999999999999
    vertex -9.76776695296637 -17.767766952966372 38.99999999999999
    vertex -9.250000000000004 -18.1650635094611 38.99999999999999
  endloop
endfacet
facet normal 0.0 0.0 1.0
  outer loop
    vertex -9.250000000000004 -13.834936490538905 38.99999999999999
    vertex -9.250000000000004 -18.1650635094611 38.99999999999999
    vertex -8.647047612756307 -13.58518543427733 38.99999999999999
  endloop
endfacet
facet normal 0.0 0.0 1.0
  outer loop
    vertex -8.647047612756307 -13.58518543427733 38.99999999999999
    vertex -9.250000000000004 -18.1650635094611 38.99999999999999
    vertex -8.647047612756303 -18.414814565722672 38.99999999999999
  endloop
endfacet
facet normal 0.0 0.0 1.0
  outer loop
    vertex -8.647047612756307 -13.58518543427733 38.99999999999999
    vertex -8.647047612756303 -18.414814565722672 38.99999999999999
    vertex -8.000000000000002 -13.5 38.99999999999999
  endloop
endfacet
facet normal 0.0 0.0 1.0
  outer loop
    vertex -8.000000000000002 -13.5 38.99999999999999
    vertex -8.647047612756303 -18.414814565722672 38.99999999999999
    vertex -8.000000000000002 -18.500000000000004 38.99999999999999
  endloop
endfacet
facet normal 0.0 0.0 1.0
  outer loop
    vertex -8.000000000000002 -13.5 38.99999999999999
    vertex -8.000000000000002 -18.500000000000004 38.99999999999999
    vertex -7.3529523872436995 -18.414814565722672 38.99999999999999
  endloop
endfacet
facet normal 0.0 0.0 1.0
  outer loop
    vertex -8.000000000000002 -13.5 38.99999999999999
    vertex -7.3529523872436995 -18.414814565722672 38.99999999999999
    vertex -7.3529523872436995 -13.58518543427733 38.99999999999999
  endloop
endfacet
facet normal 0.0 0.0 1.0
  outer loop
    vertex -7.3529523872436995 -13.58518543427733 38.99999999999999
    vertex -7.3529523872436995 -18.414814565722672 38.99999999999999
    vertex -6.75 -18.1650635094611 38.99999999999999
  endloop
endfacet
facet normal 0.0 0.0 1.0
  outer loop
    vertex -7.3529523872436995 -13.58518543427733 38.99999999999999
    vertex -6.75 -18.1650635094611 38.99999999999999
    vertex -6.750000000000002 -13.834936490538905 38.99999999999999
  endloop
endfacet
facet normal 0.0 0.0 1.0
  outer loop
    vertex -6.750000000000002 -13.834936490538905 38.99999999999999
    vertex -6.75 -18.1650635094611 38.99999999999999
    vertex -6.232233047033633 -14.232233047033631 38.99999999999999
  endloop
endfacet
facet normal 0.0 0.0 1.0
  outer loop
    vertex -6.232233047033633 -14.232233047033631 38.99999999999999
    vertex -6.75 -18.1650635094611 38.99999999999999
    vertex -6.232233047033633 -17.767766952966372 38.99999999999999
  endloop
endfacet
facet normal 0.0 0.0 1.0
  outer loop
    vertex -6.232233047033633 -14.232233047033631 38.99999999999999
    vertex -6.232233047033633 -17.767766952966372 38.99999999999999
    vertex -5.8349364905389045 -14.750000000000002 38.99999999999999
  endloop
endfacet
facet normal 0.0 0.0 1.0
  outer loop
    vertex -5.8349364905389045 -14.750000000000002 38.99999999999999
    vertex -6.232233047033633 -17.767766952966372 38.99999999999999
    vertex -5.8349364905389045 -17.250000000000004 38.99999999999999
  endloop
endfacet
facet normal 0.0 0.0 1.0
  outer loop
    vertex -5.8349364905389045 -14.750000000000002 38.99999999999999
    vertex -5.8349364905389045 -17.250000000000004 38.99999999999999
    vertex -5.585185434277331 -16.647047612756303 38.99999999999999
  endloop
endfacet
facet normal 0.0 0.0 1.0
  outer loop
    vertex -5.8349364905389045 -14.750000000000002 38.99999999999999
    vertex -5.585185434277331 -16.647047612756303 38.99999999999999
    vertex -5.585185434277331 -15.352952387243697 38.99999999999999
  endloop
endfacet
facet normal 0.0 0.0 1.0
  outer loop
    vertex -5.585185434277331 -15.352952387243697 38.99999999999999
    vertex -5.585185434277331 -16.647047612756303 38.99999999999999
    vertex -5.500000000000001 -16.0 38.99999999999999
  endloop
endfacet
facet normal -0.9914448613738104 0.13052619222005188 0.0
  outer loop
    vertex -10.414814565722674 -15.3529523872437 38.99999999999999
    vertex -10.500000000000004 -16.0 34.0
    vertex -10.500000000000004 -16.0 38.99999999999999
  endloop
endfacet
facet normal -0.9914448613738104 0.13052619222005188 0.0
  outer loop
    vertex -10.500000000000004 -16.0 34.0
    vertex -10.414814565722674 -15.3529523872437 38.99999999999999
    vertex -10.414814565722674 -15.3529523872437 34.0
  endloop
endfacet
facet normal -0.9914448613738106 -0.13052619222005132 -0.0
  outer loop
    vertex -10.500000000000004 -16.0 38.99999999999999
    vertex -10.414814565722674 -16.647047612756307 34.0
    vertex -10.414814565722674 -16.647047612756307 38.99999999999999
  endloop
endfacet
facet normal -0.9914448613738106 -0.13052619222005132 -0.0
  outer loop
    vertex -10.414814565722674 -16.647047612756307 34.0
    vertex -10.500000000000004 -16.0 38.99999999999999
    vertex -10.500000000000004 -16.0 34.0
  endloop
endfacet
facet normal -0.923879532511286 -0.3826834323650921 -0.0
  outer loop
    vertex -10.414814565722674 -16.647047612756307 38.99999999999999
    vertex -10.165063509461099 -17.250000000000004 34.0
    vertex -10.165063509461099 -17.250000000000004 38.99999999999999
  endloop
endfacet
facet normal -0.923879532511286 -0.3826834323650921 -0.0
  outer loop
    vertex -10.165063509461099 -17.250000000000004 34.0
    vertex -10.414814565722674 -16.647047612756307 38.99999999999999
    vertex -10.414814565722674 -16.647047612756307 34.0
  endloop
endfacet
facet normal -0.7933533402912362 -0.6087614290087197 -0.0
  outer loop
    vertex -10.165063509461099 -17.250000000000004 38.99999999999999
    vertex -9.76776695296637 -17.767766952966372 34.0
    vertex -9.76776695296637 -17.767766952966372 38.99999999999999
  endloop
endfacet
facet normal -0.7933533402912362 -0.6087614290087197 -0.0
  outer loop
    vertex -9.76776695296637 -17.767766952966372 34.0
    vertex -10.165063509461099 -17.250000000000004 38.99999999999999
    vertex -10.165063509461099 -17.250000000000004 34.0
  endloop
endfacet
facet normal -0.6087614290087207 -0.7933533402912354 -0.0
  outer loop
    vertex -9.250000000000004 -18.1650635094611 38.99999999999999
    vertex -9.76776695296637 -17.767766952966372 34.0
    vertex -9.250000000000004 -18.1650635094611 34.0
  endloop
endfacet
facet normal -0.6087614290087207 -0.7933533402912354 -0.0
  outer loop
    vertex -9.76776695296637 -17.767766952966372 34.0
    vertex -9.250000000000004 -18.1650635094611 38.99999999999999
    vertex -9.76776695296637 -17.767766952966372 38.99999999999999
  endloop
endfacet
facet normal -0.3826834323650887 -0.9238795325112873 -0.0
  outer loop
    vertex -8.647047612756303 -18.414814565722672 38.99999999999999
    vertex -9.250000000000004 -18.1650635094611 34.0
    vertex -8.647047612756303 -18.414814565722672 34.0
  endloop
endfacet
facet normal -0.3826834323650887 -0.9238795325112873 -0.0
  outer loop
    vertex -9.250000000000004 -18.1650635094611 34.0
    vertex -8.647047612756303 -18.414814565722672 38.99999999999999
    vertex -9.250000000000004 -18.1650635094611 38.99999999999999
  endloop
endfacet
facet normal -0.13052619222005188 -0.9914448613738104 -0.0
  outer loop
    vertex -8.000000000000002 -18.500000000000004 38.99999999999999
    vertex -8.647047612756303 -18.414814565722672 34.0
    vertex -8.000000000000002 -18.500000000000004 34.0
  endloop
endfacet
facet normal -0.13052619222005188 -0.9914448613738104 -0.0
  outer loop
    vertex -8.647047612756303 -18.414814565722672 34.0
    vertex -8.000000000000002 -18.500000000000004 38.99999999999999
    vertex -8.647047612756303 -18.414814565722672 38.99999999999999
  endloop
endfacet
facet normal 0.13052619222005157 -0.9914448613738104 0.0
  outer loop
    vertex -7.3529523872436995 -18.414814565722672 38.99999999999999
    vertex -8.000000000000002 -18.500000000000004 34.0
    vertex -7.3529523872436995 -18.414814565722672 34.0
  endloop
endfacet
facet normal 0.13052619222005157 -0.9914448613738104 0.0
  outer loop
    vertex -8.000000000000002 -18.500000000000004 34.0
    vertex -7.3529523872436995 -18.414814565722672 38.99999999999999
    vertex -8.000000000000002 -18.500000000000004 38.99999999999999
  endloop
endfacet
facet normal 0.3826834323650887 -0.9238795325112873 0.0
  outer loop
    vertex -6.75 -18.1650635094611 38.99999999999999
    vertex -7.3529523872436995 -18.414814565722672 34.0
    vertex -6.75 -18.1650635094611 34.0
  endloop
endfacet
facet normal 0.3826834323650887 -0.9238795325112873 0.0
  outer loop
    vertex -7.3529523872436995 -18.414814565722672 34.0
    vertex -6.75 -18.1650635094611 38.99999999999999
    vertex -7.3529523872436995 -18.414814565722672 38.99999999999999
  endloop
endfacet
facet normal 0.6087614290087212 -0.7933533402912349 0.0
  outer loop
    vertex -6.232233047033633 -17.767766952966372 38.99999999999999
    vertex -6.75 -18.1650635094611 34.0
    vertex -6.232233047033633 -17.767766952966372 34.0
  endloop
endfacet
facet normal 0.6087614290087212 -0.7933533402912349 0.0
  outer loop
    vertex -6.75 -18.1650635094611 34.0
    vertex -6.232233047033633 -17.767766952966372 38.99999999999999
    vertex -6.75 -18.1650635094611 38.99999999999999
  endloop
endfacet
facet normal 0.7933533402912355 -0.6087614290087203 0.0
  outer loop
    vertex -5.8349364905389045 -17.250000000000004 34.0
    vertex -6.232233047033633 -17.767766952966372 38.99999999999999
    vertex -6.232233047033633 -17.767766952966372 34.0
  endloop
endfacet
facet normal 0.7933533402912355 -0.6087614290087203 0.0
  outer loop
    vertex -6.232233047033633 -17.767766952966372 38.99999999999999
    vertex -5.8349364905389045 -17.250000000000004 34.0
    vertex -5.8349364905389045 -17.250000000000004 38.99999999999999
  endloop
endfacet
facet normal 0.9238795325112873 -0.3826834323650887 0.0
  outer loop
    vertex -5.585185434277331 -16.647047612756303 34.0
    vertex -5.8349364905389045 -17.250000000000004 38.99999999999999
    vertex -5.8349364905389045 -17.250000000000004 34.0
  endloop
endfacet
facet normal 0.9238795325112873 -0.3826834323650887 0.0
  outer loop
    vertex -5.8349364905389045 -17.250000000000004 38.99999999999999
    vertex -5.585185434277331 -16.647047612756303 34.0
    vertex -5.585185434277331 -16.647047612756303 38.99999999999999
  endloop
endfacet
facet normal 0.9914448613738104 -0.13052619222005188 0.0
  outer loop
    vertex -5.500000000000001 -16.0 34.0
    vertex -5.585185434277331 -16.647047612756303 38.99999999999999
    vertex -5.585185434277331 -16.647047612756303 34.0
  endloop
endfacet
facet normal 0.9914448613738104 -0.13052619222005188 0.0
  outer loop
    vertex -5.585185434277331 -16.647047612756303 38.99999999999999
    vertex -5.500000000000001 -16.0 34.0
    vertex -5.500000000000001 -16.0 38.99999999999999
  endloop
endfacet
facet normal 0.9914448613738106 0.13052619222005132 0.0
  outer loop
    vertex -5.585185434277331 -15.352952387243697 34.0
    vertex -5.500000000000001 -16.0 38.99999999999999
    vertex -5.500000000000001 -16.0 34.0
  endloop
endfacet
facet normal 0.9914448613738106 0.13052619222005132 0.0
  outer loop
    vertex -5.500000000000001 -16.0 38.99999999999999
    vertex -5.585185434277331 -15.352952387243697 34.0
    vertex -5.585185434277331 -15.352952387243697 38.99999999999999
  endloop
endfacet
facet normal 0.9238795325112866 0.3826834323650902 0.0
  outer loop
    vertex -5.8349364905389045 -14.750000000000002 34.0
    vertex -5.585185434277331 -15.352952387243697 38.99999999999999
    vertex -5.585185434277331 -15.352952387243697 34.0
  endloop
endfacet
facet normal 0.9238795325112866 0.3826834323650902 0.0
  outer loop
    vertex -5.585185434277331 -15.352952387243697 38.99999999999999
    vertex -5.8349364905389045 -14.750000000000002 34.0
    vertex -5.8349364905389045 -14.750000000000002 38.99999999999999
  endloop
endfacet
facet normal 0.7933533402912349 0.608761429008721 0.0
  outer loop
    vertex -6.232233047033633 -14.232233047033631 34.0
    vertex -5.8349364905389045 -14.750000000000002 38.99999999999999
    vertex -5.8349364905389045 -14.750000000000002 34.0
  endloop
endfacet
facet normal 0.7933533402912349 0.608761429008721 0.0
  outer loop
    vertex -5.8349364905389045 -14.750000000000002 38.99999999999999
    vertex -6.232233047033633 -14.232233047033631 34.0
    vertex -6.232233047033633 -14.232233047033631 38.99999999999999
  endloop
endfacet
facet normal 0.6087614290087207 0.7933533402912354 0.0
  outer loop
    vertex -6.750000000000002 -13.834936490538905 38.99999999999999
    vertex -6.232233047033633 -14.232233047033631 34.0
    vertex -6.750000000000002 -13.834936490538905 34.0
  endloop
endfacet
facet normal 0.6087614290087207 0.7933533402912354 0.0
  outer loop
    vertex -6.232233047033633 -14.232233047033631 34.0
    vertex -6.750000000000002 -13.834936490538905 38.99999999999999
    vertex -6.232233047033633 -14.232233047033631 38.99999999999999
  endloop
endfacet
facet normal 0.3826834323650895 0.923879532511287 0.0
  outer loop
    vertex -7.3529523872436995 -13.58518543427733 38.99999999999999
    vertex -6.750000000000002 -13.834936490538905 34.0
    vertex -7.3529523872436995 -13.58518543427733 34.0
  endloop
endfacet
facet normal 0.3826834323650895 0.923879532511287 0.0
  outer loop
    vertex -6.750000000000002 -13.834936490538905 34.0
    vertex -7.3529523872436995 -13.58518543427733 38.99999999999999
    vertex -6.750000000000002 -13.834936490538905 38.99999999999999
  endloop
endfacet
facet normal 0.13052619222005157 0.9914448613738104 0.0
  outer loop
    vertex -8.000000000000002 -13.5 38.99999999999999
    vertex -7.3529523872436995 -13.58518543427733 34.0
    vertex -8.000000000000002 -13.5 34.0
  endloop
endfacet
facet normal 0.13052619222005157 0.9914448613738104 0.0
  outer loop
    vertex -7.3529523872436995 -13.58518543427733 34.0
    vertex -8.000000000000002 -13.5 38.99999999999999
    vertex -7.3529523872436995 -13.58518543427733 38.99999999999999
  endloop
endfacet
facet normal -0.13052619222005132 0.9914448613738106 0.0
  outer loop
    vertex -8.647047612756307 -13.58518543427733 38.99999999999999
    vertex -8.000000000000002 -13.5 34.0
    vertex -8.647047612756307 -13.58518543427733 34.0
  endloop
endfacet
facet normal -0.13052619222005132 0.9914448613738106 0.0
  outer loop
    vertex -8.000000000000002 -13.5 34.0
    vertex -8.647047612756307 -13.58518543427733 38.99999999999999
    vertex -8.000000000000002 -13.5 38.99999999999999
  endloop
endfacet
facet normal -0.3826834323650895 0.923879532511287 0.0
  outer loop
    vertex -9.250000000000004 -13.834936490538905 38.99999999999999
    vertex -8.647047612756307 -13.58518543427733 34.0
    vertex -9.250000000000004 -13.834936490538905 34.0
  endloop
endfacet
facet normal -0.3826834323650895 0.923879532511287 0.0
  outer loop
    vertex -8.647047612756307 -13.58518543427733 34.0
    vertex -9.250000000000004 -13.834936490538905 38.99999999999999
    vertex -8.647047612756307 -13.58518543427733 38.99999999999999
  endloop
endfacet
facet normal -0.6087614290087207 0.7933533402912354 0.0
  outer loop
    vertex -9.767766952966372 -14.232233047033631 38.99999999999999
    vertex -9.250000000000004 -13.834936490538905 34.0
    vertex -9.767766952966372 -14.232233047033631 34.0
  endloop
endfacet
facet normal -0.6087614290087207 0.7933533402912354 0.0
  outer loop
    vertex -9.250000000000004 -13.834936490538905 34.0
    vertex -9.767766952966372 -14.232233047033631 38.99999999999999
    vertex -9.250000000000004 -13.834936490538905 38.99999999999999
  endloop
endfacet
facet normal -0.7933533402912377 0.6087614290087175 0.0
  outer loop
    vertex -9.767766952966372 -14.232233047033631 38.99999999999999
    vertex -10.1650635094611 -14.750000000000004 34.0
    vertex -10.1650635094611 -14.750000000000004 38.99999999999999
  endloop
endfacet
facet normal -0.7933533402912377 0.6087614290087175 0.0
  outer loop
    vertex -10.1650635094611 -14.750000000000004 34.0
    vertex -9.767766952966372 -14.232233047033631 38.99999999999999
    vertex -9.767766952966372 -14.232233047033631 34.0
  endloop
endfacet
facet normal -0.9238795325112866 0.3826834323650902 0.0
  outer loop
    vertex -10.1650635094611 -14.750000000000004 38.99999999999999
    vertex -10.414814565722674 -15.3529523872437 34.0
    vertex -10.414814565722674 -15.3529523872437 38.99999999999999
  endloop
endfacet
facet normal -0.9238795325112866 0.3826834323650902 0.0
  outer loop
    vertex -10.414814565722674 -15.3529523872437 34.0
    vertex -10.1650635094611 -14.750000000000004 38.99999999999999
    vertex -10.1650635094611 -14.750000000000004 34.0
  endloop
endfacet
facet normal 0.0 0.0 1.0
  outer loop
    vertex -10.41481456572267 15.352952387243697 38.99999999999999
    vertex -10.41481456572267 16.647047612756303 38.99999999999999
    vertex -10.5 16.0 38.99999999999999
  endloop
endfacet
facet normal 0.0 0.0 1.0
  outer loop
    vertex -10.41481456572267 16.647047612756303 38.99999999999999
    vertex -10.41481456572267 15.352952387243697 38.99999999999999
    vertex -10.165063509461097 14.750000000000002 38.99999999999999
  endloop
endfacet
facet normal 0.0 0.0 1.0
  outer loop
    vertex -10.41481456572267 16.647047612756303 38.99999999999999
    vertex -10.165063509461097 14.750000000000002 38.99999999999999
    vertex -10.165063509461099 17.25 38.99999999999999
  endloop
endfacet
facet normal 0.0 0.0 1.0
  outer loop
    vertex -10.165063509461099 17.25 38.99999999999999
    vertex -10.165063509461097 14.750000000000002 38.99999999999999
    vertex -9.76776695296637 17.76776695296637 38.99999999999999
  endloop
endfacet
facet normal 0.0 0.0 1.0
  outer loop
    vertex -9.76776695296637 17.76776695296637 38.99999999999999
    vertex -10.165063509461097 14.750000000000002 38.99999999999999
    vertex -9.767766952966369 14.232233047033635 38.99999999999999
  endloop
endfacet
facet normal 0.0 0.0 1.0
  outer loop
    vertex -9.76776695296637 17.76776695296637 38.99999999999999
    vertex -9.767766952966369 14.232233047033635 38.99999999999999
    vertex -9.250000000000004 18.165063509461095 38.99999999999999
  endloop
endfacet
facet normal 0.0 0.0 1.0
  outer loop
    vertex -9.250000000000004 18.165063509461095 38.99999999999999
    vertex -9.767766952966369 14.232233047033635 38.99999999999999
    vertex -9.25 13.834936490538906 38.99999999999999
  endloop
endfacet
facet normal 0.0 0.0 1.0
  outer loop
    vertex -9.250000000000004 18.165063509461095 38.99999999999999
    vertex -9.25 13.834936490538906 38.99999999999999
    vertex -8.647047612756307 18.414814565722672 38.99999999999999
  endloop
endfacet
facet normal 0.0 0.0 1.0
  outer loop
    vertex -8.647047612756307 18.414814565722672 38.99999999999999
    vertex -9.25 13.834936490538906 38.99999999999999
    vertex -8.647047612756301 13.585185434277333 38.99999999999999
  endloop
endfacet
facet normal 0.0 0.0 1.0
  outer loop
    vertex -8.647047612756307 18.414814565722672 38.99999999999999
    vertex -8.647047612756301 13.585185434277333 38.99999999999999
    vertex -8.000000000000002 18.5 38.99999999999999
  endloop
endfacet
facet normal 0.0 0.0 1.0
  outer loop
    vertex -8.000000000000002 18.5 38.99999999999999
    vertex -8.647047612756301 13.585185434277333 38.99999999999999
    vertex -8.000000000000002 13.500000000000004 38.99999999999999
  endloop
endfacet
facet normal 0.0 0.0 1.0
  outer loop
    vertex -8.000000000000002 18.5 38.99999999999999
    vertex -8.000000000000002 13.500000000000004 38.99999999999999
    vertex -7.3529523872436995 13.585185434277333 38.99999999999999
  endloop
endfacet
facet normal 0.0 0.0 1.0
  outer loop
    vertex -8.000000000000002 18.5 38.99999999999999
    vertex -7.3529523872436995 13.585185434277333 38.99999999999999
    vertex -7.352952387243701 18.414814565722672 38.99999999999999
  endloop
endfacet
facet normal 0.0 0.0 1.0
  outer loop
    vertex -7.352952387243701 18.414814565722672 38.99999999999999
    vertex -7.3529523872436995 13.585185434277333 38.99999999999999
    vertex -6.7500000000000036 18.165063509461095 38.99999999999999
  endloop
endfacet
facet normal 0.0 0.0 1.0
  outer loop
    vertex -6.7500000000000036 18.165063509461095 38.99999999999999
    vertex -7.3529523872436995 13.585185434277333 38.99999999999999
    vertex -6.750000000000002 13.834936490538906 38.99999999999999
  endloop
endfacet
facet normal 0.0 0.0 1.0
  outer loop
    vertex -6.7500000000000036 18.165063509461095 38.99999999999999
    vertex -6.750000000000002 13.834936490538906 38.99999999999999
    vertex -6.232233047033635 17.76776695296637 38.99999999999999
  endloop
endfacet
facet normal 0.0 0.0 1.0
  outer loop
    vertex -6.232233047033635 17.76776695296637 38.99999999999999
    vertex -6.750000000000002 13.834936490538906 38.99999999999999
    vertex -6.232233047033635 14.232233047033635 38.99999999999999
  endloop
endfacet
facet normal 0.0 0.0 1.0
  outer loop
    vertex -6.232233047033635 17.76776695296637 38.99999999999999
    vertex -6.232233047033635 14.232233047033635 38.99999999999999
    vertex -5.834936490538907 14.750000000000004 38.99999999999999
  endloop
endfacet
facet normal 0.0 0.0 1.0
  outer loop
    vertex -6.232233047033635 17.76776695296637 38.99999999999999
    vertex -5.834936490538907 14.750000000000004 38.99999999999999
    vertex -5.834936490538907 17.250000000000004 38.99999999999999
  endloop
endfacet
facet normal 0.0 0.0 1.0
  outer loop
    vertex -5.834936490538907 17.250000000000004 38.99999999999999
    vertex -5.834936490538907 14.750000000000004 38.99999999999999
    vertex -5.585185434277333 15.3529523872437 38.99999999999999
  endloop
endfacet
facet normal 0.0 0.0 1.0
  outer loop
    vertex -5.834936490538907 17.250000000000004 38.99999999999999
    vertex -5.585185434277333 15.3529523872437 38.99999999999999
    vertex -5.585185434277333 16.647047612756303 38.99999999999999
  endloop
endfacet
facet normal 0.0 0.0 1.0
  outer loop
    vertex -5.585185434277333 16.647047612756303 38.99999999999999
    vertex -5.585185434277333 15.3529523872437 38.99999999999999
    vertex -5.500000000000004 16.0 38.99999999999999
  endloop
endfacet
facet normal -0.13052619222005216 -0.9914448613738105 -0.0
  outer loop
    vertex -8.000000000000002 13.500000000000004 38.99999999999999
    vertex -8.647047612756301 13.585185434277333 34.0
    vertex -8.000000000000002 13.500000000000004 34.0
  endloop
endfacet
facet normal -0.13052619222005216 -0.9914448613738105 -0.0
  outer loop
    vertex -8.647047612756301 13.585185434277333 34.0
    vertex -8.000000000000002 13.500000000000004 38.99999999999999
    vertex -8.647047612756301 13.585185434277333 38.99999999999999
  endloop
endfacet
facet normal 0.13052619222005157 -0.9914448613738104 0.0
  outer loop
    vertex -7.3529523872436995 13.585185434277333 38.99999999999999
    vertex -8.000000000000002 13.500000000000004 34.0
    vertex -7.3529523872436995 13.585185434277333 34.0
  endloop
endfacet
facet normal 0.13052619222005157 -0.9914448613738104 0.0
  outer loop
    vertex -8.000000000000002 13.500000000000004 34.0
    vertex -7.3529523872436995 13.585185434277333 38.99999999999999
    vertex -8.000000000000002 13.500000000000004 38.99999999999999
  endloop
endfacet
facet normal 0.3826834323650895 -0.923879532511287 0.0
  outer loop
    vertex -6.750000000000002 13.834936490538906 38.99999999999999
    vertex -7.3529523872436995 13.585185434277333 34.0
    vertex -6.750000000000002 13.834936490538906 34.0
  endloop
endfacet
facet normal 0.3826834323650895 -0.923879532511287 0.0
  outer loop
    vertex -7.3529523872436995 13.585185434277333 34.0
    vertex -6.750000000000002 13.834936490538906 38.99999999999999
    vertex -7.3529523872436995 13.585185434277333 38.99999999999999
  endloop
endfacet
facet normal 0.6087614290087217 -0.7933533402912344 0.0
  outer loop
    vertex -6.232233047033635 14.232233047033635 38.99999999999999
    vertex -6.750000000000002 13.834936490538906 34.0
    vertex -6.232233047033635 14.232233047033635 34.0
  endloop
endfacet
facet normal 0.6087614290087217 -0.7933533402912344 0.0
  outer loop
    vertex -6.750000000000002 13.834936490538906 34.0
    vertex -6.232233047033635 14.232233047033635 38.99999999999999
    vertex -6.750000000000002 13.834936490538906 38.99999999999999
  endloop
endfacet
facet normal 0.7933533402912362 -0.6087614290087197 0.0
  outer loop
    vertex -5.834936490538907 14.750000000000004 34.0
    vertex -6.232233047033635 14.232233047033635 38.99999999999999
    vertex -6.232233047033635 14.232233047033635 34.0
  endloop
endfacet
facet normal 0.7933533402912362 -0.6087614290087197 0.0
  outer loop
    vertex -6.232233047033635 14.232233047033635 38.99999999999999
    vertex -5.834936490538907 14.750000000000004 34.0
    vertex -5.834936490538907 14.750000000000004 38.99999999999999
  endloop
endfacet
facet normal 0.9238795325112866 -0.3826834323650902 0.0
  outer loop
    vertex -5.585185434277333 15.3529523872437 34.0
    vertex -5.834936490538907 14.750000000000004 38.99999999999999
    vertex -5.834936490538907 14.750000000000004 34.0
  endloop
endfacet
facet normal 0.9238795325112866 -0.3826834323650902 0.0
  outer loop
    vertex -5.834936490538907 14.750000000000004 38.99999999999999
    vertex -5.585185434277333 15.3529523872437 34.0
    vertex -5.585185434277333 15.3529523872437 38.99999999999999
  endloop
endfacet
facet normal 0.9914448613738104 -0.13052619222005188 0.0
  outer loop
    vertex -5.500000000000004 16.0 34.0
    vertex -5.585185434277333 15.3529523872437 38.99999999999999
    vertex -5.585185434277333 15.3529523872437 34.0
  endloop
endfacet
facet normal 0.9914448613738104 -0.13052619222005188 0.0
  outer loop
    vertex -5.585185434277333 15.3529523872437 38.99999999999999
    vertex -5.500000000000004 16.0 34.0
    vertex -5.500000000000004 16.0 38.99999999999999
  endloop
endfacet
facet normal 0.9914448613738104 0.13052619222005188 0.0
  outer loop
    vertex -5.585185434277333 16.647047612756303 34.0
    vertex -5.500000000000004 16.0 38.99999999999999
    vertex -5.500000000000004 16.0 34.0
  endloop
endfacet
facet normal 0.9914448613738104 0.13052619222005188 0.0
  outer loop
    vertex -5.500000000000004 16.0 38.99999999999999
    vertex -5.585185434277333 16.647047612756303 34.0
    vertex -5.585185434277333 16.647047612756303 38.99999999999999
  endloop
endfacet
facet normal 0.9238795325112873 0.3826834323650887 0.0
  outer loop
    vertex -5.834936490538907 17.250000000000004 34.0
    vertex -5.585185434277333 16.647047612756303 38.99999999999999
    vertex -5.585185434277333 16.647047612756303 34.0
  endloop
endfacet
facet normal 0.9238795325112873 0.3826834323650887 0.0
  outer loop
    vertex -5.585185434277333 16.647047612756303 38.99999999999999
    vertex -5.834936490538907 17.250000000000004 34.0
    vertex -5.834936490538907 17.250000000000004 38.99999999999999
  endloop
endfacet
facet normal 0.7933533402912344 0.6087614290087217 0.0
  outer loop
    vertex -6.232233047033635 17.76776695296637 34.0
    vertex -5.834936490538907 17.250000000000004 38.99999999999999
    vertex -5.834936490538907 17.250000000000004 34.0
  endloop
endfacet
facet normal 0.7933533402912344 0.6087614290087217 0.0
  outer loop
    vertex -5.834936490538907 17.250000000000004 38.99999999999999
    vertex -6.232233047033635 17.76776695296637 34.0
    vertex -6.232233047033635 17.76776695296637 38.99999999999999
  endloop
endfacet
facet normal 0.6087614290087207 0.7933533402912354 0.0
  outer loop
    vertex -6.7500000000000036 18.165063509461095 38.99999999999999
    vertex -6.232233047033635 17.76776695296637 34.0
    vertex -6.7500000000000036 18.165063509461095 34.0
  endloop
endfacet
facet normal 0.6087614290087207 0.7933533402912354 0.0
  outer loop
    vertex -6.232233047033635 17.76776695296637 34.0
    vertex -6.7500000000000036 18.165063509461095 38.99999999999999
    vertex -6.232233047033635 17.76776695296637 38.99999999999999
  endloop
endfacet
facet normal 0.3826834323650895 0.923879532511287 0.0
  outer loop
    vertex -7.352952387243701 18.414814565722672 38.99999999999999
    vertex -6.7500000000000036 18.165063509461095 34.0
    vertex -7.352952387243701 18.414814565722672 34.0
  endloop
endfacet
facet normal 0.3826834323650895 0.923879532511287 0.0
  outer loop
    vertex -6.7500000000000036 18.165063509461095 34.0
    vertex -7.352952387243701 18.414814565722672 38.99999999999999
    vertex -6.7500000000000036 18.165063509461095 38.99999999999999
  endloop
endfacet
facet normal 0.13052619222005188 0.9914448613738104 0.0
  outer loop
    vertex -8.000000000000002 18.5 38.99999999999999
    vertex -7.352952387243701 18.414814565722672 34.0
    vertex -8.000000000000002 18.5 34.0
  endloop
endfacet
facet normal 0.13052619222005188 0.9914448613738104 0.0
  outer loop
    vertex -7.352952387243701 18.414814565722672 34.0
    vertex -8.000000000000002 18.5 38.99999999999999
    vertex -7.352952387243701 18.414814565722672 38.99999999999999
  endloop
endfacet
facet normal -0.13052619222005132 0.9914448613738106 0.0
  outer loop
    vertex -8.647047612756307 18.414814565722672 38.99999999999999
    vertex -8.000000000000002 18.5 34.0
    vertex -8.647047612756307 18.414814565722672 34.0
  endloop
endfacet
facet normal -0.13052619222005132 0.9914448613738106 0.0
  outer loop
    vertex -8.000000000000002 18.5 34.0
    vertex -8.647047612756307 18.414814565722672 38.99999999999999
    vertex -8.000000000000002 18.5 38.99999999999999
  endloop
endfacet
facet normal -0.3826834323650902 0.9238795325112866 0.0
  outer loop
    vertex -9.250000000000004 18.165063509461095 38.99999999999999
    vertex -8.647047612756307 18.414814565722672 34.0
    vertex -9.250000000000004 18.165063509461095 34.0
  endloop
endfacet
facet normal -0.3826834323650902 0.9238795325112866 0.0
  outer loop
    vertex -8.647047612756307 18.414814565722672 34.0
    vertex -9.250000000000004 18.165063509461095 38.99999999999999
    vertex -8.647047612756307 18.414814565722672 38.99999999999999
  endloop
endfacet
facet normal -0.6087614290087217 0.7933533402912344 0.0
  outer loop
    vertex -9.76776695296637 17.76776695296637 38.99999999999999
    vertex -9.250000000000004 18.165063509461095 34.0
    vertex -9.76776695296637 17.76776695296637 34.0
  endloop
endfacet
facet normal -0.6087614290087217 0.7933533402912344 0.0
  outer loop
    vertex -9.250000000000004 18.165063509461095 34.0
    vertex -9.76776695296637 17.76776695296637 38.99999999999999
    vertex -9.250000000000004 18.165063509461095 38.99999999999999
  endloop
endfacet
facet normal -0.7933533402912349 0.608761429008721 0.0
  outer loop
    vertex -9.76776695296637 17.76776695296637 38.99999999999999
    vertex -10.165063509461099 17.25 34.0
    vertex -10.165063509461099 17.25 38.99999999999999
  endloop
endfacet
facet normal -0.7933533402912349 0.608761429008721 0.0
  outer loop
    vertex -10.165063509461099 17.25 34.0
    vertex -9.76776695296637 17.76776695296637 38.99999999999999
    vertex -9.76776695296637 17.76776695296637 34.0
  endloop
endfacet
facet normal -0.9238795325112873 0.38268343236508834 0.0
  outer loop
    vertex -10.165063509461099 17.25 38.99999999999999
    vertex -10.41481456572267 16.647047612756303 34.0
    vertex -10.41481456572267 16.647047612756303 38.99999999999999
  endloop
endfacet
facet normal -0.9238795325112873 0.38268343236508834 0.0
  outer loop
    vertex -10.41481456572267 16.647047612756303 34.0
    vertex -10.165063509461099 17.25 38.99999999999999
    vertex -10.165063509461099 17.25 34.0
  endloop
endfacet
facet normal -0.9914448613738104 0.13052619222005188 0.0
  outer loop
    vertex -10.41481456572267 16.647047612756303 38.99999999999999
    vertex -10.5 16.0 34.0
    vertex -10.5 16.0 38.99999999999999
  endloop
endfacet
facet normal -0.9914448613738104 0.13052619222005188 0.0
  outer loop
    vertex -10.5 16.0 34.0
    vertex -10.41481456572267 16.647047612756303 38.99999999999999
    vertex -10.41481456572267 16.647047612756303 34.0
  endloop
endfacet
facet normal -0.9914448613738106 -0.13052619222005132 -0.0
  outer loop
    vertex -10.5 16.0 38.99999999999999
    vertex -10.41481456572267 15.352952387243697 34.0
    vertex -10.41481456572267 15.352952387243697 38.99999999999999
  endloop
endfacet
facet normal -0.9914448613738106 -0.13052619222005132 -0.0
  outer loop
    vertex -10.41481456572267 15.352952387243697 34.0
    vertex -10.5 16.0 38.99999999999999
    vertex -10.5 16.0 34.0
  endloop
endfacet
facet normal -0.9238795325112866 -0.3826834323650902 -0.0
  outer loop
    vertex -10.41481456572267 15.352952387243697 38.99999999999999
    vertex -10.165063509461097 14.750000000000002 34.0
    vertex -10.165063509461097 14.750000000000002 38.99999999999999
  endloop
endfacet
facet normal -0.9238795325112866 -0.3826834323650902 -0.0
  outer loop
    vertex -10.165063509461097 14.750000000000002 34.0
    vertex -10.41481456572267 15.352952387243697 38.99999999999999
    vertex -10.41481456572267 15.352952387243697 34.0
  endloop
endfacet
facet normal -0.7933533402912335 -0.6087614290087231 -0.0
  outer loop
    vertex -10.165063509461097 14.750000000000002 38.99999999999999
    vertex -9.767766952966369 14.232233047033635 34.0
    vertex -9.767766952966369 14.232233047033635 38.99999999999999
  endloop
endfacet
facet normal -0.7933533402912335 -0.6087614290087231 -0.0
  outer loop
    vertex -9.767766952966369 14.232233047033635 34.0
    vertex -10.165063509461097 14.750000000000002 38.99999999999999
    vertex -10.165063509461097 14.750000000000002 34.0
  endloop
endfacet
facet normal -0.6087614290087207 -0.7933533402912354 -0.0
  outer loop
    vertex -9.25 13.834936490538906 38.99999999999999
    vertex -9.767766952966369 14.232233047033635 34.0
    vertex -9.25 13.834936490538906 34.0
  endloop
endfacet
facet normal -0.6087614290087207 -0.7933533402912354 -0.0
  outer loop
    vertex -9.767766952966369 14.232233047033635 34.0
    vertex -9.25 13.834936490538906 38.99999999999999
    vertex -9.767766952966369 14.232233047033635 38.99999999999999
  endloop
endfacet
facet normal -0.3826834323650895 -0.923879532511287 -0.0
  outer loop
    vertex -8.647047612756301 13.585185434277333 38.99999999999999
    vertex -9.25 13.834936490538906 34.0
    vertex -8.647047612756301 13.585185434277333 34.0
  endloop
endfacet
facet normal -0.3826834323650895 -0.923879532511287 -0.0
  outer loop
    vertex -9.25 13.834936490538906 34.0
    vertex -8.647047612756301 13.585185434277333 38.99999999999999
    vertex -9.25 13.834936490538906 38.99999999999999
  endloop
endfacet
facet normal 1.4597320961249692e-65 -1.334652714657441e-48 1.0
  outer loop
    vertex 2.2500000000000004 12.0 34.0
    vertex 2.25 18.5 34.0
    vertex -3.0000000000000013 12.0 34.0
  endloop
endfacet
facet normal 1.4597320961249692e-65 -1.334652714657441e-48 1.0
  outer loop
    vertex -13.000000000000002 -21.0 34.0
    vertex -10.500000000000004 -16.0 34.0
    vertex -13.000000000000002 21.0 34.0
  endloop
endfacet
facet normal 1.4597320961249692e-65 -1.334652714657441e-48 1.0
  outer loop
    vertex -10.500000000000004 -16.0 34.0
    vertex -13.000000000000002 -21.0 34.0
    vertex -10.414814565722674 -16.647047612756307 34.0
  endloop
endfacet
facet normal 1.4597320961249692e-65 -1.334652714657441e-48 1.0
  outer loop
    vertex -10.414814565722674 -16.647047612756307 34.0
    vertex -13.000000000000002 -21.0 34.0
    vertex -10.165063509461099 -17.250000000000004 34.0
  endloop
endfacet
facet normal 1.4597320961249692e-65 -1.334652714657441e-48 1.0
  outer loop
    vertex -10.165063509461099 -17.250000000000004 34.0
    vertex -13.000000000000002 -21.0 34.0
    vertex -9.76776695296637 -17.767766952966372 34.0
  endloop
endfacet
facet normal 1.4597320961249692e-65 -1.334652714657441e-48 1.0
  outer loop
    vertex -9.76776695296637 -17.767766952966372 34.0
    vertex -13.000000000000002 -21.0 34.0
    vertex -9.250000000000004 -18.1650635094611 34.0
  endloop
endfacet
facet normal 1.4597320961249692e-65 -1.334652714657441e-48 1.0
  outer loop
    vertex -9.250000000000004 -18.1650635094611 34.0
    vertex -13.000000000000002 -21.0 34.0
    vertex -8.647047612756303 -18.414814565722672 34.0
  endloop
endfacet
facet normal 1.4597320961249692e-65 -1.334652714657441e-48 1.0
  outer loop
    vertex -8.647047612756303 -18.414814565722672 34.0
    vertex -13.000000000000002 -21.0 34.0
    vertex -8.000000000000002 -18.500000000000004 34.0
  endloop
endfacet
facet normal 1.4597320961249692e-65 -1.334652714657441e-48 1.0
  outer loop
    vertex -8.000000000000002 -18.500000000000004 34.0
    vertex -13.000000000000002 -21.0 34.0
    vertex 13.000000000000002 -21.0 34.0
  endloop
endfacet
facet normal 1.4597320961249692e-65 -1.334652714657441e-48 1.0
  outer loop
    vertex -8.000000000000002 -18.500000000000004 34.0
    vertex 13.000000000000002 -21.0 34.0
    vertex -7.3529523872436995 -18.414814565722672 34.0
  endloop
endfacet
facet normal 1.4597320961249692e-65 -1.334652714657441e-48 1.0
  outer loop
    vertex -7.3529523872436995 -18.414814565722672 34.0
    vertex 13.000000000000002 -21.0 34.0
    vertex -6.75 -18.1650635094611 34.0
  endloop
endfacet
facet normal 1.4597320961249692e-65 -1.334652714657441e-48 1.0
  outer loop
    vertex -6.75 -18.1650635094611 34.0
    vertex 13.000000000000002 -21.0 34.0
    vertex -6.232233047033633 -17.767766952966372 34.0
  endloop
endfacet
facet normal 1.4597320961249692e-65 -1.334652714657441e-48 1.0
  outer loop
    vertex -6.232233047033633 -17.767766952966372 34.0
    vertex 13.000000000000002 -21.0 34.0
    vertex -5.8349364905389045 -17.250000000000004 34.0
  endloop
endfacet
facet normal 1.4597320961249692e-65 -1.334652714657441e-48 1.0
  outer loop
    vertex -5.8349364905389045 -17.250000000000004 34.0
    vertex 13.000000000000002 -21.0 34.0
    vertex 2.2499999999999996 -18.5 34.0
  endloop
endfacet
facet normal 1.4597320961249692e-65 -1.334652714657441e-48 1.0
  outer loop
    vertex -5.8349364905389045 -17.250000000000004 34.0
    vertex 2.2499999999999996 -18.5 34.0
    vertex -5.585185434277331 -16.647047612756303 34.0
  endloop
endfacet
facet normal 1.4597320961249692e-65 -1.334652714657441e-48 1.0
  outer loop
    vertex -5.585185434277331 -16.647047612756303 34.0
    vertex 2.2499999999999996 -18.5 34.0
    vertex -5.500000000000001 -16.0 34.0
  endloop
endfacet
facet normal 1.4597320961249692e-65 -1.334652714657441e-48 1.0
  outer loop
    vertex -5.500000000000001 -16.0 34.0
    vertex 2.2499999999999996 -18.5 34.0
    vertex -3.0000000000000013 9.0 34.0
  endloop
endfacet
facet normal 1.4597320961249692e-65 -1.334652714657441e-48 1.0
  outer loop
    vertex 2.2499999999999996 -18.5 34.0
    vertex 13.000000000000002 -21.0 34.0
    vertex 5.25 -18.5 34.0
  endloop
endfacet
facet normal 1.4597320961249692e-65 -1.334652714657441e-48 1.0
  outer loop
    vertex 5.25 -18.5 34.0
    vertex 13.000000000000002 -21.0 34.0
    vertex 5.25 2.5000000000000004 34.0
  endloop
endfacet
facet normal 1.4597320961249692e-65 -1.334652714657441e-48 1.0
  outer loop
    vertex 5.25 2.5000000000000004 34.0
    vertex 13.000000000000002 -21.0 34.0
    vertex 5.25 9.0 34.0
  endloop
endfacet
facet normal 1.4597320961249692e-65 -1.334652714657441e-48 1.0
  outer loop
    vertex 5.25 9.0 34.0
    vertex 13.000000000000002 -21.0 34.0
    vertex 10.500000000000002 9.0 34.0
  endloop
endfacet
facet normal 1.4597320961249692e-65 -1.334652714657441e-48 1.0
  outer loop
    vertex 10.500000000000002 9.0 34.0
    vertex 13.000000000000002 -21.0 34.0
    vertex 10.500000000000002 12.0 34.0
  endloop
endfacet
facet normal 1.4597320961249692e-65 -1.334652714657441e-48 1.0
  outer loop
    vertex -13.000000000000002 21.0 34.0
    vertex -8.000000000000002 18.5 34.0
    vertex 13.000000000000002 21.0 34.0
  endloop
endfacet
facet normal 1.4597320961249692e-65 -1.334652714657441e-48 1.0
  outer loop
    vertex -8.000000000000002 18.5 34.0
    vertex -13.000000000000002 21.0 34.0
    vertex -8.647047612756307 18.414814565722672 34.0
  endloop
endfacet
facet normal 1.4597320961249692e-65 -1.334652714657441e-48 1.0
  outer loop
    vertex -8.647047612756307 18.414814565722672 34.0
    vertex -13.000000000000002 21.0 34.0
    vertex -9.250000000000004 18.165063509461095 34.0
  endloop
endfacet
facet normal 1.4597320961249692e-65 -1.334652714657441e-48 1.0
  outer loop
    vertex -9.250000000000004 18.165063509461095 34.0
    vertex -13.000000000000002 21.0 34.0
    vertex -9.76776695296637 17.76776695296637 34.0
  endloop
endfacet
facet normal 1.4597320961249692e-65 -1.334652714657441e-48 1.0
  outer loop
    vertex -9.76776695296637 17.76776695296637 34.0
    vertex -13.000000000000002 21.0 34.0
    vertex -10.165063509461099 17.25 34.0
  endloop
endfacet
facet normal 1.4597320961249692e-65 -1.334652714657441e-48 1.0
  outer loop
    vertex -10.165063509461099 17.25 34.0
    vertex -13.000000000000002 21.0 34.0
    vertex -10.41481456572267 16.647047612756303 34.0
  endloop
endfacet
facet normal 1.4597320961249692e-65 -1.334652714657441e-48 1.0
  outer loop
    vertex -10.41481456572267 16.647047612756303 34.0
    vertex -13.000000000000002 21.0 34.0
    vertex -10.5 16.0 34.0
  endloop
endfacet
facet normal 1.4597320961249692e-65 -1.334652714657441e-48 1.0
  outer loop
    vertex -10.5 16.0 34.0
    vertex -13.000000000000002 21.0 34.0
    vertex -10.500000000000004 -16.0 34.0
  endloop
endfacet
facet normal 1.4597320961249692e-65 -1.334652714657441e-48 1.0
  outer loop
    vertex 13.000000000000002 21.0 34.0
    vertex -8.000000000000002 18.5 34.0
    vertex -7.352952387243701 18.414814565722672 34.0
  endloop
endfacet
facet normal 1.4597320961249692e-65 -1.334652714657441e-48 1.0
  outer loop
    vertex 13.000000000000002 21.0 34.0
    vertex -7.352952387243701 18.414814565722672 34.0
    vertex -6.7500000000000036 18.165063509461095 34.0
  endloop
endfacet
facet normal 1.4597320961249692e-65 -1.334652714657441e-48 1.0
  outer loop
    vertex 13.000000000000002 21.0 34.0
    vertex -6.7500000000000036 18.165063509461095 34.0
    vertex -6.232233047033635 17.76776695296637 34.0
  endloop
endfacet
facet normal 1.4597320961249692e-65 -1.334652714657441e-48 1.0
  outer loop
    vertex 13.000000000000002 21.0 34.0
    vertex -6.232233047033635 17.76776695296637 34.0
    vertex -5.834936490538907 17.250000000000004 34.0
  endloop
endfacet
facet normal 1.4597320961249692e-65 -1.334652714657441e-48 1.0
  outer loop
    vertex 13.000000000000002 21.0 34.0
    vertex -5.834936490538907 17.250000000000004 34.0
    vertex 2.25 18.5 34.0
  endloop
endfacet
facet normal 1.4597320961249692e-65 -1.334652714657441e-48 1.0
  outer loop
    vertex 2.25 18.5 34.0
    vertex -5.834936490538907 17.250000000000004 34.0
    vertex -5.585185434277333 16.647047612756303 34.0
  endloop
endfacet
facet normal 1.4597320961249692e-65 -1.334652714657441e-48 1.0
  outer loop
    vertex 2.25 18.5 34.0
    vertex -5.585185434277333 16.647047612756303 34.0
    vertex -5.500000000000004 16.0 34.0
  endloop
endfacet
facet normal 1.4597320961249692e-65 -1.334652714657441e-48 1.0
  outer loop
    vertex 2.25 18.5 34.0
    vertex -5.500000000000004 16.0 34.0
    vertex -3.0000000000000013 12.0 34.0
  endloop
endfacet
facet normal 1.4597320961249692e-65 -1.334652714657441e-48 1.0
  outer loop
    vertex -3.0000000000000013 12.0 34.0
    vertex -5.500000000000004 16.0 34.0
    vertex -5.500000000000001 -16.0 34.0
  endloop
endfacet
facet normal 1.4597320961249692e-65 -1.334652714657441e-48 1.0
  outer loop
    vertex -3.0000000000000013 12.0 34.0
    vertex -5.500000000000001 -16.0 34.0
    vertex -3.0000000000000013 9.0 34.0
  endloop
endfacet
facet normal 1.4597320961249692e-65 -1.334652714657441e-48 1.0
  outer loop
    vertex 13.000000000000002 21.0 34.0
    vertex 2.25 18.5 34.0
    vertex 5.249999999999999 18.5 34.0
  endloop
endfacet
facet normal 1.4597320961249692e-65 -1.334652714657441e-48 1.0
  outer loop
    vertex 13.000000000000002 21.0 34.0
    vertex 5.249999999999999 18.5 34.0
    vertex 5.250000000000001 12.0 34.0
  endloop
endfacet
facet normal 1.4597320961249692e-65 -1.334652714657441e-48 1.0
  outer loop
    vertex 13.000000000000002 21.0 34.0
    vertex 5.250000000000001 12.0 34.0
    vertex 10.500000000000002 12.0 34.0
  endloop
endfacet
facet normal 1.4597320961249692e-65 -1.334652714657441e-48 1.0
  outer loop
    vertex 13.000000000000002 21.0 34.0
    vertex 10.500000000000002 12.0 34.0
    vertex 13.000000000000002 -21.0 34.0
  endloop
endfacet
facet normal 1.4597320961249692e-65 -1.334652714657441e-48 1.0
  outer loop
    vertex 5.249999999999999 -2.500000000000001 34.0
    vertex 2.25 2.5 34.0
    vertex 2.2499999999999996 -2.5000000000000004 34.0
  endloop
endfacet
facet normal 1.4597320961249692e-65 -1.334652714657441e-48 1.0
  outer loop
    vertex 2.25 2.5 34.0
    vertex 5.249999999999999 -2.500000000000001 34.0
    vertex 5.25 2.5000000000000004 34.0
  endloop
endfacet
facet normal 1.4597320961249692e-65 -1.334652714657441e-48 1.0
  outer loop
    vertex 5.25 2.5000000000000004 34.0
    vertex 5.249999999999999 -2.500000000000001 34.0
    vertex 5.25 -18.5 34.0
  endloop
endfacet
facet normal 1.4597320961249692e-65 -1.334652714657441e-48 1.0
  outer loop
    vertex -3.0000000000000013 9.0 34.0
    vertex 2.2499999999999996 -2.5000000000000004 34.0
    vertex 2.25 9.0 34.0
  endloop
endfacet
facet normal 1.4597320961249692e-65 -1.334652714657441e-48 1.0
  outer loop
    vertex 2.2499999999999996 -2.5000000000000004 34.0
    vertex -3.0000000000000013 9.0 34.0
    vertex 2.2499999999999996 -18.5 34.0
  endloop
endfacet
facet normal 1.4597320961249692e-65 -1.334652714657441e-48 1.0
  outer loop
    vertex 2.25 9.0 34.0
    vertex 2.2499999999999996 -2.5000000000000004 34.0
    vertex 2.25 2.5 34.0
  endloop
endfacet
facet normal 1.4597320961249692e-65 -1.334652714657441e-48 1.0
  outer loop
    vertex -10.414814565722674 -15.3529523872437 34.0
    vertex -10.5 16.0 34.0
    vertex -10.500000000000004 -16.0 34.0
  endloop
endfacet
facet normal 1.4597320961249692e-65 -1.334652714657441e-48 1.0
  outer loop
    vertex -10.5 16.0 34.0
    vertex -10.414814565722674 -15.3529523872437 34.0
    vertex -10.41481456572267 15.352952387243697 34.0
  endloop
endfacet
facet normal 1.4597320961249692e-65 -1.334652714657441e-48 1.0
  outer loop
    vertex -10.41481456572267 15.352952387243697 34.0
    vertex -10.414814565722674 -15.3529523872437 34.0
    vertex -10.1650635094611 -14.750000000000004 34.0
  endloop
endfacet
facet normal 1.4597320961249692e-65 -1.334652714657441e-48 1.0
  outer loop
    vertex -10.41481456572267 15.352952387243697 34.0
    vertex -10.1650635094611 -14.750000000000004 34.0
    vertex -10.165063509461097 14.750000000000002 34.0
  endloop
endfacet
facet normal 1.4597320961249692e-65 -1.334652714657441e-48 1.0
  outer loop
    vertex -10.165063509461097 14.750000000000002 34.0
    vertex -10.1650635094611 -14.750000000000004 34.0
    vertex -9.767766952966372 -14.232233047033631 34.0
  endloop
endfacet
facet normal 1.4597320961249692e-65 -1.334652714657441e-48 1.0
  outer loop
    vertex -10.165063509461097 14.750000000000002 34.0
    vertex -9.767766952966372 -14.232233047033631 34.0
    vertex -9.767766952966369 14.232233047033635 34.0
  endloop
endfacet
facet normal 1.4597320961249692e-65 -1.334652714657441e-48 1.0
  outer loop
    vertex -9.767766952966369 14.232233047033635 34.0
    vertex -9.767766952966372 -14.232233047033631 34.0
    vertex -9.250000000000004 -13.834936490538905 34.0
  endloop
endfacet
facet normal 1.4597320961249692e-65 -1.334652714657441e-48 1.0
  outer loop
    vertex -9.767766952966369 14.232233047033635 34.0
    vertex -9.250000000000004 -13.834936490538905 34.0
    vertex -9.25 13.834936490538906 34.0
  endloop
endfacet
facet normal 1.4597320961249692e-65 -1.334652714657441e-48 1.0
  outer loop
    vertex -9.25 13.834936490538906 34.0
    vertex -9.250000000000004 -13.834936490538905 34.0
    vertex -8.647047612756307 -13.58518543427733 34.0
  endloop
endfacet
facet normal 1.4597320961249692e-65 -1.334652714657441e-48 1.0
  outer loop
    vertex -9.25 13.834936490538906 34.0
    vertex -8.647047612756307 -13.58518543427733 34.0
    vertex -8.647047612756301 13.585185434277333 34.0
  endloop
endfacet
facet normal 1.4597320961249692e-65 -1.334652714657441e-48 1.0
  outer loop
    vertex -8.647047612756301 13.585185434277333 34.0
    vertex -8.647047612756307 -13.58518543427733 34.0
    vertex -8.000000000000002 -13.5 34.0
  endloop
endfacet
facet normal 1.4597320961249692e-65 -1.334652714657441e-48 1.0
  outer loop
    vertex -8.647047612756301 13.585185434277333 34.0
    vertex -8.000000000000002 -13.5 34.0
    vertex -8.000000000000002 13.500000000000004 34.0
  endloop
endfacet
facet normal 1.4597320961249692e-65 -1.334652714657441e-48 1.0
  outer loop
    vertex -8.000000000000002 13.500000000000004 34.0
    vertex -8.000000000000002 -13.5 34.0
    vertex -7.3529523872436995 -13.58518543427733 34.0
  endloop
endfacet
facet normal 1.4597320961249692e-65 -1.334652714657441e-48 1.0
  outer loop
    vertex -8.000000000000002 13.500000000000004 34.0
    vertex -7.3529523872436995 -13.58518543427733 34.0
    vertex -7.3529523872436995 13.585185434277333 34.0
  endloop
endfacet
facet normal 1.4597320961249692e-65 -1.334652714657441e-48 1.0
  outer loop
    vertex -7.3529523872436995 13.585185434277333 34.0
    vertex -7.3529523872436995 -13.58518543427733 34.0
    vertex -6.750000000000002 -13.834936490538905 34.0
  endloop
endfacet
facet normal 1.4597320961249692e-65 -1.334652714657441e-48 1.0
  outer loop
    vertex -7.3529523872436995 13.585185434277333 34.0
    vertex -6.750000000000002 -13.834936490538905 34.0
    vertex -6.750000000000002 13.834936490538906 34.0
  endloop
endfacet
facet normal 1.4597320961249692e-65 -1.334652714657441e-48 1.0
  outer loop
    vertex -6.750000000000002 13.834936490538906 34.0
    vertex -6.750000000000002 -13.834936490538905 34.0
    vertex -6.232233047033633 -14.232233047033631 34.0
  endloop
endfacet
facet normal 1.4597320961249692e-65 -1.334652714657441e-48 1.0
  outer loop
    vertex -6.750000000000002 13.834936490538906 34.0
    vertex -6.232233047033633 -14.232233047033631 34.0
    vertex -6.232233047033635 14.232233047033635 34.0
  endloop
endfacet
facet normal 1.4597320961249692e-65 -1.334652714657441e-48 1.0
  outer loop
    vertex -6.232233047033635 14.232233047033635 34.0
    vertex -6.232233047033633 -14.232233047033631 34.0
    vertex -5.834936490538907 14.750000000000004 34.0
  endloop
endfacet
facet normal 1.4597320961249692e-65 -1.334652714657441e-48 1.0
  outer loop
    vertex -5.834936490538907 14.750000000000004 34.0
    vertex -6.232233047033633 -14.232233047033631 34.0
    vertex -5.8349364905389045 -14.750000000000002 34.0
  endloop
endfacet
facet normal 1.4597320961249692e-65 -1.334652714657441e-48 1.0
  outer loop
    vertex -5.834936490538907 14.750000000000004 34.0
    vertex -5.8349364905389045 -14.750000000000002 34.0
    vertex -5.585185434277333 15.3529523872437 34.0
  endloop
endfacet
facet normal 1.4597320961249692e-65 -1.334652714657441e-48 1.0
  outer loop
    vertex -5.585185434277333 15.3529523872437 34.0
    vertex -5.8349364905389045 -14.750000000000002 34.0
    vertex -5.585185434277331 -15.352952387243697 34.0
  endloop
endfacet
facet normal 1.4597320961249692e-65 -1.334652714657441e-48 1.0
  outer loop
    vertex -5.585185434277333 15.3529523872437 34.0
    vertex -5.585185434277331 -15.352952387243697 34.0
    vertex -5.500000000000004 16.0 34.0
  endloop
endfacet
facet normal 1.4597320961249692e-65 -1.334652714657441e-48 1.0
  outer loop
    vertex -5.500000000000004 16.0 34.0
    vertex -5.585185434277331 -15.352952387243697 34.0
    vertex -5.500000000000001 -16.0 34.0
  endloop
endfacet
facet normal 0.0 0.0 1.0
  outer loop
    vertex 5.25 2.5000000000000004 38.0
    vertex 2.25 9.0 38.0
    vertex 2.25 2.5 38.0
  endloop
endfacet
facet normal 0.0 0.0 1.0
  outer loop
    vertex 2.25 9.0 38.0
    vertex 5.25 2.5000000000000004 38.0
    vertex 2.2500000000000004 12.0 38.0
  endloop
endfacet
facet normal 0.0 0.0 1.0
  outer loop
    vertex 2.2500000000000004 12.0 38.0
    vertex 5.25 2.5000000000000004 38.0
    vertex 5.249999999999999 18.5 38.0
  endloop
endfacet
facet normal 0.0 0.0 1.0
  outer loop
    vertex 5.249999999999999 18.5 38.0
    vertex 5.25 2.5000000000000004 38.0
    vertex 5.25 9.0 38.0
  endloop
endfacet
facet normal 0.0 0.0 1.0
  outer loop
    vertex 5.249999999999999 18.5 38.0
    vertex 5.25 9.0 38.0
    vertex 5.250000000000001 12.0 38.0
  endloop
endfacet
facet normal 0.0 0.0 1.0
  outer loop
    vertex 5.250000000000001 12.0 38.0
    vertex 5.25 9.0 38.0
    vertex 10.500000000000002 9.0 38.0
  endloop
endfacet
facet normal 0.0 0.0 1.0
  outer loop
    vertex 5.250000000000001 12.0 38.0
    vertex 10.500000000000002 9.0 38.0
    vertex 10.500000000000002 12.0 38.0
  endloop
endfacet
facet normal 0.0 0.0 1.0
  outer loop
    vertex 5.249999999999999 18.5 38.0
    vertex 2.25 18.5 38.0
    vertex 2.2500000000000004 12.0 38.0
  endloop
endfacet
facet normal 0.0 0.0 1.0
  outer loop
    vertex 2.25 9.0 38.0
    vertex -3.0000000000000013 12.0 38.0
    vertex -3.0000000000000013 9.0 38.0
  endloop
endfacet
facet normal 0.0 0.0 1.0
  outer loop
    vertex -3.0000000000000013 12.0 38.0
    vertex 2.25 9.0 38.0
    vertex 2.2500000000000004 12.0 38.0
  endloop
endfacet
facet normal -1.0 -5.423012466438265e-17 -0.0
  outer loop
    vertex 2.25 18.5 38.0
    vertex 2.2500000000000004 12.0 34.0
    vertex 2.2500000000000004 12.0 38.0
  endloop
endfacet
facet normal -1.0 -5.423012466438265e-17 -0.0
  outer loop
    vertex 2.2500000000000004 12.0 34.0
    vertex 2.25 18.5 38.0
    vertex 2.25 18.5 34.0
  endloop
endfacet
facet normal 0.0 1.0 0.0
  outer loop
    vertex -3.0000000000000013 12.0 38.0
    vertex 2.2500000000000004 12.0 34.0
    vertex -3.0000000000000013 12.0 34.0
  endloop
endfacet
facet normal 0.0 1.0 0.0
  outer loop
    vertex 2.2500000000000004 12.0 34.0
    vertex -3.0000000000000013 12.0 38.0
    vertex 2.2500000000000004 12.0 38.0
  endloop
endfacet
facet normal -1.0 -0.0 -0.0
  outer loop
    vertex -3.0000000000000013 12.0 38.0
    vertex -3.0000000000000013 9.0 34.0
    vertex -3.0000000000000013 9.0 38.0
  endloop
endfacet
facet normal -1.0 -0.0 -0.0
  outer loop
    vertex -3.0000000000000013 9.0 34.0
    vertex -3.0000000000000013 12.0 38.0
    vertex -3.0000000000000013 12.0 34.0
  endloop
endfacet
facet normal 0.0 -1.0 0.0
  outer loop
    vertex 2.25 9.0 38.0
    vertex -3.0000000000000013 9.0 34.0
    vertex 2.25 9.0 34.0
  endloop
endfacet
facet normal 0.0 -1.0 0.0
  outer loop
    vertex -3.0000000000000013 9.0 34.0
    vertex 2.25 9.0 38.0
    vertex -3.0000000000000013 9.0 38.0
  endloop
endfacet
facet normal -1.0 -0.0 -0.0
  outer loop
    vertex 2.25 9.0 38.0
    vertex 2.25 2.5 34.0
    vertex 2.25 2.5 38.0
  endloop
endfacet
facet normal -1.0 -0.0 -0.0
  outer loop
    vertex 2.25 2.5 34.0
    vertex 2.25 9.0 38.0
    vertex 2.25 9.0 34.0
  endloop
endfacet
facet normal 1.1749860343949574e-16 -1.0 0.0
  outer loop
    vertex 5.25 2.5000000000000004 38.0
    vertex 2.25 2.5 34.0
    vertex 5.25 2.5000000000000004 34.0
  endloop
endfacet
facet normal 1.1749860343949574e-16 -1.0 0.0
  outer loop
    vertex 2.25 2.5 34.0
    vertex 5.25 2.5000000000000004 38.0
    vertex 2.25 2.5 38.0
  endloop
endfacet
facet normal 1.0 -0.0 0.0
  outer loop
    vertex 5.25 9.0 34.0
    vertex 5.25 2.5000000000000004 38.0
    vertex 5.25 2.5000000000000004 34.0
  endloop
endfacet
facet normal 1.0 -0.0 0.0
  outer loop
    vertex 5.25 2.5000000000000004 38.0
    vertex 5.25 9.0 34.0
    vertex 5.25 9.0 38.0
  endloop
endfacet
facet normal 0.0 -1.0 0.0
  outer loop
    vertex 10.500000000000002 9.0 38.0
    vertex 5.25 9.0 34.0
    vertex 10.500000000000002 9.0 34.0
  endloop
endfacet
facet normal 0.0 -1.0 0.0
  outer loop
    vertex 5.25 9.0 34.0
    vertex 10.500000000000002 9.0 38.0
    vertex 5.25 9.0 38.0
  endloop
endfacet
facet normal 1.0 -0.0 0.0
  outer loop
    vertex 10.500000000000002 12.0 34.0
    vertex 10.500000000000002 9.0 38.0
    vertex 10.500000000000002 9.0 34.0
  endloop
endfacet
facet normal 1.0 -0.0 0.0
  outer loop
    vertex 10.500000000000002 9.0 38.0
    vertex 10.500000000000002 12.0 34.0
    vertex 10.500000000000002 12.0 38.0
  endloop
endfacet
facet normal 0.0 1.0 0.0
  outer loop
    vertex 5.250000000000001 12.0 38.0
    vertex 10.500000000000002 12.0 34.0
    vertex 5.250000000000001 12.0 34.0
  endloop
endfacet
facet normal 0.0 1.0 0.0
  outer loop
    vertex 10.500000000000002 12.0 34.0
    vertex 5.250000000000001 12.0 38.0
    vertex 10.500000000000002 12.0 38.0
  endloop
endfacet
facet normal 1.0 2.169204986575306e-16 0.0
  outer loop
    vertex 5.249999999999999 18.5 34.0
    vertex 5.250000000000001 12.0 38.0
    vertex 5.250000000000001 12.0 34.0
  endloop
endfacet
facet normal 1.0 2.169204986575306e-16 0.0
  outer loop
    vertex 5.250000000000001 12.0 38.0
    vertex 5.249999999999999 18.5 34.0
    vertex 5.249999999999999 18.5 38.0
  endloop
endfacet
facet normal -0.0 1.0 -0.0
  outer loop
    vertex 2.25 18.5 38.0
    vertex 5.249999999999999 18.5 34.0
    vertex 2.25 18.5 34.0
  endloop
endfacet
facet normal -0.0 1.0 -0.0
  outer loop
    vertex 5.249999999999999 18.5 34.0
    vertex 2.25 18.5 38.0
    vertex 5.249999999999999 18.5 38.0
  endloop
endfacet
facet normal 0.0 0.0 1.0
  outer loop
    vertex 5.25 -18.5 38.0
    vertex 2.2499999999999996 -2.5000000000000004 38.0
    vertex 2.2499999999999996 -18.5 38.0
  endloop
endfacet
facet normal 0.0 0.0 1.0
  outer loop
    vertex 2.2499999999999996 -2.5000000000000004 38.0
    vertex 5.25 -18.5 38.0
    vertex 5.249999999999999 -2.500000000000001 38.0
  endloop
endfacet
facet normal -1.0 -0.0 -0.0
  outer loop
    vertex 2.2499999999999996 -2.5000000000000004 38.0
    vertex 2.2499999999999996 -18.5 34.0
    vertex 2.2499999999999996 -18.5 38.0
  endloop
endfacet
facet normal -1.0 -0.0 -0.0
  outer loop
    vertex 2.2499999999999996 -18.5 34.0
    vertex 2.2499999999999996 -2.5000000000000004 38.0
    vertex 2.2499999999999996 -2.5000000000000004 34.0
  endloop
endfacet
facet normal 0.0 -1.0 0.0
  outer loop
    vertex 5.25 -18.5 38.0
    vertex 2.2499999999999996 -18.5 34.0
    vertex 5.25 -18.5 34.0
  endloop
endfacet
facet normal 0.0 -1.0 0.0
  outer loop
    vertex 2.2499999999999996 -18.5 34.0
    vertex 5.25 -18.5 38.0
    vertex 2.2499999999999996 -18.5 38.0
  endloop
endfacet
facet normal 1.0 4.406197628981091e-17 0.0
  outer loop
    vertex 5.249999999999999 -2.500000000000001 34.0
    vertex 5.25 -18.5 38.0
    vertex 5.25 -18.5 34.0
  endloop
endfacet
facet normal 1.0 4.406197628981091e-17 0.0
  outer loop
    vertex 5.25 -18.5 38.0
    vertex 5.249999999999999 -2.500000000000001 34.0
    vertex 5.249999999999999 -2.500000000000001 38.0
  endloop
endfacet
facet normal 1.1749860343949574e-16 1.0 0.0
  outer loop
    vertex 2.2499999999999996 -2.5000000000000004 38.0
    vertex 5.249999999999999 -2.500000000000001 34.0
    vertex 2.2499999999999996 -2.5000000000000004 34.0
  endloop
endfacet
facet normal 1.1749860343949574e-16 1.0 0.0
  outer loop
    vertex 5.249999999999999 -2.500000000000001 34.0
    vertex 2.2499999999999996 -2.5000000000000004 38.0
    vertex 5.249999999999999 -2.500000000000001 38.0
  endloop
endfacet
facet normal 0.0 -1.0 0.0
  outer loop
    vertex 13.000000000000002 -21.0 5.999999999999999
    vertex -13.000000000000002 -21.0 3.9999999999999996
    vertex 13.000000000000002 -21.0 3.9999999999999996
  endloop
endfacet
facet normal 0.0 -1.0 0.0
  outer loop
    vertex -13.000000000000002 -21.0 3.9999999999999996
    vertex 13.000000000000002 -21.0 5.999999999999999
    vertex -13.000000000000002 -21.0 5.999999999999999
  endloop
endfacet
facet normal -0.0 -0.7071067811865476 0.7071067811865476
  outer loop
    vertex 13.000000000000002 -21.0 5.999999999999999
    vertex -15.0 -23.0 3.9999999999999996
    vertex 15.0 -23.0 3.9999999999999996
  endloop
endfacet
facet normal -0.0 -0.7071067811865476 0.7071067811865476
  outer loop
    vertex -15.0 -23.0 3.9999999999999996
    vertex 13.000000000000002 -21.0 5.999999999999999
    vertex -13.000000000000002 -21.0 5.999999999999999
  endloop
endfacet
facet normal 1.0 -0.0 -0.0
  outer loop
    vertex 13.000000000000002 21.0 3.9999999999999996
    vertex 13.000000000000002 -21.0 5.999999999999999
    vertex 13.000000000000002 -21.0 3.9999999999999996
  endloop
endfacet
facet normal 1.0 -0.0 -0.0
  outer loop
    vertex 13.000000000000002 -21.0 5.999999999999999
    vertex 13.000000000000002 21.0 3.9999999999999996
    vertex 13.000000000000002 21.0 5.999999999999999
  endloop
endfacet
facet normal 0.7071067811865476 -0.0 0.7071067811865476
  outer loop
    vertex 15.0 23.0 3.9999999999999996
    vertex 13.000000000000002 -21.0 5.999999999999999
    vertex 15.0 -23.0 3.9999999999999996
  endloop
endfacet
facet normal 0.7071067811865476 -0.0 0.7071067811865476
  outer loop
    vertex 13.000000000000002 -21.0 5.999999999999999
    vertex 15.0 23.0 3.9999999999999996
    vertex 13.000000000000002 21.0 5.999999999999999
  endloop
endfacet
facet normal -0.0 1.0 -0.0
  outer loop
    vertex -13.000000000000002 21.0 5.999999999999999
    vertex 13.000000000000002 21.0 3.9999999999999996
    vertex -13.000000000000002 21.0 3.9999999999999996
  endloop
endfacet
facet normal -0.0 1.0 -0.0
  outer loop
    vertex 13.000000000000002 21.0 3.9999999999999996
    vertex -13.000000000000002 21.0 5.999999999999999
    vertex 13.000000000000002 21.0 5.999999999999999
  endloop
endfacet
facet normal -0.0 0.7071067811865476 0.7071067811865476
  outer loop
    vertex -13.000000000000002 21.0 5.999999999999999
    vertex 15.0 23.0 3.9999999999999996
    vertex -15.0 23.0 3.9999999999999996
  endloop
endfacet
facet normal -0.0 0.7071067811865476 0.7071067811865476
  outer loop
    vertex 15.0 23.0 3.9999999999999996
    vertex -13.000000000000002 21.0 5.999999999999999
    vertex 13.000000000000002 21.0 5.999999999999999
  endloop
endfacet
facet normal -1.0 0.0 0.0
  outer loop
    vertex -13.000000000000002 21.0 5.999999999999999
    vertex -13.000000000000002 -21.0 3.9999999999999996
    vertex -13.000000000000002 -21.0 5.999999999999999
  endloop
endfacet
facet normal -1.0 0.0 0.0
  outer loop
    vertex -13.000000000000002 -21.0 3.9999999999999996
    vertex -13.000000000000002 21.0 5.999999999999999
    vertex -13.000000000000002 21.0 3.9999999999999996
  endloop
endfacet
facet normal -0.7071067811865476 -0.0 0.7071067811865476
  outer loop
    vertex -13.000000000000002 -21.0 5.999999999999999
    vertex -15.0 23.0 3.9999999999999996
    vertex -15.0 -23.0 3.9999999999999996
  endloop
endfacet
facet normal -0.7071067811865476 -0.0 0.7071067811865476
  outer loop
    vertex -15.0 23.0 3.9999999999999996
    vertex -13.000000000000002 -21.0 5.999999999999999
    vertex -13.000000000000002 21.0 5.999999999999999
  endloop
endfacet
facet normal -0.0 -0.0 1.0
  outer loop
    vertex 13.000000000000002 -21.0 5.999999999999999
    vertex -13.000000000000002 21.0 5.999999999999999
    vertex -13.000000000000002 -21.0 5.999999999999999
  endloop
endfacet
facet normal -0.0 -0.0 1.0
  outer loop
    vertex -13.000000000000002 21.0 5.999999999999999
    vertex 13.000000000000002 -21.0 5.999999999999999
    vertex 13.000000000000002 21.0 5.999999999999999
  endloop
endfacet
endsolid RFIDtagholderStorage
