solid RFIDtagholderSolarPlant
facet normal 0.0 0.0 -1.0
  outer loop
    vertex 28.0 44.0 0.0
    vertex -28.0 -44.0 0.0
    vertex -28.0 44.0 0.0
  endloop
endfacet
facet normal 0.0 0.0 -1.0
  outer loop
    vertex -28.0 -44.0 0.0
    vertex 28.0 44.0 0.0
    vertex 28.0 -44.0 0.0
  endloop
endfacet
facet normal 0.0 0.0 -1.0
  outer loop
    vertex -30.0 46.0 -1.9999999999999998
    vertex -28.0 44.0 -1.9999999999999998
    vertex -30.0 -46.0 -1.9999999999999998
  endloop
endfacet
facet normal 0.0 0.0 -1.0
  outer loop
    vertex -28.0 44.0 -1.9999999999999998
    vertex -30.0 46.0 -1.9999999999999998
    vertex 30.0 46.0 -1.9999999999999998
  endloop
endfacet
facet normal 0.0 0.0 -1.0
  outer loop
    vertex -28.0 44.0 -1.9999999999999998
    vertex 30.0 46.0 -1.9999999999999998
    vertex 28.0 44.0 -1.9999999999999998
  endloop
endfacet
facet normal 0.0 0.0 -1.0
  outer loop
    vertex 28.0 44.0 -1.9999999999999998
    vertex 30.0 46.0 -1.9999999999999998
    vertex 28.0 -44.0 -1.9999999999999998
  endloop
endfacet
facet normal 0.0 0.0 -1.0
  outer loop
    vertex -30.0 -46.0 -1.9999999999999998
    vertex -28.0 -44.0 -1.9999999999999998
    vertex 30.0 -46.0 -1.9999999999999998
  endloop
endfacet
facet normal 0.0 0.0 -1.0
  outer loop
    vertex -28.0 -44.0 -1.9999999999999998
    vertex -30.0 -46.0 -1.9999999999999998
    vertex -28.0 44.0 -1.9999999999999998
  endloop
endfacet
facet normal 0.0 0.0 -1.0
  outer loop
    vertex 30.0 -46.0 -1.9999999999999998
    vertex -28.0 -44.0 -1.9999999999999998
    vertex 28.0 -44.0 -1.9999999999999998
  endloop
endfacet
facet normal 0.0 0.0 -1.0
  outer loop
    vertex 30.0 -46.0 -1.9999999999999998
    vertex 28.0 -44.0 -1.9999999999999998
    vertex 30.0 46.0 -1.9999999999999998
  endloop
endfacet
facet normal -0.0 1.0 0.0
  outer loop
    vertex -30.0 46.0 1.9999999999999998
    vertex 30.0 46.0 -1.9999999999999998
    vertex -30.0 46.0 -1.9999999999999998
  endloop
endfacet
facet normal -0.0 1.0 0.0
  outer loop
    vertex 30.0 46.0 -1.9999999999999998
    vertex -30.0 46.0 1.9999999999999998
    vertex 30.0 46.0 1.9999999999999998
  endloop
endfacet
facet normal 1.0 0.0 0.0
  outer loop
    vertex 30.0 46.0 -1.9999999999999998
    vertex 30.0 -46.0 1.9999999999999998
    vertex 30.0 -46.0 -1.9999999999999998
  endloop
endfacet
facet normal 1.0 0.0 0.0
  outer loop
    vertex 30.0 -46.0 1.9999999999999998
    vertex 30.0 46.0 -1.9999999999999998
    vertex 30.0 46.0 1.9999999999999998
  endloop
endfacet
facet normal -0.0 -1.0 -0.0
  outer loop
    vertex 30.0 -46.0 1.9999999999999998
    vertex -30.0 -46.0 -1.9999999999999998
    vertex 30.0 -46.0 -1.9999999999999998
  endloop
endfacet
facet normal -0.0 -1.0 -0.0
  outer loop
    vertex -30.0 -46.0 -1.9999999999999998
    vertex 30.0 -46.0 1.9999999999999998
    vertex -30.0 -46.0 1.9999999999999998
  endloop
endfacet
facet normal -1.0 0.0 0.0
  outer loop
    vertex -30.0 46.0 1.9999999999999998
    vertex -30.0 -46.0 -1.9999999999999998
    vertex -30.0 -46.0 1.9999999999999998
  endloop
endfacet
facet normal -1.0 0.0 0.0
  outer loop
    vertex -30.0 -46.0 -1.9999999999999998
    vertex -30.0 46.0 1.9999999999999998
    vertex -30.0 46.0 -1.9999999999999998
  endloop
endfacet
facet normal -0.0 1.0 0.0
  outer loop
    vertex -28.0 -44.0 0.0
    vertex 28.0 -44.0 -1.9999999999999998
    vertex -28.0 -44.0 -1.9999999999999998
  endloop
endfacet
facet normal -0.0 1.0 0.0
  outer loop
    vertex 28.0 -44.0 -1.9999999999999998
    vertex -28.0 -44.0 0.0
    vertex 28.0 -44.0 0.0
  endloop
endfacet
facet normal -1.0 0.0 0.0
  outer loop
    vertex 28.0 44.0 0.0
    vertex 28.0 -44.0 -1.9999999999999998
    vertex 28.0 -44.0 0.0
  endloop
endfacet
facet normal -1.0 0.0 0.0
  outer loop
    vertex 28.0 -44.0 -1.9999999999999998
    vertex 28.0 44.0 0.0
    vertex 28.0 44.0 -1.9999999999999998
  endloop
endfacet
facet normal -0.0 -1.0 -0.0
  outer loop
    vertex 28.0 44.0 0.0
    vertex -28.0 44.0 -1.9999999999999998
    vertex 28.0 44.0 -1.9999999999999998
  endloop
endfacet
facet normal -0.0 -1.0 -0.0
  outer loop
    vertex -28.0 44.0 -1.9999999999999998
    vertex 28.0 44.0 0.0
    vertex -28.0 44.0 0.0
  endloop
endfacet
facet normal 1.0 0.0 0.0
  outer loop
    vertex -28.0 44.0 -1.9999999999999998
    vertex -28.0 -44.0 0.0
    vertex -28.0 -44.0 -1.9999999999999998
  endloop
endfacet
facet normal 1.0 0.0 0.0
  outer loop
    vertex -28.0 -44.0 0.0
    vertex -28.0 44.0 -1.9999999999999998
    vertex -28.0 44.0 0.0
  endloop
endfacet
facet normal -0.0 -0.0 1.0
  outer loop
    vertex -30.0 -46.0 1.9999999999999998
    vertex -20.000000000000004 -36.0 1.9999999999999998
    vertex -30.0 46.0 1.9999999999999998
  endloop
endfacet
facet normal -0.0 -0.0 1.0
  outer loop
    vertex -20.000000000000004 -36.0 1.9999999999999998
    vertex -30.0 -46.0 1.9999999999999998
    vertex 30.0 -46.0 1.9999999999999998
  endloop
endfacet
facet normal -0.0 -0.0 1.0
  outer loop
    vertex -20.000000000000004 -36.0 1.9999999999999998
    vertex 30.0 -46.0 1.9999999999999998
    vertex 20.000000000000004 -36.0 1.9999999999999998
  endloop
endfacet
facet normal -0.0 -0.0 1.0
  outer loop
    vertex 20.000000000000004 -36.0 1.9999999999999998
    vertex 30.0 -46.0 1.9999999999999998
    vertex 20.000000000000004 -16.0 1.9999999999999998
  endloop
endfacet
facet normal -0.0 -0.0 1.0
  outer loop
    vertex 20.000000000000004 -16.0 1.9999999999999998
    vertex 30.0 -46.0 1.9999999999999998
    vertex 20.000000000000004 -10.0 1.9999999999999998
  endloop
endfacet
facet normal -0.0 -0.0 1.0
  outer loop
    vertex 20.000000000000004 -10.0 1.9999999999999998
    vertex 30.0 -46.0 1.9999999999999998
    vertex 20.000000000000004 10.0 1.9999999999999998
  endloop
endfacet
facet normal -0.0 -0.0 1.0
  outer loop
    vertex 20.000000000000004 10.0 1.9999999999999998
    vertex 30.0 -46.0 1.9999999999999998
    vertex 20.000000000000004 16.000000000000004 1.9999999999999998
  endloop
endfacet
facet normal -0.0 -0.0 1.0
  outer loop
    vertex 20.000000000000004 16.000000000000004 1.9999999999999998
    vertex 30.0 -46.0 1.9999999999999998
    vertex 20.000000000000004 36.0 1.9999999999999998
  endloop
endfacet
facet normal -0.0 -0.0 1.0
  outer loop
    vertex -30.0 46.0 1.9999999999999998
    vertex -20.000000000000004 36.0 1.9999999999999998
    vertex 30.0 46.0 1.9999999999999998
  endloop
endfacet
facet normal -0.0 -0.0 1.0
  outer loop
    vertex -20.000000000000004 36.0 1.9999999999999998
    vertex -30.0 46.0 1.9999999999999998
    vertex -20.000000000000004 -36.0 1.9999999999999998
  endloop
endfacet
facet normal -0.0 -0.0 1.0
  outer loop
    vertex -20.000000000000004 36.0 1.9999999999999998
    vertex -20.000000000000004 -36.0 1.9999999999999998
    vertex -20.000000000000004 -16.0 1.9999999999999998
  endloop
endfacet
facet normal -0.0 -0.0 1.0
  outer loop
    vertex -20.000000000000004 36.0 1.9999999999999998
    vertex -20.000000000000004 -16.0 1.9999999999999998
    vertex -20.000000000000004 -9.999999999999998 1.9999999999999998
  endloop
endfacet
facet normal -0.0 -0.0 1.0
  outer loop
    vertex -20.000000000000004 36.0 1.9999999999999998
    vertex -20.000000000000004 -9.999999999999998 1.9999999999999998
    vertex -20.000000000000004 10.0 1.9999999999999998
  endloop
endfacet
facet normal -0.0 -0.0 1.0
  outer loop
    vertex -20.000000000000004 36.0 1.9999999999999998
    vertex -20.000000000000004 10.0 1.9999999999999998
    vertex -20.000000000000004 16.000000000000004 1.9999999999999998
  endloop
endfacet
facet normal -0.0 -0.0 1.0
  outer loop
    vertex 30.0 46.0 1.9999999999999998
    vertex -20.000000000000004 36.0 1.9999999999999998
    vertex 20.000000000000004 36.0 1.9999999999999998
  endloop
endfacet
facet normal -0.0 -0.0 1.0
  outer loop
    vertex 30.0 46.0 1.9999999999999998
    vertex 20.000000000000004 36.0 1.9999999999999998
    vertex 30.0 -46.0 1.9999999999999998
  endloop
endfacet
facet normal -0.0 -0.0 1.0
  outer loop
    vertex 20.000000000000004 10.0 1.9999999999999998
    vertex -20.000000000000004 16.000000000000004 1.9999999999999998
    vertex -20.000000000000004 10.0 1.9999999999999998
  endloop
endfacet
facet normal -0.0 -0.0 1.0
  outer loop
    vertex -20.000000000000004 16.000000000000004 1.9999999999999998
    vertex 20.000000000000004 10.0 1.9999999999999998
    vertex 20.000000000000004 16.000000000000004 1.9999999999999998
  endloop
endfacet
facet normal -0.0 -0.0 1.0
  outer loop
    vertex 20.000000000000004 -16.0 1.9999999999999998
    vertex -20.000000000000004 -9.999999999999998 1.9999999999999998
    vertex -20.000000000000004 -16.0 1.9999999999999998
  endloop
endfacet
facet normal -0.0 -0.0 1.0
  outer loop
    vertex -20.000000000000004 -9.999999999999998 1.9999999999999998
    vertex 20.000000000000004 -16.0 1.9999999999999998
    vertex 20.000000000000004 -10.0 1.9999999999999998
  endloop
endfacet
facet normal -0.0 1.0 -0.0
  outer loop
    vertex -20.000000000000004 36.0 3.9999999999999996
    vertex 20.000000000000004 36.0 1.9999999999999998
    vertex -20.000000000000004 36.0 1.9999999999999998
  endloop
endfacet
facet normal -0.0 1.0 -0.0
  outer loop
    vertex 20.000000000000004 36.0 1.9999999999999998
    vertex -20.000000000000004 36.0 3.9999999999999996
    vertex 20.000000000000004 36.0 3.9999999999999996
  endloop
endfacet
facet normal -1.0 0.0 0.0
  outer loop
    vertex -20.000000000000004 36.0 3.9999999999999996
    vertex -20.000000000000004 16.000000000000004 1.9999999999999998
    vertex -20.000000000000004 16.000000000000004 14.0
  endloop
endfacet
facet normal -1.0 0.0 0.0
  outer loop
    vertex -20.000000000000004 16.000000000000004 1.9999999999999998
    vertex -20.000000000000004 36.0 3.9999999999999996
    vertex -20.000000000000004 36.0 1.9999999999999998
  endloop
endfacet
facet normal -1.0 0.0 0.0
  outer loop
    vertex -20.000000000000004 10.0 3.9999999999999996
    vertex -20.000000000000004 -9.999999999999998 1.9999999999999998
    vertex -20.000000000000004 -9.999999999999998 14.0
  endloop
endfacet
facet normal -1.0 0.0 0.0
  outer loop
    vertex -20.000000000000004 -9.999999999999998 1.9999999999999998
    vertex -20.000000000000004 10.0 3.9999999999999996
    vertex -20.000000000000004 10.0 1.9999999999999998
  endloop
endfacet
facet normal -0.0 1.0 -0.0
  outer loop
    vertex -20.000000000000004 -16.0 3.9999999999999996
    vertex 20.000000000000004 -16.0 1.9999999999999998
    vertex -20.000000000000004 -16.0 1.9999999999999998
  endloop
endfacet
facet normal -0.0 1.0 -0.0
  outer loop
    vertex 20.000000000000004 -16.0 1.9999999999999998
    vertex -20.000000000000004 -16.0 3.9999999999999996
    vertex 20.000000000000004 -16.0 3.9999999999999996
  endloop
endfacet
facet normal -1.0 0.0 0.0
  outer loop
    vertex -20.000000000000004 -16.0 3.9999999999999996
    vertex -20.000000000000004 -36.0 1.9999999999999998
    vertex -20.000000000000004 -36.0 14.0
  endloop
endfacet
facet normal -1.0 0.0 0.0
  outer loop
    vertex -20.000000000000004 -36.0 1.9999999999999998
    vertex -20.000000000000004 -16.0 3.9999999999999996
    vertex -20.000000000000004 -16.0 1.9999999999999998
  endloop
endfacet
facet normal 1.0 -6.661338147750911e-18 7.327471962526034e-16
  outer loop
    vertex 20.000000000000004 36.0 1.9999999999999998
    vertex 19.999999999999993 16.000000000000004 14.0
    vertex 20.000000000000004 16.000000000000004 1.9999999999999998
  endloop
endfacet
facet normal 1.0 -6.661338147750911e-18 7.327471962526034e-16
  outer loop
    vertex 19.999999999999993 16.000000000000004 14.0
    vertex 20.000000000000004 36.0 1.9999999999999998
    vertex 20.000000000000004 36.0 3.9999999999999996
  endloop
endfacet
facet normal -0.0 0.4472135954999579 0.8944271909999159
  outer loop
    vertex -20.000000000000004 16.000000000000004 14.0
    vertex -18.500000000000004 17.788854381999837 13.105572809000083
    vertex -20.000000000000004 36.0 3.9999999999999996
  endloop
endfacet
facet normal -0.0 0.4472135954999579 0.8944271909999159
  outer loop
    vertex -18.500000000000004 17.788854381999837 13.105572809000083
    vertex -20.000000000000004 16.000000000000004 14.0
    vertex 19.999999999999993 16.000000000000004 14.0
  endloop
endfacet
facet normal -0.0 0.4472135954999579 0.8944271909999159
  outer loop
    vertex -18.500000000000004 17.788854381999837 13.105572809000083
    vertex 19.999999999999993 16.000000000000004 14.0
    vertex -10.0 17.788854381999833 13.105572809000085
  endloop
endfacet
facet normal -0.0 0.4472135954999579 0.8944271909999159
  outer loop
    vertex -10.0 17.788854381999833 13.105572809000085
    vertex 19.999999999999993 16.000000000000004 14.0
    vertex -9.000000000000007 17.788854381999833 13.105572809000085
  endloop
endfacet
facet normal -0.0 0.4472135954999579 0.8944271909999159
  outer loop
    vertex -10.0 17.788854381999833 13.105572809000085
    vertex -9.000000000000007 17.788854381999833 13.105572809000085
    vertex -10.0 34.21114561800017 4.894427190999917
  endloop
endfacet
facet normal -0.0 0.4472135954999579 0.8944271909999159
  outer loop
    vertex -9.000000000000007 17.788854381999833 13.105572809000085
    vertex 19.999999999999993 16.000000000000004 14.0
    vertex -0.47740971081079286 17.78885438199983 13.105572809000085
  endloop
endfacet
facet normal -0.0 0.4472135954999579 0.8944271909999159
  outer loop
    vertex -0.47740971081079286 17.78885438199983 13.105572809000085
    vertex 19.999999999999993 16.000000000000004 14.0
    vertex 0.500000000000001 17.788854381999833 13.105572809000085
  endloop
endfacet
facet normal -0.0 0.4472135954999579 0.8944271909999159
  outer loop
    vertex 0.500000000000001 17.788854381999833 13.105572809000085
    vertex 19.999999999999993 16.000000000000004 14.0
    vertex 9.000000000000004 17.788854381999833 13.105572809000085
  endloop
endfacet
facet normal -0.0 0.4472135954999579 0.8944271909999159
  outer loop
    vertex 9.000000000000004 17.788854381999833 13.105572809000085
    vertex 19.999999999999993 16.000000000000004 14.0
    vertex 10.000000000000004 17.788854381999833 13.105572809000085
  endloop
endfacet
facet normal -0.0 0.4472135954999579 0.8944271909999159
  outer loop
    vertex 9.000000000000004 17.788854381999833 13.105572809000085
    vertex 10.000000000000004 17.788854381999833 13.105572809000085
    vertex 9.000000000000004 34.21114561800017 4.894427190999916
  endloop
endfacet
facet normal -0.0 0.4472135954999579 0.8944271909999159
  outer loop
    vertex 10.000000000000004 17.788854381999833 13.105572809000085
    vertex 19.999999999999993 16.000000000000004 14.0
    vertex 18.499999999999993 17.788854381999837 13.105572809000083
  endloop
endfacet
facet normal -0.0 0.4472135954999579 0.8944271909999159
  outer loop
    vertex 18.499999999999993 17.788854381999837 13.105572809000083
    vertex 19.999999999999993 16.000000000000004 14.0
    vertex 18.500000000000004 34.21114561800017 4.894427190999916
  endloop
endfacet
facet normal -0.0 0.4472135954999579 0.8944271909999159
  outer loop
    vertex -20.000000000000004 36.0 3.9999999999999996
    vertex -18.500000000000004 34.21114561800017 4.894427190999917
    vertex 20.000000000000004 36.0 3.9999999999999996
  endloop
endfacet
facet normal -0.0 0.4472135954999579 0.8944271909999159
  outer loop
    vertex -18.500000000000004 34.21114561800017 4.894427190999917
    vertex -20.000000000000004 36.0 3.9999999999999996
    vertex -18.500000000000004 17.788854381999837 13.105572809000083
  endloop
endfacet
facet normal -0.0 0.4472135954999579 0.8944271909999159
  outer loop
    vertex 20.000000000000004 36.0 3.9999999999999996
    vertex -18.500000000000004 34.21114561800017 4.894427190999917
    vertex -10.0 34.21114561800017 4.894427190999917
  endloop
endfacet
facet normal -0.0 0.4472135954999579 0.8944271909999159
  outer loop
    vertex 20.000000000000004 36.0 3.9999999999999996
    vertex -10.0 34.21114561800017 4.894427190999917
    vertex -9.0 34.21114561800017 4.894427190999917
  endloop
endfacet
facet normal -0.0 0.4472135954999579 0.8944271909999159
  outer loop
    vertex -9.0 34.21114561800017 4.894427190999917
    vertex -10.0 34.21114561800017 4.894427190999917
    vertex -9.000000000000007 17.788854381999833 13.105572809000085
  endloop
endfacet
facet normal -0.0 0.4472135954999579 0.8944271909999159
  outer loop
    vertex 20.000000000000004 36.0 3.9999999999999996
    vertex -9.0 34.21114561800017 4.894427190999917
    vertex -0.4774097108107943 34.21114561800017 4.894427190999916
  endloop
endfacet
facet normal -0.0 0.4472135954999579 0.8944271909999159
  outer loop
    vertex 20.000000000000004 36.0 3.9999999999999996
    vertex -0.4774097108107943 34.21114561800017 4.894427190999916
    vertex 0.5000000000000039 34.21114561800017 4.894427190999916
  endloop
endfacet
facet normal -0.0 0.4472135954999579 0.8944271909999159
  outer loop
    vertex 0.5000000000000039 34.21114561800017 4.894427190999916
    vertex -0.4774097108107943 34.21114561800017 4.894427190999916
    vertex -0.47740971081079286 17.78885438199983 13.105572809000085
  endloop
endfacet
facet normal -0.0 0.4472135954999579 0.8944271909999159
  outer loop
    vertex 0.5000000000000039 34.21114561800017 4.894427190999916
    vertex -0.47740971081079286 17.78885438199983 13.105572809000085
    vertex 0.500000000000001 17.788854381999833 13.105572809000085
  endloop
endfacet
facet normal -0.0 0.4472135954999579 0.8944271909999159
  outer loop
    vertex 20.000000000000004 36.0 3.9999999999999996
    vertex 0.5000000000000039 34.21114561800017 4.894427190999916
    vertex 9.000000000000004 34.21114561800017 4.894427190999916
  endloop
endfacet
facet normal -0.0 0.4472135954999579 0.8944271909999159
  outer loop
    vertex 20.000000000000004 36.0 3.9999999999999996
    vertex 9.000000000000004 34.21114561800017 4.894427190999916
    vertex 10.000000000000004 34.21114561800017 4.894427190999916
  endloop
endfacet
facet normal -0.0 0.4472135954999579 0.8944271909999159
  outer loop
    vertex 10.000000000000004 34.21114561800017 4.894427190999916
    vertex 9.000000000000004 34.21114561800017 4.894427190999916
    vertex 10.000000000000004 17.788854381999833 13.105572809000085
  endloop
endfacet
facet normal -0.0 0.4472135954999579 0.8944271909999159
  outer loop
    vertex 20.000000000000004 36.0 3.9999999999999996
    vertex 10.000000000000004 34.21114561800017 4.894427190999916
    vertex 18.500000000000004 34.21114561800017 4.894427190999916
  endloop
endfacet
facet normal -0.0 0.4472135954999579 0.8944271909999159
  outer loop
    vertex 20.000000000000004 36.0 3.9999999999999996
    vertex 18.500000000000004 34.21114561800017 4.894427190999916
    vertex 19.999999999999993 16.000000000000004 14.0
  endloop
endfacet
facet normal 0.0 -1.0 0.0
  outer loop
    vertex 19.999999999999993 16.000000000000004 14.0
    vertex -20.000000000000004 16.000000000000004 1.9999999999999998
    vertex 20.000000000000004 16.000000000000004 1.9999999999999998
  endloop
endfacet
facet normal 0.0 -1.0 0.0
  outer loop
    vertex -20.000000000000004 16.000000000000004 1.9999999999999998
    vertex 19.999999999999993 16.000000000000004 14.0
    vertex -20.000000000000004 16.000000000000004 14.0
  endloop
endfacet
facet normal 1.0 -4.440892098500644e-18 4.884981308350689e-16
  outer loop
    vertex 20.000000000000004 -16.0 1.9999999999999998
    vertex 19.999999999999996 -36.0 14.0
    vertex 20.000000000000004 -36.0 1.9999999999999998
  endloop
endfacet
facet normal 1.0 -4.440892098500644e-18 4.884981308350689e-16
  outer loop
    vertex 19.999999999999996 -36.0 14.0
    vertex 20.000000000000004 -16.0 1.9999999999999998
    vertex 20.000000000000004 -16.0 3.9999999999999996
  endloop
endfacet
facet normal -0.0 0.4472135954999579 0.8944271909999159
  outer loop
    vertex -20.000000000000004 -36.0 14.0
    vertex -18.500000000000004 -34.21114561800017 13.105572809000083
    vertex -20.000000000000004 -16.0 3.9999999999999996
  endloop
endfacet
facet normal -0.0 0.4472135954999579 0.8944271909999159
  outer loop
    vertex -18.500000000000004 -34.21114561800017 13.105572809000083
    vertex -20.000000000000004 -36.0 14.0
    vertex 19.999999999999996 -36.0 14.0
  endloop
endfacet
facet normal -0.0 0.4472135954999579 0.8944271909999159
  outer loop
    vertex -18.500000000000004 -34.21114561800017 13.105572809000083
    vertex 19.999999999999996 -36.0 14.0
    vertex -9.999999999999996 -34.21114561800017 13.105572809000085
  endloop
endfacet
facet normal -0.0 0.4472135954999579 0.8944271909999159
  outer loop
    vertex -9.999999999999996 -34.21114561800017 13.105572809000085
    vertex 19.999999999999996 -36.0 14.0
    vertex -8.999999999999996 -34.21114561800017 13.105572809000085
  endloop
endfacet
facet normal -0.0 0.4472135954999579 0.8944271909999159
  outer loop
    vertex -9.999999999999996 -34.21114561800017 13.105572809000085
    vertex -8.999999999999996 -34.21114561800017 13.105572809000085
    vertex -9.999999999999995 -17.788854381999833 4.894427190999916
  endloop
endfacet
facet normal -0.0 0.4472135954999579 0.8944271909999159
  outer loop
    vertex -8.999999999999996 -34.21114561800017 13.105572809000085
    vertex 19.999999999999996 -36.0 14.0
    vertex -0.4999999999999957 -34.21114561800017 13.105572809000085
  endloop
endfacet
facet normal -0.0 0.4472135954999579 0.8944271909999159
  outer loop
    vertex -0.4999999999999957 -34.21114561800017 13.105572809000085
    vertex 19.999999999999996 -36.0 14.0
    vertex 0.5000000000000052 -34.21114561800017 13.105572809000085
  endloop
endfacet
facet normal -0.0 0.4472135954999579 0.8944271909999159
  outer loop
    vertex -0.4999999999999957 -34.21114561800017 13.105572809000085
    vertex 0.5000000000000052 -34.21114561800017 13.105572809000085
    vertex -0.49999999999999467 -17.788854381999833 4.894427190999916
  endloop
endfacet
facet normal -0.0 0.4472135954999579 0.8944271909999159
  outer loop
    vertex 0.5000000000000052 -34.21114561800017 13.105572809000085
    vertex 19.999999999999996 -36.0 14.0
    vertex 9.000000000000004 -34.21114561800017 13.105572809000085
  endloop
endfacet
facet normal -0.0 0.4472135954999579 0.8944271909999159
  outer loop
    vertex 9.000000000000004 -34.21114561800017 13.105572809000085
    vertex 19.999999999999996 -36.0 14.0
    vertex 10.000000000000004 -34.21114561800017 13.105572809000085
  endloop
endfacet
facet normal -0.0 0.4472135954999579 0.8944271909999159
  outer loop
    vertex 9.000000000000004 -34.21114561800017 13.105572809000085
    vertex 10.000000000000004 -34.21114561800017 13.105572809000085
    vertex 9.000000000000005 -17.788854381999833 4.894427190999916
  endloop
endfacet
facet normal -0.0 0.4472135954999579 0.8944271909999159
  outer loop
    vertex 10.000000000000004 -34.21114561800017 13.105572809000085
    vertex 19.999999999999996 -36.0 14.0
    vertex 18.499999999999996 -34.21114561800017 13.105572809000083
  endloop
endfacet
facet normal -0.0 0.4472135954999579 0.8944271909999159
  outer loop
    vertex 18.499999999999996 -34.21114561800017 13.105572809000083
    vertex 19.999999999999996 -36.0 14.0
    vertex 18.500000000000004 -17.788854381999833 4.894427190999916
  endloop
endfacet
facet normal -0.0 0.4472135954999579 0.8944271909999159
  outer loop
    vertex -20.000000000000004 -16.0 3.9999999999999996
    vertex -18.500000000000004 -17.788854381999833 4.894427190999916
    vertex 20.000000000000004 -16.0 3.9999999999999996
  endloop
endfacet
facet normal -0.0 0.4472135954999579 0.8944271909999159
  outer loop
    vertex -18.500000000000004 -17.788854381999833 4.894427190999916
    vertex -20.000000000000004 -16.0 3.9999999999999996
    vertex -18.500000000000004 -34.21114561800017 13.105572809000083
  endloop
endfacet
facet normal -0.0 0.4472135954999579 0.8944271909999159
  outer loop
    vertex 20.000000000000004 -16.0 3.9999999999999996
    vertex -18.500000000000004 -17.788854381999833 4.894427190999916
    vertex -9.999999999999995 -17.788854381999833 4.894427190999916
  endloop
endfacet
facet normal -0.0 0.4472135954999579 0.8944271909999159
  outer loop
    vertex 20.000000000000004 -16.0 3.9999999999999996
    vertex -9.999999999999995 -17.788854381999833 4.894427190999916
    vertex -8.999999999999995 -17.788854381999833 4.894427190999916
  endloop
endfacet
facet normal -0.0 0.4472135954999579 0.8944271909999159
  outer loop
    vertex -8.999999999999995 -17.788854381999833 4.894427190999916
    vertex -9.999999999999995 -17.788854381999833 4.894427190999916
    vertex -8.999999999999996 -34.21114561800017 13.105572809000085
  endloop
endfacet
facet normal -0.0 0.4472135954999579 0.8944271909999159
  outer loop
    vertex 20.000000000000004 -16.0 3.9999999999999996
    vertex -8.999999999999995 -17.788854381999833 4.894427190999916
    vertex -0.49999999999999467 -17.788854381999833 4.894427190999916
  endloop
endfacet
facet normal -0.0 0.4472135954999579 0.8944271909999159
  outer loop
    vertex 20.000000000000004 -16.0 3.9999999999999996
    vertex -0.49999999999999467 -17.788854381999833 4.894427190999916
    vertex 0.5000000000000052 -17.788854381999833 4.894427190999916
  endloop
endfacet
facet normal -0.0 0.4472135954999579 0.8944271909999159
  outer loop
    vertex 0.5000000000000052 -17.788854381999833 4.894427190999916
    vertex -0.49999999999999467 -17.788854381999833 4.894427190999916
    vertex 0.5000000000000052 -34.21114561800017 13.105572809000085
  endloop
endfacet
facet normal -0.0 0.4472135954999579 0.8944271909999159
  outer loop
    vertex 20.000000000000004 -16.0 3.9999999999999996
    vertex 0.5000000000000052 -17.788854381999833 4.894427190999916
    vertex 9.000000000000005 -17.788854381999833 4.894427190999916
  endloop
endfacet
facet normal -0.0 0.4472135954999579 0.8944271909999159
  outer loop
    vertex 20.000000000000004 -16.0 3.9999999999999996
    vertex 9.000000000000005 -17.788854381999833 4.894427190999916
    vertex 10.000000000000004 -17.788854381999833 4.894427190999916
  endloop
endfacet
facet normal -0.0 0.4472135954999579 0.8944271909999159
  outer loop
    vertex 10.000000000000004 -17.788854381999833 4.894427190999916
    vertex 9.000000000000005 -17.788854381999833 4.894427190999916
    vertex 10.000000000000004 -34.21114561800017 13.105572809000085
  endloop
endfacet
facet normal -0.0 0.4472135954999579 0.8944271909999159
  outer loop
    vertex 20.000000000000004 -16.0 3.9999999999999996
    vertex 10.000000000000004 -17.788854381999833 4.894427190999916
    vertex 18.500000000000004 -17.788854381999833 4.894427190999916
  endloop
endfacet
facet normal -0.0 0.4472135954999579 0.8944271909999159
  outer loop
    vertex 20.000000000000004 -16.0 3.9999999999999996
    vertex 18.500000000000004 -17.788854381999833 4.894427190999916
    vertex 19.999999999999996 -36.0 14.0
  endloop
endfacet
facet normal 0.0 -1.0 0.0
  outer loop
    vertex 19.999999999999996 -36.0 14.0
    vertex -20.000000000000004 -36.0 1.9999999999999998
    vertex 20.000000000000004 -36.0 1.9999999999999998
  endloop
endfacet
facet normal 0.0 -1.0 0.0
  outer loop
    vertex -20.000000000000004 -36.0 1.9999999999999998
    vertex 19.999999999999996 -36.0 14.0
    vertex -20.000000000000004 -36.0 14.0
  endloop
endfacet
facet normal 1.0 -5.1117217206306316e-18 4.770940272588586e-16
  outer loop
    vertex 20.000000000000004 10.0 1.9999999999999998
    vertex 19.999999999999996 -9.999999999999998 14.0
    vertex 20.000000000000004 -10.0 1.9999999999999998
  endloop
endfacet
facet normal 1.0 -5.1117217206306316e-18 4.770940272588586e-16
  outer loop
    vertex 19.999999999999996 -9.999999999999998 14.0
    vertex 20.000000000000004 10.0 1.9999999999999998
    vertex 20.000000000000004 10.0 3.9999999999999996
  endloop
endfacet
facet normal 1.0010198339431311e-17 0.4472135954999579 0.8944271909999159
  outer loop
    vertex -20.000000000000004 -9.999999999999998 14.0
    vertex -18.500000000000004 -8.211145618000167 13.105572809000083
    vertex -20.000000000000004 10.0 3.9999999999999996
  endloop
endfacet
facet normal 1.0010198339431311e-17 0.4472135954999579 0.8944271909999159
  outer loop
    vertex -18.500000000000004 -8.211145618000167 13.105572809000083
    vertex -20.000000000000004 -9.999999999999998 14.0
    vertex 19.999999999999996 -9.999999999999998 14.0
  endloop
endfacet
facet normal 1.0010198339431311e-17 0.4472135954999579 0.8944271909999159
  outer loop
    vertex -18.500000000000004 -8.211145618000167 13.105572809000083
    vertex 19.999999999999996 -9.999999999999998 14.0
    vertex -9.999999999999996 -8.211145618000176 13.105572809000085
  endloop
endfacet
facet normal 1.0010198339431311e-17 0.4472135954999579 0.8944271909999159
  outer loop
    vertex -9.999999999999996 -8.211145618000176 13.105572809000085
    vertex 19.999999999999996 -9.999999999999998 14.0
    vertex -9.000000000000005 -8.211145618000176 13.105572809000085
  endloop
endfacet
facet normal 1.0010198339431311e-17 0.4472135954999579 0.8944271909999159
  outer loop
    vertex -9.999999999999996 -8.211145618000176 13.105572809000085
    vertex -9.000000000000005 -8.211145618000176 13.105572809000085
    vertex -9.999999999999995 8.211145618000167 4.894427190999916
  endloop
endfacet
facet normal 1.0010198339431311e-17 0.4472135954999579 0.8944271909999159
  outer loop
    vertex -9.000000000000005 -8.211145618000176 13.105572809000085
    vertex 19.999999999999996 -9.999999999999998 14.0
    vertex -0.4999999999999989 -8.211145618000176 13.105572809000085
  endloop
endfacet
facet normal 1.0010198339431311e-17 0.4472135954999579 0.8944271909999159
  outer loop
    vertex -0.4999999999999989 -8.211145618000176 13.105572809000085
    vertex 19.999999999999996 -9.999999999999998 14.0
    vertex 0.500000000000006 -8.211145618000172 13.105572809000085
  endloop
endfacet
facet normal 1.0010198339431311e-17 0.4472135954999579 0.8944271909999159
  outer loop
    vertex -0.4999999999999989 -8.211145618000176 13.105572809000085
    vertex 0.500000000000006 -8.211145618000172 13.105572809000085
    vertex -0.49999999999999467 8.211145618000165 4.894427190999916
  endloop
endfacet
facet normal 1.0010198339431311e-17 0.4472135954999579 0.8944271909999159
  outer loop
    vertex -0.49999999999999467 8.211145618000165 4.894427190999916
    vertex 0.500000000000006 -8.211145618000172 13.105572809000085
    vertex 0.5000000000000052 8.211145618000165 4.894427190999916
  endloop
endfacet
facet normal 1.0010198339431311e-17 0.4472135954999579 0.8944271909999159
  outer loop
    vertex 0.500000000000006 -8.211145618000172 13.105572809000085
    vertex 19.999999999999996 -9.999999999999998 14.0
    vertex 9.000000000000004 -8.211145618000167 13.105572809000083
  endloop
endfacet
facet normal 1.0010198339431311e-17 0.4472135954999579 0.8944271909999159
  outer loop
    vertex 9.000000000000004 -8.211145618000167 13.105572809000083
    vertex 19.999999999999996 -9.999999999999998 14.0
    vertex 10.000000000000002 -8.211145618000167 13.105572809000083
  endloop
endfacet
facet normal 1.0010198339431311e-17 0.4472135954999579 0.8944271909999159
  outer loop
    vertex 9.000000000000004 -8.211145618000167 13.105572809000083
    vertex 10.000000000000002 -8.211145618000167 13.105572809000083
    vertex 9.000000000000005 8.211145618000167 4.894427190999916
  endloop
endfacet
facet normal 1.0010198339431311e-17 0.4472135954999579 0.8944271909999159
  outer loop
    vertex 10.000000000000002 -8.211145618000167 13.105572809000083
    vertex 19.999999999999996 -9.999999999999998 14.0
    vertex 18.499999999999996 -8.211145618000167 13.105572809000083
  endloop
endfacet
facet normal 1.0010198339431311e-17 0.4472135954999579 0.8944271909999159
  outer loop
    vertex 18.499999999999996 -8.211145618000167 13.105572809000083
    vertex 19.999999999999996 -9.999999999999998 14.0
    vertex 18.500000000000004 8.211145618000169 4.894427190999916
  endloop
endfacet
facet normal 1.0010198339431311e-17 0.4472135954999579 0.8944271909999159
  outer loop
    vertex -20.000000000000004 10.0 3.9999999999999996
    vertex -18.500000000000004 8.211145618000169 4.894427190999916
    vertex 20.000000000000004 10.0 3.9999999999999996
  endloop
endfacet
facet normal 1.0010198339431311e-17 0.4472135954999579 0.8944271909999159
  outer loop
    vertex -18.500000000000004 8.211145618000169 4.894427190999916
    vertex -20.000000000000004 10.0 3.9999999999999996
    vertex -18.500000000000004 -8.211145618000167 13.105572809000083
  endloop
endfacet
facet normal 1.0010198339431311e-17 0.4472135954999579 0.8944271909999159
  outer loop
    vertex 20.000000000000004 10.0 3.9999999999999996
    vertex -18.500000000000004 8.211145618000169 4.894427190999916
    vertex -9.999999999999995 8.211145618000167 4.894427190999916
  endloop
endfacet
facet normal 1.0010198339431311e-17 0.4472135954999579 0.8944271909999159
  outer loop
    vertex 20.000000000000004 10.0 3.9999999999999996
    vertex -9.999999999999995 8.211145618000167 4.894427190999916
    vertex -8.999999999999995 8.211145618000167 4.894427190999916
  endloop
endfacet
facet normal 1.0010198339431311e-17 0.4472135954999579 0.8944271909999159
  outer loop
    vertex -8.999999999999995 8.211145618000167 4.894427190999916
    vertex -9.999999999999995 8.211145618000167 4.894427190999916
    vertex -9.000000000000005 -8.211145618000176 13.105572809000085
  endloop
endfacet
facet normal 1.0010198339431311e-17 0.4472135954999579 0.8944271909999159
  outer loop
    vertex 20.000000000000004 10.0 3.9999999999999996
    vertex -8.999999999999995 8.211145618000167 4.894427190999916
    vertex -0.49999999999999467 8.211145618000165 4.894427190999916
  endloop
endfacet
facet normal 1.0010198339431311e-17 0.4472135954999579 0.8944271909999159
  outer loop
    vertex 20.000000000000004 10.0 3.9999999999999996
    vertex -0.49999999999999467 8.211145618000165 4.894427190999916
    vertex 0.5000000000000052 8.211145618000165 4.894427190999916
  endloop
endfacet
facet normal 1.0010198339431311e-17 0.4472135954999579 0.8944271909999159
  outer loop
    vertex 20.000000000000004 10.0 3.9999999999999996
    vertex 0.5000000000000052 8.211145618000165 4.894427190999916
    vertex 9.000000000000005 8.211145618000167 4.894427190999916
  endloop
endfacet
facet normal 1.0010198339431311e-17 0.4472135954999579 0.8944271909999159
  outer loop
    vertex 20.000000000000004 10.0 3.9999999999999996
    vertex 9.000000000000005 8.211145618000167 4.894427190999916
    vertex 10.000000000000004 8.211145618000167 4.894427190999916
  endloop
endfacet
facet normal 1.0010198339431311e-17 0.4472135954999579 0.8944271909999159
  outer loop
    vertex 10.000000000000004 8.211145618000167 4.894427190999916
    vertex 9.000000000000005 8.211145618000167 4.894427190999916
    vertex 10.000000000000002 -8.211145618000167 13.105572809000083
  endloop
endfacet
facet normal 1.0010198339431311e-17 0.4472135954999579 0.8944271909999159
  outer loop
    vertex 20.000000000000004 10.0 3.9999999999999996
    vertex 10.000000000000004 8.211145618000167 4.894427190999916
    vertex 18.500000000000004 8.211145618000169 4.894427190999916
  endloop
endfacet
facet normal 1.0010198339431311e-17 0.4472135954999579 0.8944271909999159
  outer loop
    vertex 20.000000000000004 10.0 3.9999999999999996
    vertex 18.500000000000004 8.211145618000169 4.894427190999916
    vertex 19.999999999999996 -9.999999999999998 14.0
  endloop
endfacet
facet normal -2.3499720687899147e-17 -1.0 1.0728133357519172e-16
  outer loop
    vertex 19.999999999999996 -9.999999999999998 14.0
    vertex -20.000000000000004 -9.999999999999998 1.9999999999999998
    vertex 20.000000000000004 -10.0 1.9999999999999998
  endloop
endfacet
facet normal -2.3499720687899147e-17 -1.0 1.0728133357519172e-16
  outer loop
    vertex -20.000000000000004 -9.999999999999998 1.9999999999999998
    vertex 19.999999999999996 -9.999999999999998 14.0
    vertex -20.000000000000004 -9.999999999999998 14.0
  endloop
endfacet
facet normal 6.25637396214455e-17 0.4472135954999581 0.8944271909999159
  outer loop
    vertex 18.499999999999993 18.236067977499793 13.999999999999996
    vertex 10.000000000000004 34.65835921350013 5.7888543819998315
    vertex 10.000000000000004 18.236067977499793 14.000000000000002
  endloop
endfacet
facet normal 6.25637396214455e-17 0.4472135954999581 0.8944271909999159
  outer loop
    vertex 10.000000000000004 34.65835921350013 5.7888543819998315
    vertex 18.499999999999993 18.236067977499793 13.999999999999996
    vertex 18.500000000000004 34.65835921350013 5.7888543819998315
  endloop
endfacet
facet normal 0.0 0.8944271909999157 -0.4472135954999581
  outer loop
    vertex 10.000000000000004 34.65835921350013 5.7888543819998315
    vertex 18.500000000000004 34.21114561800017 4.894427190999916
    vertex 10.000000000000004 34.21114561800017 4.894427190999916
  endloop
endfacet
facet normal 0.0 0.8944271909999157 -0.4472135954999581
  outer loop
    vertex 18.500000000000004 34.21114561800017 4.894427190999916
    vertex 10.000000000000004 34.65835921350013 5.7888543819998315
    vertex 18.500000000000004 34.65835921350013 5.7888543819998315
  endloop
endfacet
facet normal -1.0 9.666566532600798e-17 2.1615554697070537e-17
  outer loop
    vertex 10.000000000000004 18.236067977499793 14.000000000000002
    vertex 10.000000000000004 34.21114561800017 4.894427190999916
    vertex 10.000000000000004 17.788854381999833 13.105572809000085
  endloop
endfacet
facet normal -1.0 9.666566532600798e-17 2.1615554697070537e-17
  outer loop
    vertex 10.000000000000004 34.21114561800017 4.894427190999916
    vertex 10.000000000000004 18.236067977499793 14.000000000000002
    vertex 10.000000000000004 34.65835921350013 5.7888543819998315
  endloop
endfacet
facet normal 4.72922756193606e-16 -0.8944271909999159 0.447213595499958
  outer loop
    vertex 18.499999999999993 18.236067977499793 13.999999999999996
    vertex 10.000000000000004 17.788854381999833 13.105572809000085
    vertex 18.499999999999993 17.788854381999837 13.105572809000083
  endloop
endfacet
facet normal 4.72922756193606e-16 -0.8944271909999159 0.447213595499958
  outer loop
    vertex 10.000000000000004 17.788854381999833 13.105572809000085
    vertex 18.499999999999993 18.236067977499793 13.999999999999996
    vertex 10.000000000000004 18.236067977499793 14.000000000000002
  endloop
endfacet
facet normal 1.0 -4.4009721723589893e-16 1.5010022125787497e-16
  outer loop
    vertex 18.500000000000004 34.21114561800017 4.894427190999916
    vertex 18.499999999999993 18.236067977499793 13.999999999999996
    vertex 18.499999999999993 17.788854381999837 13.105572809000083
  endloop
endfacet
facet normal 1.0 -4.4009721723589893e-16 1.5010022125787497e-16
  outer loop
    vertex 18.499999999999993 18.236067977499793 13.999999999999996
    vertex 18.500000000000004 34.21114561800017 4.894427190999916
    vertex 18.500000000000004 34.65835921350013 5.7888543819998315
  endloop
endfacet
facet normal 3.128186981072284e-17 0.44721359549995804 0.8944271909999159
  outer loop
    vertex 9.000000000000004 18.236067977499793 14.000000000000002
    vertex 0.5000000000000039 34.65835921350013 5.7888543819998315
    vertex 0.500000000000001 18.236067977499793 14.000000000000002
  endloop
endfacet
facet normal 3.128186981072284e-17 0.44721359549995804 0.8944271909999159
  outer loop
    vertex 0.5000000000000039 34.65835921350013 5.7888543819998315
    vertex 9.000000000000004 18.236067977499793 14.000000000000002
    vertex 9.000000000000004 34.65835921350013 5.7888543819998315
  endloop
endfacet
facet normal 0.0 0.894427190999916 -0.4472135954999581
  outer loop
    vertex 0.5000000000000039 34.65835921350013 5.7888543819998315
    vertex 9.000000000000004 34.21114561800017 4.894427190999916
    vertex 0.5000000000000039 34.21114561800017 4.894427190999916
  endloop
endfacet
facet normal 0.0 0.894427190999916 -0.4472135954999581
  outer loop
    vertex 9.000000000000004 34.21114561800017 4.894427190999916
    vertex 0.5000000000000039 34.65835921350013 5.7888543819998315
    vertex 9.000000000000004 34.65835921350013 5.7888543819998315
  endloop
endfacet
facet normal -1.0 1.5136229823597127e-16 -4.070695543794828e-17
  outer loop
    vertex 0.500000000000001 18.236067977499793 14.000000000000002
    vertex 0.5000000000000039 34.21114561800017 4.894427190999916
    vertex 0.500000000000001 17.788854381999833 13.105572809000085
  endloop
endfacet
facet normal -1.0 1.5136229823597127e-16 -4.070695543794828e-17
  outer loop
    vertex 0.5000000000000039 34.21114561800017 4.894427190999916
    vertex 0.500000000000001 18.236067977499793 14.000000000000002
    vertex 0.5000000000000039 34.65835921350013 5.7888543819998315
  endloop
endfacet
facet normal 0.0 -0.894427190999916 0.4472135954999581
  outer loop
    vertex 9.000000000000004 18.236067977499793 14.000000000000002
    vertex 0.500000000000001 17.788854381999833 13.105572809000085
    vertex 9.000000000000004 17.788854381999833 13.105572809000085
  endloop
endfacet
facet normal 0.0 -0.894427190999916 0.4472135954999581
  outer loop
    vertex 0.500000000000001 17.788854381999833 13.105572809000085
    vertex 9.000000000000004 18.236067977499793 14.000000000000002
    vertex 0.500000000000001 18.236067977499793 14.000000000000002
  endloop
endfacet
facet normal 1.0 -1.3989677472014953e-17 -2.79793549440299e-17
  outer loop
    vertex 9.000000000000004 34.21114561800017 4.894427190999916
    vertex 9.000000000000004 18.236067977499793 14.000000000000002
    vertex 9.000000000000004 17.788854381999833 13.105572809000085
  endloop
endfacet
facet normal 1.0 -1.3989677472014953e-17 -2.79793549440299e-17
  outer loop
    vertex 9.000000000000004 18.236067977499793 14.000000000000002
    vertex 9.000000000000004 34.21114561800017 4.894427190999916
    vertex 9.000000000000004 34.65835921350013 5.7888543819998315
  endloop
endfacet
facet normal 1.571203057282829e-16 0.44721359549995804 0.8944271909999159
  outer loop
    vertex -0.4774097108107927 18.23606797749979 14.000000000000002
    vertex -9.0 34.65835921350013 5.788854381999832
    vertex -9.000000000000007 18.236067977499793 14.000000000000002
  endloop
endfacet
facet normal 1.571203057282829e-16 0.44721359549995804 0.8944271909999159
  outer loop
    vertex -9.0 34.65835921350013 5.788854381999832
    vertex -0.4774097108107927 18.23606797749979 14.000000000000002
    vertex -0.47740971081079414 34.65835921350013 5.7888543819998315
  endloop
endfacet
facet normal 1.0 -1.5800264688198762e-18 -1.7487582889258513e-16
  outer loop
    vertex -0.4774097108107943 34.21114561800017 4.894427190999916
    vertex -0.4774097108107927 18.23606797749979 14.000000000000002
    vertex -0.47740971081079286 17.78885438199983 13.105572809000085
  endloop
endfacet
facet normal 1.0 -1.5800264688198762e-18 -1.7487582889258513e-16
  outer loop
    vertex -0.4774097108107927 18.23606797749979 14.000000000000002
    vertex -0.4774097108107943 34.21114561800017 4.894427190999916
    vertex -0.47740971081079414 34.65835921350013 5.7888543819998315
  endloop
endfacet
facet normal -3.9299256985273187e-17 0.8944271909999159 -0.44721359549995804
  outer loop
    vertex -9.0 34.21114561800017 4.894427190999917
    vertex -0.47740971081079414 34.65835921350013 5.7888543819998315
    vertex -0.4774097108107943 34.21114561800017 4.894427190999916
  endloop
endfacet
facet normal -3.9299256985273187e-17 0.8944271909999159 -0.44721359549995804
  outer loop
    vertex -0.47740971081079414 34.65835921350013 5.7888543819998315
    vertex -9.0 34.21114561800017 4.894427190999917
    vertex -9.0 34.65835921350013 5.788854381999832
  endloop
endfacet
facet normal -1.0 4.136978887606889e-16 -3.118310225334943e-17
  outer loop
    vertex -9.000000000000007 18.236067977499793 14.000000000000002
    vertex -9.0 34.21114561800017 4.894427190999917
    vertex -9.000000000000007 17.788854381999833 13.105572809000085
  endloop
endfacet
facet normal -1.0 4.136978887606889e-16 -3.118310225334943e-17
  outer loop
    vertex -9.0 34.21114561800017 4.894427190999917
    vertex -9.000000000000007 18.236067977499793 14.000000000000002
    vertex -9.0 34.65835921350013 5.788854381999832
  endloop
endfacet
facet normal -3.143940558821851e-16 -0.8944271909999157 0.44721359549995804
  outer loop
    vertex -0.4774097108107927 18.23606797749979 14.000000000000002
    vertex -9.000000000000007 17.788854381999833 13.105572809000085
    vertex -0.47740971081079286 17.78885438199983 13.105572809000085
  endloop
endfacet
facet normal -3.143940558821851e-16 -0.8944271909999157 0.44721359549995804
  outer loop
    vertex -9.000000000000007 17.788854381999833 13.105572809000085
    vertex -0.4774097108107927 18.23606797749979 14.000000000000002
    vertex -9.000000000000007 18.236067977499793 14.000000000000002
  endloop
endfacet
facet normal -6.25637396214456e-17 0.4472135954999579 0.8944271909999159
  outer loop
    vertex -10.0 18.236067977499793 14.000000000000002
    vertex -18.500000000000004 34.65835921350013 5.788854381999832
    vertex -18.500000000000004 18.236067977499793 14.0
  endloop
endfacet
facet normal -6.25637396214456e-17 0.4472135954999579 0.8944271909999159
  outer loop
    vertex -18.500000000000004 34.65835921350013 5.788854381999832
    vertex -10.0 18.236067977499793 14.000000000000002
    vertex -10.0 34.65835921350013 5.788854381999832
  endloop
endfacet
facet normal -4.729227561936053e-16 -0.894427190999916 0.447213595499958
  outer loop
    vertex -10.0 17.788854381999833 13.105572809000085
    vertex -18.500000000000004 18.236067977499793 14.0
    vertex -18.500000000000004 17.788854381999837 13.105572809000083
  endloop
endfacet
facet normal -4.729227561936053e-16 -0.894427190999916 0.447213595499958
  outer loop
    vertex -18.500000000000004 18.236067977499793 14.0
    vertex -10.0 17.788854381999833 13.105572809000085
    vertex -10.0 18.236067977499793 14.000000000000002
  endloop
endfacet
facet normal 1.0 2.797935494402987e-17 5.595870988805972e-17
  outer loop
    vertex -10.0 34.21114561800017 4.894427190999917
    vertex -10.0 18.236067977499793 14.000000000000002
    vertex -10.0 17.788854381999833 13.105572809000085
  endloop
endfacet
facet normal 1.0 2.797935494402987e-17 5.595870988805972e-17
  outer loop
    vertex -10.0 18.236067977499793 14.000000000000002
    vertex -10.0 34.21114561800017 4.894427190999917
    vertex -10.0 34.65835921350013 5.788854381999832
  endloop
endfacet
facet normal -3.941022968280044e-17 0.894427190999916 -0.447213595499958
  outer loop
    vertex -18.500000000000004 34.21114561800017 4.894427190999917
    vertex -10.0 34.65835921350013 5.788854381999832
    vertex -10.0 34.21114561800017 4.894427190999917
  endloop
endfacet
facet normal -3.941022968280044e-17 0.894427190999916 -0.447213595499958
  outer loop
    vertex -10.0 34.65835921350013 5.788854381999832
    vertex -18.500000000000004 34.21114561800017 4.894427190999917
    vertex -18.500000000000004 34.65835921350013 5.788854381999832
  endloop
endfacet
facet normal -1.0 -2.797935494402986e-17 -5.595870988805972e-17
  outer loop
    vertex -18.500000000000004 18.236067977499793 14.0
    vertex -18.500000000000004 34.21114561800017 4.894427190999917
    vertex -18.500000000000004 17.788854381999837 13.105572809000083
  endloop
endfacet
facet normal -1.0 -2.797935494402986e-17 -5.595870988805972e-17
  outer loop
    vertex -18.500000000000004 34.21114561800017 4.894427190999917
    vertex -18.500000000000004 18.236067977499793 14.0
    vertex -18.500000000000004 34.65835921350013 5.788854381999832
  endloop
endfacet
facet normal -3.128186981072287e-17 0.4472135954999579 0.8944271909999159
  outer loop
    vertex 18.499999999999996 -7.763932022500208 14.0
    vertex 10.000000000000004 8.658359213500125 5.7888543819998315
    vertex 10.000000000000002 -7.763932022500208 14.0
  endloop
endfacet
facet normal -3.128186981072287e-17 0.4472135954999579 0.8944271909999159
  outer loop
    vertex 10.000000000000004 8.658359213500125 5.7888543819998315
    vertex 18.499999999999996 -7.763932022500208 14.0
    vertex 18.500000000000004 8.658359213500127 5.7888543819998315
  endloop
endfacet
facet normal -1.5764091873120185e-16 0.894427190999916 -0.447213595499958
  outer loop
    vertex 10.000000000000004 8.658359213500125 5.7888543819998315
    vertex 18.500000000000004 8.211145618000169 4.894427190999916
    vertex 10.000000000000004 8.211145618000167 4.894427190999916
  endloop
endfacet
facet normal -1.5764091873120185e-16 0.894427190999916 -0.447213595499958
  outer loop
    vertex 18.500000000000004 8.211145618000169 4.894427190999916
    vertex 10.000000000000004 8.658359213500125 5.7888543819998315
    vertex 18.500000000000004 8.658359213500127 5.7888543819998315
  endloop
endfacet
facet normal -1.0 1.233829432919414e-16 -9.66656653260081e-17
  outer loop
    vertex 10.000000000000002 -7.763932022500208 14.0
    vertex 10.000000000000004 8.211145618000167 4.894427190999916
    vertex 10.000000000000002 -8.211145618000167 13.105572809000083
  endloop
endfacet
facet normal -1.0 1.233829432919414e-16 -9.66656653260081e-17
  outer loop
    vertex 10.000000000000004 8.211145618000167 4.894427190999916
    vertex 10.000000000000002 -7.763932022500208 14.0
    vertex 10.000000000000004 8.658359213500125 5.7888543819998315
  endloop
endfacet
facet normal 0.0 -0.8944271909999159 0.4472135954999579
  outer loop
    vertex 18.499999999999996 -7.763932022500208 14.0
    vertex 10.000000000000002 -8.211145618000167 13.105572809000083
    vertex 18.499999999999996 -8.211145618000167 13.105572809000083
  endloop
endfacet
facet normal 0.0 -0.8944271909999159 0.4472135954999579
  outer loop
    vertex 10.000000000000002 -8.211145618000167 13.105572809000083
    vertex 18.499999999999996 -7.763932022500208 14.0
    vertex 10.000000000000002 -7.763932022500208 14.0
  endloop
endfacet
facet normal 1.0 -2.607555640558977e-16 1.6535197570798627e-16
  outer loop
    vertex 18.500000000000004 8.211145618000169 4.894427190999916
    vertex 18.499999999999996 -7.763932022500208 14.0
    vertex 18.499999999999996 -8.211145618000167 13.105572809000083
  endloop
endfacet
facet normal 1.0 -2.607555640558977e-16 1.6535197570798627e-16
  outer loop
    vertex 18.499999999999996 -7.763932022500208 14.0
    vertex 18.500000000000004 8.211145618000169 4.894427190999916
    vertex 18.500000000000004 8.658359213500127 5.7888543819998315
  endloop
endfacet
facet normal -3.128186981072293e-17 0.44721359549995804 0.8944271909999159
  outer loop
    vertex 0.500000000000006 -7.763932022500213 14.000000000000002
    vertex 9.000000000000005 8.658359213500125 5.7888543819998315
    vertex 0.5000000000000052 8.658359213500123 5.7888543819998315
  endloop
endfacet
facet normal -3.128186981072293e-17 0.44721359549995804 0.8944271909999159
  outer loop
    vertex 9.000000000000005 8.658359213500125 5.7888543819998315
    vertex 0.500000000000006 -7.763932022500213 14.000000000000002
    vertex 9.000000000000004 -7.763932022500208 13.999999999999996
  endloop
endfacet
facet normal -3.152818374624037e-16 0.894427190999916 -0.4472135954999581
  outer loop
    vertex 0.5000000000000052 8.658359213500123 5.7888543819998315
    vertex 9.000000000000005 8.211145618000167 4.894427190999916
    vertex 0.5000000000000052 8.211145618000165 4.894427190999916
  endloop
endfacet
facet normal -3.152818374624037e-16 0.894427190999916 -0.4472135954999581
  outer loop
    vertex 9.000000000000005 8.211145618000167 4.894427190999916
    vertex 0.5000000000000052 8.658359213500123 5.7888543819998315
    vertex 9.000000000000005 8.658359213500125 5.7888543819998315
  endloop
endfacet
facet normal -1.0 -4.833283266300407e-17 -1.0807777348535429e-17
  outer loop
    vertex 0.500000000000006 -7.763932022500213 14.000000000000002
    vertex 0.5000000000000052 8.211145618000165 4.894427190999916
    vertex 0.500000000000006 -8.211145618000172 13.105572809000085
  endloop
endfacet
facet normal -1.0 -4.833283266300407e-17 -1.0807777348535429e-17
  outer loop
    vertex 0.5000000000000052 8.211145618000165 4.894427190999916
    vertex 0.500000000000006 -7.763932022500213 14.000000000000002
    vertex 0.5000000000000052 8.658359213500123 5.7888543819998315
  endloop
endfacet
facet normal 6.305636749248076e-16 -0.8944271909999159 0.447213595499958
  outer loop
    vertex 9.000000000000004 -7.763932022500208 13.999999999999996
    vertex 0.500000000000006 -8.211145618000172 13.105572809000085
    vertex 9.000000000000004 -8.211145618000167 13.105572809000083
  endloop
endfacet
facet normal 6.305636749248076e-16 -0.8944271909999159 0.447213595499958
  outer loop
    vertex 0.500000000000006 -8.211145618000172 13.105572809000085
    vertex 9.000000000000004 -7.763932022500208 13.999999999999996
    vertex 0.500000000000006 -7.763932022500213 14.000000000000002
  endloop
endfacet
facet normal 1.0 -5.469663290996319e-17 6.232251013501907e-17
  outer loop
    vertex 9.000000000000005 8.211145618000167 4.894427190999916
    vertex 9.000000000000004 -7.763932022500208 13.999999999999996
    vertex 9.000000000000004 -8.211145618000167 13.105572809000083
  endloop
endfacet
facet normal 1.0 -5.469663290996319e-17 6.232251013501907e-17
  outer loop
    vertex 9.000000000000004 -7.763932022500208 13.999999999999996
    vertex 9.000000000000005 8.211145618000167 4.894427190999916
    vertex 9.000000000000005 8.658359213500125 5.7888543819998315
  endloop
endfacet
facet normal 9.384560943216866e-17 0.4472135954999578 0.8944271909999159
  outer loop
    vertex -0.4999999999999987 -7.763932022500217 14.000000000000002
    vertex -8.999999999999995 8.658359213500125 5.7888543819998315
    vertex -9.000000000000005 -7.763932022500217 14.000000000000002
  endloop
endfacet
facet normal 9.384560943216866e-17 0.4472135954999578 0.8944271909999159
  outer loop
    vertex -8.999999999999995 8.658359213500125 5.7888543819998315
    vertex -0.4999999999999987 -7.763932022500217 14.000000000000002
    vertex -0.4999999999999945 8.658359213500123 5.7888543819998315
  endloop
endfacet
facet normal 3.152818374624037e-16 0.894427190999916 -0.4472135954999579
  outer loop
    vertex -8.999999999999995 8.658359213500125 5.7888543819998315
    vertex -0.49999999999999467 8.211145618000165 4.894427190999916
    vertex -8.999999999999995 8.211145618000167 4.894427190999916
  endloop
endfacet
facet normal 3.152818374624037e-16 0.894427190999916 -0.4472135954999579
  outer loop
    vertex -0.49999999999999467 8.211145618000165 4.894427190999916
    vertex -8.999999999999995 8.658359213500125 5.7888543819998315
    vertex -0.4999999999999945 8.658359213500123 5.7888543819998315
  endloop
endfacet
facet normal -1.0 5.227732050898919e-16 -1.5646402150483362e-16
  outer loop
    vertex -9.000000000000005 -7.763932022500217 14.000000000000002
    vertex -8.999999999999995 8.211145618000167 4.894427190999916
    vertex -9.000000000000005 -8.211145618000176 13.105572809000085
  endloop
endfacet
facet normal -1.0 5.227732050898919e-16 -1.5646402150483362e-16
  outer loop
    vertex -8.999999999999995 8.211145618000167 4.894427190999916
    vertex -9.000000000000005 -7.763932022500217 14.000000000000002
    vertex -8.999999999999995 8.658359213500125 5.7888543819998315
  endloop
endfacet
facet normal 0.0 -0.8944271909999161 0.44721359549995787
  outer loop
    vertex -0.4999999999999987 -7.763932022500217 14.000000000000002
    vertex -9.000000000000005 -8.211145618000176 13.105572809000085
    vertex -0.4999999999999989 -8.211145618000176 13.105572809000085
  endloop
endfacet
facet normal 0.0 -0.8944271909999161 0.44721359549995787
  outer loop
    vertex -9.000000000000005 -8.211145618000176 13.105572809000085
    vertex -0.4999999999999987 -7.763932022500217 14.000000000000002
    vertex -9.000000000000005 -7.763932022500217 14.000000000000002
  endloop
endfacet
facet normal 1.0 -2.480279635619794e-16 1.9091400740877368e-17
  outer loop
    vertex -0.49999999999999467 8.211145618000165 4.894427190999916
    vertex -0.4999999999999987 -7.763932022500217 14.000000000000002
    vertex -0.4999999999999989 -8.211145618000176 13.105572809000085
  endloop
endfacet
facet normal 1.0 -2.480279635619794e-16 1.9091400740877368e-17
  outer loop
    vertex -0.4999999999999987 -7.763932022500217 14.000000000000002
    vertex -0.49999999999999467 8.211145618000165 4.894427190999916
    vertex -0.4999999999999945 8.658359213500123 5.7888543819998315
  endloop
endfacet
facet normal 9.384560943216836e-17 0.4472135954999578 0.8944271909999159
  outer loop
    vertex -9.999999999999996 -7.763932022500217 14.000000000000002
    vertex -18.500000000000004 8.658359213500125 5.7888543819998315
    vertex -18.500000000000004 -7.763932022500208 14.0
  endloop
endfacet
facet normal 9.384560943216836e-17 0.4472135954999578 0.8944271909999159
  outer loop
    vertex -18.500000000000004 8.658359213500125 5.7888543819998315
    vertex -9.999999999999996 -7.763932022500217 14.000000000000002
    vertex -9.999999999999995 8.658359213500125 5.7888543819998315
  endloop
endfacet
facet normal -1.103486431118412e-15 -0.8944271909999159 0.44721359549995787
  outer loop
    vertex -9.999999999999996 -8.211145618000176 13.105572809000085
    vertex -18.500000000000004 -7.763932022500208 14.0
    vertex -18.500000000000004 -8.211145618000167 13.105572809000083
  endloop
endfacet
facet normal -1.103486431118412e-15 -0.8944271909999159 0.44721359549995787
  outer loop
    vertex -18.500000000000004 -7.763932022500208 14.0
    vertex -9.999999999999996 -8.211145618000176 13.105572809000085
    vertex -9.999999999999996 -7.763932022500217 14.000000000000002
  endloop
endfacet
facet normal 1.0 -1.793416531800011e-16 -1.5251754450111425e-17
  outer loop
    vertex -9.999999999999995 8.211145618000167 4.894427190999916
    vertex -9.999999999999996 -7.763932022500217 14.000000000000002
    vertex -9.999999999999996 -8.211145618000176 13.105572809000085
  endloop
endfacet
facet normal 1.0 -1.793416531800011e-16 -1.5251754450111425e-17
  outer loop
    vertex -9.999999999999996 -7.763932022500217 14.000000000000002
    vertex -9.999999999999995 8.211145618000167 4.894427190999916
    vertex -9.999999999999995 8.658359213500125 5.7888543819998315
  endloop
endfacet
facet normal 1.5764091873120166e-16 0.894427190999916 -0.44721359549995787
  outer loop
    vertex -18.500000000000004 8.658359213500125 5.7888543819998315
    vertex -9.999999999999995 8.211145618000167 4.894427190999916
    vertex -18.500000000000004 8.211145618000169 4.894427190999916
  endloop
endfacet
facet normal 1.5764091873120166e-16 0.894427190999916 -0.44721359549995787
  outer loop
    vertex -9.999999999999995 8.211145618000167 4.894427190999916
    vertex -18.500000000000004 8.658359213500125 5.7888543819998315
    vertex -9.999999999999995 8.658359213500125 5.7888543819998315
  endloop
endfacet
facet normal -1.0 4.1969032416044784e-17 8.393806483208957e-17
  outer loop
    vertex -18.500000000000004 -7.763932022500208 14.0
    vertex -18.500000000000004 8.211145618000169 4.894427190999916
    vertex -18.500000000000004 -8.211145618000167 13.105572809000083
  endloop
endfacet
facet normal -1.0 4.1969032416044784e-17 8.393806483208957e-17
  outer loop
    vertex -18.500000000000004 8.211145618000169 4.894427190999916
    vertex -18.500000000000004 -7.763932022500208 14.0
    vertex -18.500000000000004 8.658359213500125 5.7888543819998315
  endloop
endfacet
facet normal 1.5640934905361425e-16 0.44721359549995804 0.8944271909999159
  outer loop
    vertex 18.499999999999996 -33.76393202250021 13.999999999999996
    vertex 10.000000000000004 -17.341640786499873 5.7888543819998315
    vertex 10.000000000000004 -33.76393202250021 14.000000000000002
  endloop
endfacet
facet normal 1.5640934905361425e-16 0.44721359549995804 0.8944271909999159
  outer loop
    vertex 10.000000000000004 -17.341640786499873 5.7888543819998315
    vertex 18.499999999999996 -33.76393202250021 13.999999999999996
    vertex 18.500000000000004 -17.341640786499873 5.7888543819998315
  endloop
endfacet
facet normal 0.0 0.894427190999916 -0.4472135954999581
  outer loop
    vertex 10.000000000000004 -17.341640786499873 5.7888543819998315
    vertex 18.500000000000004 -17.788854381999833 4.894427190999916
    vertex 10.000000000000004 -17.788854381999833 4.894427190999916
  endloop
endfacet
facet normal 0.0 0.894427190999916 -0.4472135954999581
  outer loop
    vertex 18.500000000000004 -17.788854381999833 4.894427190999916
    vertex 10.000000000000004 -17.341640786499873 5.7888543819998315
    vertex 18.500000000000004 -17.341640786499873 5.7888543819998315
  endloop
endfacet
facet normal -1.0 1.3863469774205296e-16 1.0555361952916043e-16
  outer loop
    vertex 10.000000000000004 -33.76393202250021 14.000000000000002
    vertex 10.000000000000004 -17.788854381999833 4.894427190999916
    vertex 10.000000000000004 -34.21114561800017 13.105572809000085
  endloop
endfacet
facet normal -1.0 1.3863469774205296e-16 1.0555361952916043e-16
  outer loop
    vertex 10.000000000000004 -17.788854381999833 4.894427190999916
    vertex 10.000000000000004 -33.76393202250021 14.000000000000002
    vertex 10.000000000000004 -17.341640786499873 5.7888543819998315
  endloop
endfacet
facet normal 1.5764091873120195e-16 -0.8944271909999157 0.44721359549995804
  outer loop
    vertex 18.499999999999996 -33.76393202250021 13.999999999999996
    vertex 10.000000000000004 -34.21114561800017 13.105572809000085
    vertex 18.499999999999996 -34.21114561800017 13.105572809000083
  endloop
endfacet
facet normal 1.5764091873120195e-16 -0.8944271909999157 0.44721359549995804
  outer loop
    vertex 10.000000000000004 -34.21114561800017 13.105572809000085
    vertex 18.499999999999996 -33.76393202250021 13.999999999999996
    vertex 10.000000000000004 -33.76393202250021 14.000000000000002
  endloop
endfacet
facet normal 1.0 -3.4469362888798742e-16 -2.524153956193162e-18
  outer loop
    vertex 18.500000000000004 -17.788854381999833 4.894427190999916
    vertex 18.499999999999996 -33.76393202250021 13.999999999999996
    vertex 18.499999999999996 -34.21114561800017 13.105572809000083
  endloop
endfacet
facet normal 1.0 -3.4469362888798742e-16 -2.524153956193162e-18
  outer loop
    vertex 18.499999999999996 -33.76393202250021 13.999999999999996
    vertex 18.500000000000004 -17.788854381999833 4.894427190999916
    vertex 18.500000000000004 -17.341640786499873 5.7888543819998315
  endloop
endfacet
facet normal 0.0 0.4472135954999581 0.8944271909999159
  outer loop
    vertex 9.000000000000004 -33.76393202250021 14.000000000000002
    vertex 0.5000000000000052 -17.341640786499873 5.7888543819998315
    vertex 0.5000000000000052 -33.76393202250021 14.000000000000002
  endloop
endfacet
facet normal 0.0 0.4472135954999581 0.8944271909999159
  outer loop
    vertex 0.5000000000000052 -17.341640786499873 5.7888543819998315
    vertex 9.000000000000004 -33.76393202250021 14.000000000000002
    vertex 9.000000000000005 -17.341640786499873 5.7888543819998315
  endloop
endfacet
facet normal 0.0 0.8944271909999157 -0.4472135954999581
  outer loop
    vertex 0.5000000000000052 -17.341640786499873 5.7888543819998315
    vertex 9.000000000000005 -17.788854381999833 4.894427190999916
    vertex 0.5000000000000052 -17.788854381999833 4.894427190999916
  endloop
endfacet
facet normal 0.0 0.8944271909999157 -0.4472135954999581
  outer loop
    vertex 9.000000000000005 -17.788854381999833 4.894427190999916
    vertex 0.5000000000000052 -17.341640786499873 5.7888543819998315
    vertex 9.000000000000005 -17.341640786499873 5.7888543819998315
  endloop
endfacet
facet normal -1.0 0.0 0.0
  outer loop
    vertex 0.5000000000000052 -33.76393202250021 14.000000000000002
    vertex 0.5000000000000052 -17.788854381999833 4.894427190999916
    vertex 0.5000000000000052 -34.21114561800017 13.105572809000085
  endloop
endfacet
facet normal -1.0 0.0 0.0
  outer loop
    vertex 0.5000000000000052 -17.788854381999833 4.894427190999916
    vertex 0.5000000000000052 -33.76393202250021 14.000000000000002
    vertex 0.5000000000000052 -17.341640786499873 5.7888543819998315
  endloop
endfacet
facet normal 0.0 -0.8944271909999159 0.4472135954999581
  outer loop
    vertex 9.000000000000004 -33.76393202250021 14.000000000000002
    vertex 0.5000000000000052 -34.21114561800017 13.105572809000085
    vertex 9.000000000000004 -34.21114561800017 13.105572809000085
  endloop
endfacet
facet normal 0.0 -0.8944271909999159 0.4472135954999581
  outer loop
    vertex 0.5000000000000052 -34.21114561800017 13.105572809000085
    vertex 9.000000000000004 -33.76393202250021 14.000000000000002
    vertex 0.5000000000000052 -33.76393202250021 14.000000000000002
  endloop
endfacet
facet normal 1.0 -6.868631038197816e-17 3.434315519098909e-17
  outer loop
    vertex 9.000000000000005 -17.788854381999833 4.894427190999916
    vertex 9.000000000000004 -33.76393202250021 14.000000000000002
    vertex 9.000000000000004 -34.21114561800017 13.105572809000085
  endloop
endfacet
facet normal 1.0 -6.868631038197816e-17 3.434315519098909e-17
  outer loop
    vertex 9.000000000000004 -33.76393202250021 14.000000000000002
    vertex 9.000000000000005 -17.788854381999833 4.894427190999916
    vertex 9.000000000000005 -17.341640786499873 5.7888543819998315
  endloop
endfacet
facet normal -9.969746459017793e-32 0.4472135954999581 0.8944271909999159
  outer loop
    vertex -0.4999999999999957 -33.76393202250021 14.000000000000002
    vertex -8.999999999999995 -17.341640786499873 5.7888543819998315
    vertex -8.999999999999996 -33.76393202250021 14.000000000000002
  endloop
endfacet
facet normal -9.969746459017793e-32 0.4472135954999581 0.8944271909999159
  outer loop
    vertex -8.999999999999995 -17.341640786499873 5.7888543819998315
    vertex -0.4999999999999957 -33.76393202250021 14.000000000000002
    vertex -0.49999999999999467 -17.341640786499873 5.7888543819998315
  endloop
endfacet
facet normal 0.0 0.8944271909999157 -0.4472135954999581
  outer loop
    vertex -8.999999999999995 -17.341640786499873 5.7888543819998315
    vertex -0.49999999999999467 -17.788854381999833 4.894427190999916
    vertex -8.999999999999995 -17.788854381999833 4.894427190999916
  endloop
endfacet
facet normal 0.0 0.8944271909999157 -0.4472135954999581
  outer loop
    vertex -0.49999999999999467 -17.788854381999833 4.894427190999916
    vertex -8.999999999999995 -17.341640786499873 5.7888543819998315
    vertex -0.49999999999999467 -17.341640786499873 5.7888543819998315
  endloop
endfacet
facet normal -1.0 6.868631038197812e-17 -3.4343155190989184e-17
  outer loop
    vertex -8.999999999999996 -33.76393202250021 14.000000000000002
    vertex -8.999999999999995 -17.788854381999833 4.894427190999916
    vertex -8.999999999999996 -34.21114561800017 13.105572809000085
  endloop
endfacet
facet normal -1.0 6.868631038197812e-17 -3.4343155190989184e-17
  outer loop
    vertex -8.999999999999995 -17.788854381999833 4.894427190999916
    vertex -8.999999999999996 -33.76393202250021 14.000000000000002
    vertex -8.999999999999995 -17.341640786499873 5.7888543819998315
  endloop
endfacet
facet normal 0.0 -0.8944271909999157 0.44721359549995804
  outer loop
    vertex -0.4999999999999957 -33.76393202250021 14.000000000000002
    vertex -8.999999999999996 -34.21114561800017 13.105572809000085
    vertex -0.4999999999999957 -34.21114561800017 13.105572809000085
  endloop
endfacet
facet normal 0.0 -0.8944271909999157 0.44721359549995804
  outer loop
    vertex -8.999999999999996 -34.21114561800017 13.105572809000085
    vertex -0.4999999999999957 -33.76393202250021 14.000000000000002
    vertex -8.999999999999996 -33.76393202250021 14.000000000000002
  endloop
endfacet
facet normal 1.0 -5.151473278648358e-17 2.575736639324191e-17
  outer loop
    vertex -0.49999999999999467 -17.788854381999833 4.894427190999916
    vertex -0.4999999999999957 -33.76393202250021 14.000000000000002
    vertex -0.4999999999999957 -34.21114561800017 13.105572809000085
  endloop
endfacet
facet normal 1.0 -5.151473278648358e-17 2.575736639324191e-17
  outer loop
    vertex -0.4999999999999957 -33.76393202250021 14.000000000000002
    vertex -0.49999999999999467 -17.788854381999833 4.894427190999916
    vertex -0.49999999999999467 -17.341640786499873 5.7888543819998315
  endloop
endfacet
facet normal -1.5640934905361398e-16 0.4472135954999579 0.8944271909999159
  outer loop
    vertex -9.999999999999996 -33.76393202250021 14.000000000000002
    vertex -18.500000000000004 -17.341640786499873 5.7888543819998315
    vertex -18.500000000000004 -33.76393202250021 14.0
  endloop
endfacet
facet normal -1.5640934905361398e-16 0.4472135954999579 0.8944271909999159
  outer loop
    vertex -18.500000000000004 -17.341640786499873 5.7888543819998315
    vertex -9.999999999999996 -33.76393202250021 14.000000000000002
    vertex -9.999999999999995 -17.341640786499873 5.7888543819998315
  endloop
endfacet
facet normal -1.576409187312017e-16 -0.8944271909999159 0.4472135954999579
  outer loop
    vertex -9.999999999999996 -34.21114561800017 13.105572809000085
    vertex -18.500000000000004 -33.76393202250021 14.0
    vertex -18.500000000000004 -34.21114561800017 13.105572809000083
  endloop
endfacet
facet normal -1.576409187312017e-16 -0.8944271909999159 0.4472135954999579
  outer loop
    vertex -18.500000000000004 -33.76393202250021 14.0
    vertex -9.999999999999996 -34.21114561800017 13.105572809000085
    vertex -9.999999999999996 -33.76393202250021 14.000000000000002
  endloop
endfacet
facet normal 1.0 -6.742423340388168e-17 2.0858308510212748e-16
  outer loop
    vertex -9.999999999999995 -17.788854381999833 4.894427190999916
    vertex -9.999999999999996 -33.76393202250021 14.000000000000002
    vertex -9.999999999999996 -34.21114561800017 13.105572809000085
  endloop
endfacet
facet normal 1.0 -6.742423340388168e-17 2.0858308510212748e-16
  outer loop
    vertex -9.999999999999996 -33.76393202250021 14.000000000000002
    vertex -9.999999999999995 -17.788854381999833 4.894427190999916
    vertex -9.999999999999995 -17.341640786499873 5.7888543819998315
  endloop
endfacet
facet normal 0.0 0.8944271909999159 -0.4472135954999579
  outer loop
    vertex -18.500000000000004 -17.341640786499873 5.7888543819998315
    vertex -9.999999999999995 -17.788854381999833 4.894427190999916
    vertex -18.500000000000004 -17.788854381999833 4.894427190999916
  endloop
endfacet
facet normal 0.0 0.8944271909999159 -0.4472135954999579
  outer loop
    vertex -9.999999999999995 -17.788854381999833 4.894427190999916
    vertex -18.500000000000004 -17.341640786499873 5.7888543819998315
    vertex -9.999999999999995 -17.341640786499873 5.7888543819998315
  endloop
endfacet
facet normal -1.0 -6.994838736007465e-17 -1.398967747201493e-16
  outer loop
    vertex -18.500000000000004 -33.76393202250021 14.0
    vertex -18.500000000000004 -17.788854381999833 4.894427190999916
    vertex -18.500000000000004 -34.21114561800017 13.105572809000083
  endloop
endfacet
facet normal -1.0 -6.994838736007465e-17 -1.398967747201493e-16
  outer loop
    vertex -18.500000000000004 -17.788854381999833 4.894427190999916
    vertex -18.500000000000004 -33.76393202250021 14.0
    vertex -18.500000000000004 -17.341640786499873 5.7888543819998315
  endloop
endfacet
facet normal -4.970131851683474e-33 1.0 3.2936280830824815e-63
  outer loop
    vertex -20.000000000000004 10.0 3.9999999999999996
    vertex 20.000000000000004 10.0 1.9999999999999998
    vertex -20.000000000000004 10.0 1.9999999999999998
  endloop
endfacet
facet normal -4.970131851683474e-33 1.0 3.2936280830824815e-63
  outer loop
    vertex 20.000000000000004 10.0 1.9999999999999998
    vertex -20.000000000000004 10.0 3.9999999999999996
    vertex 20.000000000000004 10.0 3.9999999999999996
  endloop
endfacet
endsolid RFIDtagholderSolarPlant
