solid RFIDtagholderTF_ML
facet normal 0.0 0.0 -1.0
  outer loop
    vertex 64.51172300000003 44.00000000000001 0.0
    vertex 8.511722999999996 -43.99999999999999 0.0
    vertex 8.511722999999996 44.00000000000001 0.0
  endloop
endfacet
facet normal 0.0 0.0 -1.0
  outer loop
    vertex 8.511722999999996 -43.99999999999999 0.0
    vertex 64.51172300000003 44.00000000000001 0.0
    vertex 64.51172300000003 -43.99999999999999 0.0
  endloop
endfacet
facet normal 6.794965881471771e-05 9.550236297893718e-21 -0.999999997691422
  outer loop
    vertex -66.49851041084857 45.997271199892715 -2.009037999999998
    vertex -64.49851041084852 43.99727119989272 -2.009037999999998
    vertex -66.49851041084857 -46.002728800107285 -2.009037999999998
  endloop
endfacet
facet normal 6.794965881471771e-05 9.550236297893718e-21 -0.999999997691422
  outer loop
    vertex -64.49851041084852 43.99727119989272 -2.009037999999998
    vertex -66.49851041084857 45.997271199892715 -2.009037999999998
    vertex 66.51172300000005 46.000000000000014 -1.9999999999999998
  endloop
endfacet
facet normal 6.794965881471771e-05 9.550236297893718e-21 -0.999999997691422
  outer loop
    vertex -64.49851041084852 43.99727119989272 -2.009037999999998
    vertex 66.51172300000005 46.000000000000014 -1.9999999999999998
    vertex -8.498510410848604 43.99727119989272 -2.009037999999998
  endloop
endfacet
facet normal 6.794965881471771e-05 9.550236297893718e-21 -0.999999997691422
  outer loop
    vertex -8.498510410848604 43.99727119989272 -2.009037999999998
    vertex 66.51172300000005 46.000000000000014 -1.9999999999999998
    vertex 8.511722999999996 44.00000000000001 -1.9999999999999998
  endloop
endfacet
facet normal 6.794965881471771e-05 9.550236297893718e-21 -0.999999997691422
  outer loop
    vertex -8.498510410848604 43.99727119989272 -2.009037999999998
    vertex 8.511722999999996 44.00000000000001 -1.9999999999999998
    vertex -8.498510410848604 -44.00272880010728 -2.009037999999998
  endloop
endfacet
facet normal 6.794965881471771e-05 9.550236297893718e-21 -0.999999997691422
  outer loop
    vertex 8.511722999999996 44.00000000000001 -1.9999999999999998
    vertex 66.51172300000005 46.000000000000014 -1.9999999999999998
    vertex 64.51172300000003 44.00000000000001 -1.9999999999999998
  endloop
endfacet
facet normal 6.794965881471771e-05 9.550236297893718e-21 -0.999999997691422
  outer loop
    vertex 64.51172300000003 44.00000000000001 -1.9999999999999998
    vertex 66.51172300000005 46.000000000000014 -1.9999999999999998
    vertex 64.51172300000003 -43.99999999999999 -1.9999999999999998
  endloop
endfacet
facet normal 6.794965881471771e-05 9.550236297893718e-21 -0.999999997691422
  outer loop
    vertex -66.49851041084857 -46.002728800107285 -2.009037999999998
    vertex -64.49851041084852 -44.00272880010728 -2.009037999999998
    vertex 66.51172300000005 -45.999999999999986 -1.9999999999999998
  endloop
endfacet
facet normal 6.794965881471771e-05 9.550236297893718e-21 -0.999999997691422
  outer loop
    vertex -64.49851041084852 -44.00272880010728 -2.009037999999998
    vertex -66.49851041084857 -46.002728800107285 -2.009037999999998
    vertex -64.49851041084852 43.99727119989272 -2.009037999999998
  endloop
endfacet
facet normal 6.794965881471771e-05 9.550236297893718e-21 -0.999999997691422
  outer loop
    vertex 66.51172300000005 -45.999999999999986 -1.9999999999999998
    vertex -64.49851041084852 -44.00272880010728 -2.009037999999998
    vertex -8.498510410848604 -44.00272880010728 -2.009037999999998
  endloop
endfacet
facet normal 6.794965881471771e-05 9.550236297893718e-21 -0.999999997691422
  outer loop
    vertex 66.51172300000005 -45.999999999999986 -1.9999999999999998
    vertex -8.498510410848604 -44.00272880010728 -2.009037999999998
    vertex 8.511722999999996 -43.99999999999999 -1.9999999999999998
  endloop
endfacet
facet normal 6.794965881471771e-05 9.550236297893718e-21 -0.999999997691422
  outer loop
    vertex 8.511722999999996 -43.99999999999999 -1.9999999999999998
    vertex -8.498510410848604 -44.00272880010728 -2.009037999999998
    vertex 8.511722999999996 44.00000000000001 -1.9999999999999998
  endloop
endfacet
facet normal 6.794965881471771e-05 9.550236297893718e-21 -0.999999997691422
  outer loop
    vertex 66.51172300000005 -45.999999999999986 -1.9999999999999998
    vertex 8.511722999999996 -43.99999999999999 -1.9999999999999998
    vertex 64.51172300000003 -43.99999999999999 -1.9999999999999998
  endloop
endfacet
facet normal 6.794965881471771e-05 9.550236297893718e-21 -0.999999997691422
  outer loop
    vertex 66.51172300000005 -45.999999999999986 -1.9999999999999998
    vertex 64.51172300000003 -43.99999999999999 -1.9999999999999998
    vertex 66.51172300000005 46.000000000000014 -1.9999999999999998
  endloop
endfacet
facet normal 1.0 -0.0 -0.0
  outer loop
    vertex 66.51172300000005 46.000000000000014 -1.9999999999999998
    vertex 66.51172300000005 -45.999999999999986 2.0000000000000004
    vertex 66.51172300000005 -45.999999999999986 -1.9999999999999998
  endloop
endfacet
facet normal 1.0 -0.0 -0.0
  outer loop
    vertex 66.51172300000005 -45.999999999999986 2.0000000000000004
    vertex 66.51172300000005 46.000000000000014 -1.9999999999999998
    vertex 66.51172300000005 46.000000000000014 2.0000000000000004
  endloop
endfacet
facet normal -0.0 1.0 -0.0
  outer loop
    vertex 8.511722999999996 -43.99999999999999 0.0
    vertex 64.51172300000003 -43.99999999999999 -1.9999999999999998
    vertex 8.511722999999996 -43.99999999999999 -1.9999999999999998
  endloop
endfacet
facet normal -0.0 1.0 -0.0
  outer loop
    vertex 64.51172300000003 -43.99999999999999 -1.9999999999999998
    vertex 8.511722999999996 -43.99999999999999 0.0
    vertex 64.51172300000003 -43.99999999999999 0.0
  endloop
endfacet
facet normal -1.0 0.0 0.0
  outer loop
    vertex 64.51172300000003 44.00000000000001 0.0
    vertex 64.51172300000003 -43.99999999999999 -1.9999999999999998
    vertex 64.51172300000003 -43.99999999999999 0.0
  endloop
endfacet
facet normal -1.0 0.0 0.0
  outer loop
    vertex 64.51172300000003 -43.99999999999999 -1.9999999999999998
    vertex 64.51172300000003 44.00000000000001 0.0
    vertex 64.51172300000003 44.00000000000001 -1.9999999999999998
  endloop
endfacet
facet normal 0.0 -1.0 0.0
  outer loop
    vertex 64.51172300000003 44.00000000000001 0.0
    vertex 8.511722999999996 44.00000000000001 -1.9999999999999998
    vertex 64.51172300000003 44.00000000000001 -1.9999999999999998
  endloop
endfacet
facet normal 0.0 -1.0 0.0
  outer loop
    vertex 8.511722999999996 44.00000000000001 -1.9999999999999998
    vertex 64.51172300000003 44.00000000000001 0.0
    vertex 8.511722999999996 44.00000000000001 0.0
  endloop
endfacet
facet normal 1.0 -0.0 -0.0
  outer loop
    vertex 8.511722999999996 44.00000000000001 -1.9999999999999998
    vertex 8.511722999999996 -43.99999999999999 0.0
    vertex 8.511722999999996 -43.99999999999999 -1.9999999999999998
  endloop
endfacet
facet normal 1.0 -0.0 -0.0
  outer loop
    vertex 8.511722999999996 -43.99999999999999 0.0
    vertex 8.511722999999996 44.00000000000001 -1.9999999999999998
    vertex 8.511722999999996 44.00000000000001 0.0
  endloop
endfacet
facet normal -0.0 1.0 -0.0
  outer loop
    vertex -64.49851041084852 -44.00272880010728 -0.009037999999999468
    vertex -8.498510410848604 -44.00272880010728 -2.009037999999998
    vertex -64.49851041084852 -44.00272880010728 -2.009037999999998
  endloop
endfacet
facet normal -0.0 1.0 -0.0
  outer loop
    vertex -8.498510410848604 -44.00272880010728 -2.009037999999998
    vertex -64.49851041084852 -44.00272880010728 -0.009037999999999468
    vertex -8.498510410848604 -44.00272880010728 -0.009037999999999468
  endloop
endfacet
facet normal -2.0515715496046287e-05 0.9999999997895528 -3.1137596377107507e-22
  outer loop
    vertex -66.49851041084857 45.997271199892715 1.9909619999999997
    vertex 66.51172300000005 46.000000000000014 -1.9999999999999998
    vertex -66.49851041084857 45.997271199892715 -2.009037999999998
  endloop
endfacet
facet normal -2.0515715496046287e-05 0.9999999997895528 -3.1137596377107507e-22
  outer loop
    vertex 66.51172300000005 46.000000000000014 -1.9999999999999998
    vertex -66.49851041084857 45.997271199892715 1.9909619999999997
    vertex 66.51172300000005 46.000000000000014 2.0000000000000004
  endloop
endfacet
facet normal 0.0 0.0 -1.0
  outer loop
    vertex -8.498510410848604 43.99727119989272 -0.009037999999999468
    vertex -64.49851041084852 -44.00272880010728 -0.009037999999999468
    vertex -64.49851041084852 43.99727119989272 -0.009037999999999468
  endloop
endfacet
facet normal 0.0 0.0 -1.0
  outer loop
    vertex -64.49851041084852 -44.00272880010728 -0.009037999999999468
    vertex -8.498510410848604 43.99727119989272 -0.009037999999999468
    vertex -8.498510410848604 -44.00272880010728 -0.009037999999999468
  endloop
endfacet
facet normal -1.0 0.0 0.0
  outer loop
    vertex -8.498510410848604 43.99727119989272 -0.009037999999999468
    vertex -8.498510410848604 -44.00272880010728 -2.009037999999998
    vertex -8.498510410848604 -44.00272880010728 -0.009037999999999468
  endloop
endfacet
facet normal -1.0 0.0 0.0
  outer loop
    vertex -8.498510410848604 -44.00272880010728 -2.009037999999998
    vertex -8.498510410848604 43.99727119989272 -0.009037999999999468
    vertex -8.498510410848604 43.99727119989272 -2.009037999999998
  endloop
endfacet
facet normal 2.0515715496046287e-05 -0.9999999997895528 3.1137596377107507e-22
  outer loop
    vertex 66.51172300000005 -45.999999999999986 -1.9999999999999998
    vertex -66.49851041084857 -46.002728800107285 1.9909619999999997
    vertex -66.49851041084857 -46.002728800107285 -2.009037999999998
  endloop
endfacet
facet normal 2.0515715496046287e-05 -0.9999999997895528 3.1137596377107507e-22
  outer loop
    vertex -66.49851041084857 -46.002728800107285 1.9909619999999997
    vertex 66.51172300000005 -45.999999999999986 -1.9999999999999998
    vertex 66.51172300000005 -45.999999999999986 2.0000000000000004
  endloop
endfacet
facet normal 1.0 -0.0 -0.0
  outer loop
    vertex -64.49851041084852 43.99727119989272 -2.009037999999998
    vertex -64.49851041084852 -44.00272880010728 -0.009037999999999468
    vertex -64.49851041084852 -44.00272880010728 -2.009037999999998
  endloop
endfacet
facet normal 1.0 -0.0 -0.0
  outer loop
    vertex -64.49851041084852 -44.00272880010728 -0.009037999999999468
    vertex -64.49851041084852 43.99727119989272 -2.009037999999998
    vertex -64.49851041084852 43.99727119989272 -0.009037999999999468
  endloop
endfacet
facet normal -1.0 0.0 0.0
  outer loop
    vertex -66.49851041084857 45.997271199892715 1.9909619999999997
    vertex -66.49851041084857 -46.002728800107285 -2.009037999999998
    vertex -66.49851041084857 -46.002728800107285 1.9909619999999997
  endloop
endfacet
facet normal -1.0 0.0 0.0
  outer loop
    vertex -66.49851041084857 -46.002728800107285 -2.009037999999998
    vertex -66.49851041084857 45.997271199892715 1.9909619999999997
    vertex -66.49851041084857 45.997271199892715 -2.009037999999998
  endloop
endfacet
facet normal 0.0 -1.0 0.0
  outer loop
    vertex -8.498510410848604 43.99727119989272 -0.009037999999999468
    vertex -64.49851041084852 43.99727119989272 -2.009037999999998
    vertex -8.498510410848604 43.99727119989272 -2.009037999999998
  endloop
endfacet
facet normal 0.0 -1.0 0.0
  outer loop
    vertex -64.49851041084852 43.99727119989272 -2.009037999999998
    vertex -8.498510410848604 43.99727119989272 -0.009037999999999468
    vertex -64.49851041084852 43.99727119989272 -0.009037999999999468
  endloop
endfacet
facet normal -5.9826352883908346e-05 -6.882776620879918e-06 0.9999999981867176
  outer loop
    vertex -66.49851041084857 -46.002728800107285 1.9909619999999997
    vertex -5.993393690310109 -6.001487494346333 1.9950733020471976
    vertex -66.49851041084857 45.997271199892715 1.9909619999999997
  endloop
endfacet
facet normal -5.9826352883908346e-05 -6.882776620879918e-06 0.9999999981867176
  outer loop
    vertex -5.993393690310109 -6.001487494346333 1.9950733020471976
    vertex -66.49851041084857 -46.002728800107285 1.9909619999999997
    vertex 66.51172300000005 -45.999999999999986 2.0000000000000004
  endloop
endfacet
facet normal -5.9826352883908346e-05 -6.882776620879918e-06 0.9999999981867176
  outer loop
    vertex -66.49851041084857 45.997271199892715 1.9909619999999997
    vertex -5.993393690310109 -6.001487494346333 1.9950733020471976
    vertex -5.99339369031011 5.998758682659543 1.99548099372693
  endloop
endfacet
facet normal -5.9826352883908346e-05 -6.882776620879918e-06 0.9999999981867176
  outer loop
    vertex -5.993393690310109 -6.001487494346333 1.9950733020471976
    vertex 66.51172300000005 -45.999999999999986 2.0000000000000004
    vertex 6.0066062945757395 -6.001487494346333 1.995277151023599
  endloop
endfacet
facet normal -5.9826352883908346e-05 -6.882776620879918e-06 0.9999999981867176
  outer loop
    vertex -5.99339369031011 5.998758682659543 1.99548099372693
    vertex 66.51172300000005 46.000000000000014 2.0000000000000004
    vertex -66.49851041084857 45.997271199892715 1.9909619999999997
  endloop
endfacet
facet normal -5.9826352883908346e-05 -6.882776620879918e-06 0.9999999981867176
  outer loop
    vertex 66.51172300000005 46.000000000000014 2.0000000000000004
    vertex -5.99339369031011 5.998758682659543 1.99548099372693
    vertex 6.006360059386818 5.998758682659543 1.9958886686760926
  endloop
endfacet
facet normal -5.9826352883908346e-05 -6.882776620879918e-06 0.9999999981867176
  outer loop
    vertex 66.51172300000005 46.000000000000014 2.0000000000000004
    vertex 6.006360059386818 5.998758682659543 1.9958886686760926
    vertex 6.0066062945757395 -6.001487494346333 1.995277151023599
  endloop
endfacet
facet normal -5.9826352883908346e-05 -6.882776620879918e-06 0.9999999981867176
  outer loop
    vertex 66.51172300000005 46.000000000000014 2.0000000000000004
    vertex 6.0066062945757395 -6.001487494346333 1.995277151023599
    vertex 66.51172300000005 -45.999999999999986 2.0000000000000004
  endloop
endfacet
facet normal -6.611531324432319e-06 -0.9999999994991451 -3.095153480566211e-05
  outer loop
    vertex 21.00529376783803 -6.003491907446289 63.995277091534206
    vertex 6.005049160275429 -6.003186157402201 51.99527709792236
    vertex 21.005049160275426 -6.003186157402201 51.99527709792236
  endloop
endfacet
facet normal -6.611531324432319e-06 -0.9999999994991451 -3.095153480566211e-05
  outer loop
    vertex 6.005049160275429 -6.003186157402201 51.99527709792236
    vertex 21.00529376783803 -6.003491907446289 63.995277091534206
    vertex -20.99495082461042 -6.002939980396326 51.9954809406257
  endloop
endfacet
facet normal -6.611531324432319e-06 -0.9999999994991451 -3.095153480566211e-05
  outer loop
    vertex -20.99495082461042 -6.002939980396326 51.9954809406257
    vertex 21.00529376783803 -6.003491907446289 63.995277091534206
    vertex -20.994733391278295 -6.003143827629995 63.995480936924416
  endloop
endfacet
facet normal -6.611531324432319e-06 -0.9999999994991451 -3.095153480566211e-05
  outer loop
    vertex 6.0066062945757395 -6.001487494346333 1.995277151023599
    vertex -5.994950824610418 -6.003186157402201 51.995073248945964
    vertex -5.993393690310109 -6.001487494346333 1.9950733020471976
  endloop
endfacet
facet normal -6.611531324432319e-06 -0.9999999994991451 -3.095153480566211e-05
  outer loop
    vertex -5.994950824610418 -6.003186157402201 51.995073248945964
    vertex 6.0066062945757395 -6.001487494346333 1.995277151023599
    vertex 6.005049160275429 -6.003186157402201 51.99527709792236
  endloop
endfacet
facet normal -6.611531324432319e-06 -0.9999999994991451 -3.095153480566211e-05
  outer loop
    vertex -5.994950824610418 -6.003186157402201 51.995073248945964
    vertex 6.005049160275429 -6.003186157402201 51.99527709792236
    vertex -20.99495082461042 -6.002939980396326 51.9954809406257
  endloop
endfacet
facet normal 0.9999999993045592 2.0517591088525172e-05 3.114338306709954e-05
  outer loop
    vertex 6.0066062945757395 -6.001487494346333 1.995277151023599
    vertex 6.0048029250865085 5.9970600196036745 51.995888615574856
    vertex 6.005049160275429 -6.003186157402201 51.99527709792236
  endloop
endfacet
facet normal 0.9999999993045592 2.0517591088525172e-05 3.114338306709954e-05
  outer loop
    vertex 6.0048029250865085 5.9970600196036745 51.995888615574856
    vertex 6.0066062945757395 -6.001487494346333 1.995277151023599
    vertex 6.006360059386818 5.998758682659543 1.9958886686760926
  endloop
endfacet
facet normal 1.3895351140629783e-06 0.9999999994873257 3.1990908130201304e-05
  outer loop
    vertex -20.994733391278295 5.996856172370006 63.995480936924416
    vertex -5.994950824610419 5.9970600196036745 51.9954809406257
    vertex -20.99495082461042 5.9970600196036745 51.9954809406257
  endloop
endfacet
facet normal 1.3895351140629783e-06 0.9999999994873257 3.1990908130201304e-05
  outer loop
    vertex -5.994950824610419 5.9970600196036745 51.9954809406257
    vertex -20.994733391278295 5.996856172370006 63.995480936924416
    vertex 6.0048029250865085 5.9970600196036745 51.995888615574856
  endloop
endfacet
facet normal 1.3895351140629783e-06 0.9999999994873257 3.1990908130201304e-05
  outer loop
    vertex 6.0048029250865085 5.9970600196036745 51.995888615574856
    vertex -20.994733391278295 5.996856172370006 63.995480936924416
    vertex 21.00529376783803 5.996754269559586 63.995277091534206
  endloop
endfacet
facet normal 1.3895351140629783e-06 0.9999999994873257 3.1990908130201304e-05
  outer loop
    vertex 21.00529376783803 5.996754269559586 63.995277091534206
    vertex 21.005049160275426 5.9970600196036745 51.99527709792236
    vertex 6.0048029250865085 5.9970600196036745 51.995888615574856
  endloop
endfacet
facet normal 1.3895351140629783e-06 0.9999999994873257 3.1990908130201304e-05
  outer loop
    vertex -5.994950824610419 5.9970600196036745 51.9954809406257
    vertex 6.006360059386818 5.998758682659543 1.9958886686760926
    vertex -5.99339369031011 5.998758682659543 1.99548099372693
  endloop
endfacet
facet normal 1.3895351140629783e-06 0.9999999994873257 3.1990908130201304e-05
  outer loop
    vertex 6.006360059386818 5.998758682659543 1.9958886686760926
    vertex -5.994950824610419 5.9970600196036745 51.9954809406257
    vertex 6.0048029250865085 5.9970600196036745 51.995888615574856
  endloop
endfacet
facet normal -0.9999999995150666 1.0580366347060134e-09 -3.114268598776996e-05
  outer loop
    vertex -5.994950824610419 5.9970600196036745 51.9954809406257
    vertex -5.993393690310109 -6.001487494346333 1.9950733020471976
    vertex -5.994950824610418 -6.003186157402201 51.995073248945964
  endloop
endfacet
facet normal -0.9999999995150666 1.0580366347060134e-09 -3.114268598776996e-05
  outer loop
    vertex -5.993393690310109 -6.001487494346333 1.9950733020471976
    vertex -5.994950824610419 5.9970600196036745 51.9954809406257
    vertex -5.99339369031011 5.998758682659543 1.99548099372693
  endloop
endfacet
facet normal -1.8119444343831217e-05 1.6987269472394053e-05 -0.9999999996915594
  outer loop
    vertex -5.994950824610419 5.9970600196036745 51.9954809406257
    vertex -20.99495082461042 -6.002939980396326 51.9954809406257
    vertex -20.99495082461042 5.9970600196036745 51.9954809406257
  endloop
endfacet
facet normal -1.8119444343831217e-05 1.6987269472394053e-05 -0.9999999996915594
  outer loop
    vertex -20.99495082461042 -6.002939980396326 51.9954809406257
    vertex -5.994950824610419 5.9970600196036745 51.9954809406257
    vertex -5.994950824610418 -6.003186157402201 51.995073248945964
  endloop
endfacet
facet normal -2.038396354999476e-05 2.547917034064809e-05 -0.999999999467653
  outer loop
    vertex 21.005049160275426 5.9970600196036745 51.99527709792236
    vertex 6.005049160275429 -6.003186157402201 51.99527709792236
    vertex 6.0048029250865085 5.9970600196036745 51.995888615574856
  endloop
endfacet
facet normal -2.038396354999476e-05 2.547917034064809e-05 -0.999999999467653
  outer loop
    vertex 6.005049160275429 -6.003186157402201 51.99527709792236
    vertex 21.005049160275426 5.9970600196036745 51.99527709792236
    vertex 21.005049160275426 -6.003186157402201 51.99527709792236
  endloop
endfacet
facet normal -0.999999999835843 0.0 1.8119444346445554e-05
  outer loop
    vertex -20.994733391278295 5.996856172370006 63.995480936924416
    vertex -20.99495082461042 -6.002939980396326 51.9954809406257
    vertex -20.994733391278295 -6.003143827629995 63.995480936924416
  endloop
endfacet
facet normal -0.999999999835843 0.0 1.8119444346445554e-05
  outer loop
    vertex -20.99495082461042 -6.002939980396326 51.9954809406257
    vertex -20.994733391278295 5.996856172370006 63.995480936924416
    vertex -20.99495082461042 5.9970600196036745 51.9954809406257
  endloop
endfacet
facet normal 0.9999999997922472 0.0 -2.0383963556611278e-05
  outer loop
    vertex 21.005049160275426 -6.003186157402201 51.99527709792236
    vertex 21.00529376783803 5.996754269559586 63.995277091534206
    vertex 21.00529376783803 -6.003491907446289 63.995277091534206
  endloop
endfacet
facet normal 0.9999999997922472 0.0 -2.0383963556611278e-05
  outer loop
    vertex 21.00529376783803 5.996754269559586 63.995277091534206
    vertex 21.005049160275426 -6.003186157402201 51.99527709792236
    vertex 21.005049160275426 5.9970600196036745 51.99527709792236
  endloop
endfacet
facet normal 4.274838954172921e-06 -1.1324725089843355e-05 0.9999999999267382
  outer loop
    vertex 21.00529376783803 -6.003491907446289 63.995277091534206
    vertex -20.994733391278295 5.996856172370006 63.995480936924416
    vertex -20.994733391278295 -6.003143827629995 63.995480936924416
  endloop
endfacet
facet normal 4.274838954172921e-06 -1.1324725089843355e-05 0.9999999999267382
  outer loop
    vertex -20.994733391278295 5.996856172370006 63.995480936924416
    vertex 21.00529376783803 -6.003491907446289 63.995277091534206
    vertex 21.00529376783803 5.996754269559586 63.995277091534206
  endloop
endfacet
facet normal 0.0 0.0 -1.0
  outer loop
    vertex 56.457986391802315 16.752915645469393 1.9980802482940023
    vertex 54.10246082638394 19.39025457581114 1.9980802482940023
    vertex 56.50983530668146 35.76944777181025 1.9980802482940023
  endloop
endfacet
facet normal 0.0 0.0 -1.0
  outer loop
    vertex 54.10246082638394 19.39025457581114 1.9980802482940023
    vertex 56.457986391802315 16.752915645469393 1.9980802482940023
    vertex 53.00972334673043 16.76231739632055 1.9980802482940023
  endloop
endfacet
facet normal 0.0 0.0 -1.0
  outer loop
    vertex 54.10246082638394 19.39025457581114 1.9980802482940023
    vertex 53.00972334673043 16.76231739632055 1.9980802482940023
    vertex 49.215892145422394 30.55304462183131 1.9980802482940023
  endloop
endfacet
facet normal 0.0 0.0 -1.0
  outer loop
    vertex 49.215892145422394 30.55304462183131 1.9980802482940023
    vertex 53.00972334673043 16.76231739632055 1.9980802482940023
    vertex 48.28765000854105 27.362715602547283 1.9980802482940023
  endloop
endfacet
facet normal 0.0 0.0 -1.0
  outer loop
    vertex 49.215892145422394 30.55304462183131 1.9980802482940023
    vertex 48.28765000854105 27.362715602547283 1.9980802482940023
    vertex 47.68333079205712 30.557223177765156 1.9980802482940023
  endloop
endfacet
facet normal 0.0 0.0 -1.0
  outer loop
    vertex 47.68333079205712 30.557223177765156 1.9980802482940023
    vertex 48.28765000854105 27.362715602547283 1.9980802482940023
    vertex 43.6738704358136 16.78777176621756 1.9980802482940023
  endloop
endfacet
facet normal 0.0 0.0 -1.0
  outer loop
    vertex 47.68333079205712 30.557223177765156 1.9980802482940023
    vertex 43.6738704358136 16.78777176621756 1.9980802482940023
    vertex 42.69765008842398 19.421349996218847 1.9980802482940023
  endloop
endfacet
facet normal 0.0 0.0 -1.0
  outer loop
    vertex 42.69765008842398 19.421349996218847 1.9980802482940023
    vertex 43.6738704358136 16.78777176621756 1.9980802482940023
    vertex 40.16175066768483 16.797347623565962 1.9980802482940023
  endloop
endfacet
facet normal 0.0 0.0 -1.0
  outer loop
    vertex 42.69765008842398 19.421349996218847 1.9980802482940023
    vertex 40.16175066768483 16.797347623565962 1.9980802482940023
    vertex 42.74232581561669 35.80698513261597 1.9980802482940023
  endloop
endfacet
facet normal 0.0 0.0 -1.0
  outer loop
    vertex 42.74232581561669 35.80698513261597 1.9980802482940023
    vertex 40.16175066768483 16.797347623565962 1.9980802482940023
    vertex 40.21359958256397 35.81387974990682 1.9980802482940023
  endloop
endfacet
facet normal 0.0 0.0 -1.0
  outer loop
    vertex 54.14713655357665 35.77588971220826 1.9980802482940023
    vertex 56.50983530668146 35.76944777181025 1.9980802482940023
    vertex 54.10246082638394 19.39025457581114 1.9980802482940023
  endloop
endfacet
facet normal 0.0 0.0 1.0
  outer loop
    vertex 40.21359958256397 35.81387974990682 6.998080248294003
    vertex 42.69765008842398 19.421349996218847 6.998080248294003
    vertex 42.74232581561669 35.80698513261597 6.998080248294003
  endloop
endfacet
facet normal 0.0 0.0 1.0
  outer loop
    vertex 54.14713655357665 35.77588971220826 6.998080248294003
    vertex 56.457986391802315 16.752915645469393 6.998080248294003
    vertex 56.50983530668146 35.76944777181025 6.998080248294003
  endloop
endfacet
facet normal 0.0 0.0 1.0
  outer loop
    vertex 56.457986391802315 16.752915645469393 6.998080248294003
    vertex 54.14713655357665 35.77588971220826 6.998080248294003
    vertex 54.10246082638394 19.39025457581114 6.998080248294003
  endloop
endfacet
facet normal 0.0 0.0 1.0
  outer loop
    vertex 56.457986391802315 16.752915645469393 6.998080248294003
    vertex 54.10246082638394 19.39025457581114 6.998080248294003
    vertex 53.00972334673043 16.76231739632055 6.998080248294003
  endloop
endfacet
facet normal 0.0 0.0 1.0
  outer loop
    vertex 53.00972334673043 16.76231739632055 6.998080248294003
    vertex 54.10246082638394 19.39025457581114 6.998080248294003
    vertex 49.215892145422394 30.55304462183131 6.998080248294003
  endloop
endfacet
facet normal 0.0 0.0 1.0
  outer loop
    vertex 53.00972334673043 16.76231739632055 6.998080248294003
    vertex 49.215892145422394 30.55304462183131 6.998080248294003
    vertex 48.28765000854105 27.362715602547283 6.998080248294003
  endloop
endfacet
facet normal 0.0 0.0 1.0
  outer loop
    vertex 48.28765000854105 27.362715602547283 6.998080248294003
    vertex 49.215892145422394 30.55304462183131 6.998080248294003
    vertex 47.68333079205712 30.557223177765156 6.998080248294003
  endloop
endfacet
facet normal 0.0 0.0 1.0
  outer loop
    vertex 48.28765000854105 27.362715602547283 6.998080248294003
    vertex 47.68333079205712 30.557223177765156 6.998080248294003
    vertex 43.6738704358136 16.78777176621756 6.998080248294003
  endloop
endfacet
facet normal 0.0 0.0 1.0
  outer loop
    vertex 43.6738704358136 16.78777176621756 6.998080248294003
    vertex 47.68333079205712 30.557223177765156 6.998080248294003
    vertex 42.69765008842398 19.421349996218847 6.998080248294003
  endloop
endfacet
facet normal 0.0 0.0 1.0
  outer loop
    vertex 43.6738704358136 16.78777176621756 6.998080248294003
    vertex 42.69765008842398 19.421349996218847 6.998080248294003
    vertex 40.16175066768483 16.797347623565962 6.998080248294003
  endloop
endfacet
facet normal 0.0 0.0 1.0
  outer loop
    vertex 40.16175066768483 16.797347623565962 6.998080248294003
    vertex 42.69765008842398 19.421349996218847 6.998080248294003
    vertex 40.21359958256397 35.81387974990682 6.998080248294003
  endloop
endfacet
facet normal 0.00272650774683473 0.9999962830708455 0.0
  outer loop
    vertex 40.21359958256397 35.81387974990682 6.998080248294003
    vertex 42.74232581561669 35.80698513261597 1.9980802482940023
    vertex 40.21359958256397 35.81387974990682 1.9980802482940023
  endloop
endfacet
facet normal 0.00272650774683473 0.9999962830708455 0.0
  outer loop
    vertex 42.74232581561669 35.80698513261597 1.9980802482940023
    vertex 40.21359958256397 35.81387974990682 6.998080248294003
    vertex 42.74232581561669 35.80698513261597 6.998080248294003
  endloop
endfacet
facet normal 0.9999962830708455 -0.00272650774683473 0.0
  outer loop
    vertex 42.69765008842398 19.421349996218847 6.998080248294003
    vertex 42.74232581561669 35.80698513261597 1.9980802482940023
    vertex 42.74232581561669 35.80698513261597 6.998080248294003
  endloop
endfacet
facet normal 0.9999962830708455 -0.00272650774683473 0.0
  outer loop
    vertex 42.74232581561669 35.80698513261597 1.9980802482940023
    vertex 42.69765008842398 19.421349996218847 6.998080248294003
    vertex 42.69765008842398 19.421349996218847 1.9980802482940023
  endloop
endfacet
facet normal -0.912700812373488 0.40862847073200237 0.0
  outer loop
    vertex 42.69765008842398 19.421349996218847 1.9980802482940023
    vertex 47.68333079205712 30.557223177765156 6.998080248294003
    vertex 47.68333079205712 30.557223177765156 1.9980802482940023
  endloop
endfacet
facet normal -0.912700812373488 0.40862847073200237 0.0
  outer loop
    vertex 47.68333079205712 30.557223177765156 6.998080248294003
    vertex 42.69765008842398 19.421349996218847 1.9980802482940023
    vertex 42.69765008842398 19.421349996218847 6.998080248294003
  endloop
endfacet
facet normal 0.00272650774683473 0.9999962830708455 0.0
  outer loop
    vertex 47.68333079205712 30.557223177765156 6.998080248294003
    vertex 49.215892145422394 30.55304462183131 1.9980802482940023
    vertex 47.68333079205712 30.557223177765156 1.9980802482940023
  endloop
endfacet
facet normal 0.00272650774683473 0.9999962830708455 0.0
  outer loop
    vertex 49.215892145422394 30.55304462183131 1.9980802482940023
    vertex 47.68333079205712 30.557223177765156 6.998080248294003
    vertex 49.215892145422394 30.55304462183131 6.998080248294003
  endloop
endfacet
facet normal 0.9160714876284967 0.401014999163514 0.0
  outer loop
    vertex 54.10246082638394 19.39025457581114 6.998080248294003
    vertex 49.215892145422394 30.55304462183131 1.9980802482940023
    vertex 49.215892145422394 30.55304462183131 6.998080248294003
  endloop
endfacet
facet normal 0.9160714876284967 0.401014999163514 0.0
  outer loop
    vertex 49.215892145422394 30.55304462183131 1.9980802482940023
    vertex 54.10246082638394 19.39025457581114 6.998080248294003
    vertex 54.10246082638394 19.39025457581114 1.9980802482940023
  endloop
endfacet
facet normal -0.9999962830708455 0.00272650774683473 0.0
  outer loop
    vertex 54.10246082638394 19.39025457581114 1.9980802482940023
    vertex 54.14713655357665 35.77588971220826 6.998080248294003
    vertex 54.14713655357665 35.77588971220826 1.9980802482940023
  endloop
endfacet
facet normal -0.9999962830708455 0.00272650774683473 0.0
  outer loop
    vertex 54.14713655357665 35.77588971220826 6.998080248294003
    vertex 54.10246082638394 19.39025457581114 1.9980802482940023
    vertex 54.10246082638394 19.39025457581114 6.998080248294003
  endloop
endfacet
facet normal 0.00272650774683473 0.9999962830708455 0.0
  outer loop
    vertex 54.14713655357665 35.77588971220826 6.998080248294003
    vertex 56.50983530668146 35.76944777181025 1.9980802482940023
    vertex 54.14713655357665 35.77588971220826 1.9980802482940023
  endloop
endfacet
facet normal 0.00272650774683473 0.9999962830708455 0.0
  outer loop
    vertex 56.50983530668146 35.76944777181025 1.9980802482940023
    vertex 54.14713655357665 35.77588971220826 6.998080248294003
    vertex 56.50983530668146 35.76944777181025 6.998080248294003
  endloop
endfacet
facet normal 0.9999962830708455 -0.00272650774683473 0.0
  outer loop
    vertex 56.457986391802315 16.752915645469393 6.998080248294003
    vertex 56.50983530668146 35.76944777181025 1.9980802482940023
    vertex 56.50983530668146 35.76944777181025 6.998080248294003
  endloop
endfacet
facet normal 0.9999962830708455 -0.00272650774683473 0.0
  outer loop
    vertex 56.50983530668146 35.76944777181025 1.9980802482940023
    vertex 56.457986391802315 16.752915645469393 6.998080248294003
    vertex 56.457986391802315 16.752915645469393 1.9980802482940023
  endloop
endfacet
facet normal -0.0027265077468347295 -0.9999962830708454 0.0
  outer loop
    vertex 56.457986391802315 16.752915645469393 6.998080248294003
    vertex 53.00972334673043 16.76231739632055 1.9980802482940023
    vertex 56.457986391802315 16.752915645469393 1.9980802482940023
  endloop
endfacet
facet normal -0.0027265077468347295 -0.9999962830708454 0.0
  outer loop
    vertex 53.00972334673043 16.76231739632055 1.9980802482940023
    vertex 56.457986391802315 16.752915645469393 6.998080248294003
    vertex 53.00972334673043 16.76231739632055 6.998080248294003
  endloop
endfacet
facet normal -0.9134662888811146 -0.40691441247240717 0.0
  outer loop
    vertex 53.00972334673043 16.76231739632055 1.9980802482940023
    vertex 48.28765000854105 27.362715602547283 6.998080248294003
    vertex 48.28765000854105 27.362715602547283 1.9980802482940023
  endloop
endfacet
facet normal -0.9134662888811146 -0.40691441247240717 0.0
  outer loop
    vertex 48.28765000854105 27.362715602547283 6.998080248294003
    vertex 53.00972334673043 16.76231739632055 1.9980802482940023
    vertex 53.00972334673043 16.76231739632055 6.998080248294003
  endloop
endfacet
facet normal 0.9165629311993578 -0.3998904764447905 0.0
  outer loop
    vertex 43.6738704358136 16.78777176621756 6.998080248294003
    vertex 48.28765000854105 27.362715602547283 1.9980802482940023
    vertex 48.28765000854105 27.362715602547283 6.998080248294003
  endloop
endfacet
facet normal 0.9165629311993578 -0.3998904764447905 0.0
  outer loop
    vertex 48.28765000854105 27.362715602547283 1.9980802482940023
    vertex 43.6738704358136 16.78777176621756 6.998080248294003
    vertex 43.6738704358136 16.78777176621756 1.9980802482940023
  endloop
endfacet
facet normal -0.00272650774683473 -0.9999962830708455 0.0
  outer loop
    vertex 43.6738704358136 16.78777176621756 6.998080248294003
    vertex 40.16175066768483 16.797347623565962 1.9980802482940023
    vertex 43.6738704358136 16.78777176621756 1.9980802482940023
  endloop
endfacet
facet normal -0.00272650774683473 -0.9999962830708455 0.0
  outer loop
    vertex 40.16175066768483 16.797347623565962 1.9980802482940023
    vertex 43.6738704358136 16.78777176621756 6.998080248294003
    vertex 40.16175066768483 16.797347623565962 6.998080248294003
  endloop
endfacet
facet normal -0.9999962830708455 0.00272650774683473 0.0
  outer loop
    vertex 40.16175066768483 16.797347623565962 1.9980802482940023
    vertex 40.21359958256397 35.81387974990682 6.998080248294003
    vertex 40.21359958256397 35.81387974990682 1.9980802482940023
  endloop
endfacet
facet normal -0.9999962830708455 0.00272650774683473 0.0
  outer loop
    vertex 40.21359958256397 35.81387974990682 6.998080248294003
    vertex 40.16175066768483 16.797347623565962 1.9980802482940023
    vertex 40.16175066768483 16.797347623565962 6.998080248294003
  endloop
endfacet
facet normal -0.0 -0.0 -1.0
  outer loop
    vertex 40.09952681078754 -16.88478718060042 1.9981472354261824
    vertex 42.46223434590886 -19.515693949438223 1.9981472354261824
    vertex 40.09952681078754 -35.901389990306676 1.9981472354261824
  endloop
endfacet
facet normal -0.0 -0.0 -1.0
  outer loop
    vertex 42.46223434590886 -19.515693949438223 1.9981472354261824
    vertex 40.09952681078754 -16.88478718060042 1.9981472354261824
    vertex 43.5478026728565 -16.88478718060042 1.9981472354261824
  endloop
endfacet
facet normal -0.0 -0.0 -1.0
  outer loop
    vertex 42.46223434590886 -19.515693949438223 1.9981472354261824
    vertex 43.5478026728565 -16.88478718060042 1.9981472354261824
    vertex 47.37922029737758 -30.66511923679455 1.9981472354261824
  endloop
endfacet
facet normal -0.0 -0.0 -1.0
  outer loop
    vertex 47.37922029737758 -30.66511923679455 1.9981472354261824
    vertex 43.5478026728565 -16.88478718060042 1.9981472354261824
    vertex 48.29876052726263 -27.47227121636032 1.9981472354261824
  endloop
endfacet
facet normal -0.0 -0.0 -1.0
  outer loop
    vertex 47.37922029737758 -30.66511923679455 1.9981472354261824
    vertex 48.29876052726263 -27.47227121636032 1.9981472354261824
    vertex 48.911787347186 -30.66511923679455 1.9981472354261824
  endloop
endfacet
facet normal -0.0 -0.0 -1.0
  outer loop
    vertex 48.911787347186 -30.66511923679455 1.9981472354261824
    vertex 48.29876052726263 -27.47227121636032 1.9981472354261824
    vertex 52.88369028460618 -16.88478718060042 1.9981472354261824
  endloop
endfacet
facet normal -0.0 -0.0 -1.0
  outer loop
    vertex 48.911787347186 -30.66511923679455 1.9981472354261824
    vertex 52.88369028460618 -16.88478718060042 1.9981472354261824
    vertex 53.86708747489992 -19.515693949438223 1.9981472354261824
  endloop
endfacet
facet normal -0.0 -0.0 -1.0
  outer loop
    vertex 53.86708747489992 -19.515693949438223 1.9981472354261824
    vertex 52.88369028460618 -16.88478718060042 1.9981472354261824
    vertex 56.39582310708383 -16.88478718060042 1.9981472354261824
  endloop
endfacet
facet normal -0.0 -0.0 -1.0
  outer loop
    vertex 53.86708747489992 -19.515693949438223 1.9981472354261824
    vertex 56.39582310708383 -16.88478718060042 1.9981472354261824
    vertex 53.86708747489992 -35.901389990306676 1.9981472354261824
  endloop
endfacet
facet normal -0.0 -0.0 -1.0
  outer loop
    vertex 53.86708747489992 -35.901389990306676 1.9981472354261824
    vertex 56.39582310708383 -16.88478718060042 1.9981472354261824
    vertex 56.39582310708383 -35.901389990306676 1.9981472354261824
  endloop
endfacet
facet normal -0.0 -0.0 -1.0
  outer loop
    vertex 42.46223434590886 -35.901389990306676 1.9981472354261824
    vertex 40.09952681078754 -35.901389990306676 1.9981472354261824
    vertex 42.46223434590886 -19.515693949438223 1.9981472354261824
  endloop
endfacet
facet normal 0.0 0.0 1.0
  outer loop
    vertex 56.39582310708383 -35.901389990306676 6.998147235426182
    vertex 53.86708747489992 -19.515693949438223 6.998147235426182
    vertex 53.86708747489992 -35.901389990306676 6.998147235426182
  endloop
endfacet
facet normal 0.0 0.0 1.0
  outer loop
    vertex 42.46223434590886 -35.901389990306676 6.998147235426182
    vertex 40.09952681078754 -16.88478718060042 6.998147235426182
    vertex 40.09952681078754 -35.901389990306676 6.998147235426182
  endloop
endfacet
facet normal 0.0 0.0 1.0
  outer loop
    vertex 40.09952681078754 -16.88478718060042 6.998147235426182
    vertex 42.46223434590886 -35.901389990306676 6.998147235426182
    vertex 42.46223434590886 -19.515693949438223 6.998147235426182
  endloop
endfacet
facet normal 0.0 0.0 1.0
  outer loop
    vertex 40.09952681078754 -16.88478718060042 6.998147235426182
    vertex 42.46223434590886 -19.515693949438223 6.998147235426182
    vertex 43.5478026728565 -16.88478718060042 6.998147235426182
  endloop
endfacet
facet normal 0.0 0.0 1.0
  outer loop
    vertex 43.5478026728565 -16.88478718060042 6.998147235426182
    vertex 42.46223434590886 -19.515693949438223 6.998147235426182
    vertex 47.37922029737758 -30.66511923679455 6.998147235426182
  endloop
endfacet
facet normal 0.0 0.0 1.0
  outer loop
    vertex 43.5478026728565 -16.88478718060042 6.998147235426182
    vertex 47.37922029737758 -30.66511923679455 6.998147235426182
    vertex 48.29876052726263 -27.47227121636032 6.998147235426182
  endloop
endfacet
facet normal 0.0 0.0 1.0
  outer loop
    vertex 48.29876052726263 -27.47227121636032 6.998147235426182
    vertex 47.37922029737758 -30.66511923679455 6.998147235426182
    vertex 48.911787347186 -30.66511923679455 6.998147235426182
  endloop
endfacet
facet normal 0.0 0.0 1.0
  outer loop
    vertex 48.29876052726263 -27.47227121636032 6.998147235426182
    vertex 48.911787347186 -30.66511923679455 6.998147235426182
    vertex 52.88369028460618 -16.88478718060042 6.998147235426182
  endloop
endfacet
facet normal 0.0 0.0 1.0
  outer loop
    vertex 52.88369028460618 -16.88478718060042 6.998147235426182
    vertex 48.911787347186 -30.66511923679455 6.998147235426182
    vertex 53.86708747489992 -19.515693949438223 6.998147235426182
  endloop
endfacet
facet normal 0.0 0.0 1.0
  outer loop
    vertex 52.88369028460618 -16.88478718060042 6.998147235426182
    vertex 53.86708747489992 -19.515693949438223 6.998147235426182
    vertex 56.39582310708383 -16.88478718060042 6.998147235426182
  endloop
endfacet
facet normal 0.0 0.0 1.0
  outer loop
    vertex 56.39582310708383 -16.88478718060042 6.998147235426182
    vertex 53.86708747489992 -19.515693949438223 6.998147235426182
    vertex 56.39582310708383 -35.901389990306676 6.998147235426182
  endloop
endfacet
facet normal 0.0 -1.0 0.0
  outer loop
    vertex 56.39582310708383 -35.901389990306676 6.998147235426182
    vertex 53.86708747489992 -35.901389990306676 1.9981472354261824
    vertex 56.39582310708383 -35.901389990306676 1.9981472354261824
  endloop
endfacet
facet normal 0.0 -1.0 0.0
  outer loop
    vertex 53.86708747489992 -35.901389990306676 1.9981472354261824
    vertex 56.39582310708383 -35.901389990306676 6.998147235426182
    vertex 53.86708747489992 -35.901389990306676 6.998147235426182
  endloop
endfacet
facet normal -1.0 0.0 0.0
  outer loop
    vertex 53.86708747489992 -19.515693949438223 6.998147235426182
    vertex 53.86708747489992 -35.901389990306676 1.9981472354261824
    vertex 53.86708747489992 -35.901389990306676 6.998147235426182
  endloop
endfacet
facet normal -1.0 0.0 0.0
  outer loop
    vertex 53.86708747489992 -35.901389990306676 1.9981472354261824
    vertex 53.86708747489992 -19.515693949438223 6.998147235426182
    vertex 53.86708747489992 -19.515693949438223 1.9981472354261824
  endloop
endfacet
facet normal 0.9138115486202572 -0.40613846605344756 0.0
  outer loop
    vertex 53.86708747489992 -19.515693949438223 1.9981472354261824
    vertex 48.911787347186 -30.66511923679455 6.998147235426182
    vertex 48.911787347186 -30.66511923679455 1.9981472354261824
  endloop
endfacet
facet normal 0.9138115486202572 -0.40613846605344756 0.0
  outer loop
    vertex 48.911787347186 -30.66511923679455 6.998147235426182
    vertex 53.86708747489992 -19.515693949438223 1.9981472354261824
    vertex 53.86708747489992 -19.515693949438223 6.998147235426182
  endloop
endfacet
facet normal 0.0 -1.0 0.0
  outer loop
    vertex 48.911787347186 -30.66511923679455 6.998147235426182
    vertex 47.37922029737758 -30.66511923679455 1.9981472354261824
    vertex 48.911787347186 -30.66511923679455 1.9981472354261824
  endloop
endfacet
facet normal 0.0 -1.0 0.0
  outer loop
    vertex 47.37922029737758 -30.66511923679455 1.9981472354261824
    vertex 48.911787347186 -30.66511923679455 6.998147235426182
    vertex 47.37922029737758 -30.66511923679455 6.998147235426182
  endloop
endfacet
facet normal -0.9149747121538605 -0.4035111846268458 0.0
  outer loop
    vertex 42.46223434590886 -19.515693949438223 6.998147235426182
    vertex 47.37922029737758 -30.66511923679455 1.9981472354261824
    vertex 47.37922029737758 -30.66511923679455 6.998147235426182
  endloop
endfacet
facet normal -0.9149747121538605 -0.4035111846268458 0.0
  outer loop
    vertex 47.37922029737758 -30.66511923679455 1.9981472354261824
    vertex 42.46223434590886 -19.515693949438223 6.998147235426182
    vertex 42.46223434590886 -19.515693949438223 1.9981472354261824
  endloop
endfacet
facet normal 1.0 0.0 0.0
  outer loop
    vertex 42.46223434590886 -19.515693949438223 1.9981472354261824
    vertex 42.46223434590886 -35.901389990306676 6.998147235426182
    vertex 42.46223434590886 -35.901389990306676 1.9981472354261824
  endloop
endfacet
facet normal 1.0 0.0 0.0
  outer loop
    vertex 42.46223434590886 -35.901389990306676 6.998147235426182
    vertex 42.46223434590886 -19.515693949438223 1.9981472354261824
    vertex 42.46223434590886 -19.515693949438223 6.998147235426182
  endloop
endfacet
facet normal 0.0 -1.0 0.0
  outer loop
    vertex 42.46223434590886 -35.901389990306676 6.998147235426182
    vertex 40.09952681078754 -35.901389990306676 1.9981472354261824
    vertex 42.46223434590886 -35.901389990306676 1.9981472354261824
  endloop
endfacet
facet normal 0.0 -1.0 0.0
  outer loop
    vertex 40.09952681078754 -35.901389990306676 1.9981472354261824
    vertex 42.46223434590886 -35.901389990306676 6.998147235426182
    vertex 40.09952681078754 -35.901389990306676 6.998147235426182
  endloop
endfacet
facet normal -1.0 0.0 0.0
  outer loop
    vertex 40.09952681078754 -16.88478718060042 6.998147235426182
    vertex 40.09952681078754 -35.901389990306676 1.9981472354261824
    vertex 40.09952681078754 -35.901389990306676 6.998147235426182
  endloop
endfacet
facet normal -1.0 0.0 0.0
  outer loop
    vertex 40.09952681078754 -35.901389990306676 1.9981472354261824
    vertex 40.09952681078754 -16.88478718060042 6.998147235426182
    vertex 40.09952681078754 -16.88478718060042 1.9981472354261824
  endloop
endfacet
facet normal 0.0 1.0 0.0
  outer loop
    vertex 40.09952681078754 -16.88478718060042 6.998147235426182
    vertex 43.5478026728565 -16.88478718060042 1.9981472354261824
    vertex 40.09952681078754 -16.88478718060042 1.9981472354261824
  endloop
endfacet
facet normal 0.0 1.0 0.0
  outer loop
    vertex 43.5478026728565 -16.88478718060042 1.9981472354261824
    vertex 40.09952681078754 -16.88478718060042 6.998147235426182
    vertex 43.5478026728565 -16.88478718060042 6.998147235426182
  endloop
endfacet
facet normal 0.912353438293729 0.40940347291347073 0.0
  outer loop
    vertex 43.5478026728565 -16.88478718060042 1.9981472354261824
    vertex 48.29876052726263 -27.47227121636032 6.998147235426182
    vertex 48.29876052726263 -27.47227121636032 1.9981472354261824
  endloop
endfacet
facet normal 0.912353438293729 0.40940347291347073 0.0
  outer loop
    vertex 48.29876052726263 -27.47227121636032 6.998147235426182
    vertex 43.5478026728565 -16.88478718060042 1.9981472354261824
    vertex 43.5478026728565 -16.88478718060042 6.998147235426182
  endloop
endfacet
facet normal -0.9176498288817889 0.39738997414784333 0.0
  outer loop
    vertex 52.88369028460618 -16.88478718060042 6.998147235426182
    vertex 48.29876052726263 -27.47227121636032 1.9981472354261824
    vertex 48.29876052726263 -27.47227121636032 6.998147235426182
  endloop
endfacet
facet normal -0.9176498288817889 0.39738997414784333 0.0
  outer loop
    vertex 48.29876052726263 -27.47227121636032 1.9981472354261824
    vertex 52.88369028460618 -16.88478718060042 6.998147235426182
    vertex 52.88369028460618 -16.88478718060042 1.9981472354261824
  endloop
endfacet
facet normal 0.0 1.0 0.0
  outer loop
    vertex 52.88369028460618 -16.88478718060042 6.998147235426182
    vertex 56.39582310708383 -16.88478718060042 1.9981472354261824
    vertex 52.88369028460618 -16.88478718060042 1.9981472354261824
  endloop
endfacet
facet normal 0.0 1.0 0.0
  outer loop
    vertex 56.39582310708383 -16.88478718060042 1.9981472354261824
    vertex 52.88369028460618 -16.88478718060042 6.998147235426182
    vertex 56.39582310708383 -16.88478718060042 6.998147235426182
  endloop
endfacet
facet normal 1.0 0.0 0.0
  outer loop
    vertex 56.39582310708383 -16.88478718060042 1.9981472354261824
    vertex 56.39582310708383 -35.901389990306676 6.998147235426182
    vertex 56.39582310708383 -35.901389990306676 1.9981472354261824
  endloop
endfacet
facet normal 1.0 0.0 0.0
  outer loop
    vertex 56.39582310708383 -35.901389990306676 6.998147235426182
    vertex 56.39582310708383 -16.88478718060042 1.9981472354261824
    vertex 56.39582310708383 -16.88478718060042 6.998147235426182
  endloop
endfacet
facet normal -0.0 -0.0 -1.0
  outer loop
    vertex -53.864462882983304 -16.821905663419876 1.991472928887335
    vertex -56.39319851516722 -35.83850847312613 1.991472928887335
    vertex -56.39319851516722 -16.821905663419876 1.991472928887335
  endloop
endfacet
facet normal -0.0 -0.0 -1.0
  outer loop
    vertex -56.39319851516722 -35.83850847312613 1.991472928887335
    vertex -53.864462882983304 -16.821905663419876 1.991472928887335
    vertex -53.864462882983304 -33.590743466740435 1.991472928887335
  endloop
endfacet
facet normal -0.0 -0.0 -1.0
  outer loop
    vertex -56.39319851516722 -35.83850847312613 1.991472928887335
    vertex -53.864462882983304 -33.590743466740435 1.991472928887335
    vertex -45.37148714862827 -35.83850847312613 1.991472928887335
  endloop
endfacet
facet normal -0.0 -0.0 -1.0
  outer loop
    vertex -45.37148714862827 -35.83850847312613 1.991472928887335
    vertex -53.864462882983304 -33.590743466740435 1.991472928887335
    vertex -45.37148714862827 -33.590743466740435 1.991472928887335
  endloop
endfacet
facet normal 0.0 0.0 1.0
  outer loop
    vertex -56.39319851516722 -35.83850847312613 6.991472928887335
    vertex -53.864462882983304 -33.590743466740435 6.991472928887335
    vertex -56.39319851516722 -16.821905663419876 6.991472928887335
  endloop
endfacet
facet normal 0.0 0.0 1.0
  outer loop
    vertex -53.864462882983304 -33.590743466740435 6.991472928887335
    vertex -56.39319851516722 -35.83850847312613 6.991472928887335
    vertex -45.37148714862827 -35.83850847312613 6.991472928887335
  endloop
endfacet
facet normal 0.0 0.0 1.0
  outer loop
    vertex -53.864462882983304 -33.590743466740435 6.991472928887335
    vertex -45.37148714862827 -35.83850847312613 6.991472928887335
    vertex -45.37148714862827 -33.590743466740435 6.991472928887335
  endloop
endfacet
facet normal 0.0 0.0 1.0
  outer loop
    vertex -53.864462882983304 -16.821905663419876 6.991472928887335
    vertex -56.39319851516722 -16.821905663419876 6.991472928887335
    vertex -53.864462882983304 -33.590743466740435 6.991472928887335
  endloop
endfacet
facet normal 0.0 -1.0 0.0
  outer loop
    vertex -45.37148714862827 -35.83850847312613 6.991472928887335
    vertex -56.39319851516722 -35.83850847312613 1.991472928887335
    vertex -45.37148714862827 -35.83850847312613 1.991472928887335
  endloop
endfacet
facet normal 0.0 -1.0 0.0
  outer loop
    vertex -56.39319851516722 -35.83850847312613 1.991472928887335
    vertex -45.37148714862827 -35.83850847312613 6.991472928887335
    vertex -56.39319851516722 -35.83850847312613 6.991472928887335
  endloop
endfacet
facet normal -1.0 0.0 0.0
  outer loop
    vertex -56.39319851516722 -16.821905663419876 6.991472928887335
    vertex -56.39319851516722 -35.83850847312613 1.991472928887335
    vertex -56.39319851516722 -35.83850847312613 6.991472928887335
  endloop
endfacet
facet normal -1.0 0.0 0.0
  outer loop
    vertex -56.39319851516722 -35.83850847312613 1.991472928887335
    vertex -56.39319851516722 -16.821905663419876 6.991472928887335
    vertex -56.39319851516722 -16.821905663419876 1.991472928887335
  endloop
endfacet
facet normal 0.0 1.0 0.0
  outer loop
    vertex -56.39319851516722 -16.821905663419876 6.991472928887335
    vertex -53.864462882983304 -16.821905663419876 1.991472928887335
    vertex -56.39319851516722 -16.821905663419876 1.991472928887335
  endloop
endfacet
facet normal 0.0 1.0 0.0
  outer loop
    vertex -53.864462882983304 -16.821905663419876 1.991472928887335
    vertex -56.39319851516722 -16.821905663419876 6.991472928887335
    vertex -53.864462882983304 -16.821905663419876 6.991472928887335
  endloop
endfacet
facet normal 1.0 0.0 0.0
  outer loop
    vertex -53.864462882983304 -16.821905663419876 1.991472928887335
    vertex -53.864462882983304 -33.590743466740435 6.991472928887335
    vertex -53.864462882983304 -33.590743466740435 1.991472928887335
  endloop
endfacet
facet normal 1.0 0.0 0.0
  outer loop
    vertex -53.864462882983304 -33.590743466740435 6.991472928887335
    vertex -53.864462882983304 -16.821905663419876 1.991472928887335
    vertex -53.864462882983304 -16.821905663419876 6.991472928887335
  endloop
endfacet
facet normal 0.0 1.0 0.0
  outer loop
    vertex -53.864462882983304 -33.590743466740435 6.991472928887335
    vertex -45.37148714862827 -33.590743466740435 1.991472928887335
    vertex -53.864462882983304 -33.590743466740435 1.991472928887335
  endloop
endfacet
facet normal 0.0 1.0 0.0
  outer loop
    vertex -45.37148714862827 -33.590743466740435 1.991472928887335
    vertex -53.864462882983304 -33.590743466740435 6.991472928887335
    vertex -45.37148714862827 -33.590743466740435 6.991472928887335
  endloop
endfacet
facet normal 1.0 0.0 0.0
  outer loop
    vertex -45.37148714862827 -33.590743466740435 1.991472928887335
    vertex -45.37148714862827 -35.83850847312613 6.991472928887335
    vertex -45.37148714862827 -35.83850847312613 1.991472928887335
  endloop
endfacet
facet normal 1.0 0.0 0.0
  outer loop
    vertex -45.37148714862827 -35.83850847312613 6.991472928887335
    vertex -45.37148714862827 -33.590743466740435 1.991472928887335
    vertex -45.37148714862827 -33.590743466740435 6.991472928887335
  endloop
endfacet
facet normal 0.0 0.0 -1.0
  outer loop
    vertex -47.93111627848021 16.930327145427434 1.9917202258810576
    vertex -45.40238064629278 35.94692995513322 1.9917202258810576
    vertex -45.4023806462963 16.930327145426965 1.9917202258810576
  endloop
endfacet
facet normal 0.0 0.0 -1.0
  outer loop
    vertex -45.40238064629278 35.94692995513322 1.9917202258810576
    vertex -47.93111627848021 16.930327145427434 1.9917202258810576
    vertex -47.931116278477106 33.69916494874799 1.9917202258810576
  endloop
endfacet
facet normal 0.0 0.0 -1.0
  outer loop
    vertex -45.40238064629278 35.94692995513322 1.9917202258810576
    vertex -47.931116278477106 33.69916494874799 1.9917202258810576
    vertex -56.424092012831736 35.94692995513526 1.9917202258810576
  endloop
endfacet
facet normal 0.0 0.0 -1.0
  outer loop
    vertex -56.424092012831736 35.94692995513526 1.9917202258810576
    vertex -47.931116278477106 33.69916494874799 1.9917202258810576
    vertex -56.42409201283214 33.69916494874957 1.9917202258810576
  endloop
endfacet
facet normal 0.0 0.0 1.0
  outer loop
    vertex -45.40238064629278 35.94692995513322 6.991720225881058
    vertex -47.931116278477106 33.69916494874799 6.991720225881058
    vertex -45.4023806462963 16.930327145426965 6.991720225881058
  endloop
endfacet
facet normal 0.0 0.0 1.0
  outer loop
    vertex -47.931116278477106 33.69916494874799 6.991720225881058
    vertex -45.40238064629278 35.94692995513322 6.991720225881058
    vertex -56.424092012831736 35.94692995513526 6.991720225881058
  endloop
endfacet
facet normal 0.0 0.0 1.0
  outer loop
    vertex -47.931116278477106 33.69916494874799 6.991720225881058
    vertex -56.424092012831736 35.94692995513526 6.991720225881058
    vertex -56.42409201283214 33.69916494874957 6.991720225881058
  endloop
endfacet
facet normal 0.0 0.0 1.0
  outer loop
    vertex -47.93111627848021 16.930327145427434 6.991720225881058
    vertex -45.4023806462963 16.930327145426965 6.991720225881058
    vertex -47.931116278477106 33.69916494874799 6.991720225881058
  endloop
endfacet
facet normal 1.8527673952709392e-13 1.0 0.0
  outer loop
    vertex -56.424092012831736 35.94692995513526 6.991720225881058
    vertex -45.40238064629278 35.94692995513322 1.9917202258810576
    vertex -56.424092012831736 35.94692995513526 1.9917202258810576
  endloop
endfacet
facet normal 1.8527673952709392e-13 1.0 0.0
  outer loop
    vertex -45.40238064629278 35.94692995513322 1.9917202258810576
    vertex -56.424092012831736 35.94692995513526 6.991720225881058
    vertex -45.40238064629278 35.94692995513322 6.991720225881058
  endloop
endfacet
facet normal 1.0 -1.8527673952709392e-13 0.0
  outer loop
    vertex -45.4023806462963 16.930327145426965 6.991720225881058
    vertex -45.40238064629278 35.94692995513322 1.9917202258810576
    vertex -45.40238064629278 35.94692995513322 6.991720225881058
  endloop
endfacet
facet normal 1.0 -1.8527673952709392e-13 0.0
  outer loop
    vertex -45.40238064629278 35.94692995513322 1.9917202258810576
    vertex -45.4023806462963 16.930327145426965 6.991720225881058
    vertex -45.4023806462963 16.930327145426965 1.9917202258810576
  endloop
endfacet
facet normal -1.8527673952709392e-13 -1.0 0.0
  outer loop
    vertex -45.4023806462963 16.930327145426965 6.991720225881058
    vertex -47.93111627848021 16.930327145427434 1.9917202258810576
    vertex -45.4023806462963 16.930327145426965 1.9917202258810576
  endloop
endfacet
facet normal -1.8527673952709392e-13 -1.0 0.0
  outer loop
    vertex -47.93111627848021 16.930327145427434 1.9917202258810576
    vertex -45.4023806462963 16.930327145426965 6.991720225881058
    vertex -47.93111627848021 16.930327145427434 6.991720225881058
  endloop
endfacet
facet normal -1.0 1.8527673952709392e-13 0.0
  outer loop
    vertex -47.93111627848021 16.930327145427434 1.9917202258810576
    vertex -47.931116278477106 33.69916494874799 6.991720225881058
    vertex -47.931116278477106 33.69916494874799 1.9917202258810576
  endloop
endfacet
facet normal -1.0 1.8527673952709392e-13 0.0
  outer loop
    vertex -47.931116278477106 33.69916494874799 6.991720225881058
    vertex -47.93111627848021 16.930327145427434 1.9917202258810576
    vertex -47.93111627848021 16.930327145427434 6.991720225881058
  endloop
endfacet
facet normal -1.8527673952709394e-13 -1.0 0.0
  outer loop
    vertex -47.931116278477106 33.69916494874799 6.991720225881058
    vertex -56.42409201283214 33.69916494874957 1.9917202258810576
    vertex -47.931116278477106 33.69916494874799 1.9917202258810576
  endloop
endfacet
facet normal -1.8527673952709394e-13 -1.0 0.0
  outer loop
    vertex -56.42409201283214 33.69916494874957 1.9917202258810576
    vertex -47.931116278477106 33.69916494874799 6.991720225881058
    vertex -56.42409201283214 33.69916494874957 6.991720225881058
  endloop
endfacet
facet normal -1.0 1.8527673952709392e-13 0.0
  outer loop
    vertex -56.42409201283214 33.69916494874957 1.9917202258810576
    vertex -56.424092012831736 35.94692995513526 6.991720225881058
    vertex -56.424092012831736 35.94692995513526 1.9917202258810576
  endloop
endfacet
facet normal -1.0 1.8527673952709392e-13 0.0
  outer loop
    vertex -56.424092012831736 35.94692995513526 6.991720225881058
    vertex -56.42409201283214 33.69916494874957 1.9917202258810576
    vertex -56.42409201283214 33.69916494874957 6.991720225881058
  endloop
endfacet
endsolid RFIDtagholderTF_ML
